%FSAX25Y25*%
%MOIN*%
G70*
G01*
G75*
G04 Layer_Color=8388736*
%ADD10R,0.13780X0.02362*%
%ADD11R,0.10236X0.02362*%
%ADD12R,0.08661X0.02362*%
%ADD13R,0.03543X0.07874*%
%ADD14C,0.02000*%
%ADD15R,0.07874X0.07874*%
%ADD16C,0.07874*%
%ADD17R,0.08661X0.11811*%
%ADD18C,0.03000*%
%ADD19C,0.01000*%
%ADD20C,0.00787*%
%ADD21R,0.14579X0.03162*%
%ADD22R,0.11036X0.03162*%
%ADD23R,0.09461X0.03162*%
%ADD24R,0.04343X0.08674*%
%ADD25R,0.08674X0.08674*%
%ADD26C,0.08674*%
%ADD27R,0.09461X0.12611*%
D21*
X0074500Y0235539D02*
D03*
Y0244988D02*
D03*
Y0254437D02*
D03*
Y0263886D02*
D03*
D22*
X0076272Y0248138D02*
D03*
Y0251287D02*
D03*
D23*
X0077059Y0238689D02*
D03*
Y0241839D02*
D03*
Y0260736D02*
D03*
Y0257587D02*
D03*
D24*
X0276240Y0226661D02*
D03*
X0271240D02*
D03*
X0286240D02*
D03*
X0291240D02*
D03*
X0296240D02*
D03*
X0281240D02*
D03*
X0301240D02*
D03*
D25*
X0267839Y0195413D02*
D03*
D26*
X0277839D02*
D03*
X0267839Y0205413D02*
D03*
X0277839D02*
D03*
X0297839Y0195413D02*
D03*
X0287839D02*
D03*
X0307839D02*
D03*
X0297839Y0205413D02*
D03*
X0287839D02*
D03*
X0307839D02*
D03*
D27*
X0261142Y0235913D02*
D03*
X0311339D02*
D03*
M02*
