%FSAX25Y25*%
%MOIN*%
G70*
G01*
G75*
G04 Layer_Physical_Order=2*
G04 Layer_Color=16711680*
%ADD10R,0.13780X0.02362*%
%ADD11R,0.10236X0.02362*%
%ADD12R,0.08661X0.02362*%
%ADD13R,0.03543X0.07874*%
%ADD14C,0.02000*%
%ADD15R,0.07874X0.07874*%
%ADD16C,0.07874*%
%ADD17R,0.08661X0.11811*%
%ADD18C,0.03000*%
%ADD19C,0.01000*%
D10*
X0074500Y0237114D02*
D03*
Y0262311D02*
D03*
Y0265461D02*
D03*
D12*
X0077059Y0240264D02*
D03*
Y0243413D02*
D03*
Y0249713D02*
D03*
Y0246563D02*
D03*
Y0252862D02*
D03*
Y0259161D02*
D03*
Y0256012D02*
D03*
D14*
X0210539Y0237114D02*
X0217839Y0244413D01*
X0074500Y0237114D02*
X0210539D01*
X0227889Y0245913D02*
X0264206D01*
X0224389Y0249413D02*
X0227889Y0245913D01*
X0261902Y0201350D02*
Y0216976D01*
X0258902Y0193648D02*
Y0210913D01*
X0258839Y0210976D02*
Y0218413D01*
Y0210976D02*
X0258902Y0210913D01*
X0258839Y0218413D02*
X0267472Y0227047D01*
X0270472Y0225547D02*
Y0243890D01*
X0261902Y0216976D02*
X0270472Y0225547D01*
X0074500Y0263913D02*
X0196839D01*
X0272604Y0189476D02*
X0277839Y0194711D01*
X0263073Y0189476D02*
X0272604D01*
X0258902Y0193648D02*
X0263073Y0189476D01*
X0277839Y0194711D02*
Y0195413D01*
X0261902Y0201350D02*
X0267839Y0195413D01*
X0196839Y0263913D02*
Y0265413D01*
Y0264913D02*
Y0265413D01*
X0224339Y0249413D02*
X0224389D01*
X0267472Y0227047D02*
Y0242647D01*
X0264949Y0249413D02*
X0270472Y0243890D01*
X0229339Y0249413D02*
X0264949D01*
X0238839Y0241913D02*
X0241339D01*
X0240339Y0242913D02*
X0241339Y0241913D01*
X0264206Y0245913D02*
X0267472Y0242647D01*
X0217839Y0244413D02*
X0225146D01*
X0226646Y0242913D01*
X0237839D01*
X0238839D02*
X0240339D01*
D15*
X0267839Y0195413D02*
D03*
D16*
X0277839D02*
D03*
X0267839Y0205413D02*
D03*
X0277839D02*
D03*
X0297839Y0195413D02*
D03*
X0287839D02*
D03*
X0307839D02*
D03*
X0297839Y0205413D02*
D03*
X0287839D02*
D03*
X0307839D02*
D03*
D17*
X0261142Y0235913D02*
D03*
X0311339D02*
D03*
D18*
X0196839Y0264913D02*
D03*
X0224339Y0249413D02*
D03*
X0229339D02*
D03*
X0217839Y0244413D02*
D03*
X0238839Y0241913D02*
D03*
D19*
X0213540Y0264413D02*
X0302495D01*
X0208540Y0259413D02*
X0213540Y0264413D01*
X0214368Y0262413D02*
X0301667D01*
X0207966Y0256012D02*
X0214368Y0262413D01*
X0215196Y0260413D02*
X0300839D01*
X0208196Y0253413D02*
X0215196Y0260413D01*
X0216025Y0258413D02*
X0267970D01*
X0207324Y0249713D02*
X0216025Y0258413D01*
X0216853Y0256413D02*
X0267141D01*
X0207003Y0246563D02*
X0216853Y0256413D01*
X0217682Y0254413D02*
X0266313D01*
X0206682Y0243413D02*
X0217682Y0254413D01*
X0218510Y0252413D02*
X0265484D01*
X0206361Y0240264D02*
X0218510Y0252413D01*
X0077311Y0259413D02*
X0208540D01*
X0077059Y0256012D02*
X0207966D01*
X0077610Y0253413D02*
X0208196D01*
X0077059Y0249713D02*
X0207324D01*
X0077059Y0246563D02*
X0207003D01*
X0077059Y0243413D02*
X0206682D01*
X0077059Y0240264D02*
X0206361D01*
X0309839Y0189413D02*
X0321339Y0200913D01*
X0319339Y0201913D02*
Y0244742D01*
X0312839Y0195413D02*
X0319339Y0201913D01*
X0321339Y0200913D02*
Y0245570D01*
X0301667Y0262413D02*
X0319339Y0244742D01*
X0302495Y0264413D02*
X0321339Y0245570D01*
X0297839Y0205413D02*
Y0228545D01*
X0287839Y0205413D02*
Y0235716D01*
X0277839Y0205413D02*
Y0242888D01*
X0267839Y0205413D02*
X0272972Y0210547D01*
Y0244925D01*
X0077059Y0259161D02*
X0077311Y0259413D01*
X0317339Y0214913D02*
Y0243913D01*
X0307839Y0205413D02*
X0317339Y0214913D01*
X0303839Y0189413D02*
X0309839D01*
X0310339Y0195413D02*
X0312839D01*
X0297839D02*
X0303839Y0189413D01*
X0077059Y0252862D02*
X0077610Y0253413D01*
X0300839Y0260413D02*
X0317339Y0243913D01*
X0267970Y0258413D02*
X0297839Y0228545D01*
X0267141Y0256413D02*
X0287839Y0235716D01*
X0266313Y0254413D02*
X0277839Y0242888D01*
X0265484Y0252413D02*
X0272972Y0244925D01*
M02*
