%FSAX25Y25*%
%MOIN*%
G70*
G01*
G75*
G04 Layer_Physical_Order=2*
G04 Layer_Color=16711680*
%ADD10R,0.02756X0.03543*%
%ADD11R,0.08661X0.07874*%
%ADD12R,0.03543X0.02756*%
%ADD13R,0.08071X0.07480*%
%ADD14R,0.07284X0.04921*%
%ADD15R,0.11417X0.06102*%
G04:AMPARAMS|DCode=16|XSize=50mil|YSize=100mil|CornerRadius=6.25mil|HoleSize=0mil|Usage=FLASHONLY|Rotation=0.000|XOffset=0mil|YOffset=0mil|HoleType=Round|Shape=RoundedRectangle|*
%AMROUNDEDRECTD16*
21,1,0.05000,0.08750,0,0,0.0*
21,1,0.03750,0.10000,0,0,0.0*
1,1,0.01250,0.01875,-0.04375*
1,1,0.01250,-0.01875,-0.04375*
1,1,0.01250,-0.01875,0.04375*
1,1,0.01250,0.01875,0.04375*
%
%ADD16ROUNDEDRECTD16*%
%ADD17R,0.05118X0.04331*%
%ADD18R,0.04331X0.05118*%
%ADD19R,0.03937X0.09449*%
%ADD20R,0.12992X0.09449*%
%ADD21R,0.08268X0.12598*%
%ADD22R,0.08268X0.03543*%
%ADD23O,0.02756X0.10827*%
%ADD24R,0.05906X0.11811*%
%ADD25C,0.04000*%
%ADD26C,0.02000*%
%ADD27C,0.10000*%
%ADD28C,0.01500*%
%ADD29C,0.03500*%
%ADD30C,0.07087*%
%ADD31R,0.06394X0.06394*%
%ADD32C,0.05906*%
%ADD33R,0.05906X0.05906*%
%ADD34R,0.06394X0.06394*%
%ADD35O,0.07874X0.25590*%
G04:AMPARAMS|DCode=36|XSize=157.48mil|YSize=118.11mil|CornerRadius=29.53mil|HoleSize=0mil|Usage=FLASHONLY|Rotation=180.000|XOffset=0mil|YOffset=0mil|HoleType=Round|Shape=RoundedRectangle|*
%AMROUNDEDRECTD36*
21,1,0.15748,0.05906,0,0,180.0*
21,1,0.09843,0.11811,0,0,180.0*
1,1,0.05906,-0.04921,0.02953*
1,1,0.05906,0.04921,0.02953*
1,1,0.05906,0.04921,-0.02953*
1,1,0.05906,-0.04921,-0.02953*
%
%ADD36ROUNDEDRECTD36*%
%ADD37O,0.07874X0.19685*%
%ADD38O,0.21260X0.09843*%
G04:AMPARAMS|DCode=39|XSize=236.22mil|YSize=98.43mil|CornerRadius=24.61mil|HoleSize=0mil|Usage=FLASHONLY|Rotation=180.000|XOffset=0mil|YOffset=0mil|HoleType=Round|Shape=RoundedRectangle|*
%AMROUNDEDRECTD39*
21,1,0.23622,0.04921,0,0,180.0*
21,1,0.18701,0.09843,0,0,180.0*
1,1,0.04921,-0.09350,0.02461*
1,1,0.04921,0.09350,0.02461*
1,1,0.04921,0.09350,-0.02461*
1,1,0.04921,-0.09350,-0.02461*
%
%ADD39ROUNDEDRECTD39*%
%ADD40C,0.16000*%
%ADD41C,0.24410*%
%ADD42C,0.04000*%
%ADD43C,0.05000*%
%ADD44C,0.03200*%
G04:AMPARAMS|DCode=45|XSize=50mil|YSize=100mil|CornerRadius=6.25mil|HoleSize=0mil|Usage=FLASHONLY|Rotation=90.000|XOffset=0mil|YOffset=0mil|HoleType=Round|Shape=RoundedRectangle|*
%AMROUNDEDRECTD45*
21,1,0.05000,0.08750,0,0,90.0*
21,1,0.03750,0.10000,0,0,90.0*
1,1,0.01250,0.04375,0.01875*
1,1,0.01250,0.04375,-0.01875*
1,1,0.01250,-0.04375,-0.01875*
1,1,0.01250,-0.04375,0.01875*
%
%ADD45ROUNDEDRECTD45*%
G36*
X0341500Y0231000D02*
X0085783D01*
Y0487000D01*
X0085745Y0487038D01*
X0085936Y0487500D01*
X0341500D01*
Y0231000D01*
D02*
G37*
%LPC*%
G36*
X0100000Y0407583D02*
X0098814Y0407426D01*
X0097709Y0406969D01*
X0096760Y0406240D01*
X0096031Y0405291D01*
X0095574Y0404186D01*
X0095417Y0403000D01*
X0095574Y0401814D01*
X0096031Y0400709D01*
X0096760Y0399760D01*
X0097709Y0399031D01*
X0098814Y0398574D01*
X0100000Y0398417D01*
X0101186Y0398574D01*
X0102291Y0399031D01*
X0103240Y0399760D01*
X0103969Y0400709D01*
X0104426Y0401814D01*
X0104583Y0403000D01*
X0104426Y0404186D01*
X0103969Y0405291D01*
X0103240Y0406240D01*
X0102291Y0406969D01*
X0101186Y0407426D01*
X0100000Y0407583D01*
D02*
G37*
G36*
X0143000Y0377583D02*
X0141814Y0377426D01*
X0140709Y0376969D01*
X0139760Y0376240D01*
X0139031Y0375291D01*
X0138574Y0374186D01*
X0138417Y0373000D01*
X0138574Y0371814D01*
X0139031Y0370709D01*
X0139760Y0369760D01*
X0140709Y0369031D01*
X0141814Y0368574D01*
X0143000Y0368418D01*
X0144186Y0368574D01*
X0145291Y0369031D01*
X0146240Y0369760D01*
X0146969Y0370709D01*
X0147426Y0371814D01*
X0147582Y0373000D01*
X0147426Y0374186D01*
X0146969Y0375291D01*
X0146240Y0376240D01*
X0145291Y0376969D01*
X0144186Y0377426D01*
X0143000Y0377583D01*
D02*
G37*
G36*
Y0407583D02*
X0141814Y0407426D01*
X0140709Y0406969D01*
X0139760Y0406240D01*
X0139031Y0405291D01*
X0138574Y0404186D01*
X0138417Y0403000D01*
X0138574Y0401814D01*
X0139031Y0400709D01*
X0139760Y0399760D01*
X0140709Y0399031D01*
X0141814Y0398574D01*
X0143000Y0398417D01*
X0144186Y0398574D01*
X0145291Y0399031D01*
X0146240Y0399760D01*
X0146969Y0400709D01*
X0147426Y0401814D01*
X0147582Y0403000D01*
X0147426Y0404186D01*
X0146969Y0405291D01*
X0146240Y0406240D01*
X0145291Y0406969D01*
X0144186Y0407426D01*
X0143000Y0407583D01*
D02*
G37*
G36*
X0179953Y0257953D02*
X0172047D01*
Y0250047D01*
X0179953D01*
Y0257953D01*
D02*
G37*
G36*
X0117614Y0290950D02*
X0106197D01*
X0105036Y0290836D01*
X0103920Y0290497D01*
X0102891Y0289947D01*
X0101990Y0289207D01*
X0101250Y0288306D01*
X0100700Y0287277D01*
X0100361Y0286161D01*
X0100247Y0285000D01*
X0100361Y0283839D01*
X0100700Y0282723D01*
X0101250Y0281694D01*
X0101990Y0280793D01*
X0102891Y0280053D01*
X0103920Y0279503D01*
X0105036Y0279164D01*
X0106197Y0279050D01*
X0113619D01*
Y0273661D01*
X0113788Y0272373D01*
X0114286Y0271172D01*
X0115077Y0270140D01*
X0116109Y0269349D01*
X0117310Y0268851D01*
X0118598Y0268682D01*
X0119887Y0268851D01*
X0121088Y0269349D01*
X0122119Y0270140D01*
X0122911Y0271172D01*
X0123408Y0272373D01*
X0123578Y0273661D01*
Y0285472D01*
X0123408Y0286761D01*
X0122911Y0287962D01*
X0122119Y0288994D01*
X0121538Y0289440D01*
X0120920Y0289947D01*
X0119891Y0290497D01*
X0118775Y0290836D01*
X0117614Y0290950D01*
D02*
G37*
G36*
X0332685Y0277987D02*
X0331653Y0277851D01*
X0330692Y0277453D01*
X0329866Y0276819D01*
X0329232Y0275993D01*
X0328834Y0275032D01*
X0328698Y0274000D01*
X0328834Y0272968D01*
X0329232Y0272007D01*
X0329866Y0271181D01*
X0330692Y0270547D01*
X0331653Y0270149D01*
X0332685Y0270013D01*
X0333717Y0270149D01*
X0334679Y0270547D01*
X0335504Y0271181D01*
X0336138Y0272007D01*
X0336536Y0272968D01*
X0336672Y0274000D01*
X0336536Y0275032D01*
X0336138Y0275993D01*
X0335504Y0276819D01*
X0334679Y0277453D01*
X0333717Y0277851D01*
X0332685Y0277987D01*
D02*
G37*
G36*
Y0267987D02*
X0331653Y0267851D01*
X0330692Y0267453D01*
X0329866Y0266819D01*
X0329232Y0265993D01*
X0328834Y0265032D01*
X0328698Y0264000D01*
X0328834Y0262968D01*
X0329232Y0262007D01*
X0329866Y0261181D01*
X0330692Y0260547D01*
X0331653Y0260149D01*
X0332685Y0260013D01*
X0333717Y0260149D01*
X0334679Y0260547D01*
X0335504Y0261181D01*
X0336138Y0262007D01*
X0336536Y0262968D01*
X0336672Y0264000D01*
X0336536Y0265032D01*
X0336138Y0265993D01*
X0335504Y0266819D01*
X0334679Y0267453D01*
X0333717Y0267851D01*
X0332685Y0267987D01*
D02*
G37*
G36*
X0143000Y0367583D02*
X0141814Y0367426D01*
X0140709Y0366969D01*
X0139760Y0366240D01*
X0139031Y0365291D01*
X0138574Y0364186D01*
X0138417Y0363000D01*
X0138574Y0361814D01*
X0139031Y0360709D01*
X0139760Y0359760D01*
X0140709Y0359031D01*
X0141814Y0358574D01*
X0143000Y0358418D01*
X0144186Y0358574D01*
X0145291Y0359031D01*
X0146240Y0359760D01*
X0146969Y0360709D01*
X0147426Y0361814D01*
X0147582Y0363000D01*
X0147426Y0364186D01*
X0146969Y0365291D01*
X0146240Y0366240D01*
X0145291Y0366969D01*
X0144186Y0367426D01*
X0143000Y0367583D01*
D02*
G37*
G36*
X0117114Y0461450D02*
X0105697D01*
X0104536Y0461336D01*
X0103420Y0460997D01*
X0102391Y0460447D01*
X0101490Y0459707D01*
X0100750Y0458806D01*
X0100200Y0457777D01*
X0099861Y0456661D01*
X0099747Y0455500D01*
X0099861Y0454339D01*
X0100200Y0453223D01*
X0100750Y0452194D01*
X0101490Y0451293D01*
X0102391Y0450553D01*
X0103420Y0450003D01*
X0104536Y0449664D01*
X0105697Y0449550D01*
X0113119D01*
Y0444161D01*
X0113288Y0442873D01*
X0113786Y0441672D01*
X0114577Y0440640D01*
X0115609Y0439849D01*
X0116810Y0439352D01*
X0118098Y0439182D01*
X0119387Y0439352D01*
X0120588Y0439849D01*
X0121619Y0440640D01*
X0122411Y0441672D01*
X0122908Y0442873D01*
X0123078Y0444161D01*
Y0455972D01*
X0122908Y0457261D01*
X0122411Y0458462D01*
X0121619Y0459494D01*
X0121038Y0459940D01*
X0120420Y0460447D01*
X0119391Y0460997D01*
X0118275Y0461336D01*
X0117114Y0461450D01*
D02*
G37*
G36*
X0185500Y0243487D02*
X0184468Y0243351D01*
X0183507Y0242953D01*
X0182681Y0242319D01*
X0182047Y0241493D01*
X0181649Y0240532D01*
X0181513Y0239500D01*
X0181649Y0238468D01*
X0182047Y0237507D01*
X0182681Y0236681D01*
X0183507Y0236047D01*
X0184468Y0235649D01*
X0185500Y0235513D01*
X0186532Y0235649D01*
X0187493Y0236047D01*
X0188319Y0236681D01*
X0188953Y0237507D01*
X0189351Y0238468D01*
X0189487Y0239500D01*
X0189351Y0240532D01*
X0188953Y0241493D01*
X0188319Y0242319D01*
X0187493Y0242953D01*
X0186532Y0243351D01*
X0185500Y0243487D01*
D02*
G37*
G36*
X0179453Y0243453D02*
X0171547D01*
Y0235547D01*
X0179453D01*
Y0243453D01*
D02*
G37*
G36*
X0204500Y0484487D02*
X0203468Y0484351D01*
X0202507Y0483953D01*
X0201681Y0483319D01*
X0201047Y0482493D01*
X0200649Y0481532D01*
X0200513Y0480500D01*
X0200649Y0479468D01*
X0201047Y0478507D01*
X0201681Y0477681D01*
X0202507Y0477047D01*
X0203468Y0476649D01*
X0204500Y0476513D01*
X0205532Y0476649D01*
X0206493Y0477047D01*
X0207319Y0477681D01*
X0207953Y0478507D01*
X0208351Y0479468D01*
X0208487Y0480500D01*
X0208351Y0481532D01*
X0207953Y0482493D01*
X0207319Y0483319D01*
X0206493Y0483953D01*
X0205532Y0484351D01*
X0204500Y0484487D01*
D02*
G37*
G36*
X0218453Y0484453D02*
X0210547D01*
Y0476547D01*
X0210959D01*
X0211150Y0476085D01*
X0209248Y0474183D01*
X0209122Y0474199D01*
X0208339Y0474096D01*
X0207609Y0473794D01*
X0206982Y0473313D01*
X0206502Y0472686D01*
X0206199Y0471956D01*
X0206096Y0471173D01*
X0206199Y0470390D01*
X0206502Y0469660D01*
X0206982Y0469034D01*
X0207609Y0468553D01*
X0208339Y0468250D01*
X0209122Y0468147D01*
X0209905Y0468250D01*
X0210635Y0468553D01*
X0211262Y0469034D01*
X0211743Y0469660D01*
X0212045Y0470390D01*
X0212148Y0471173D01*
X0212132Y0471299D01*
X0213967Y0473134D01*
X0231471D01*
X0231641Y0472634D01*
X0231223Y0472313D01*
X0230742Y0471686D01*
X0230439Y0470956D01*
X0230336Y0470173D01*
X0230439Y0469390D01*
X0230742Y0468660D01*
X0231223Y0468034D01*
X0231849Y0467553D01*
X0232579Y0467250D01*
X0233362Y0467147D01*
X0233488Y0467164D01*
X0242461Y0458191D01*
Y0432858D01*
X0242616Y0432078D01*
X0243058Y0431416D01*
X0245800Y0428674D01*
X0245608Y0428212D01*
X0214707D01*
X0207687Y0435232D01*
X0207921Y0435705D01*
X0208362Y0435647D01*
X0209145Y0435750D01*
X0209875Y0436053D01*
X0210502Y0436534D01*
X0210983Y0437160D01*
X0211285Y0437890D01*
X0211388Y0438673D01*
Y0456037D01*
X0211483Y0456160D01*
X0211785Y0456890D01*
X0211797Y0456981D01*
X0211888Y0457673D01*
X0211785Y0458456D01*
X0211483Y0459186D01*
X0211002Y0459813D01*
X0210375Y0460294D01*
X0209645Y0460596D01*
X0208862Y0460699D01*
X0208170Y0460608D01*
X0208079Y0460596D01*
X0207349Y0460294D01*
X0206723Y0459813D01*
X0206223Y0459313D01*
X0205742Y0458686D01*
X0205653Y0458472D01*
X0205439Y0457956D01*
X0205336Y0457173D01*
Y0438673D01*
X0205395Y0438232D01*
X0204921Y0437998D01*
X0170495Y0472425D01*
X0170502Y0472534D01*
X0170983Y0473160D01*
X0171285Y0473890D01*
X0171388Y0474673D01*
X0171285Y0475456D01*
X0170983Y0476186D01*
X0170502Y0476813D01*
X0169875Y0477294D01*
X0169145Y0477596D01*
X0168362Y0477699D01*
X0167579Y0477596D01*
X0166849Y0477294D01*
X0166223Y0476813D01*
X0165742Y0476186D01*
X0165439Y0475456D01*
X0165336Y0474673D01*
X0165439Y0473890D01*
X0165742Y0473160D01*
X0166223Y0472534D01*
X0166323Y0472457D01*
Y0471673D01*
X0166478Y0470893D01*
X0166920Y0470231D01*
X0201037Y0436115D01*
X0200803Y0435641D01*
X0200362Y0435699D01*
X0199579Y0435596D01*
X0198849Y0435294D01*
X0198223Y0434813D01*
X0197742Y0434186D01*
X0197440Y0433456D01*
X0197336Y0432673D01*
X0197440Y0431890D01*
X0197742Y0431160D01*
X0198223Y0430534D01*
X0198849Y0430053D01*
X0199579Y0429750D01*
X0200362Y0429647D01*
X0200488Y0429664D01*
X0208420Y0421731D01*
X0209082Y0421289D01*
X0209862Y0421134D01*
X0237154D01*
X0238585Y0419702D01*
X0238382Y0419202D01*
X0194362D01*
X0193186Y0419086D01*
X0192055Y0418743D01*
X0191013Y0418186D01*
X0190099Y0417436D01*
X0170308Y0397645D01*
X0169862Y0397703D01*
X0168949Y0397583D01*
X0168097Y0397231D01*
X0167366Y0396670D01*
X0166805Y0395938D01*
X0166452Y0395087D01*
X0166332Y0394173D01*
X0166391Y0393728D01*
X0165603Y0392940D01*
X0165097Y0392730D01*
X0164366Y0392169D01*
X0163805Y0391438D01*
X0163452Y0390587D01*
X0163332Y0389673D01*
X0163452Y0388759D01*
X0163805Y0387908D01*
X0163833Y0387871D01*
Y0387673D01*
X0163949Y0386497D01*
X0164292Y0385366D01*
X0164849Y0384324D01*
X0165599Y0383410D01*
X0166513Y0382660D01*
X0167555Y0382103D01*
X0168686Y0381760D01*
X0169862Y0381644D01*
X0170999Y0381756D01*
X0171025Y0381731D01*
X0171107Y0381157D01*
X0162920Y0372971D01*
X0162478Y0372309D01*
X0162323Y0371529D01*
Y0357454D01*
X0161823Y0357405D01*
X0161768Y0357682D01*
X0161409Y0358220D01*
X0160871Y0358579D01*
X0160237Y0358705D01*
X0157902D01*
Y0360138D01*
X0157902Y0360138D01*
X0157746Y0360918D01*
X0157304Y0361580D01*
X0157304Y0361580D01*
X0157197Y0361687D01*
Y0367197D01*
X0155039D01*
Y0368927D01*
X0155291Y0369031D01*
X0156240Y0369760D01*
X0156969Y0370709D01*
X0157426Y0371814D01*
X0157582Y0373000D01*
X0157426Y0374186D01*
X0157322Y0374438D01*
X0159985Y0377101D01*
X0160427Y0377763D01*
X0160582Y0378543D01*
Y0409210D01*
X0160871Y0409268D01*
X0161409Y0409627D01*
X0161768Y0410164D01*
X0161894Y0410798D01*
Y0418067D01*
X0162502Y0418534D01*
X0162983Y0419160D01*
X0163285Y0419890D01*
X0163388Y0420673D01*
X0163285Y0421456D01*
X0162983Y0422186D01*
X0162502Y0422813D01*
X0161875Y0423294D01*
X0161145Y0423596D01*
X0160362Y0423699D01*
X0159579Y0423596D01*
X0158849Y0423294D01*
X0158223Y0422813D01*
X0157742Y0422186D01*
X0157439Y0421456D01*
X0157406Y0421205D01*
X0156487D01*
X0155853Y0421079D01*
X0155362Y0420751D01*
X0154871Y0421079D01*
X0154237Y0421205D01*
X0150487D01*
X0149853Y0421079D01*
X0149316Y0420720D01*
X0148957Y0420182D01*
X0148867Y0419733D01*
X0148357D01*
X0148268Y0420182D01*
X0147909Y0420720D01*
X0147371Y0421079D01*
X0146737Y0421205D01*
X0142987D01*
X0142353Y0421079D01*
X0141816Y0420720D01*
X0141457Y0420182D01*
X0141330Y0419548D01*
Y0410798D01*
X0141457Y0410164D01*
X0141816Y0409627D01*
X0142353Y0409268D01*
X0142987Y0409141D01*
X0146737D01*
X0147371Y0409268D01*
X0147909Y0409627D01*
X0148268Y0410164D01*
X0148357Y0410613D01*
X0148867D01*
X0148957Y0410164D01*
X0149316Y0409627D01*
X0149853Y0409268D01*
X0150487Y0409141D01*
X0150961D01*
Y0407073D01*
X0150709Y0406969D01*
X0149760Y0406240D01*
X0149031Y0405291D01*
X0148574Y0404186D01*
X0148417Y0403000D01*
X0148574Y0401814D01*
X0149031Y0400709D01*
X0149760Y0399760D01*
X0150709Y0399031D01*
X0151814Y0398574D01*
X0153000Y0398417D01*
X0154186Y0398574D01*
X0155291Y0399031D01*
X0156004Y0399578D01*
X0156504Y0399332D01*
Y0396668D01*
X0156004Y0396422D01*
X0155291Y0396969D01*
X0154186Y0397426D01*
X0153000Y0397583D01*
X0151814Y0397426D01*
X0150709Y0396969D01*
X0149760Y0396240D01*
X0149031Y0395291D01*
X0148574Y0394186D01*
X0148417Y0393000D01*
X0148574Y0391814D01*
X0149031Y0390709D01*
X0149760Y0389760D01*
X0150709Y0389031D01*
X0151814Y0388574D01*
X0153000Y0388418D01*
X0154186Y0388574D01*
X0155291Y0389031D01*
X0156004Y0389578D01*
X0156504Y0389332D01*
Y0379388D01*
X0154438Y0377322D01*
X0154186Y0377426D01*
X0153000Y0377583D01*
X0151814Y0377426D01*
X0150709Y0376969D01*
X0149760Y0376240D01*
X0149031Y0375291D01*
X0148574Y0374186D01*
X0148417Y0373000D01*
X0148574Y0371814D01*
X0149031Y0370709D01*
X0149760Y0369760D01*
X0150709Y0369031D01*
X0150961Y0368927D01*
Y0367197D01*
X0148803D01*
Y0358803D01*
X0150289D01*
X0150441Y0358303D01*
X0150316Y0358220D01*
X0149957Y0357682D01*
X0149830Y0357048D01*
Y0353298D01*
X0149957Y0352664D01*
X0150285Y0352173D01*
X0149957Y0351682D01*
X0149830Y0351048D01*
Y0347298D01*
X0149957Y0346664D01*
X0150316Y0346127D01*
X0150853Y0345767D01*
X0151487Y0345641D01*
X0157858D01*
X0157940Y0345020D01*
X0158242Y0344290D01*
X0158723Y0343664D01*
X0159349Y0343183D01*
X0160079Y0342880D01*
X0160862Y0342777D01*
X0161645Y0342880D01*
X0162323Y0343161D01*
X0162700Y0343023D01*
X0162823Y0342962D01*
Y0334518D01*
X0155488Y0327183D01*
X0155362Y0327199D01*
X0154579Y0327096D01*
X0153849Y0326794D01*
X0153223Y0326313D01*
X0152742Y0325686D01*
X0152439Y0324956D01*
X0152336Y0324173D01*
X0152439Y0323390D01*
X0152742Y0322660D01*
X0153223Y0322034D01*
X0153849Y0321553D01*
X0154579Y0321250D01*
X0155362Y0321147D01*
X0156145Y0321250D01*
X0156875Y0321553D01*
X0157502Y0322034D01*
X0157983Y0322660D01*
X0158285Y0323390D01*
X0158388Y0324173D01*
X0158372Y0324299D01*
X0165264Y0331191D01*
X0165743Y0331004D01*
X0165783Y0330635D01*
X0160420Y0325272D01*
X0159978Y0324610D01*
X0159870Y0324064D01*
X0158920Y0323115D01*
X0158478Y0322454D01*
X0158323Y0321673D01*
Y0315390D01*
X0158223Y0315313D01*
X0157742Y0314686D01*
X0157439Y0313956D01*
X0157336Y0313173D01*
X0157439Y0312390D01*
X0157742Y0311660D01*
X0158223Y0311034D01*
X0158849Y0310553D01*
X0159579Y0310250D01*
X0160362Y0310147D01*
X0161145Y0310250D01*
X0161875Y0310553D01*
X0162502Y0311034D01*
X0162983Y0311660D01*
X0163285Y0312390D01*
X0163388Y0313173D01*
X0163285Y0313956D01*
X0162983Y0314686D01*
X0162502Y0315313D01*
X0162401Y0315390D01*
Y0316646D01*
X0162901Y0316679D01*
X0162940Y0316390D01*
X0163242Y0315660D01*
X0163723Y0315034D01*
X0164349Y0314553D01*
X0165079Y0314250D01*
X0165862Y0314147D01*
X0166291Y0314204D01*
X0168763Y0311731D01*
X0169425Y0311289D01*
X0170205Y0311134D01*
X0172186D01*
X0172377Y0310672D01*
X0167920Y0306216D01*
X0167478Y0305554D01*
X0167323Y0304774D01*
Y0301390D01*
X0167223Y0301313D01*
X0166772Y0300726D01*
X0166635Y0300633D01*
X0166237Y0300554D01*
X0166082Y0300709D01*
X0165420Y0301151D01*
X0164640Y0301306D01*
X0164456D01*
X0161557Y0304206D01*
X0160895Y0304648D01*
X0160115Y0304803D01*
X0147953D01*
X0147172Y0304648D01*
X0146511Y0304206D01*
X0144988Y0302683D01*
X0144862Y0302699D01*
X0144079Y0302596D01*
X0143349Y0302294D01*
X0142723Y0301813D01*
X0142486Y0301504D01*
X0142025Y0301322D01*
X0141840Y0301437D01*
X0141375Y0301794D01*
X0140645Y0302096D01*
X0139862Y0302199D01*
X0139079Y0302096D01*
X0138349Y0301794D01*
X0137723Y0301313D01*
X0137242Y0300686D01*
X0137236Y0300673D01*
X0136695D01*
X0136483Y0301186D01*
X0136002Y0301813D01*
X0135375Y0302294D01*
X0134645Y0302596D01*
X0134275Y0302645D01*
X0133872Y0303180D01*
X0133902Y0303330D01*
Y0324586D01*
X0146804Y0337489D01*
X0147246Y0338150D01*
X0147401Y0338931D01*
Y0348073D01*
X0147401Y0348073D01*
X0147246Y0348853D01*
X0146804Y0349515D01*
X0132902Y0363417D01*
Y0375775D01*
X0138087Y0380961D01*
X0138927D01*
X0139031Y0380709D01*
X0139760Y0379760D01*
X0140709Y0379031D01*
X0141814Y0378574D01*
X0143000Y0378417D01*
X0144186Y0378574D01*
X0145291Y0379031D01*
X0146240Y0379760D01*
X0146969Y0380709D01*
X0147426Y0381814D01*
X0147582Y0383000D01*
X0147426Y0384186D01*
X0146969Y0385291D01*
X0146240Y0386240D01*
X0145291Y0386969D01*
X0144186Y0387426D01*
X0143000Y0387582D01*
X0141814Y0387426D01*
X0140709Y0386969D01*
X0140067Y0386476D01*
X0139737Y0386853D01*
X0141562Y0388678D01*
X0141814Y0388574D01*
X0143000Y0388418D01*
X0144186Y0388574D01*
X0145291Y0389031D01*
X0146240Y0389760D01*
X0146969Y0390709D01*
X0147426Y0391814D01*
X0147582Y0393000D01*
X0147426Y0394186D01*
X0146969Y0395291D01*
X0146240Y0396240D01*
X0145291Y0396969D01*
X0144186Y0397426D01*
X0143000Y0397583D01*
X0141814Y0397426D01*
X0140709Y0396969D01*
X0139760Y0396240D01*
X0139031Y0395291D01*
X0138574Y0394186D01*
X0138417Y0393000D01*
X0138574Y0391814D01*
X0138678Y0391562D01*
X0126420Y0379304D01*
X0125978Y0378643D01*
X0125901Y0378256D01*
X0125401Y0378306D01*
Y0403957D01*
X0125502Y0404034D01*
X0125983Y0404660D01*
X0126285Y0405390D01*
X0126388Y0406173D01*
X0126285Y0406956D01*
X0125983Y0407686D01*
X0125502Y0408313D01*
X0124875Y0408794D01*
X0124145Y0409096D01*
X0123362Y0409199D01*
X0122579Y0409096D01*
X0121849Y0408794D01*
X0121223Y0408313D01*
X0120742Y0407686D01*
X0120440Y0406956D01*
X0120336Y0406173D01*
X0120440Y0405390D01*
X0120742Y0404660D01*
X0121223Y0404034D01*
X0121323Y0403957D01*
Y0358173D01*
X0121478Y0357393D01*
X0121920Y0356731D01*
X0125420Y0353231D01*
X0126082Y0352789D01*
X0126375Y0352731D01*
X0126375D01*
X0126387Y0352729D01*
X0126411Y0352214D01*
X0126362Y0352199D01*
X0126279Y0352199D01*
X0118988D01*
X0118780Y0352587D01*
X0118775Y0352699D01*
X0118894Y0353298D01*
Y0357048D01*
X0118768Y0357682D01*
X0118409Y0358220D01*
X0117871Y0358579D01*
X0117237Y0358705D01*
X0114656D01*
X0114197Y0358803D01*
Y0367197D01*
X0112039D01*
Y0368927D01*
X0112291Y0369031D01*
X0113240Y0369760D01*
X0113969Y0370709D01*
X0114426Y0371814D01*
X0114583Y0373000D01*
X0114426Y0374186D01*
X0114322Y0374438D01*
X0118304Y0378420D01*
X0118746Y0379082D01*
X0118902Y0379862D01*
Y0409674D01*
X0119371Y0409767D01*
X0119909Y0410127D01*
X0120268Y0410664D01*
X0120394Y0411298D01*
Y0416321D01*
X0139114Y0435041D01*
X0139223Y0435034D01*
X0139849Y0434553D01*
X0140579Y0434250D01*
X0141362Y0434147D01*
X0142145Y0434250D01*
X0142875Y0434553D01*
X0143502Y0435034D01*
X0143983Y0435660D01*
X0144285Y0436390D01*
X0144388Y0437173D01*
X0144285Y0437956D01*
X0143983Y0438686D01*
X0143502Y0439313D01*
X0142875Y0439794D01*
X0142145Y0440096D01*
X0141362Y0440199D01*
X0140579Y0440096D01*
X0139849Y0439794D01*
X0139223Y0439313D01*
X0139146Y0439212D01*
X0138362D01*
X0137582Y0439057D01*
X0136920Y0438615D01*
X0119679Y0421374D01*
X0119371Y0421579D01*
X0118737Y0421705D01*
X0114987D01*
X0114353Y0421579D01*
X0113862Y0421251D01*
X0113371Y0421579D01*
X0112737Y0421705D01*
X0108987D01*
X0108353Y0421579D01*
X0107816Y0421220D01*
X0107457Y0420682D01*
X0107367Y0420233D01*
X0106857D01*
X0106768Y0420682D01*
X0106409Y0421220D01*
X0105871Y0421579D01*
X0105237Y0421705D01*
X0101487D01*
X0100853Y0421579D01*
X0100316Y0421220D01*
X0099957Y0420682D01*
X0099830Y0420048D01*
Y0411298D01*
X0099957Y0410664D01*
X0100316Y0410127D01*
X0100853Y0409767D01*
X0101487Y0409641D01*
X0105237D01*
X0105871Y0409767D01*
X0106409Y0410127D01*
X0106768Y0410664D01*
X0106857Y0411114D01*
X0107367D01*
X0107457Y0410664D01*
X0107816Y0410127D01*
X0108353Y0409767D01*
X0108823Y0409674D01*
Y0407428D01*
X0108814Y0407426D01*
X0107709Y0406969D01*
X0106760Y0406240D01*
X0106031Y0405291D01*
X0105574Y0404186D01*
X0105418Y0403000D01*
X0105574Y0401814D01*
X0106031Y0400709D01*
X0106760Y0399760D01*
X0107709Y0399031D01*
X0108814Y0398574D01*
X0110000Y0398417D01*
X0111186Y0398574D01*
X0112291Y0399031D01*
X0113240Y0399760D01*
X0113969Y0400709D01*
X0114323Y0401565D01*
X0114823Y0401465D01*
Y0394535D01*
X0114323Y0394435D01*
X0113969Y0395291D01*
X0113240Y0396240D01*
X0112291Y0396969D01*
X0111186Y0397426D01*
X0110000Y0397583D01*
X0108814Y0397426D01*
X0107709Y0396969D01*
X0106760Y0396240D01*
X0106031Y0395291D01*
X0105574Y0394186D01*
X0105418Y0393000D01*
X0105574Y0391814D01*
X0106031Y0390709D01*
X0106760Y0389760D01*
X0107709Y0389031D01*
X0108814Y0388574D01*
X0110000Y0388418D01*
X0111186Y0388574D01*
X0112291Y0389031D01*
X0113240Y0389760D01*
X0113969Y0390709D01*
X0114323Y0391565D01*
X0114823Y0391465D01*
Y0380707D01*
X0111438Y0377322D01*
X0111186Y0377426D01*
X0110000Y0377583D01*
X0108814Y0377426D01*
X0107709Y0376969D01*
X0106760Y0376240D01*
X0106031Y0375291D01*
X0105574Y0374186D01*
X0105418Y0373000D01*
X0105574Y0371814D01*
X0106031Y0370709D01*
X0106760Y0369760D01*
X0107709Y0369031D01*
X0107961Y0368927D01*
Y0367197D01*
X0105803D01*
Y0358803D01*
X0107289D01*
X0107440Y0358303D01*
X0107316Y0358220D01*
X0106957Y0357682D01*
X0106830Y0357048D01*
Y0353298D01*
X0106957Y0352664D01*
X0107285Y0352173D01*
X0107002Y0351750D01*
X0106479Y0351565D01*
X0100116Y0357928D01*
X0100295Y0358456D01*
X0101186Y0358574D01*
X0102291Y0359031D01*
X0103240Y0359760D01*
X0103969Y0360709D01*
X0104426Y0361814D01*
X0104583Y0363000D01*
X0104426Y0364186D01*
X0103969Y0365291D01*
X0103240Y0366240D01*
X0102291Y0366969D01*
X0101186Y0367426D01*
X0100000Y0367583D01*
X0098814Y0367426D01*
X0097709Y0366969D01*
X0096996Y0366422D01*
X0096496Y0366668D01*
Y0369332D01*
X0096996Y0369578D01*
X0097709Y0369031D01*
X0098814Y0368574D01*
X0100000Y0368418D01*
X0101186Y0368574D01*
X0102291Y0369031D01*
X0103240Y0369760D01*
X0103969Y0370709D01*
X0104426Y0371814D01*
X0104583Y0373000D01*
X0104426Y0374186D01*
X0103969Y0375291D01*
X0103240Y0376240D01*
X0102291Y0376969D01*
X0101186Y0377426D01*
X0100000Y0377583D01*
X0098814Y0377426D01*
X0097709Y0376969D01*
X0097067Y0376476D01*
X0096737Y0376853D01*
X0098562Y0378678D01*
X0098814Y0378574D01*
X0100000Y0378417D01*
X0101186Y0378574D01*
X0102291Y0379031D01*
X0103240Y0379760D01*
X0103969Y0380709D01*
X0104426Y0381814D01*
X0104583Y0383000D01*
X0104426Y0384186D01*
X0103969Y0385291D01*
X0103240Y0386240D01*
X0102291Y0386969D01*
X0101186Y0387426D01*
X0100000Y0387582D01*
X0098814Y0387426D01*
X0097709Y0386969D01*
X0097067Y0386476D01*
X0096737Y0386853D01*
X0098562Y0388678D01*
X0098814Y0388574D01*
X0100000Y0388418D01*
X0101186Y0388574D01*
X0102291Y0389031D01*
X0103240Y0389760D01*
X0103969Y0390709D01*
X0104426Y0391814D01*
X0104583Y0393000D01*
X0104426Y0394186D01*
X0103969Y0395291D01*
X0103240Y0396240D01*
X0102291Y0396969D01*
X0101186Y0397426D01*
X0100000Y0397583D01*
X0098814Y0397426D01*
X0097709Y0396969D01*
X0096760Y0396240D01*
X0096031Y0395291D01*
X0095574Y0394186D01*
X0095417Y0393000D01*
X0095574Y0391814D01*
X0095678Y0391562D01*
X0090015Y0385899D01*
X0089573Y0385237D01*
X0089417Y0384457D01*
Y0359461D01*
X0089573Y0358681D01*
X0090015Y0358019D01*
X0100823Y0347211D01*
Y0344968D01*
X0100978Y0344188D01*
X0101420Y0343526D01*
X0104715Y0340231D01*
X0104715Y0340231D01*
X0105112Y0339966D01*
X0105377Y0339789D01*
X0106157Y0339634D01*
X0120118D01*
X0121823Y0337929D01*
Y0337516D01*
X0121959Y0336831D01*
X0121948Y0336819D01*
X0121568Y0336561D01*
X0121544Y0336551D01*
X0121038Y0336940D01*
X0120420Y0337447D01*
X0119391Y0337997D01*
X0118275Y0338336D01*
X0117114Y0338450D01*
X0105697D01*
X0104536Y0338336D01*
X0103420Y0337997D01*
X0102391Y0337447D01*
X0101490Y0336707D01*
X0100750Y0335806D01*
X0100200Y0334777D01*
X0099861Y0333661D01*
X0099747Y0332500D01*
X0099861Y0331339D01*
X0100200Y0330223D01*
X0100750Y0329194D01*
X0101490Y0328293D01*
X0102391Y0327553D01*
X0103420Y0327003D01*
X0104536Y0326664D01*
X0105697Y0326550D01*
X0113119D01*
Y0321161D01*
X0113288Y0319873D01*
X0113786Y0318672D01*
X0114577Y0317640D01*
X0115609Y0316849D01*
X0116810Y0316352D01*
X0118098Y0316182D01*
X0119387Y0316352D01*
X0120588Y0316849D01*
X0121619Y0317640D01*
X0122411Y0318672D01*
X0122908Y0319873D01*
X0123078Y0321161D01*
Y0332972D01*
X0122908Y0334261D01*
X0122471Y0335316D01*
X0122895Y0335600D01*
X0124339Y0334156D01*
X0124440Y0333390D01*
X0124742Y0332660D01*
X0125223Y0332034D01*
X0125849Y0331553D01*
X0126579Y0331250D01*
X0126767Y0331226D01*
X0126958Y0330696D01*
X0126823Y0330016D01*
Y0305417D01*
X0125420Y0304015D01*
X0124978Y0303353D01*
X0124823Y0302573D01*
Y0280516D01*
X0124978Y0279736D01*
X0125420Y0279075D01*
X0140937Y0263557D01*
X0140730Y0263057D01*
X0128651D01*
X0127868Y0262954D01*
X0127138Y0262652D01*
X0126511Y0262171D01*
X0126511Y0262171D01*
X0116319Y0251979D01*
X0103547D01*
X0102764Y0251876D01*
X0102248Y0251662D01*
X0102034Y0251573D01*
X0101408Y0251092D01*
X0097360Y0247045D01*
X0096880Y0246418D01*
X0096791Y0246205D01*
X0096577Y0245689D01*
X0096576Y0245683D01*
X0096047Y0244993D01*
X0095649Y0244032D01*
X0095513Y0243000D01*
X0095649Y0241968D01*
X0096047Y0241007D01*
X0096681Y0240181D01*
X0097507Y0239547D01*
X0098468Y0239149D01*
X0099500Y0239013D01*
X0100532Y0239149D01*
X0101493Y0239547D01*
X0102319Y0240181D01*
X0102953Y0241007D01*
X0103351Y0241968D01*
X0103487Y0243000D01*
X0103351Y0244032D01*
X0103221Y0244347D01*
X0104801Y0245927D01*
X0105547D01*
Y0239047D01*
X0113453D01*
Y0245927D01*
X0117572D01*
X0118355Y0246030D01*
X0119085Y0246332D01*
X0119712Y0246813D01*
X0129904Y0257006D01*
X0139994D01*
X0143965Y0253034D01*
X0144592Y0252553D01*
X0144806Y0252464D01*
X0145322Y0252250D01*
X0146105Y0252147D01*
X0153176D01*
X0153959Y0252250D01*
X0154475Y0252464D01*
X0154689Y0252553D01*
X0155316Y0253034D01*
X0159209Y0256927D01*
X0168142D01*
X0168925Y0257030D01*
X0169655Y0257332D01*
X0170281Y0257813D01*
X0180616Y0268147D01*
X0180960D01*
X0181743Y0268250D01*
X0182259Y0268464D01*
X0182473Y0268553D01*
X0183100Y0269034D01*
X0190714Y0276647D01*
X0196609D01*
X0200723Y0272534D01*
X0201349Y0272053D01*
X0201714Y0271902D01*
X0202079Y0271750D01*
X0202170Y0271739D01*
X0202862Y0271647D01*
X0202862Y0271647D01*
X0223489D01*
X0223659Y0271147D01*
X0223223Y0270813D01*
X0222742Y0270186D01*
X0222440Y0269456D01*
X0222336Y0268673D01*
X0222440Y0267890D01*
X0222742Y0267160D01*
X0223223Y0266534D01*
X0227836Y0261920D01*
Y0247673D01*
X0227940Y0246890D01*
X0228242Y0246160D01*
X0228723Y0245534D01*
X0236396Y0237860D01*
X0236396Y0237860D01*
X0236877Y0237491D01*
X0237023Y0237380D01*
X0237450Y0237202D01*
X0237752Y0237077D01*
X0237843Y0237065D01*
X0238535Y0236974D01*
X0238536Y0236974D01*
X0263047D01*
Y0236047D01*
X0270953D01*
Y0243953D01*
X0263047D01*
Y0243026D01*
X0239789D01*
X0233888Y0248927D01*
Y0263173D01*
X0233785Y0263956D01*
X0233483Y0264686D01*
X0233274Y0264958D01*
X0233002Y0265313D01*
X0233002Y0265313D01*
X0227502Y0270813D01*
X0227066Y0271147D01*
X0227236Y0271647D01*
X0247019D01*
X0247802Y0271750D01*
X0248532Y0272053D01*
X0249159Y0272534D01*
X0249640Y0273160D01*
X0249942Y0273890D01*
X0250045Y0274673D01*
X0249942Y0275456D01*
X0249640Y0276186D01*
X0249159Y0276813D01*
X0248532Y0277294D01*
X0247802Y0277596D01*
X0247019Y0277699D01*
X0204116D01*
X0200426Y0281389D01*
X0200633Y0281889D01*
X0254123D01*
X0258601Y0277412D01*
X0258601Y0277412D01*
X0258890Y0277218D01*
X0259179Y0277025D01*
X0259862Y0276889D01*
X0259862Y0276889D01*
X0272933D01*
X0273082Y0276789D01*
X0273862Y0276634D01*
X0309362D01*
X0310143Y0276789D01*
X0310804Y0277231D01*
X0318724Y0285151D01*
X0319170Y0284890D01*
X0319053Y0284000D01*
X0319188Y0282968D01*
X0319587Y0282007D01*
X0319982Y0281492D01*
X0319735Y0280992D01*
X0318949D01*
X0318949Y0280992D01*
X0318168Y0280837D01*
X0317507Y0280395D01*
X0317507Y0280395D01*
X0279924Y0242812D01*
X0279819Y0242819D01*
X0278993Y0243453D01*
X0278032Y0243851D01*
X0277000Y0243987D01*
X0275968Y0243851D01*
X0275007Y0243453D01*
X0274181Y0242819D01*
X0273547Y0241993D01*
X0273149Y0241032D01*
X0273013Y0240000D01*
X0273149Y0238968D01*
X0273547Y0238007D01*
X0274181Y0237181D01*
X0275007Y0236547D01*
X0275968Y0236149D01*
X0277000Y0236013D01*
X0278032Y0236149D01*
X0278993Y0236547D01*
X0279819Y0237181D01*
X0280453Y0238007D01*
X0280473Y0238056D01*
X0280776Y0238116D01*
X0281438Y0238558D01*
X0282552Y0239672D01*
X0283080Y0239493D01*
X0283149Y0238968D01*
X0283547Y0238007D01*
X0284181Y0237181D01*
X0285007Y0236547D01*
X0285968Y0236149D01*
X0287000Y0236013D01*
X0288032Y0236149D01*
X0288993Y0236547D01*
X0289819Y0237181D01*
X0290453Y0238007D01*
X0290851Y0238968D01*
X0290987Y0240000D01*
X0290851Y0241032D01*
X0290453Y0241993D01*
X0289819Y0242819D01*
X0288993Y0243453D01*
X0288032Y0243851D01*
X0287507Y0243920D01*
X0287328Y0244448D01*
X0319232Y0276352D01*
X0319608Y0276022D01*
X0319587Y0275993D01*
X0319188Y0275032D01*
X0319053Y0274000D01*
X0319188Y0272968D01*
X0319587Y0272007D01*
X0320220Y0271181D01*
X0321046Y0270547D01*
X0322008Y0270149D01*
X0323039Y0270013D01*
X0324071Y0270149D01*
X0325033Y0270547D01*
X0325859Y0271181D01*
X0326492Y0272007D01*
X0326890Y0272968D01*
X0327026Y0274000D01*
X0326890Y0275032D01*
X0326492Y0275993D01*
X0326170Y0276414D01*
X0326416Y0276914D01*
X0327638D01*
X0328418Y0277069D01*
X0329080Y0277511D01*
X0331710Y0280141D01*
X0332685Y0280013D01*
X0333717Y0280149D01*
X0334679Y0280547D01*
X0335504Y0281181D01*
X0336138Y0282007D01*
X0336536Y0282968D01*
X0336672Y0284000D01*
X0336536Y0285032D01*
X0336138Y0285993D01*
X0335504Y0286819D01*
X0334679Y0287453D01*
X0333717Y0287851D01*
X0332685Y0287987D01*
X0331653Y0287851D01*
X0330692Y0287453D01*
X0329866Y0286819D01*
X0329232Y0285993D01*
X0328834Y0285032D01*
X0328698Y0284000D01*
X0328827Y0283025D01*
X0326806Y0281005D01*
X0326316Y0281048D01*
X0326097Y0281492D01*
X0326492Y0282007D01*
X0326890Y0282968D01*
X0327026Y0284000D01*
X0326890Y0285032D01*
X0326492Y0285993D01*
X0325859Y0286819D01*
X0325033Y0287453D01*
X0324071Y0287851D01*
X0323039Y0287987D01*
X0322008Y0287851D01*
X0321046Y0287453D01*
X0320363Y0286928D01*
X0319949Y0287148D01*
X0319901Y0287191D01*
Y0290809D01*
X0320402Y0291042D01*
X0321046Y0290547D01*
X0322008Y0290149D01*
X0323039Y0290013D01*
X0324071Y0290149D01*
X0325033Y0290547D01*
X0325859Y0291181D01*
X0326492Y0292007D01*
X0326890Y0292968D01*
X0327026Y0294000D01*
X0326890Y0295032D01*
X0326492Y0295993D01*
X0325859Y0296819D01*
X0325033Y0297453D01*
X0324071Y0297851D01*
X0323039Y0297987D01*
X0322008Y0297851D01*
X0321046Y0297453D01*
X0320220Y0296819D01*
X0319587Y0295993D01*
X0319188Y0295032D01*
X0319169Y0294884D01*
X0318696Y0294724D01*
X0314804Y0298615D01*
X0314394Y0298889D01*
Y0299048D01*
X0314268Y0299682D01*
X0314063Y0299990D01*
X0316034Y0301961D01*
X0319622D01*
X0320220Y0301181D01*
X0321046Y0300547D01*
X0322008Y0300149D01*
X0323039Y0300013D01*
X0324071Y0300149D01*
X0325033Y0300547D01*
X0325859Y0301181D01*
X0326492Y0302007D01*
X0326890Y0302968D01*
X0327026Y0304000D01*
X0326890Y0305032D01*
X0326492Y0305993D01*
X0326097Y0306508D01*
X0326344Y0307008D01*
X0329381D01*
X0329627Y0306508D01*
X0329232Y0305993D01*
X0328834Y0305032D01*
X0328698Y0304000D01*
X0328834Y0302968D01*
X0329232Y0302007D01*
X0329866Y0301181D01*
X0330692Y0300547D01*
X0331653Y0300149D01*
X0332685Y0300013D01*
X0333717Y0300149D01*
X0334679Y0300547D01*
X0335504Y0301181D01*
X0336138Y0302007D01*
X0336536Y0302968D01*
X0336672Y0304000D01*
X0336536Y0305032D01*
X0336138Y0305993D01*
X0335682Y0306587D01*
X0335879Y0307136D01*
X0336017Y0307163D01*
X0336678Y0307605D01*
X0339080Y0310007D01*
X0339522Y0310668D01*
X0339677Y0311449D01*
Y0319047D01*
X0339522Y0319828D01*
X0339080Y0320489D01*
X0336544Y0323025D01*
X0336672Y0324000D01*
X0336536Y0325032D01*
X0336138Y0325993D01*
X0335504Y0326819D01*
X0334679Y0327453D01*
X0333717Y0327851D01*
X0332685Y0327987D01*
X0331653Y0327851D01*
X0330692Y0327453D01*
X0329866Y0326819D01*
X0329232Y0325993D01*
X0328834Y0325032D01*
X0328698Y0324000D01*
X0328834Y0322968D01*
X0329232Y0322007D01*
X0329866Y0321181D01*
X0330692Y0320547D01*
X0331653Y0320149D01*
X0332685Y0320013D01*
X0333660Y0320142D01*
X0335599Y0318203D01*
Y0312294D01*
X0334392Y0311086D01*
X0326416D01*
X0326170Y0311586D01*
X0326492Y0312007D01*
X0326890Y0312968D01*
X0327026Y0314000D01*
X0326890Y0315032D01*
X0326492Y0315993D01*
X0325859Y0316819D01*
X0325033Y0317453D01*
X0324071Y0317851D01*
X0323039Y0317987D01*
X0322008Y0317851D01*
X0321046Y0317453D01*
X0320220Y0316819D01*
X0319622Y0316039D01*
X0317265D01*
X0317074Y0316501D01*
X0321098Y0320526D01*
X0322008Y0320149D01*
X0323039Y0320013D01*
X0324071Y0320149D01*
X0325033Y0320547D01*
X0325859Y0321181D01*
X0326492Y0322007D01*
X0326890Y0322968D01*
X0327026Y0324000D01*
X0326890Y0325032D01*
X0326492Y0325993D01*
X0326170Y0326414D01*
X0326416Y0326914D01*
X0327638D01*
X0328418Y0327069D01*
X0329080Y0327511D01*
X0331710Y0330141D01*
X0332685Y0330013D01*
X0333717Y0330149D01*
X0334679Y0330547D01*
X0335504Y0331181D01*
X0336138Y0332007D01*
X0336536Y0332968D01*
X0336672Y0334000D01*
X0336536Y0335032D01*
X0336138Y0335993D01*
X0335504Y0336819D01*
X0334679Y0337453D01*
X0333717Y0337851D01*
X0332685Y0337987D01*
X0331653Y0337851D01*
X0330692Y0337453D01*
X0329866Y0336819D01*
X0329232Y0335993D01*
X0328834Y0335032D01*
X0328698Y0334000D01*
X0328827Y0333025D01*
X0326793Y0330992D01*
X0318927D01*
X0316901Y0333018D01*
Y0339597D01*
X0317363Y0339788D01*
X0319546Y0337605D01*
X0319546Y0337605D01*
X0319943Y0337340D01*
X0320208Y0337163D01*
X0320988Y0337008D01*
X0327732D01*
X0328513Y0337163D01*
X0329174Y0337605D01*
X0331710Y0340142D01*
X0332685Y0340013D01*
X0333717Y0340149D01*
X0334679Y0340547D01*
X0335504Y0341181D01*
X0336138Y0342007D01*
X0336536Y0342968D01*
X0336672Y0344000D01*
X0336536Y0345032D01*
X0336138Y0345993D01*
X0335504Y0346819D01*
X0334679Y0347453D01*
X0333717Y0347851D01*
X0332685Y0347987D01*
X0331653Y0347851D01*
X0330692Y0347453D01*
X0329866Y0346819D01*
X0329232Y0345993D01*
X0328834Y0345032D01*
X0328698Y0344000D01*
X0328827Y0343025D01*
X0326888Y0341086D01*
X0326416D01*
X0326170Y0341586D01*
X0326492Y0342007D01*
X0326890Y0342968D01*
X0327026Y0344000D01*
X0326890Y0345032D01*
X0326492Y0345993D01*
X0325859Y0346819D01*
X0325033Y0347453D01*
X0324071Y0347851D01*
X0323762Y0347892D01*
Y0348313D01*
X0323606Y0349093D01*
X0323305Y0349544D01*
X0323508Y0350058D01*
X0323531Y0350078D01*
X0324071Y0350149D01*
X0325033Y0350547D01*
X0325859Y0351181D01*
X0326492Y0352007D01*
X0326890Y0352968D01*
X0327026Y0354000D01*
X0326890Y0355032D01*
X0326492Y0355993D01*
X0326097Y0356508D01*
X0326316Y0356952D01*
X0326806Y0356995D01*
X0328827Y0354975D01*
X0328698Y0354000D01*
X0328834Y0352968D01*
X0329232Y0352007D01*
X0329866Y0351181D01*
X0330692Y0350547D01*
X0331653Y0350149D01*
X0332685Y0350013D01*
X0333717Y0350149D01*
X0334679Y0350547D01*
X0335504Y0351181D01*
X0336138Y0352007D01*
X0336536Y0352968D01*
X0336672Y0354000D01*
X0336536Y0355032D01*
X0336138Y0355993D01*
X0335504Y0356819D01*
X0334679Y0357453D01*
X0333717Y0357851D01*
X0332685Y0357987D01*
X0331710Y0357858D01*
X0329080Y0360489D01*
X0328418Y0360931D01*
X0327638Y0361086D01*
X0326416D01*
X0326170Y0361586D01*
X0326492Y0362007D01*
X0326890Y0362968D01*
X0327026Y0364000D01*
X0326890Y0365032D01*
X0326492Y0365993D01*
X0325970Y0366674D01*
X0325952Y0366763D01*
X0326003Y0367152D01*
X0326064Y0367292D01*
X0326533Y0367605D01*
X0329434Y0370507D01*
X0329600Y0370755D01*
X0330276Y0370866D01*
X0330692Y0370547D01*
X0331653Y0370149D01*
X0332685Y0370013D01*
X0333717Y0370149D01*
X0334679Y0370547D01*
X0335504Y0371181D01*
X0336138Y0372007D01*
X0336536Y0372968D01*
X0336672Y0374000D01*
X0336536Y0375032D01*
X0336138Y0375993D01*
X0335504Y0376819D01*
X0334679Y0377453D01*
X0333717Y0377851D01*
X0332685Y0377987D01*
X0331653Y0377851D01*
X0330692Y0377453D01*
X0329866Y0376819D01*
X0329268Y0376039D01*
X0327992D01*
X0327212Y0375884D01*
X0327011Y0375750D01*
X0326533Y0375895D01*
X0326492Y0375993D01*
X0326097Y0376508D01*
X0326344Y0377008D01*
X0327732D01*
X0328513Y0377163D01*
X0329174Y0377605D01*
X0331710Y0380141D01*
X0332685Y0380013D01*
X0333717Y0380149D01*
X0334679Y0380547D01*
X0335504Y0381181D01*
X0336138Y0382007D01*
X0336536Y0382968D01*
X0336672Y0384000D01*
X0336536Y0385032D01*
X0336138Y0385993D01*
X0335504Y0386819D01*
X0334679Y0387453D01*
X0333717Y0387851D01*
X0332685Y0387987D01*
X0331653Y0387851D01*
X0330692Y0387453D01*
X0329866Y0386819D01*
X0329232Y0385993D01*
X0328834Y0385032D01*
X0328698Y0384000D01*
X0328827Y0383025D01*
X0326888Y0381086D01*
X0326416D01*
X0326170Y0381586D01*
X0326492Y0382007D01*
X0326890Y0382968D01*
X0327026Y0384000D01*
X0326890Y0385032D01*
X0326492Y0385993D01*
X0325859Y0386819D01*
X0325033Y0387453D01*
X0324071Y0387851D01*
X0323039Y0387987D01*
X0322065Y0387859D01*
X0321808Y0388115D01*
X0321147Y0388557D01*
X0320366Y0388712D01*
X0309579D01*
X0309502Y0388813D01*
X0308875Y0389294D01*
X0308145Y0389596D01*
X0307362Y0389699D01*
X0306579Y0389596D01*
X0305849Y0389294D01*
X0305223Y0388813D01*
X0304742Y0388186D01*
X0304439Y0387456D01*
X0304336Y0386673D01*
X0304439Y0385890D01*
X0304742Y0385160D01*
X0305223Y0384534D01*
X0305849Y0384053D01*
X0306579Y0383750D01*
X0307362Y0383647D01*
X0308145Y0383750D01*
X0308875Y0384053D01*
X0309502Y0384534D01*
X0309579Y0384634D01*
X0318757D01*
X0319087Y0384258D01*
X0319053Y0384000D01*
X0319188Y0382968D01*
X0319587Y0382007D01*
X0319909Y0381586D01*
X0319662Y0381086D01*
X0316988D01*
X0316208Y0380931D01*
X0315943Y0380754D01*
X0315546Y0380489D01*
X0315546Y0380489D01*
X0312770Y0377712D01*
X0269939D01*
X0269747Y0378174D01*
X0286707Y0395134D01*
X0301263D01*
X0301433Y0394634D01*
X0301223Y0394473D01*
X0300742Y0393846D01*
X0300440Y0393116D01*
X0300336Y0392333D01*
X0300440Y0391550D01*
X0300742Y0390820D01*
X0301223Y0390194D01*
X0301849Y0389713D01*
X0302579Y0389410D01*
X0303362Y0389307D01*
X0304145Y0389410D01*
X0304875Y0389713D01*
X0305502Y0390194D01*
X0305579Y0390294D01*
X0321373D01*
X0321565Y0390332D01*
X0322008Y0390149D01*
X0323039Y0390013D01*
X0324071Y0390149D01*
X0325033Y0390547D01*
X0325859Y0391181D01*
X0326492Y0392007D01*
X0326890Y0392968D01*
X0327026Y0394000D01*
X0326890Y0395032D01*
X0326492Y0395993D01*
X0326170Y0396414D01*
X0326416Y0396914D01*
X0327638D01*
X0328418Y0397069D01*
X0329080Y0397511D01*
X0331710Y0400141D01*
X0332685Y0400013D01*
X0333717Y0400149D01*
X0334679Y0400547D01*
X0335504Y0401181D01*
X0336138Y0402007D01*
X0336536Y0402968D01*
X0336672Y0404000D01*
X0336536Y0405032D01*
X0336138Y0405993D01*
X0335504Y0406819D01*
X0334679Y0407453D01*
X0333717Y0407851D01*
X0332685Y0407987D01*
X0331653Y0407851D01*
X0330692Y0407453D01*
X0329866Y0406819D01*
X0329232Y0405993D01*
X0328834Y0405032D01*
X0328698Y0404000D01*
X0328827Y0403025D01*
X0326806Y0401005D01*
X0326316Y0401048D01*
X0326097Y0401492D01*
X0326492Y0402007D01*
X0326890Y0402968D01*
X0327026Y0404000D01*
X0326890Y0405032D01*
X0326492Y0405993D01*
X0326170Y0406414D01*
X0326416Y0406914D01*
X0327638D01*
X0328418Y0407069D01*
X0329080Y0407511D01*
X0331710Y0410142D01*
X0332685Y0410013D01*
X0333717Y0410149D01*
X0334679Y0410547D01*
X0335504Y0411181D01*
X0336138Y0412007D01*
X0336536Y0412968D01*
X0336672Y0414000D01*
X0336536Y0415032D01*
X0336138Y0415993D01*
X0335504Y0416819D01*
X0334679Y0417453D01*
X0333717Y0417851D01*
X0332685Y0417987D01*
X0331653Y0417851D01*
X0330692Y0417453D01*
X0329866Y0416819D01*
X0329232Y0415993D01*
X0328834Y0415032D01*
X0328698Y0414000D01*
X0328827Y0413025D01*
X0326793Y0410992D01*
X0320988D01*
X0320208Y0410837D01*
X0319943Y0410660D01*
X0319546Y0410395D01*
X0319546Y0410395D01*
X0317357Y0408206D01*
X0313778D01*
X0313587Y0408668D01*
X0321833Y0416914D01*
X0324996D01*
X0325777Y0417069D01*
X0326438Y0417511D01*
X0327064Y0418136D01*
X0328860D01*
X0329641Y0418291D01*
X0330302Y0418733D01*
X0331710Y0420142D01*
X0332685Y0420013D01*
X0333717Y0420149D01*
X0334679Y0420547D01*
X0335504Y0421181D01*
X0336138Y0422007D01*
X0336536Y0422968D01*
X0336672Y0424000D01*
X0336536Y0425032D01*
X0336138Y0425993D01*
X0335504Y0426819D01*
X0334679Y0427453D01*
X0333717Y0427851D01*
X0332685Y0427987D01*
X0331653Y0427851D01*
X0330692Y0427453D01*
X0329866Y0426819D01*
X0329232Y0425993D01*
X0328834Y0425032D01*
X0328698Y0424000D01*
X0328827Y0423025D01*
X0328016Y0422214D01*
X0327028D01*
X0326750Y0422630D01*
X0326890Y0422968D01*
X0327026Y0424000D01*
X0326890Y0425032D01*
X0326492Y0425993D01*
X0325859Y0426819D01*
X0325033Y0427453D01*
X0324071Y0427851D01*
X0323039Y0427987D01*
X0322008Y0427851D01*
X0321046Y0427453D01*
X0320220Y0426819D01*
X0319587Y0425993D01*
X0319188Y0425032D01*
X0319053Y0424000D01*
X0319071Y0423858D01*
X0318965Y0423837D01*
X0318700Y0423660D01*
X0318303Y0423395D01*
X0318303Y0423395D01*
X0310121Y0415212D01*
X0306079D01*
X0306002Y0415313D01*
X0305375Y0415794D01*
X0304645Y0416096D01*
X0303862Y0416199D01*
X0303079Y0416096D01*
X0302349Y0415794D01*
X0301723Y0415313D01*
X0301242Y0414686D01*
X0300939Y0413956D01*
X0300836Y0413173D01*
X0300939Y0412390D01*
X0301223Y0411706D01*
X0301091Y0411339D01*
X0301025Y0411206D01*
X0300963D01*
X0300182Y0411051D01*
X0299521Y0410609D01*
X0294125Y0405212D01*
X0284711D01*
X0284519Y0405674D01*
X0303806Y0424961D01*
X0316039D01*
X0316820Y0425116D01*
X0317481Y0425558D01*
X0322065Y0430141D01*
X0323039Y0430013D01*
X0324071Y0430149D01*
X0325033Y0430547D01*
X0325859Y0431181D01*
X0326492Y0432007D01*
X0326890Y0432968D01*
X0327026Y0434000D01*
X0326890Y0435032D01*
X0326492Y0435993D01*
X0325859Y0436819D01*
X0325033Y0437453D01*
X0324071Y0437851D01*
X0323039Y0437987D01*
X0322008Y0437851D01*
X0321046Y0437453D01*
X0320220Y0436819D01*
X0319587Y0435993D01*
X0319188Y0435032D01*
X0319053Y0434000D01*
X0319181Y0433025D01*
X0315195Y0429039D01*
X0311616D01*
X0311424Y0429501D01*
X0322065Y0440141D01*
X0323039Y0440013D01*
X0324071Y0440149D01*
X0325033Y0440547D01*
X0325859Y0441181D01*
X0326492Y0442007D01*
X0326890Y0442968D01*
X0327026Y0444000D01*
X0326890Y0445032D01*
X0326492Y0445993D01*
X0325859Y0446819D01*
X0325033Y0447453D01*
X0324071Y0447851D01*
X0323039Y0447987D01*
X0322008Y0447851D01*
X0321046Y0447453D01*
X0320220Y0446819D01*
X0319587Y0445993D01*
X0319188Y0445032D01*
X0319053Y0444000D01*
X0319181Y0443025D01*
X0308195Y0432039D01*
X0301719D01*
X0301718Y0432039D01*
X0301220Y0431940D01*
X0300974Y0432401D01*
X0310304Y0441731D01*
X0310304Y0441731D01*
X0310746Y0442393D01*
X0310901Y0443173D01*
X0310901Y0443173D01*
Y0462601D01*
X0311363Y0462792D01*
X0319181Y0454975D01*
X0319053Y0454000D01*
X0319188Y0452968D01*
X0319587Y0452007D01*
X0320220Y0451181D01*
X0321046Y0450547D01*
X0322008Y0450149D01*
X0323039Y0450013D01*
X0324071Y0450149D01*
X0325033Y0450547D01*
X0325859Y0451181D01*
X0326492Y0452007D01*
X0326890Y0452968D01*
X0327026Y0454000D01*
X0326890Y0455032D01*
X0326492Y0455993D01*
X0325859Y0456819D01*
X0325033Y0457453D01*
X0324071Y0457851D01*
X0323039Y0457987D01*
X0322065Y0457859D01*
X0313901Y0466022D01*
Y0467815D01*
X0313746Y0468596D01*
X0313304Y0469257D01*
X0301946Y0480615D01*
X0301285Y0481057D01*
X0300504Y0481212D01*
X0251463D01*
X0250682Y0481057D01*
X0250021Y0480615D01*
X0249618Y0480212D01*
X0218453D01*
Y0484453D01*
D02*
G37*
G36*
X0332685Y0447987D02*
X0331653Y0447851D01*
X0330692Y0447453D01*
X0329866Y0446819D01*
X0329232Y0445993D01*
X0328834Y0445032D01*
X0328698Y0444000D01*
X0328834Y0442968D01*
X0329232Y0442007D01*
X0329866Y0441181D01*
X0330692Y0440547D01*
X0331653Y0440149D01*
X0332685Y0440013D01*
X0333717Y0440149D01*
X0334679Y0440547D01*
X0335504Y0441181D01*
X0336138Y0442007D01*
X0336536Y0442968D01*
X0336672Y0444000D01*
X0336536Y0445032D01*
X0336138Y0445993D01*
X0335504Y0446819D01*
X0334679Y0447453D01*
X0333717Y0447851D01*
X0332685Y0447987D01*
D02*
G37*
G36*
X0186000Y0257987D02*
X0184968Y0257851D01*
X0184007Y0257453D01*
X0183181Y0256819D01*
X0182547Y0255993D01*
X0182149Y0255032D01*
X0182013Y0254000D01*
X0182149Y0252968D01*
X0182547Y0252007D01*
X0183181Y0251181D01*
X0184007Y0250547D01*
X0184968Y0250149D01*
X0186000Y0250013D01*
X0187032Y0250149D01*
X0187993Y0250547D01*
X0188819Y0251181D01*
X0189453Y0252007D01*
X0189851Y0252968D01*
X0189987Y0254000D01*
X0189851Y0255032D01*
X0189453Y0255993D01*
X0188819Y0256819D01*
X0187993Y0257453D01*
X0187032Y0257851D01*
X0186000Y0257987D01*
D02*
G37*
G36*
X0332685Y0457987D02*
X0331653Y0457851D01*
X0330692Y0457453D01*
X0329866Y0456819D01*
X0329232Y0455993D01*
X0328834Y0455032D01*
X0328698Y0454000D01*
X0328834Y0452968D01*
X0329232Y0452007D01*
X0329866Y0451181D01*
X0330692Y0450547D01*
X0331653Y0450149D01*
X0332685Y0450013D01*
X0333717Y0450149D01*
X0334679Y0450547D01*
X0335504Y0451181D01*
X0336138Y0452007D01*
X0336536Y0452968D01*
X0336672Y0454000D01*
X0336536Y0455032D01*
X0336138Y0455993D01*
X0335504Y0456819D01*
X0334679Y0457453D01*
X0333717Y0457851D01*
X0332685Y0457987D01*
D02*
G37*
G36*
X0297000Y0243987D02*
X0295968Y0243851D01*
X0295007Y0243453D01*
X0294181Y0242819D01*
X0293547Y0241993D01*
X0293149Y0241032D01*
X0293013Y0240000D01*
X0293149Y0238968D01*
X0293547Y0238007D01*
X0294181Y0237181D01*
X0295007Y0236547D01*
X0295968Y0236149D01*
X0297000Y0236013D01*
X0298032Y0236149D01*
X0298993Y0236547D01*
X0299819Y0237181D01*
X0300453Y0238007D01*
X0300851Y0238968D01*
X0300987Y0240000D01*
X0300851Y0241032D01*
X0300453Y0241993D01*
X0299819Y0242819D01*
X0298993Y0243453D01*
X0298032Y0243851D01*
X0297000Y0243987D01*
D02*
G37*
%LPD*%
G36*
X0133079Y0296750D02*
X0133862Y0296647D01*
X0134480Y0296729D01*
X0142289Y0288919D01*
X0142098Y0288457D01*
X0137775D01*
X0137502Y0288813D01*
X0136875Y0289294D01*
X0136145Y0289596D01*
X0135362Y0289699D01*
X0134579Y0289596D01*
X0133849Y0289294D01*
X0133223Y0288813D01*
X0132742Y0288186D01*
X0132634Y0287926D01*
X0132012Y0287730D01*
X0131902Y0287800D01*
X0131902Y0287802D01*
Y0296832D01*
X0132025Y0296893D01*
X0132402Y0297031D01*
X0133079Y0296750D01*
D02*
G37*
G36*
X0143309Y0294139D02*
X0149908D01*
X0154054Y0289993D01*
X0154054Y0289992D01*
X0154481Y0289707D01*
X0154329Y0289208D01*
X0147048D01*
X0142409Y0293847D01*
X0142524Y0294074D01*
X0142703Y0294259D01*
X0143309Y0294139D01*
D02*
G37*
G36*
X0315823Y0291829D02*
Y0288018D01*
X0308518Y0280712D01*
X0273862D01*
X0273082Y0280557D01*
X0272933Y0280457D01*
X0260601D01*
X0258920Y0282139D01*
X0259127Y0282639D01*
X0284590D01*
X0285273Y0282775D01*
X0285852Y0283161D01*
X0289457Y0286767D01*
X0289693Y0287120D01*
X0290287Y0287714D01*
X0290654Y0287641D01*
X0299404D01*
X0300038Y0287768D01*
X0300575Y0288127D01*
X0300935Y0288664D01*
X0301028Y0289134D01*
X0302363D01*
X0302457Y0288664D01*
X0302816Y0288127D01*
X0303353Y0287768D01*
X0303987Y0287641D01*
X0312737D01*
X0313371Y0287768D01*
X0313909Y0288127D01*
X0314268Y0288664D01*
X0314394Y0289298D01*
Y0292550D01*
X0314894Y0292758D01*
X0315823Y0291829D01*
D02*
G37*
G36*
X0131764Y0281731D02*
X0132425Y0281289D01*
X0133042Y0281167D01*
X0133547Y0280662D01*
X0133547Y0280662D01*
X0133837Y0280468D01*
X0134126Y0280275D01*
X0134809Y0280139D01*
X0134809Y0280139D01*
X0155166D01*
X0155357Y0279677D01*
X0150265Y0274585D01*
X0150089Y0274550D01*
X0149428Y0274108D01*
X0148420Y0273100D01*
X0147978Y0272439D01*
X0147823Y0271658D01*
Y0265390D01*
X0147723Y0265313D01*
X0147242Y0264686D01*
X0146961Y0264008D01*
X0146597Y0263840D01*
X0146467Y0263796D01*
X0128902Y0281361D01*
Y0283940D01*
X0129363Y0284131D01*
X0131764Y0281731D01*
D02*
G37*
G36*
X0176049Y0272139D02*
X0166888Y0262979D01*
X0157956D01*
X0157956Y0262979D01*
X0157172Y0262876D01*
X0156530Y0262610D01*
X0156237Y0262729D01*
X0156030Y0262887D01*
Y0271121D01*
X0156965Y0272056D01*
X0157105Y0272009D01*
X0157459Y0271843D01*
X0157742Y0271160D01*
X0158223Y0270534D01*
X0158849Y0270053D01*
X0159579Y0269750D01*
X0160362Y0269647D01*
X0161145Y0269750D01*
X0161875Y0270053D01*
X0162502Y0270534D01*
X0162983Y0271160D01*
X0163285Y0271890D01*
X0163384Y0272639D01*
X0175842D01*
X0176049Y0272139D01*
D02*
G37*
G36*
X0287720Y0305172D02*
X0285420Y0302872D01*
X0284978Y0302211D01*
X0284907Y0301855D01*
X0284472Y0301564D01*
X0283374Y0300466D01*
X0283205Y0300579D01*
X0282571Y0300705D01*
X0273821D01*
X0273187Y0300579D01*
X0272649Y0300220D01*
X0272290Y0299682D01*
X0272164Y0299048D01*
Y0295298D01*
X0272290Y0294664D01*
X0272618Y0294173D01*
X0272290Y0293682D01*
X0272196Y0293212D01*
X0270862D01*
X0270768Y0293682D01*
X0270440Y0294173D01*
X0270768Y0294664D01*
X0270894Y0295298D01*
Y0299048D01*
X0270768Y0299682D01*
X0270409Y0300220D01*
X0269871Y0300579D01*
X0269237Y0300705D01*
X0267931D01*
X0267740Y0301167D01*
X0267804Y0301231D01*
X0267878Y0301342D01*
X0268461Y0301731D01*
X0270804Y0304074D01*
X0270804Y0304075D01*
X0271069Y0304471D01*
X0271246Y0304736D01*
X0271355Y0305282D01*
X0271707Y0305634D01*
X0287529D01*
X0287720Y0305172D01*
D02*
G37*
G36*
X0306823Y0459518D02*
Y0444018D01*
X0286488Y0423683D01*
X0286362Y0423699D01*
X0285579Y0423596D01*
X0284849Y0423294D01*
X0284223Y0422813D01*
X0283742Y0422186D01*
X0283439Y0421456D01*
X0283336Y0420673D01*
X0283439Y0419890D01*
X0283742Y0419160D01*
X0284223Y0418534D01*
X0284849Y0418053D01*
X0285579Y0417750D01*
X0285843Y0417716D01*
X0286022Y0417188D01*
X0261547Y0392712D01*
X0183507D01*
X0183043Y0392620D01*
X0182796Y0393081D01*
X0196860Y0407144D01*
X0256362D01*
X0257539Y0407260D01*
X0258669Y0407603D01*
X0259712Y0408160D01*
X0260626Y0408910D01*
X0261375Y0409824D01*
X0261932Y0410866D01*
X0262276Y0411997D01*
X0262391Y0413173D01*
X0262276Y0414349D01*
X0261932Y0415480D01*
X0261375Y0416523D01*
X0260626Y0417436D01*
X0259712Y0418186D01*
X0259198Y0418461D01*
X0259323Y0418961D01*
X0261534D01*
X0266264Y0414231D01*
X0266266Y0414218D01*
X0266242Y0414186D01*
X0265939Y0413456D01*
X0265836Y0412673D01*
X0265939Y0411890D01*
X0266242Y0411160D01*
X0266723Y0410534D01*
X0267349Y0410053D01*
X0268079Y0409750D01*
X0268845Y0409650D01*
X0268920Y0409575D01*
X0269582Y0409132D01*
X0270362Y0408977D01*
X0271143Y0409132D01*
X0271804Y0409575D01*
X0272246Y0410236D01*
X0272401Y0411016D01*
Y0413173D01*
X0272246Y0413954D01*
X0271804Y0414615D01*
X0269304Y0417115D01*
X0269114Y0417242D01*
X0269133Y0417547D01*
X0269212Y0417778D01*
X0269875Y0418053D01*
X0270502Y0418534D01*
X0270897Y0419048D01*
X0271467Y0419184D01*
X0271853Y0418799D01*
X0271836Y0418673D01*
X0271939Y0417890D01*
X0272242Y0417160D01*
X0272723Y0416534D01*
X0273349Y0416053D01*
X0274079Y0415750D01*
X0274862Y0415647D01*
X0275645Y0415750D01*
X0276375Y0416053D01*
X0277002Y0416534D01*
X0277483Y0417160D01*
X0277785Y0417890D01*
X0277888Y0418673D01*
X0277785Y0419456D01*
X0277483Y0420186D01*
X0277002Y0420813D01*
X0276375Y0421294D01*
X0275645Y0421596D01*
X0274862Y0421699D01*
X0274764Y0421686D01*
X0274401Y0422022D01*
Y0422330D01*
X0274246Y0423110D01*
X0273804Y0423772D01*
X0271288Y0426289D01*
X0271419Y0426864D01*
X0271875Y0427053D01*
X0272502Y0427534D01*
X0272983Y0428160D01*
X0273285Y0428890D01*
X0273388Y0429673D01*
X0273285Y0430456D01*
X0272983Y0431186D01*
X0272502Y0431813D01*
X0271875Y0432294D01*
X0271145Y0432596D01*
X0270362Y0432699D01*
X0269579Y0432596D01*
X0268849Y0432294D01*
X0268518Y0432039D01*
X0265457D01*
X0265424Y0432539D01*
X0265686Y0432574D01*
X0266791Y0433031D01*
X0267740Y0433760D01*
X0268469Y0434709D01*
X0268926Y0435814D01*
X0269082Y0437000D01*
X0268926Y0438186D01*
X0268469Y0439291D01*
X0267740Y0440240D01*
X0266791Y0440969D01*
X0265686Y0441426D01*
X0264500Y0441582D01*
X0263314Y0441426D01*
X0262209Y0440969D01*
X0261260Y0440240D01*
X0261029Y0439940D01*
X0260529Y0440109D01*
Y0443890D01*
X0261029Y0444060D01*
X0261260Y0443760D01*
X0262209Y0443031D01*
X0263314Y0442574D01*
X0264500Y0442417D01*
X0265686Y0442574D01*
X0266791Y0443031D01*
X0267740Y0443760D01*
X0268469Y0444709D01*
X0268926Y0445814D01*
X0269082Y0447000D01*
X0268926Y0448186D01*
X0268469Y0449291D01*
X0267740Y0450240D01*
X0266791Y0450969D01*
X0265686Y0451426D01*
X0264783Y0451545D01*
X0264603Y0452073D01*
X0270174Y0457644D01*
X0301862D01*
X0303039Y0457760D01*
X0304170Y0458103D01*
X0305212Y0458660D01*
X0306125Y0459410D01*
X0306352Y0459687D01*
X0306823Y0459518D01*
D02*
G37*
G36*
X0237634Y0364172D02*
X0223258Y0349796D01*
X0223128Y0349840D01*
X0222763Y0350009D01*
X0222483Y0350686D01*
X0222002Y0351313D01*
X0221375Y0351794D01*
X0220645Y0352096D01*
X0219862Y0352199D01*
X0217236D01*
X0217066Y0352699D01*
X0217502Y0353034D01*
X0217983Y0353660D01*
X0218285Y0354390D01*
X0218388Y0355173D01*
X0218285Y0355956D01*
X0217983Y0356686D01*
X0217502Y0357313D01*
X0216875Y0357794D01*
X0216145Y0358096D01*
X0215362Y0358199D01*
X0190862D01*
X0190079Y0358096D01*
X0189615Y0357904D01*
X0189089Y0358156D01*
X0189063Y0358261D01*
X0189076Y0358363D01*
X0189505Y0358694D01*
X0189862Y0358647D01*
X0190645Y0358750D01*
X0191375Y0359053D01*
X0192002Y0359534D01*
X0192483Y0360160D01*
X0192785Y0360890D01*
X0192888Y0361673D01*
X0192785Y0362456D01*
X0192710Y0362637D01*
X0194707Y0364634D01*
X0237443D01*
X0237634Y0364172D01*
D02*
G37*
G36*
X0303954Y0352511D02*
X0304093Y0352134D01*
X0303812Y0351456D01*
X0303709Y0350673D01*
X0303725Y0350548D01*
X0297905Y0344727D01*
X0294720D01*
X0293940Y0344572D01*
X0293278Y0344130D01*
X0271269Y0322121D01*
X0271079Y0322096D01*
X0270349Y0321794D01*
X0269723Y0321313D01*
X0269640Y0321205D01*
X0269130Y0321193D01*
X0269203Y0321664D01*
X0269304Y0321731D01*
X0295237Y0347664D01*
X0295362Y0347647D01*
X0296145Y0347750D01*
X0296875Y0348053D01*
X0297502Y0348534D01*
X0297983Y0349160D01*
X0298285Y0349890D01*
X0298388Y0350673D01*
X0298285Y0351456D01*
X0298004Y0352134D01*
X0298143Y0352511D01*
X0298204Y0352634D01*
X0303893D01*
X0303954Y0352511D01*
D02*
G37*
G36*
X0303620Y0473174D02*
X0303428Y0472712D01*
X0263707D01*
X0259747Y0476672D01*
X0259939Y0477134D01*
X0299660D01*
X0303620Y0473174D01*
D02*
G37*
G36*
X0261420Y0469231D02*
X0261420Y0469231D01*
X0261817Y0468966D01*
X0262082Y0468789D01*
X0262862Y0468634D01*
X0263607D01*
X0263775Y0468163D01*
X0263499Y0467936D01*
X0262887Y0467324D01*
X0262414Y0466936D01*
X0250237Y0454759D01*
X0250010Y0454483D01*
X0249539Y0454651D01*
Y0464466D01*
X0254237Y0469164D01*
X0254362Y0469147D01*
X0255145Y0469250D01*
X0255875Y0469553D01*
X0256502Y0470034D01*
X0256983Y0470660D01*
X0257285Y0471390D01*
X0257388Y0472173D01*
X0257330Y0472614D01*
X0257804Y0472848D01*
X0261420Y0469231D01*
D02*
G37*
G36*
X0251397Y0472634D02*
X0251336Y0472173D01*
X0251353Y0472048D01*
X0246058Y0466753D01*
X0245616Y0466091D01*
X0245461Y0465311D01*
Y0461612D01*
X0244999Y0461420D01*
X0236372Y0470048D01*
X0236388Y0470173D01*
X0236285Y0470956D01*
X0235983Y0471686D01*
X0235502Y0472313D01*
X0235083Y0472634D01*
X0235253Y0473134D01*
X0251009D01*
X0251397Y0472634D01*
D02*
G37*
G36*
X0298752Y0340644D02*
X0298993Y0340187D01*
X0284018Y0325212D01*
X0280836D01*
X0280628Y0325712D01*
X0295565Y0340649D01*
X0298747D01*
X0298752Y0340644D01*
D02*
G37*
G36*
X0292582Y0352511D02*
X0292720Y0352134D01*
X0292440Y0351456D01*
X0292336Y0350673D01*
X0292353Y0350548D01*
X0267018Y0325212D01*
X0264705D01*
X0264705Y0325212D01*
X0263925Y0325057D01*
X0263409Y0324712D01*
X0260862D01*
X0260082Y0324557D01*
X0259420Y0324115D01*
X0258978Y0323454D01*
X0258823Y0322673D01*
Y0311673D01*
X0258978Y0310893D01*
X0259420Y0310231D01*
X0262353Y0307299D01*
X0262336Y0307173D01*
X0262439Y0306390D01*
X0262742Y0305660D01*
X0263223Y0305034D01*
X0263849Y0304553D01*
X0264184Y0304414D01*
X0264478Y0303954D01*
X0264409Y0303604D01*
X0263420Y0302615D01*
X0262978Y0301954D01*
X0262823Y0301173D01*
Y0300705D01*
X0260487D01*
X0259853Y0300579D01*
X0259316Y0300220D01*
X0258957Y0299682D01*
X0258830Y0299048D01*
Y0295298D01*
X0258957Y0294664D01*
X0259285Y0294173D01*
X0258957Y0293682D01*
X0258830Y0293048D01*
Y0292957D01*
X0186229D01*
X0185834Y0293458D01*
X0185897Y0293771D01*
X0185897Y0293771D01*
Y0294571D01*
X0186104Y0294779D01*
X0186280Y0294814D01*
X0186942Y0295256D01*
X0225962Y0334276D01*
X0226027Y0334289D01*
X0226689Y0334731D01*
X0244592Y0352634D01*
X0292521D01*
X0292582Y0352511D01*
D02*
G37*
G36*
X0316641Y0327511D02*
X0317302Y0327069D01*
X0318083Y0326914D01*
X0319662D01*
X0319909Y0326414D01*
X0319587Y0325993D01*
X0319188Y0325032D01*
X0319090Y0324285D01*
X0304518Y0309712D01*
X0270862D01*
X0270082Y0309557D01*
X0269420Y0309115D01*
X0268596Y0308291D01*
X0268106Y0308389D01*
X0267983Y0308686D01*
X0267502Y0309313D01*
X0266875Y0309794D01*
X0266145Y0310096D01*
X0265362Y0310199D01*
X0265237Y0310183D01*
X0262901Y0312518D01*
Y0318646D01*
X0263402Y0318679D01*
X0263439Y0318390D01*
X0263742Y0317660D01*
X0264223Y0317034D01*
X0264849Y0316553D01*
X0265579Y0316250D01*
X0266345Y0316150D01*
X0268763Y0313731D01*
X0269425Y0313289D01*
X0270205Y0313134D01*
X0301862D01*
X0302643Y0313289D01*
X0303304Y0313731D01*
X0311804Y0322231D01*
X0311804Y0322231D01*
X0312246Y0322893D01*
X0312402Y0323673D01*
X0312402Y0323673D01*
Y0327957D01*
X0312502Y0328034D01*
X0312983Y0328660D01*
X0313285Y0329390D01*
X0313375Y0330070D01*
X0313648Y0330226D01*
X0313879Y0330272D01*
X0316641Y0327511D01*
D02*
G37*
G36*
X0307163Y0330200D02*
X0307378Y0329856D01*
X0307439Y0329390D01*
X0307742Y0328660D01*
X0308223Y0328034D01*
X0308323Y0327957D01*
Y0324518D01*
X0301018Y0317212D01*
X0293928D01*
X0293776Y0317712D01*
X0293804Y0317731D01*
X0306264Y0330191D01*
X0306327Y0330183D01*
X0306842Y0330251D01*
X0307163Y0330200D01*
D02*
G37*
G36*
X0309790Y0348941D02*
X0309920Y0348746D01*
X0312823Y0345843D01*
Y0332680D01*
X0312323Y0332450D01*
X0311875Y0332794D01*
X0311145Y0333096D01*
X0310362Y0333199D01*
X0309847Y0333131D01*
X0309526Y0333182D01*
X0309311Y0333526D01*
X0309249Y0333992D01*
X0308947Y0334722D01*
X0308466Y0335348D01*
X0307840Y0335829D01*
X0307110Y0336132D01*
X0306327Y0336235D01*
X0305544Y0336132D01*
X0304814Y0335829D01*
X0304187Y0335348D01*
X0303706Y0334722D01*
X0303404Y0333992D01*
X0303301Y0333209D01*
X0303326Y0333020D01*
X0291518Y0321212D01*
X0286428D01*
X0286276Y0321712D01*
X0286304Y0321731D01*
X0306898Y0342325D01*
X0307079Y0342250D01*
X0307862Y0342147D01*
X0308645Y0342250D01*
X0309375Y0342553D01*
X0310002Y0343034D01*
X0310483Y0343660D01*
X0310785Y0344390D01*
X0310888Y0345173D01*
X0310785Y0345956D01*
X0310483Y0346686D01*
X0310002Y0347313D01*
X0309375Y0347794D01*
X0308957Y0347967D01*
X0308874Y0348534D01*
X0309188Y0348942D01*
X0309759Y0348957D01*
X0309790Y0348941D01*
D02*
G37*
G36*
X0218875Y0345685D02*
X0177805Y0304615D01*
X0177363Y0303954D01*
X0177328Y0303778D01*
X0175863Y0302313D01*
X0175401Y0302504D01*
Y0303686D01*
X0184304Y0312589D01*
X0184746Y0313251D01*
X0184901Y0314031D01*
Y0330686D01*
X0189304Y0335089D01*
X0189746Y0335751D01*
X0189901Y0336531D01*
Y0344815D01*
X0189800Y0345325D01*
X0189900Y0345478D01*
X0190210Y0345733D01*
X0190698Y0345669D01*
X0190849Y0345553D01*
X0191579Y0345250D01*
X0191670Y0345238D01*
X0192362Y0345147D01*
X0193145Y0345250D01*
X0193875Y0345553D01*
X0194502Y0346034D01*
X0194616Y0346147D01*
X0218684D01*
X0218875Y0345685D01*
D02*
G37*
%LPC*%
G36*
X0274500Y0451582D02*
X0273314Y0451426D01*
X0272209Y0450969D01*
X0271260Y0450240D01*
X0270531Y0449291D01*
X0270074Y0448186D01*
X0269917Y0447000D01*
X0270074Y0445814D01*
X0270531Y0444709D01*
X0271260Y0443760D01*
X0272209Y0443031D01*
X0273314Y0442574D01*
X0274500Y0442417D01*
X0275686Y0442574D01*
X0276791Y0443031D01*
X0277740Y0443760D01*
X0278469Y0444709D01*
X0278926Y0445814D01*
X0279082Y0447000D01*
X0278926Y0448186D01*
X0278469Y0449291D01*
X0277740Y0450240D01*
X0276791Y0450969D01*
X0275686Y0451426D01*
X0274500Y0451582D01*
D02*
G37*
G36*
Y0441582D02*
X0273314Y0441426D01*
X0272209Y0440969D01*
X0271260Y0440240D01*
X0270531Y0439291D01*
X0270074Y0438186D01*
X0269917Y0437000D01*
X0270074Y0435814D01*
X0270531Y0434709D01*
X0271260Y0433760D01*
X0272209Y0433031D01*
X0273314Y0432574D01*
X0274500Y0432417D01*
X0275686Y0432574D01*
X0276791Y0433031D01*
X0277740Y0433760D01*
X0278469Y0434709D01*
X0278926Y0435814D01*
X0279082Y0437000D01*
X0278926Y0438186D01*
X0278469Y0439291D01*
X0277740Y0440240D01*
X0276791Y0440969D01*
X0275686Y0441426D01*
X0274500Y0441582D01*
D02*
G37*
%LPD*%
D16*
X0110862Y0415673D02*
D03*
X0116862D02*
D03*
X0097362D02*
D03*
X0103362D02*
D03*
X0152362Y0415173D02*
D03*
X0158362D02*
D03*
X0138862D02*
D03*
X0144862D02*
D03*
D25*
X0230862Y0247673D02*
Y0263173D01*
X0238535Y0240000D02*
X0267000D01*
X0230862Y0247673D02*
X0238535Y0240000D01*
X0132362Y0343173D02*
X0132862D01*
X0126362Y0349173D02*
X0132362Y0343173D01*
X0112862Y0349173D02*
X0126362D01*
X0117572Y0248953D02*
X0128651Y0260032D01*
X0141247D01*
X0190862Y0348673D02*
X0191862D01*
X0193362Y0349173D02*
X0204453D01*
X0192362Y0348173D02*
X0193362Y0349173D01*
X0191862Y0348673D02*
X0192362Y0348173D01*
X0103547Y0248953D02*
X0117572D01*
X0225362Y0268673D02*
X0230862Y0263173D01*
X0208362Y0457173D02*
X0208862Y0457673D01*
X0208362Y0438673D02*
Y0457173D01*
X0099500Y0244905D02*
X0103547Y0248953D01*
X0099500Y0243000D02*
Y0244905D01*
X0153176Y0255173D02*
X0157956Y0259953D01*
X0146105Y0255173D02*
X0153176D01*
X0141247Y0260032D02*
X0146105Y0255173D01*
X0202862Y0274673D02*
X0247019D01*
X0197862Y0279673D02*
X0202862Y0274673D01*
X0189460Y0279673D02*
X0197862D01*
X0180960Y0271173D02*
X0189460Y0279673D01*
X0179362Y0271173D02*
X0180960D01*
X0168142Y0259953D02*
X0179362Y0271173D01*
X0157956Y0259953D02*
X0168142D01*
X0204453Y0349173D02*
X0219862D01*
X0190862Y0355173D02*
X0215362D01*
D26*
X0267362Y0318016D02*
X0270205Y0315173D01*
X0267362Y0318016D02*
Y0319173D01*
X0233362Y0470173D02*
X0244500Y0459035D01*
X0127862Y0377862D02*
X0143000Y0393000D01*
X0137243Y0383000D02*
X0143000D01*
X0130862Y0376620D02*
X0137243Y0383000D01*
X0130862Y0362573D02*
Y0376620D01*
X0127862Y0361330D02*
Y0377862D01*
X0123362Y0358173D02*
Y0406173D01*
Y0358173D02*
X0126862Y0354673D01*
X0116862Y0379862D02*
Y0415673D01*
X0110000Y0373000D02*
X0116862Y0379862D01*
X0127862Y0361330D02*
X0142362Y0346830D01*
X0130862Y0362573D02*
X0145362Y0348073D01*
X0128862Y0354673D02*
X0138362Y0345173D01*
X0126862Y0354673D02*
X0128862D01*
X0145362Y0338931D02*
Y0348073D01*
X0142362Y0343516D02*
Y0346830D01*
X0128862Y0330016D02*
X0142362Y0343516D01*
X0131862Y0325431D02*
X0145362Y0338931D01*
X0120963Y0341673D02*
X0123862Y0338774D01*
Y0337516D02*
Y0338774D01*
Y0337516D02*
X0127284Y0334095D01*
X0149862Y0263173D02*
Y0271658D01*
X0290862Y0291173D02*
X0295029D01*
X0285196Y0289749D02*
X0286862Y0291416D01*
X0122205Y0344673D02*
X0127784Y0339095D01*
X0167362Y0349573D02*
X0167862Y0349073D01*
X0170362Y0350815D02*
X0170862Y0350315D01*
X0173362Y0352058D02*
X0173862Y0351558D01*
X0158543Y0378543D02*
Y0414992D01*
X0153000Y0403000D02*
Y0414536D01*
X0221247Y0345173D02*
X0221519D01*
X0110862Y0403862D02*
Y0415673D01*
X0110000Y0403000D02*
X0110862Y0403862D01*
X0106157Y0341673D02*
X0120963D01*
X0107400Y0344673D02*
X0122205D01*
X0102862Y0344968D02*
X0106157Y0341673D01*
X0105862Y0346211D02*
X0107400Y0344673D01*
X0105862Y0346211D02*
Y0349298D01*
X0094457Y0360704D02*
X0105862Y0349298D01*
X0102862Y0344968D02*
Y0348056D01*
X0091457Y0359461D02*
X0102862Y0348056D01*
X0094457Y0360704D02*
Y0377457D01*
X0091457Y0359461D02*
Y0384457D01*
X0103362Y0415673D02*
X0110862D01*
X0110000Y0363000D02*
Y0373000D01*
Y0358035D02*
Y0363000D01*
Y0358035D02*
X0112862Y0355173D01*
X0153000Y0373000D02*
X0158543Y0378543D01*
X0153000Y0363000D02*
Y0373000D01*
X0320988Y0398953D02*
X0327638D01*
X0332685Y0404000D01*
X0321206Y0402167D02*
X0323039Y0404000D01*
X0303862Y0402167D02*
X0321206D01*
X0265036Y0424000D02*
X0268362Y0420673D01*
X0267379Y0427000D02*
X0268705Y0425673D01*
X0270036Y0430000D02*
X0270362Y0429673D01*
X0269019Y0425673D02*
X0272362Y0422330D01*
X0268705Y0425673D02*
X0269019D01*
X0320992Y0421953D02*
X0323039Y0424000D01*
X0303862Y0413173D02*
X0310966D01*
X0320988Y0408953D02*
X0327638D01*
X0318202Y0406167D02*
X0320988Y0408953D01*
X0327638D02*
X0332685Y0414000D01*
X0328860Y0420175D02*
X0332685Y0424000D01*
X0324996Y0418953D02*
X0326219Y0420175D01*
X0328860D01*
X0321373Y0392333D02*
X0323039Y0394000D01*
X0303362Y0392333D02*
X0321373D01*
X0320366Y0386673D02*
X0323039Y0384000D01*
X0307362Y0386673D02*
X0320366D01*
X0327992Y0374000D02*
X0332685D01*
X0327992Y0371949D02*
Y0374000D01*
X0325091Y0369047D02*
X0327992Y0371949D01*
X0320992Y0366047D02*
X0323039Y0364000D01*
X0272362Y0421173D02*
Y0422330D01*
Y0421173D02*
X0274862Y0418673D01*
X0168362Y0471673D02*
Y0474673D01*
X0267705Y0415673D02*
X0267862D01*
X0155862Y0355173D02*
Y0360138D01*
X0153000Y0363000D02*
X0155862Y0360138D01*
X0158362Y0415173D02*
X0158543Y0414992D01*
X0152362Y0415173D02*
X0153000Y0414536D01*
X0144862Y0415173D02*
X0152362D01*
X0268862Y0412516D02*
X0270362Y0411016D01*
Y0413173D01*
X0327732Y0339047D02*
X0332685Y0344000D01*
X0327638Y0328953D02*
X0332685Y0334000D01*
X0267862Y0415673D02*
X0270362Y0413173D01*
X0094457Y0377457D02*
X0100000Y0383000D01*
X0091457Y0384457D02*
X0100000Y0393000D01*
X0266362Y0320173D02*
X0267362Y0319173D01*
X0332685Y0324000D02*
X0337638Y0319047D01*
Y0311449D02*
Y0319047D01*
X0335236Y0309047D02*
X0337638Y0311449D01*
X0278196Y0297173D02*
X0279105D01*
X0321689Y0324000D02*
X0323039D01*
X0318949Y0278953D02*
X0327638D01*
X0332685Y0284000D01*
X0277000Y0240000D02*
X0279996D01*
X0318949Y0278953D01*
X0295029Y0297173D02*
X0299529Y0301673D01*
X0315222Y0309047D02*
X0335236D01*
X0315932Y0314000D02*
X0323039D01*
X0295029Y0291173D02*
X0308362D01*
X0264862D02*
X0278196D01*
X0299529Y0301673D02*
X0307848D01*
X0315222Y0309047D01*
X0308362Y0297173D02*
X0315189Y0304000D01*
X0323039D01*
X0305362Y0307673D02*
X0321689Y0324000D01*
X0290105Y0304673D02*
X0306605D01*
X0315932Y0314000D01*
X0313362Y0297173D02*
X0317862Y0292673D01*
X0308362Y0297173D02*
X0313362D01*
X0317862Y0287173D02*
Y0292673D01*
X0270862Y0307673D02*
X0305362D01*
X0286862Y0301431D02*
X0290105Y0304673D01*
X0209862Y0423173D02*
X0237998D01*
X0240172Y0421000D01*
X0262379D01*
X0267705Y0415673D01*
X0251601Y0430000D02*
X0270036D01*
X0250358Y0427000D02*
X0267379D01*
X0249115Y0424000D02*
X0265036D01*
X0213862Y0426173D02*
X0246942D01*
X0249115Y0424000D01*
X0247500Y0434100D02*
X0251601Y0430000D01*
X0247500Y0434100D02*
Y0465311D01*
X0244500Y0432858D02*
X0250358Y0427000D01*
X0244500Y0432858D02*
Y0459035D01*
X0214500Y0480500D02*
X0216827Y0478173D01*
X0257362Y0476173D02*
X0262862Y0470673D01*
X0320988Y0418953D02*
X0324996D01*
X0310966Y0413173D02*
X0319745Y0421953D01*
X0320992D01*
X0311862Y0465177D02*
Y0467815D01*
Y0465177D02*
X0323039Y0454000D01*
X0300504Y0479173D02*
X0311862Y0467815D01*
X0262862Y0470673D02*
X0304762D01*
X0308862Y0466573D01*
X0316039Y0427000D02*
X0323039Y0434000D01*
X0309039Y0430000D02*
X0323039Y0444000D01*
X0302961Y0427000D02*
X0316039D01*
X0301718Y0430000D02*
X0309039D01*
X0308862Y0443173D02*
Y0466573D01*
X0286362Y0420673D02*
X0308862Y0443173D01*
X0268862Y0412516D02*
Y0412673D01*
X0320988Y0339047D02*
X0327732D01*
X0321659Y0345381D02*
X0321722Y0345444D01*
X0321659Y0345381D02*
X0323039Y0344000D01*
X0317862Y0342173D02*
X0320988Y0339047D01*
X0317862Y0342173D02*
Y0347930D01*
X0321793Y0354000D02*
X0323039D01*
X0321722Y0345444D02*
Y0348313D01*
X0318083Y0328953D02*
X0327638D01*
X0301862Y0315173D02*
X0310362Y0323673D01*
X0270205Y0315173D02*
X0301862D01*
X0281862Y0319173D02*
X0292362D01*
X0306327Y0333138D01*
X0276862Y0319830D02*
X0280205Y0323173D01*
X0276862Y0319173D02*
Y0319830D01*
X0327638Y0359047D02*
X0332685Y0354000D01*
X0306862Y0345173D02*
X0307862D01*
X0280205Y0323173D02*
X0284862D01*
X0271862Y0319173D02*
Y0319830D01*
X0294720Y0342688D01*
X0264705Y0323173D02*
X0267862D01*
X0264205Y0322673D02*
X0264705Y0323173D01*
X0260862Y0322673D02*
X0264205D01*
X0260862Y0311673D02*
Y0322673D01*
X0269362Y0305516D02*
Y0306173D01*
X0270862Y0307673D01*
X0316100Y0369673D02*
X0316109Y0369683D01*
X0316109D01*
X0319745Y0366047D01*
X0320992D01*
X0267862Y0323173D02*
X0295362Y0350673D01*
X0294720Y0342688D02*
X0298749D01*
X0314862Y0332173D02*
Y0346688D01*
Y0332173D02*
X0318083Y0328953D01*
X0310362Y0323673D02*
Y0330173D01*
X0284862Y0323173D02*
X0306862Y0345173D01*
X0306327Y0333138D02*
Y0333209D01*
X0316988Y0379047D02*
X0327732D01*
X0332685Y0384000D01*
X0314857Y0372673D02*
X0316457Y0374273D01*
X0316457D01*
X0318087Y0372644D01*
Y0371949D02*
Y0372644D01*
Y0371949D02*
X0320988Y0369047D01*
X0325091D01*
X0320988Y0359047D02*
X0327638D01*
X0319745Y0356047D02*
X0320362D01*
Y0355430D02*
Y0356047D01*
Y0355430D02*
X0321793Y0354000D01*
X0313614Y0375673D02*
X0316988Y0379047D01*
X0314490Y0366673D02*
X0318087Y0363076D01*
Y0361948D02*
Y0363076D01*
Y0361948D02*
X0320988Y0359047D01*
X0315087Y0360706D02*
Y0360834D01*
Y0360706D02*
X0319745Y0356047D01*
X0209122Y0471173D02*
X0213122Y0475173D01*
X0216827Y0478173D02*
X0250463D01*
X0251463Y0479173D01*
X0300504D01*
X0213122Y0475173D02*
X0251705D01*
X0252705Y0476173D01*
X0257362D01*
X0247500Y0465311D02*
X0254362Y0472173D01*
X0200362Y0432673D02*
X0209862Y0423173D01*
X0168362Y0471673D02*
X0213862Y0426173D01*
X0116862Y0415673D02*
X0138362Y0437173D01*
X0141362D01*
X0224975Y0336173D02*
X0225247D01*
X0223732Y0339173D02*
X0224004D01*
X0222490Y0342173D02*
X0222762D01*
X0148205Y0259173D02*
X0151519D01*
X0153991Y0261645D01*
X0312444Y0406167D02*
X0318202D01*
X0302205D02*
X0305519D01*
X0306519Y0405167D01*
X0311444D01*
X0312444Y0406167D01*
X0300963Y0409167D02*
X0306762D01*
X0307762Y0408167D01*
X0310202D01*
X0320988Y0418953D01*
X0283377Y0403173D02*
X0294969D01*
X0300963Y0409167D01*
X0284620Y0400173D02*
X0296212D01*
X0302205Y0406167D01*
X0285862Y0397173D02*
X0319208D01*
X0320988Y0398953D01*
X0164362Y0348330D02*
X0164862Y0347830D01*
X0181862Y0339016D02*
Y0342330D01*
X0184862Y0337774D02*
Y0343573D01*
X0160362Y0321673D02*
X0161862Y0323173D01*
X0187862Y0336531D02*
Y0344815D01*
X0179862Y0332774D02*
X0184862Y0337774D01*
X0176862Y0334016D02*
X0181862Y0339016D01*
X0161862Y0323173D02*
Y0323830D01*
X0155362Y0324173D02*
X0164862Y0333673D01*
Y0347830D01*
X0161862Y0323830D02*
X0167862Y0329830D01*
Y0349073D01*
X0165862Y0322173D02*
X0170862Y0327173D01*
Y0350315D01*
X0182862Y0331531D02*
X0187862Y0336531D01*
X0171862Y0317173D02*
X0173862Y0319173D01*
Y0351558D01*
X0165862Y0317173D02*
X0166205D01*
X0153991Y0261645D02*
Y0271545D01*
X0185500Y0296698D02*
X0224975Y0336173D01*
X0126862Y0280516D02*
X0148205Y0259173D01*
X0149862Y0271658D02*
X0150870Y0272666D01*
X0144862Y0299673D02*
X0147953Y0302764D01*
X0129862Y0286516D02*
X0133205Y0283173D01*
X0160362Y0313173D02*
Y0321673D01*
X0126862Y0280516D02*
Y0302573D01*
X0128862Y0304573D01*
Y0330016D01*
X0129862Y0286516D02*
Y0301330D01*
X0131862Y0303330D01*
Y0325431D01*
X0166205Y0317173D02*
X0170205Y0313173D01*
X0173519D01*
X0176862Y0316516D01*
Y0334016D01*
X0179862Y0315274D02*
Y0332774D01*
X0173362Y0304531D02*
X0182862Y0314031D01*
Y0331531D01*
X0179247Y0303173D02*
X0221247Y0345173D01*
X0182490Y0302173D02*
X0222490Y0342173D01*
X0191547Y0306988D02*
X0223732Y0339173D01*
X0288196Y0288507D02*
X0290862Y0291173D01*
X0309362Y0278673D02*
X0317862Y0287173D01*
X0260862Y0311673D02*
X0265362Y0307173D01*
X0264862Y0297173D02*
Y0301173D01*
X0266362Y0302673D01*
Y0303173D01*
X0267019D01*
X0269362Y0305516D01*
X0147953Y0302764D02*
X0160115D01*
X0286862Y0291416D02*
Y0301431D01*
X0273862Y0278673D02*
X0309362D01*
X0169362Y0304774D02*
X0179862Y0315274D01*
X0169362Y0299173D02*
Y0304774D01*
X0173362Y0297516D02*
Y0304531D01*
X0171019Y0295173D02*
X0173362Y0297516D01*
X0186862Y0345815D02*
X0187862Y0344815D01*
X0186862Y0345815D02*
Y0359016D01*
X0189862Y0361673D02*
Y0362673D01*
X0180862Y0343330D02*
X0181862Y0342330D01*
X0183862Y0344573D02*
X0184862Y0343573D01*
X0177862Y0340673D02*
Y0355289D01*
X0176362Y0356788D02*
X0177862Y0355289D01*
X0180862Y0343330D02*
Y0356531D01*
X0179362Y0358031D02*
X0180862Y0356531D01*
X0183862Y0344573D02*
Y0357774D01*
X0182362Y0359274D02*
X0183862Y0357774D01*
X0185362Y0360516D02*
X0186862Y0359016D01*
X0167362Y0349573D02*
Y0370286D01*
X0170362Y0350815D02*
Y0369043D01*
X0173362Y0352058D02*
Y0367801D01*
X0176362Y0356788D02*
Y0366558D01*
X0179362Y0358031D02*
Y0365315D01*
X0182362Y0359274D02*
Y0364073D01*
X0185362Y0360516D02*
Y0362830D01*
X0164362Y0348330D02*
Y0371529D01*
X0189862Y0362673D02*
X0193862Y0366673D01*
X0314490D01*
X0185362Y0362830D02*
X0192205Y0369673D01*
X0316100D01*
X0164362Y0371529D02*
X0183507Y0390673D01*
X0262392D01*
X0301718Y0430000D01*
X0167362Y0370286D02*
X0184750Y0387673D01*
X0263634D01*
X0170362Y0369043D02*
X0185992Y0384673D01*
X0264877D01*
X0173362Y0367801D02*
X0187235Y0381673D01*
X0266120D01*
X0176362Y0366558D02*
X0188478Y0378673D01*
X0267362D01*
X0179362Y0365315D02*
X0189720Y0375673D01*
X0182362Y0364073D02*
X0190963Y0372673D01*
X0263634Y0387673D02*
X0302961Y0427000D01*
X0264877Y0384673D02*
X0283377Y0403173D01*
X0266120Y0381673D02*
X0284620Y0400173D01*
X0267362Y0378673D02*
X0285862Y0397173D01*
X0189720Y0375673D02*
X0313614D01*
X0190963Y0372673D02*
X0314857D01*
X0317362Y0352673D02*
Y0354188D01*
Y0352673D02*
X0321722Y0348313D01*
X0314362Y0351430D02*
Y0352945D01*
Y0351430D02*
X0317862Y0347930D01*
X0311362Y0350188D02*
X0314862Y0346688D01*
X0311362Y0350188D02*
Y0351702D01*
X0298749Y0342688D02*
X0306735Y0350673D01*
X0225247Y0336173D02*
X0243747Y0354673D01*
X0308391D01*
X0311362Y0351702D01*
X0224004Y0339173D02*
X0242504Y0357673D01*
X0309634D01*
X0314362Y0352945D01*
X0222762Y0342173D02*
X0241262Y0360673D01*
X0311004D01*
X0312087Y0359591D01*
Y0359463D02*
Y0359591D01*
Y0359463D02*
X0317362Y0354188D01*
X0312247Y0363673D02*
X0315087Y0360834D01*
X0221519Y0345173D02*
X0240019Y0363673D01*
X0312247D01*
X0167705Y0295173D02*
X0171019D01*
X0160115Y0302764D02*
X0167705Y0295173D01*
D27*
X0254500Y0447000D02*
Y0450496D01*
X0169862Y0388673D02*
X0194362Y0413173D01*
X0169862Y0387673D02*
Y0388673D01*
X0194362Y0413173D02*
X0256362D01*
X0254500Y0437000D02*
Y0447000D01*
Y0450496D02*
X0266677Y0462673D01*
X0266762D01*
X0267762Y0463673D01*
X0301862D01*
D28*
X0153991Y0271545D02*
Y0271605D01*
X0159862Y0273673D02*
X0160362Y0273173D01*
X0159862Y0273673D02*
X0160612Y0274423D01*
X0160362Y0272673D02*
Y0273173D01*
X0139862Y0299173D02*
X0140059D01*
X0153991Y0271605D02*
X0159309Y0276923D01*
X0150870Y0272666D02*
X0157627Y0279423D01*
X0133205Y0283173D02*
X0133382Y0283350D01*
X0133382D01*
X0134809Y0281923D01*
X0135362Y0286673D02*
X0143327D01*
X0145577Y0284423D01*
X0140059Y0299173D02*
X0143309Y0295923D01*
X0134059Y0299673D02*
X0146309Y0287423D01*
X0133862Y0299673D02*
X0134059D01*
X0280855Y0295423D02*
X0283554D01*
X0284946Y0294032D01*
X0153110Y0298764D02*
X0160226D01*
X0181112Y0296553D02*
X0191547Y0306988D01*
X0184112Y0295310D02*
X0185500Y0296698D01*
X0176112Y0300039D02*
X0179247Y0303173D01*
X0178612Y0298296D02*
X0182490Y0302173D01*
X0280855Y0295423D02*
X0285734Y0300302D01*
X0283554Y0286923D02*
X0284946Y0288315D01*
Y0294032D01*
X0259504Y0286923D02*
X0283554D01*
X0288196Y0288029D02*
Y0288507D01*
X0284590Y0284423D02*
X0288196Y0288029D01*
X0258468Y0284423D02*
X0284590D01*
X0259862Y0278673D02*
X0273862D01*
X0254862Y0283673D02*
X0259862Y0278673D01*
X0256718Y0286173D02*
X0258468Y0284423D01*
X0257753Y0288673D02*
X0259504Y0286923D01*
X0176112Y0296377D02*
Y0300039D01*
X0178612Y0295342D02*
Y0298296D01*
X0181112Y0294306D02*
Y0296553D01*
X0188157Y0283673D02*
X0254862D01*
X0187121Y0286173D02*
X0256718D01*
X0186086Y0288673D02*
X0257753D01*
X0185050Y0291173D02*
X0264862D01*
X0184112Y0293771D02*
Y0295310D01*
X0172158Y0292423D02*
X0176112Y0296377D01*
X0165531Y0289923D02*
X0173194D01*
X0178612Y0295342D01*
X0146309Y0287423D02*
X0174229D01*
X0181112Y0294306D01*
X0175265Y0284923D02*
X0184112Y0293771D01*
X0176300Y0282423D02*
X0185050Y0291173D01*
X0177336Y0279923D02*
X0186086Y0288673D01*
X0178371Y0277423D02*
X0187121Y0286173D01*
X0179407Y0274923D02*
X0188157Y0283673D01*
X0172667Y0284923D02*
X0175265D01*
X0173702Y0282423D02*
X0176300D01*
X0174738Y0279923D02*
X0177336D01*
X0175774Y0277423D02*
X0178371D01*
X0176809Y0274923D02*
X0179407D01*
X0145577Y0284423D02*
X0172167D01*
X0172667Y0284923D01*
X0134809Y0281923D02*
X0173202D01*
X0173702Y0282423D01*
X0157627Y0279423D02*
X0174238D01*
X0174738Y0279923D01*
X0159309Y0276923D02*
X0175274D01*
X0175774Y0277423D01*
X0160612Y0274423D02*
X0176309D01*
X0176809Y0274923D01*
X0160226Y0298764D02*
X0166566Y0292423D01*
X0172158D01*
X0143309Y0295923D02*
X0150647D01*
X0151556Y0295014D01*
X0160440D01*
X0165531Y0289923D01*
D30*
X0100000Y0363000D02*
D03*
Y0373000D02*
D03*
Y0383000D02*
D03*
Y0393000D02*
D03*
Y0403000D02*
D03*
X0110000D02*
D03*
Y0393000D02*
D03*
Y0383000D02*
D03*
Y0373000D02*
D03*
X0143000Y0363000D02*
D03*
Y0373000D02*
D03*
Y0383000D02*
D03*
Y0393000D02*
D03*
Y0403000D02*
D03*
X0153000D02*
D03*
Y0393000D02*
D03*
Y0383000D02*
D03*
Y0373000D02*
D03*
X0254500Y0447000D02*
D03*
X0264500D02*
D03*
X0274500D02*
D03*
X0284500D02*
D03*
X0294500D02*
D03*
Y0437000D02*
D03*
X0284500D02*
D03*
X0274500D02*
D03*
X0264500D02*
D03*
D31*
X0110000Y0363000D02*
D03*
X0153000D02*
D03*
D32*
X0204500Y0480500D02*
D03*
X0099500Y0243000D02*
D03*
X0323039Y0454000D02*
D03*
Y0444000D02*
D03*
Y0434000D02*
D03*
Y0424000D02*
D03*
Y0414000D02*
D03*
Y0404000D02*
D03*
Y0394000D02*
D03*
Y0384000D02*
D03*
Y0374000D02*
D03*
Y0364000D02*
D03*
Y0354000D02*
D03*
Y0344000D02*
D03*
Y0334000D02*
D03*
Y0324000D02*
D03*
Y0314000D02*
D03*
Y0304000D02*
D03*
Y0294000D02*
D03*
Y0284000D02*
D03*
Y0274000D02*
D03*
Y0264000D02*
D03*
X0332685Y0264000D02*
D03*
Y0274000D02*
D03*
Y0284000D02*
D03*
Y0294000D02*
D03*
Y0304000D02*
D03*
Y0314000D02*
D03*
Y0324000D02*
D03*
Y0334000D02*
D03*
Y0344000D02*
D03*
Y0354000D02*
D03*
Y0364000D02*
D03*
Y0374000D02*
D03*
Y0384000D02*
D03*
Y0394000D02*
D03*
Y0404000D02*
D03*
Y0414000D02*
D03*
Y0424000D02*
D03*
Y0434000D02*
D03*
Y0444000D02*
D03*
Y0454000D02*
D03*
X0196000Y0254000D02*
D03*
X0186000D02*
D03*
X0195500Y0239500D02*
D03*
X0185500D02*
D03*
X0277000Y0240000D02*
D03*
X0287000D02*
D03*
X0297000D02*
D03*
X0307000D02*
D03*
D33*
X0214500Y0480500D02*
D03*
X0109500Y0243000D02*
D03*
X0176000Y0254000D02*
D03*
X0175500Y0239500D02*
D03*
X0267000Y0240000D02*
D03*
D34*
X0254500Y0437000D02*
D03*
D35*
X0093689Y0444161D02*
D03*
X0094189Y0273661D02*
D03*
X0093689Y0321161D02*
D03*
D36*
X0105500Y0431563D02*
D03*
X0106000Y0261063D02*
D03*
X0105500Y0308563D02*
D03*
D37*
X0118098Y0450067D02*
D03*
X0118598Y0279567D02*
D03*
X0118098Y0327067D02*
D03*
D38*
X0111406Y0455500D02*
D03*
X0111906Y0285000D02*
D03*
X0111406Y0332500D02*
D03*
D39*
X0101563Y0435500D02*
D03*
X0102063Y0265000D02*
D03*
X0101563Y0312500D02*
D03*
D40*
X0327862Y0473173D02*
D03*
D41*
Y0244827D02*
D03*
X0134949D02*
D03*
Y0473173D02*
D03*
D42*
X0271862Y0319173D02*
D03*
X0276862D02*
D03*
X0281862D02*
D03*
X0233362Y0470173D02*
D03*
X0138362Y0345173D02*
D03*
X0132862Y0343173D02*
D03*
X0127862Y0339173D02*
D03*
X0127362Y0334173D02*
D03*
X0149862Y0263173D02*
D03*
X0177862Y0340673D02*
D03*
X0160862Y0345803D02*
D03*
X0169862Y0387673D02*
D03*
X0190862Y0348673D02*
D03*
X0123362Y0406173D02*
D03*
X0215362Y0355173D02*
D03*
X0204453Y0349173D02*
D03*
X0219862D02*
D03*
X0270362Y0429673D02*
D03*
X0303862Y0413173D02*
D03*
Y0402167D02*
D03*
X0307362Y0386673D02*
D03*
X0303362Y0392333D02*
D03*
X0168362Y0474673D02*
D03*
X0268362Y0420673D02*
D03*
X0274862Y0418673D02*
D03*
X0266362Y0319173D02*
D03*
X0225362Y0268673D02*
D03*
X0230862Y0247673D02*
D03*
X0247019Y0274673D02*
D03*
X0217862Y0471173D02*
D03*
X0286362Y0420673D02*
D03*
X0268862Y0412673D02*
D03*
X0307862Y0345173D02*
D03*
X0295362Y0350673D02*
D03*
X0310362Y0330173D02*
D03*
X0306327Y0333209D02*
D03*
X0209122Y0471173D02*
D03*
X0254362Y0472173D02*
D03*
X0160362Y0420673D02*
D03*
X0208862Y0457673D02*
D03*
X0200362Y0432673D02*
D03*
X0208362Y0438673D02*
D03*
X0141362Y0437173D02*
D03*
X0165862Y0317173D02*
D03*
X0155362Y0324173D02*
D03*
X0165862Y0322173D02*
D03*
X0171862Y0317173D02*
D03*
X0133862Y0299673D02*
D03*
X0135362Y0286673D02*
D03*
X0160362Y0272673D02*
D03*
X0139862Y0299173D02*
D03*
X0144862Y0299673D02*
D03*
X0160362Y0313173D02*
D03*
X0265362Y0307173D02*
D03*
X0153110Y0298764D02*
D03*
X0169362Y0299173D02*
D03*
X0189862Y0361673D02*
D03*
X0190862Y0355173D02*
D03*
X0306735Y0350673D02*
D03*
D43*
X0172862Y0390673D02*
D03*
X0166862Y0389673D02*
D03*
X0256362Y0413173D02*
D03*
X0247862Y0416173D02*
D03*
X0302862Y0463673D02*
D03*
X0297362D02*
D03*
X0169862Y0394173D02*
D03*
X0294362Y0392673D02*
D03*
X0294862Y0382173D02*
D03*
Y0412173D02*
D03*
X0203862Y0335173D02*
D03*
X0189862Y0330673D02*
D03*
X0189362Y0321173D02*
D03*
X0190862Y0295673D02*
D03*
X0191362Y0273673D02*
D03*
D44*
X0090000Y0240000D02*
D03*
X0095000Y0250000D02*
D03*
Y0290000D02*
D03*
X0090000Y0300000D02*
D03*
Y0340000D02*
D03*
X0095000Y0350000D02*
D03*
X0090000Y0400000D02*
D03*
Y0420000D02*
D03*
Y0460000D02*
D03*
X0095000Y0470000D02*
D03*
X0090000Y0480000D02*
D03*
X0100000Y0300000D02*
D03*
Y0320000D02*
D03*
Y0340000D02*
D03*
X0105000Y0470000D02*
D03*
X0100000Y0480000D02*
D03*
X0110000Y0300000D02*
D03*
Y0320000D02*
D03*
X0115000Y0470000D02*
D03*
X0110000Y0480000D02*
D03*
X0120000Y0240000D02*
D03*
X0125000Y0270000D02*
D03*
Y0430000D02*
D03*
X0120000Y0480000D02*
D03*
X0130000Y0420000D02*
D03*
X0150000Y0240000D02*
D03*
X0155000Y0250000D02*
D03*
Y0430000D02*
D03*
Y0470000D02*
D03*
X0150000Y0480000D02*
D03*
X0160000Y0240000D02*
D03*
X0165000Y0250000D02*
D03*
Y0450000D02*
D03*
Y0470000D02*
D03*
X0160000Y0480000D02*
D03*
X0175000Y0410000D02*
D03*
X0170000Y0420000D02*
D03*
X0175000Y0450000D02*
D03*
X0180000Y0420000D02*
D03*
X0185000Y0470000D02*
D03*
X0205000Y0250000D02*
D03*
X0210000Y0300000D02*
D03*
X0215000Y0310000D02*
D03*
X0220000Y0300000D02*
D03*
Y0360000D02*
D03*
Y0460000D02*
D03*
X0235000Y0270000D02*
D03*
Y0310000D02*
D03*
Y0330000D02*
D03*
Y0430000D02*
D03*
X0230000Y0460000D02*
D03*
X0245000Y0310000D02*
D03*
X0240000Y0340000D02*
D03*
Y0440000D02*
D03*
X0255000Y0250000D02*
D03*
X0250000Y0340000D02*
D03*
X0265000Y0250000D02*
D03*
X0260000Y0260000D02*
D03*
X0275000Y0250000D02*
D03*
X0270000Y0260000D02*
D03*
X0275000Y0270000D02*
D03*
X0280000Y0260000D02*
D03*
X0285000Y0270000D02*
D03*
Y0430000D02*
D03*
X0290000Y0260000D02*
D03*
X0295000Y0270000D02*
D03*
X0300000Y0440000D02*
D03*
X0305000Y0450000D02*
D03*
X0310000Y0420000D02*
D03*
X0320000Y0480000D02*
D03*
D45*
X0112862Y0349173D02*
D03*
Y0355173D02*
D03*
X0155862Y0349173D02*
D03*
Y0355173D02*
D03*
X0278196Y0297173D02*
D03*
Y0291173D02*
D03*
X0264862D02*
D03*
Y0297173D02*
D03*
X0308362D02*
D03*
Y0291173D02*
D03*
X0295029D02*
D03*
Y0297173D02*
D03*
M02*
