M48
;Layer_Color=9474304
;FILE_FORMAT=2:4
INCH
;TYPE=PLATED
T1F00S00C0.0160
T2F00S00C0.0210
T3F00S00C0.0280
T4F00S00C0.0300
T5F00S00C0.0315
T6F00S00C0.0354
T8F00S00C0.0398
T9F00S00C0.0512
T10F00S00C0.1250
%
T01
X016000Y024000
X016500Y025000
X020500
X023500Y027000
X026000Y026000
X027000
X028000
X029000
X028500Y027000
X027500
Y025000
X026500
X025500
X029500Y027000
X024500Y031000
X023500
X021500
X021000Y030000
X022000
X011000
X010000
X009000
X009500Y029000
Y025000
X009000Y024000
X012000
X015000
X015500Y025000
X012500Y027000
X011000Y032000
X010000
Y034000
X009000
X009500Y035000
X009000Y040000
Y042000
Y046000
X012500Y043000
X013000Y042000
X015500Y043000
X017000Y042000
X018000
X017500Y041000
Y045000
X016500
X022000Y046000
X023000
X024000Y044000
X023500Y043000
X028500
X030000Y044000
X030500Y045000
X031000Y042000
X025000Y034000
X024000
X023500Y033000
X022000Y036000
X032000Y048000
X018500Y047000
X016500
X016000Y048000
X015000
X015500Y047000
X011500
X010500
X009500
X009000Y048000
X010000
X011000
X012000
T02
X016036Y027267
X016936Y029917
X022536Y026867
X023086Y024767
X024702Y027467
X026536Y030717
X015311Y029876
X014486Y029967
X013986Y029917
X013386Y029967
X013536Y028667
X014986Y026317
X015536Y032417
X013836Y034517
X013286Y034317
X012786Y033917
X012736Y033417
X012336Y040617
X014136Y043717
X016036Y042067
X016986Y038767
X018986Y036167
X019086Y035517
Y034867
X020445Y034917
X021986
X021536Y035517
X017786Y034067
X016086Y034580
X016586Y032217
Y031717
X017186
X016036Y031317
X026636Y031917
X027186
X027686
X028186
X030633Y033321
X031036Y033017
X030786Y034517
X030673Y035067
X029536Y035067
X030736Y038667
X030336Y039233
X030386Y040217
Y041317
X028636Y042067
X027486Y041867
X026836Y042067
X026886Y041267
X027036Y042967
X020836Y043867
X020036Y043267
X020886Y045767
X020912Y047117
X021786
X023336Y047017
X025436Y047217
X016836Y047467
T03
X019136Y027367
X019086Y029567
X018936Y032117
X018986Y033067
X020386Y033517
X017286Y039067
X016986Y039417
X016686Y038967
X024786Y041617
X025636Y041317
X029486Y041217
X029436Y039267
X029486Y038217
X029736Y046367
X030286
T04
X011000Y036300
X015300
X025450Y043700
T05
X032304Y026400
X033269Y026400
Y027400
X032304Y027400
Y028400
X033269Y028400
Y029400
X032304Y029400
Y030400
X033269Y030400
Y031400
X032304Y031400
Y032400
X033269Y032400
Y033400
X032304Y033400
Y034400
X033269Y034400
Y035400
X032304Y035400
Y036400
X033269Y036400
Y037400
X032304Y037400
Y038400
X033269Y038400
Y039400
X032304Y039400
Y040400
X033269Y040400
Y041400
X032304Y041400
Y042400
X033269Y042400
Y043400
X032304Y043400
Y044400
X033269Y044400
Y045400
X032304Y045400
T06
X017550Y023950
X018550
X019550
X019600Y025400
X018600
X017600
X026700Y024000
X027700
X028700
X029700
X030700
X010950Y024300
X009950
X020450Y048050
X021450
T08
X010000Y036300
Y037300
Y038300
Y039300
Y040300
X011000
Y039300
Y038300
Y037300
X014300
Y036300
Y038300
Y039300
Y040300
X015300
Y039300
Y038300
Y037300
X025450Y044700
X026450
X027450
X028450
X029450
Y043700
X028450
X027450
X026450
T09
X010600Y026500
Y028500
X010550Y031250
Y033250
Y043550
Y045550
T10
X032786Y024483
X013495
X032786Y047317
X013495
M30
