%FSAX25Y25*%
%MOIN*%
G70*
G01*
G75*
G04 Layer_Color=65535*
%ADD10R,0.02756X0.03543*%
%ADD11R,0.08661X0.07874*%
%ADD12R,0.03543X0.02756*%
%ADD13R,0.08071X0.07480*%
%ADD14R,0.07284X0.04921*%
%ADD15R,0.11417X0.06102*%
G04:AMPARAMS|DCode=16|XSize=50mil|YSize=100mil|CornerRadius=6.25mil|HoleSize=0mil|Usage=FLASHONLY|Rotation=0.000|XOffset=0mil|YOffset=0mil|HoleType=Round|Shape=RoundedRectangle|*
%AMROUNDEDRECTD16*
21,1,0.05000,0.08750,0,0,0.0*
21,1,0.03750,0.10000,0,0,0.0*
1,1,0.01250,0.01875,-0.04375*
1,1,0.01250,-0.01875,-0.04375*
1,1,0.01250,-0.01875,0.04375*
1,1,0.01250,0.01875,0.04375*
%
%ADD16ROUNDEDRECTD16*%
%ADD17R,0.05118X0.04331*%
%ADD18R,0.04331X0.05118*%
%ADD19R,0.03937X0.09449*%
%ADD20R,0.12992X0.09449*%
%ADD21R,0.08268X0.12598*%
%ADD22R,0.08268X0.03543*%
%ADD23O,0.02756X0.10827*%
%ADD24R,0.05906X0.11811*%
%ADD25C,0.04000*%
%ADD26C,0.02000*%
%ADD27C,0.10000*%
%ADD28C,0.01500*%
%ADD29C,0.03500*%
%ADD30C,0.07087*%
%ADD31R,0.06394X0.06394*%
%ADD32C,0.05906*%
%ADD33R,0.05906X0.05906*%
%ADD34R,0.06394X0.06394*%
%ADD35O,0.07874X0.25590*%
G04:AMPARAMS|DCode=36|XSize=157.48mil|YSize=118.11mil|CornerRadius=29.53mil|HoleSize=0mil|Usage=FLASHONLY|Rotation=180.000|XOffset=0mil|YOffset=0mil|HoleType=Round|Shape=RoundedRectangle|*
%AMROUNDEDRECTD36*
21,1,0.15748,0.05906,0,0,180.0*
21,1,0.09843,0.11811,0,0,180.0*
1,1,0.05906,-0.04921,0.02953*
1,1,0.05906,0.04921,0.02953*
1,1,0.05906,0.04921,-0.02953*
1,1,0.05906,-0.04921,-0.02953*
%
%ADD36ROUNDEDRECTD36*%
%ADD37O,0.07874X0.19685*%
%ADD38O,0.21260X0.09843*%
G04:AMPARAMS|DCode=39|XSize=236.22mil|YSize=98.43mil|CornerRadius=24.61mil|HoleSize=0mil|Usage=FLASHONLY|Rotation=180.000|XOffset=0mil|YOffset=0mil|HoleType=Round|Shape=RoundedRectangle|*
%AMROUNDEDRECTD39*
21,1,0.23622,0.04921,0,0,180.0*
21,1,0.18701,0.09843,0,0,180.0*
1,1,0.04921,-0.09350,0.02461*
1,1,0.04921,0.09350,0.02461*
1,1,0.04921,0.09350,-0.02461*
1,1,0.04921,-0.09350,-0.02461*
%
%ADD39ROUNDEDRECTD39*%
%ADD40C,0.16000*%
%ADD41C,0.24410*%
%ADD42C,0.04000*%
%ADD43C,0.05000*%
%ADD44C,0.03200*%
G04:AMPARAMS|DCode=45|XSize=50mil|YSize=100mil|CornerRadius=6.25mil|HoleSize=0mil|Usage=FLASHONLY|Rotation=90.000|XOffset=0mil|YOffset=0mil|HoleType=Round|Shape=RoundedRectangle|*
%AMROUNDEDRECTD45*
21,1,0.05000,0.08750,0,0,90.0*
21,1,0.03750,0.10000,0,0,90.0*
1,1,0.01250,0.04375,0.01875*
1,1,0.01250,0.04375,-0.01875*
1,1,0.01250,-0.04375,-0.01875*
1,1,0.01250,-0.04375,0.01875*
%
%ADD45ROUNDEDRECTD45*%
%ADD46C,0.00787*%
%ADD47C,0.00984*%
%ADD48C,0.01000*%
%ADD49C,0.00500*%
%ADD50C,0.01200*%
%ADD51C,0.00800*%
%ADD52R,0.07284X0.02165*%
D46*
X0195675Y0474988D02*
G03*
X0195675Y0474988I-0000545J0000000D01*
G01*
X0242675D02*
G03*
X0242675Y0474988I-0000545J0000000D01*
G01*
X0282675D02*
G03*
X0282675Y0474988I-0000545J0000000D01*
G01*
X0192815Y0342409D02*
X0193209D01*
X0192815Y0339653D02*
X0193209D01*
X0231410Y0363791D02*
Y0364185D01*
X0228654Y0363791D02*
Y0364185D01*
X0193315Y0310910D02*
X0193709D01*
X0193315Y0308154D02*
X0193709D01*
X0229909Y0330791D02*
Y0331185D01*
X0227153Y0330791D02*
Y0331185D01*
X0193315Y0275909D02*
X0193709D01*
X0193315Y0273153D02*
X0193709D01*
X0229909Y0296791D02*
Y0297185D01*
X0227153Y0296791D02*
Y0297185D01*
X0184106Y0483847D02*
X0184894D01*
X0184106Y0477153D02*
X0184894D01*
X0231106Y0483847D02*
X0231894D01*
X0231106Y0477153D02*
X0231894D01*
X0271106Y0483847D02*
X0271894D01*
X0271106Y0477153D02*
X0271894D01*
X0283858Y0475862D02*
X0291142D01*
X0283858Y0471138D02*
Y0475862D01*
X0291142Y0471138D02*
Y0475862D01*
X0305815Y0471228D02*
Y0474772D01*
X0295185Y0471228D02*
Y0474772D01*
X0199500Y0475500D02*
X0219500D01*
Y0485500D01*
X0199500D02*
X0219500D01*
X0199500Y0475500D02*
Y0485500D01*
X0094500Y0238000D02*
X0114500D01*
Y0248000D01*
X0094500D02*
X0114500D01*
X0094500Y0238000D02*
Y0248000D01*
X0139197Y0432886D02*
Y0434461D01*
X0143528Y0432886D02*
Y0434461D01*
X0131197Y0432886D02*
Y0434461D01*
X0135528Y0432886D02*
Y0434461D01*
X0212528Y0242386D02*
Y0243961D01*
X0208197Y0242386D02*
Y0243961D01*
X0151028Y0432886D02*
Y0434461D01*
X0146697Y0432886D02*
Y0434461D01*
X0163835Y0432713D02*
Y0434287D01*
X0168165Y0432713D02*
Y0434287D01*
X0212075Y0473339D02*
X0213650D01*
X0212075Y0469008D02*
X0213650D01*
X0310213Y0380335D02*
X0311787D01*
X0310213Y0384665D02*
X0311787D01*
X0310213Y0390168D02*
X0311787D01*
X0310213Y0394499D02*
X0311787D01*
X0310213Y0400001D02*
X0311787D01*
X0310213Y0404332D02*
X0311787D01*
X0310213Y0409835D02*
X0311787D01*
X0310213Y0414165D02*
X0311787D01*
X0297075Y0380008D02*
X0298650D01*
X0297075Y0384339D02*
X0298650D01*
X0296213Y0390168D02*
X0297787D01*
X0296213Y0394499D02*
X0297787D01*
X0296213Y0400001D02*
X0297787D01*
X0296213Y0404332D02*
X0297787D01*
X0296213Y0409835D02*
X0297787D01*
X0296213Y0414165D02*
X0297787D01*
X0170528Y0478386D02*
Y0479961D01*
X0166197Y0478386D02*
Y0479961D01*
X0228575Y0471839D02*
X0230150D01*
X0228575Y0467508D02*
X0230150D01*
X0257028Y0475386D02*
Y0476961D01*
X0252697Y0475386D02*
Y0476961D01*
X0212713Y0379335D02*
X0214287D01*
X0212713Y0383665D02*
X0214287D01*
X0191165Y0402213D02*
Y0403787D01*
X0186835Y0402213D02*
Y0403787D01*
X0256213Y0379335D02*
X0257787D01*
X0256213Y0383665D02*
X0257787D01*
X0263028Y0353386D02*
Y0354961D01*
X0258697Y0353386D02*
Y0354961D01*
X0234665Y0402213D02*
Y0403787D01*
X0230335Y0402213D02*
Y0403787D01*
X0267697Y0353386D02*
Y0354961D01*
X0272028Y0353386D02*
Y0354961D01*
X0226528Y0429886D02*
Y0431461D01*
X0222197Y0429886D02*
Y0431461D01*
X0190665Y0436713D02*
Y0438287D01*
X0186335Y0436713D02*
Y0438287D01*
X0196311Y0397988D02*
X0222689D01*
X0196311Y0409012D02*
X0222689D01*
X0196311Y0397988D02*
Y0409012D01*
X0222689Y0397988D02*
Y0409012D01*
X0239311Y0397988D02*
X0265689D01*
X0239311Y0409012D02*
X0265689D01*
X0239311Y0397988D02*
Y0409012D01*
X0265689Y0397988D02*
Y0409012D01*
X0195311Y0441988D02*
X0221689D01*
X0195311Y0453012D02*
X0221689D01*
X0195311Y0441988D02*
Y0453012D01*
X0221689Y0441988D02*
Y0453012D01*
X0210595Y0336811D02*
X0222406D01*
X0210595Y0363189D02*
X0222406D01*
Y0336811D02*
Y0363189D01*
X0210595Y0336811D02*
Y0363189D01*
X0209594Y0304811D02*
X0221406D01*
X0209594Y0331189D02*
X0221406D01*
Y0304811D02*
Y0331189D01*
X0209594Y0304811D02*
Y0331189D01*
Y0270811D02*
X0221406D01*
X0209594Y0297189D02*
X0221406D01*
Y0270811D02*
Y0297189D01*
X0209594Y0270811D02*
Y0297189D01*
X0263331Y0322949D02*
X0304669D01*
X0263331Y0329051D02*
X0304669D01*
X0263331Y0322949D02*
Y0329051D01*
X0304669Y0322949D02*
Y0329051D01*
X0186016Y0271158D02*
Y0275587D01*
Y0286020D02*
Y0290843D01*
X0183181Y0286020D02*
X0186016D01*
X0183181Y0275587D02*
Y0286020D01*
Y0275587D02*
X0186016D01*
X0127984Y0271158D02*
Y0290843D01*
X0128000Y0271158D02*
X0133736D01*
X0180280Y0290843D02*
X0186016D01*
X0184721Y0271158D02*
X0186016D01*
X0128000Y0290843D02*
X0129236D01*
X0187016Y0307658D02*
Y0312087D01*
Y0322520D02*
Y0327343D01*
X0184181Y0322520D02*
X0187016D01*
X0184181Y0312087D02*
Y0322520D01*
Y0312087D02*
X0187016D01*
X0128984Y0307658D02*
Y0327343D01*
X0129000Y0307658D02*
X0134736D01*
X0181280Y0327343D02*
X0187016D01*
X0185721Y0307658D02*
X0187016D01*
X0129000Y0327343D02*
X0130236D01*
X0171000Y0249000D02*
Y0259000D01*
X0201000D01*
Y0249000D02*
Y0259000D01*
X0171000Y0249000D02*
X0201000D01*
X0170500Y0234500D02*
Y0244500D01*
X0200500D01*
Y0234500D02*
Y0244500D01*
X0170500Y0234500D02*
X0200500D01*
X0312000Y0235000D02*
Y0245000D01*
X0262000Y0235000D02*
X0312000D01*
X0262000Y0245000D02*
X0312000D01*
X0262000Y0235000D02*
Y0245000D01*
D47*
X0196803Y0392083D02*
G03*
X0196803Y0392083I-0000492J0000000D01*
G01*
X0239803D02*
G03*
X0239803Y0392083I-0000492J0000000D01*
G01*
X0195803Y0436083D02*
G03*
X0195803Y0436083I-0000492J0000000D01*
G01*
X0205772Y0362992D02*
G03*
X0205772Y0362992I-0000492J0000000D01*
G01*
X0204772Y0330992D02*
G03*
X0204772Y0330992I-0000492J0000000D01*
G01*
Y0296992D02*
G03*
X0204772Y0296992I-0000492J0000000D01*
G01*
X0263449Y0315961D02*
G03*
X0263449Y0315961I-0000492J0000000D01*
G01*
D48*
X0237307Y0345764D02*
Y0368008D01*
X0250693Y0345764D02*
Y0368008D01*
X0237307D02*
X0250693D01*
X0238882Y0344189D02*
X0249118D01*
X0250693Y0345764D01*
X0237307D02*
X0238882Y0344189D01*
X0237307Y0313764D02*
Y0336008D01*
X0250693Y0313764D02*
Y0336008D01*
X0237307D02*
X0250693D01*
X0238882Y0312189D02*
X0249118D01*
X0250693Y0313764D01*
X0237307D02*
X0238882Y0312189D01*
X0236307Y0281264D02*
Y0303508D01*
X0249693Y0281264D02*
Y0303508D01*
X0236307D02*
X0249693D01*
X0237882Y0279689D02*
X0248118D01*
X0249693Y0281264D01*
X0236307D02*
X0237882Y0279689D01*
X0125866Y0378177D02*
Y0389201D01*
X0087283Y0343630D02*
X0122716D01*
X0087283D02*
Y0422370D01*
X0087382D02*
X0122716D01*
Y0343630D02*
Y0422370D01*
X0168866Y0378177D02*
Y0389201D01*
X0130283Y0343630D02*
X0165717D01*
X0130283D02*
Y0422370D01*
X0130382D02*
X0165717D01*
Y0343630D02*
Y0422370D01*
X0269677Y0421134D02*
X0280701D01*
X0235130Y0424284D02*
Y0459717D01*
X0313870D01*
Y0424284D02*
Y0459618D01*
X0235130Y0424284D02*
X0313870D01*
X0092705Y0457941D02*
Y0465500D01*
X0086799D02*
X0124201D01*
X0086799Y0424476D02*
X0124201D01*
X0086799D02*
Y0465500D01*
X0124201Y0424476D02*
Y0465500D01*
X0092705Y0424476D02*
Y0429595D01*
X0093205Y0287441D02*
Y0295000D01*
X0087299D02*
X0124701D01*
X0087299Y0253976D02*
X0124701D01*
X0087299D02*
Y0295000D01*
X0124701Y0253976D02*
Y0295000D01*
X0093205Y0253976D02*
Y0259095D01*
X0092705Y0334941D02*
Y0342500D01*
X0086799D02*
X0124201D01*
X0086799Y0301476D02*
X0124201D01*
X0086799D02*
Y0342500D01*
X0124201Y0301476D02*
Y0342500D01*
X0092705Y0301476D02*
Y0306594D01*
X0128361Y0467173D02*
Y0463174D01*
X0130361Y0465174D02*
X0126362D01*
X0125362Y0451178D02*
Y0455177D01*
X0129361Y0451178D01*
X0130361D01*
X0131360Y0452178D01*
Y0454177D01*
X0130361Y0455177D01*
X0125362Y0446180D02*
X0131360D01*
X0128361Y0449179D01*
Y0445180D01*
X0131360Y0443181D02*
X0127362D01*
X0125362Y0441182D01*
X0127362Y0439182D01*
X0131360D01*
X0128361Y0431185D02*
Y0427186D01*
X0128361Y0412175D02*
X0129360Y0413174D01*
Y0415173D01*
X0128361Y0416173D01*
X0127361D01*
X0126361Y0415173D01*
Y0413174D01*
X0125362Y0412175D01*
X0124362D01*
X0123362Y0413174D01*
Y0415173D01*
X0124362Y0416173D01*
X0129360Y0406177D02*
Y0410175D01*
X0126361D01*
Y0408176D01*
Y0410175D01*
X0123362D01*
Y0404177D02*
X0129360D01*
Y0401178D01*
X0128361Y0400178D01*
X0126361D01*
X0125362Y0401178D01*
Y0404177D01*
X0123362Y0398179D02*
Y0396180D01*
Y0397179D01*
X0129360D01*
X0128361Y0398179D01*
X0172361Y0414175D02*
X0173360Y0415174D01*
Y0417173D01*
X0172361Y0418173D01*
X0171361D01*
X0170361Y0417173D01*
Y0415174D01*
X0169362Y0414175D01*
X0168362D01*
X0167362Y0415174D01*
Y0417173D01*
X0168362Y0418173D01*
X0173360Y0408177D02*
Y0412175D01*
X0170361D01*
Y0410176D01*
Y0412175D01*
X0167362D01*
Y0406177D02*
X0173360D01*
Y0403178D01*
X0172361Y0402178D01*
X0170361D01*
X0169362Y0403178D01*
Y0406177D01*
X0167362Y0396180D02*
Y0400179D01*
X0171361Y0396180D01*
X0172361D01*
X0173360Y0397180D01*
Y0399179D01*
X0172361Y0400179D01*
X0096362Y0234672D02*
X0100361D01*
X0108358D02*
X0112357D01*
X0110358Y0236672D02*
Y0232673D01*
X0093362Y0233173D02*
Y0235173D01*
Y0234173D01*
X0087364D01*
Y0233173D01*
X0089364Y0239171D02*
Y0241171D01*
X0090363Y0242170D01*
X0093362D01*
Y0239171D01*
X0092363Y0238172D01*
X0091363Y0239171D01*
Y0242170D01*
X0093362Y0244170D02*
Y0247169D01*
X0092363Y0248168D01*
X0091363Y0247169D01*
Y0245169D01*
X0090363Y0244170D01*
X0089364Y0245169D01*
Y0248168D01*
X0171362Y0263672D02*
X0175361D01*
X0173362Y0265672D02*
Y0261673D01*
X0183358Y0260673D02*
X0185358D01*
X0184358D01*
Y0266671D01*
X0183358Y0265672D01*
X0188357Y0264672D02*
Y0261673D01*
X0189357Y0260673D01*
X0190356Y0261673D01*
X0191356Y0260673D01*
X0192356Y0261673D01*
Y0264672D01*
X0200353Y0263672D02*
X0204352D01*
X0264862Y0248672D02*
X0268861D01*
X0266862Y0250672D02*
Y0246673D01*
X0289362Y0249672D02*
Y0245673D01*
X0285364Y0249672D01*
X0284364D01*
X0283364Y0248672D01*
Y0246673D01*
X0284364Y0245673D01*
Y0251671D02*
X0283364Y0252671D01*
Y0254670D01*
X0284364Y0255670D01*
X0288363D01*
X0289362Y0254670D01*
Y0252671D01*
X0288363Y0251671D01*
X0284364D01*
X0279362Y0246673D02*
Y0248673D01*
Y0247673D01*
X0273364D01*
X0274364Y0246673D01*
X0273364Y0255670D02*
X0274364Y0253671D01*
X0276363Y0251672D01*
X0278363D01*
X0279362Y0252671D01*
Y0254671D01*
X0278363Y0255670D01*
X0277363D01*
X0276363Y0254671D01*
Y0251672D01*
X0299362Y0250172D02*
Y0246173D01*
X0295364Y0250172D01*
X0294364D01*
X0293364Y0249172D01*
Y0247173D01*
X0294364Y0246173D01*
X0299362Y0252171D02*
Y0254171D01*
Y0253171D01*
X0293364D01*
X0294364Y0252171D01*
X0304862Y0249172D02*
X0308861D01*
X0169861Y0340671D02*
X0165862D01*
Y0334673D01*
X0169861D01*
X0165862Y0337672D02*
X0167862D01*
X0171860Y0340671D02*
X0175859Y0334673D01*
Y0340671D02*
X0171860Y0334673D01*
X0177858D02*
Y0340671D01*
X0180857D01*
X0181857Y0339672D01*
Y0337672D01*
X0180857Y0336673D01*
X0177858D01*
X0183856Y0334673D02*
X0185856D01*
X0184856D01*
Y0340671D01*
X0183856Y0339672D01*
X0143861Y0263171D02*
X0139862D01*
Y0257173D01*
X0143861D01*
X0139862Y0260172D02*
X0141862D01*
X0145860Y0263171D02*
X0149859Y0257173D01*
Y0263171D02*
X0145860Y0257173D01*
X0151858D02*
Y0263171D01*
X0154857D01*
X0155857Y0262172D01*
Y0260172D01*
X0154857Y0259173D01*
X0151858D01*
X0161855Y0257173D02*
X0157857D01*
X0161855Y0261172D01*
Y0262172D01*
X0160855Y0263171D01*
X0158856D01*
X0157857Y0262172D01*
X0255362Y0299171D02*
Y0293173D01*
Y0295173D01*
X0259361Y0299171D01*
X0256362Y0296172D01*
X0259361Y0293173D01*
X0264359Y0299171D02*
X0262360D01*
X0261360Y0298172D01*
Y0294173D01*
X0262360Y0293173D01*
X0264359D01*
X0265359Y0294173D01*
Y0298172D01*
X0264359Y0299171D01*
X0267358Y0293173D02*
Y0299171D01*
X0270357D01*
X0271357Y0298172D01*
Y0296172D01*
X0270357Y0295173D01*
X0267358D01*
X0269358D02*
X0271357Y0293173D01*
X0273357Y0299171D02*
Y0294173D01*
X0274356Y0293173D01*
X0276356D01*
X0277355Y0294173D01*
Y0299171D01*
X0279355D02*
X0283353D01*
Y0298172D01*
X0279355Y0294173D01*
Y0293173D01*
X0283353D01*
X0285353D02*
Y0297172D01*
X0287352Y0299171D01*
X0289351Y0297172D01*
Y0293173D01*
Y0296172D01*
X0285353D01*
X0297349Y0293173D02*
Y0299171D01*
X0300348D01*
X0301347Y0298172D01*
Y0296172D01*
X0300348Y0295173D01*
X0297349D01*
X0299348D02*
X0301347Y0293173D01*
X0303347D02*
Y0299171D01*
X0306346D01*
X0307346Y0298172D01*
Y0296172D01*
X0306346Y0295173D01*
X0303347D01*
X0309345Y0293173D02*
X0311344D01*
X0310345D01*
Y0297172D01*
X0309345D01*
X0254862Y0288172D02*
X0256862Y0284173D01*
X0258861Y0288172D01*
X0260860Y0289172D02*
X0261860Y0290171D01*
X0263859D01*
X0264859Y0289172D01*
Y0285173D01*
X0263859Y0284173D01*
X0261860D01*
X0260860Y0285173D01*
Y0289172D01*
X0266858Y0284173D02*
Y0285173D01*
X0267858D01*
Y0284173D01*
X0266858D01*
X0275855D02*
X0271857D01*
X0275855Y0288172D01*
Y0289172D01*
X0274856Y0290171D01*
X0272856D01*
X0271857Y0289172D01*
X0235862Y0267672D02*
Y0264673D01*
X0236862Y0263673D01*
X0237862Y0264673D01*
X0238861Y0263673D01*
X0239861Y0264673D01*
Y0267672D01*
X0241860D02*
Y0264673D01*
X0242860Y0263673D01*
X0243860Y0264673D01*
X0244859Y0263673D01*
X0245859Y0264673D01*
Y0267672D01*
X0247858D02*
Y0264673D01*
X0248858Y0263673D01*
X0249858Y0264673D01*
X0250857Y0263673D01*
X0251857Y0264673D01*
Y0267672D01*
X0253856Y0263673D02*
Y0264673D01*
X0254856D01*
Y0263673D01*
X0253856D01*
X0258855D02*
Y0269671D01*
Y0265673D02*
X0261854Y0267672D01*
X0258855Y0265673D02*
X0261854Y0263673D01*
X0265853D02*
X0267852D01*
X0268852Y0264673D01*
Y0266672D01*
X0267852Y0267672D01*
X0265853D01*
X0264853Y0266672D01*
Y0264673D01*
X0265853Y0263673D01*
X0270851Y0267672D02*
Y0263673D01*
Y0265673D01*
X0271851Y0266672D01*
X0272850Y0267672D01*
X0273850D01*
X0276849D02*
Y0264673D01*
X0277849Y0263673D01*
X0280848D01*
Y0267672D01*
X0282847D02*
X0286846D01*
X0282847Y0263673D01*
X0286846D01*
X0289845Y0267672D02*
X0291844D01*
X0292844Y0266672D01*
Y0263673D01*
X0289845D01*
X0288845Y0264673D01*
X0289845Y0265673D01*
X0292844D01*
X0294843Y0263673D02*
Y0264673D01*
X0295843D01*
Y0263673D01*
X0294843D01*
X0299842D02*
Y0267672D01*
X0302841D01*
X0303840Y0266672D01*
Y0263673D01*
X0308839D02*
X0306839D01*
X0305840Y0264673D01*
Y0266672D01*
X0306839Y0267672D01*
X0308839D01*
X0309838Y0266672D01*
Y0265673D01*
X0305840D01*
X0312837Y0268672D02*
Y0267672D01*
X0311838D01*
X0313837D01*
X0312837D01*
Y0264673D01*
X0313837Y0263673D01*
X0255862Y0279671D02*
X0257862D01*
X0256862D01*
Y0273673D01*
X0255862D01*
X0257862D01*
X0260861D02*
Y0279671D01*
X0263860D01*
X0264859Y0278672D01*
Y0276672D01*
X0263860Y0275673D01*
X0260861D01*
X0262860D02*
X0264859Y0273673D01*
X0266859D02*
Y0279671D01*
X0270857Y0273673D01*
Y0279671D01*
X0272857Y0273673D02*
Y0277672D01*
X0274856Y0279671D01*
X0276855Y0277672D01*
Y0273673D01*
Y0276672D01*
X0272857D01*
X0282854Y0278672D02*
X0281854Y0279671D01*
X0279854D01*
X0278855Y0278672D01*
Y0277672D01*
X0279854Y0276672D01*
X0281854D01*
X0282854Y0275673D01*
Y0274673D01*
X0281854Y0273673D01*
X0279854D01*
X0278855Y0274673D01*
D49*
X0230500Y0241500D02*
Y0253500D01*
X0217500Y0241500D02*
X0230500D01*
X0217500D02*
Y0253500D01*
X0230500D01*
X0244500Y0241500D02*
Y0253500D01*
X0231500Y0241500D02*
X0244500D01*
X0231500D02*
Y0253500D01*
X0244500D01*
D50*
X0126361Y0289173D02*
Y0283842D01*
X0129027Y0286507D02*
X0123695D01*
Y0281176D02*
X0122362Y0279843D01*
Y0277177D01*
X0123695Y0275844D01*
X0129027D01*
X0130360Y0277177D01*
Y0279843D01*
X0129027Y0281176D01*
X0127694D01*
X0126361Y0279843D01*
Y0275844D01*
X0130360Y0273178D02*
X0125028D01*
X0122362Y0270513D01*
X0125028Y0267847D01*
X0130360D01*
X0126361Y0265181D02*
Y0259849D01*
X0127361Y0337673D02*
Y0332342D01*
X0130027Y0335007D02*
X0124695D01*
Y0329676D02*
X0123362Y0328343D01*
Y0325677D01*
X0124695Y0324344D01*
X0130027D01*
X0131360Y0325677D01*
Y0328343D01*
X0130027Y0329676D01*
X0128694D01*
X0127361Y0328343D01*
Y0324344D01*
X0131360Y0321678D02*
X0126028D01*
X0123362Y0319013D01*
X0126028Y0316347D01*
X0131360D01*
X0127361Y0313681D02*
Y0308349D01*
D51*
X0197028Y0347505D02*
X0196362Y0348172D01*
X0195029D01*
X0194362Y0347505D01*
Y0344840D01*
X0195029Y0344173D01*
X0196362D01*
X0197028Y0344840D01*
X0198361Y0344173D02*
X0199694D01*
X0199027D01*
Y0348172D01*
X0198361Y0347505D01*
X0244528Y0341506D02*
X0243862Y0342172D01*
X0242529D01*
X0241862Y0341506D01*
Y0338840D01*
X0242529Y0338173D01*
X0243862D01*
X0244528Y0338840D01*
X0248527Y0338173D02*
X0245861D01*
X0248527Y0340839D01*
Y0341506D01*
X0247860Y0342172D01*
X0246527D01*
X0245861Y0341506D01*
X0228530Y0372839D02*
X0227864Y0372173D01*
Y0370840D01*
X0228530Y0370173D01*
X0231196D01*
X0231862Y0370840D01*
Y0372173D01*
X0231196Y0372839D01*
X0228530Y0374172D02*
X0227864Y0374838D01*
Y0376171D01*
X0228530Y0376838D01*
X0229197D01*
X0229863Y0376171D01*
Y0375505D01*
Y0376171D01*
X0230529Y0376838D01*
X0231196D01*
X0231862Y0376171D01*
Y0374838D01*
X0231196Y0374172D01*
X0196028Y0316506D02*
X0195362Y0317172D01*
X0194029D01*
X0193362Y0316506D01*
Y0313840D01*
X0194029Y0313173D01*
X0195362D01*
X0196028Y0313840D01*
X0199360Y0313173D02*
Y0317172D01*
X0197361Y0315173D01*
X0200027D01*
X0243528Y0308506D02*
X0242862Y0309172D01*
X0241529D01*
X0240862Y0308506D01*
Y0305840D01*
X0241529Y0305173D01*
X0242862D01*
X0243528Y0305840D01*
X0247527Y0309172D02*
X0244861D01*
Y0307173D01*
X0246194Y0307839D01*
X0246860D01*
X0247527Y0307173D01*
Y0305840D01*
X0246860Y0305173D01*
X0245527D01*
X0244861Y0305840D01*
X0227030Y0338339D02*
X0226364Y0337673D01*
Y0336340D01*
X0227030Y0335673D01*
X0229696D01*
X0230362Y0336340D01*
Y0337673D01*
X0229696Y0338339D01*
X0226364Y0342338D02*
X0227030Y0341005D01*
X0228363Y0339672D01*
X0229696D01*
X0230362Y0340338D01*
Y0341671D01*
X0229696Y0342338D01*
X0229029D01*
X0228363Y0341671D01*
Y0339672D01*
X0195028Y0280505D02*
X0194362Y0281172D01*
X0193029D01*
X0192362Y0280505D01*
Y0277840D01*
X0193029Y0277173D01*
X0194362D01*
X0195028Y0277840D01*
X0196361Y0281172D02*
X0199027D01*
Y0280505D01*
X0196361Y0277840D01*
Y0277173D01*
X0240528Y0277505D02*
X0239862Y0278172D01*
X0238529D01*
X0237862Y0277505D01*
Y0274840D01*
X0238529Y0274173D01*
X0239862D01*
X0240528Y0274840D01*
X0241861Y0277505D02*
X0242527Y0278172D01*
X0243860D01*
X0244527Y0277505D01*
Y0276839D01*
X0243860Y0276173D01*
X0244527Y0275506D01*
Y0274840D01*
X0243860Y0274173D01*
X0242527D01*
X0241861Y0274840D01*
Y0275506D01*
X0242527Y0276173D01*
X0241861Y0276839D01*
Y0277505D01*
X0242527Y0276173D02*
X0243860D01*
X0227030Y0305339D02*
X0226364Y0304673D01*
Y0303340D01*
X0227030Y0302673D01*
X0229696D01*
X0230362Y0303340D01*
Y0304673D01*
X0229696Y0305339D01*
Y0306672D02*
X0230362Y0307338D01*
Y0308671D01*
X0229696Y0309338D01*
X0227030D01*
X0226364Y0308671D01*
Y0307338D01*
X0227030Y0306672D01*
X0227696D01*
X0228363Y0307338D01*
Y0309338D01*
X0175362Y0474672D02*
Y0470673D01*
X0177362D01*
X0178028Y0471340D01*
Y0474006D01*
X0177362Y0474672D01*
X0175362D01*
X0179361Y0470673D02*
X0180694D01*
X0180027D01*
Y0474672D01*
X0179361Y0474006D01*
X0243362Y0482172D02*
Y0478173D01*
X0245362D01*
X0246028Y0478840D01*
Y0481505D01*
X0245362Y0482172D01*
X0243362D01*
X0250027Y0478173D02*
X0247361D01*
X0250027Y0480839D01*
Y0481505D01*
X0249360Y0482172D01*
X0248027D01*
X0247361Y0481505D01*
X0261862Y0475172D02*
Y0471173D01*
X0263862D01*
X0264528Y0471840D01*
Y0474506D01*
X0263862Y0475172D01*
X0261862D01*
X0265861Y0474506D02*
X0266527Y0475172D01*
X0267860D01*
X0268527Y0474506D01*
Y0473839D01*
X0267860Y0473173D01*
X0267194D01*
X0267860D01*
X0268527Y0472506D01*
Y0471840D01*
X0267860Y0471173D01*
X0266527D01*
X0265861Y0471840D01*
X0274862Y0469672D02*
Y0465673D01*
X0276862D01*
X0277528Y0466340D01*
Y0469005D01*
X0276862Y0469672D01*
X0274862D01*
X0280860Y0465673D02*
Y0469672D01*
X0278861Y0467673D01*
X0281527D01*
X0311028Y0475172D02*
X0308362D01*
Y0473173D01*
X0309695D01*
X0308362D01*
Y0471173D01*
X0312361D02*
X0313694D01*
X0313027D01*
Y0475172D01*
X0312361Y0474506D01*
X0222416Y0259249D02*
X0221083D01*
X0221749D01*
Y0255916D01*
X0221083Y0255250D01*
X0220416D01*
X0219750Y0255916D01*
X0223749Y0255250D02*
X0225082D01*
X0224415D01*
Y0259249D01*
X0223749Y0258582D01*
X0227081Y0255250D02*
X0228414D01*
X0227747D01*
Y0259249D01*
X0227081Y0258582D01*
X0235028Y0259672D02*
X0233695D01*
X0234362D01*
Y0256340D01*
X0233695Y0255673D01*
X0233029D01*
X0232362Y0256340D01*
X0236361Y0255673D02*
X0237694D01*
X0237027D01*
Y0259672D01*
X0236361Y0259005D01*
X0242359Y0255673D02*
X0239693D01*
X0242359Y0258339D01*
Y0259005D01*
X0241693Y0259672D01*
X0240360D01*
X0239693Y0259005D01*
X0114362Y0346173D02*
Y0350172D01*
X0116362D01*
X0117028Y0349505D01*
Y0348173D01*
X0116362Y0347506D01*
X0114362D01*
X0118361Y0346173D02*
X0119694D01*
X0119027D01*
Y0350172D01*
X0118361Y0349505D01*
X0155362Y0345673D02*
Y0349672D01*
X0157362D01*
X0158028Y0349006D01*
Y0347673D01*
X0157362Y0347006D01*
X0155362D01*
X0162027Y0349672D02*
X0160694Y0349006D01*
X0159361Y0347673D01*
Y0346340D01*
X0160027Y0345673D01*
X0161360D01*
X0162027Y0346340D01*
Y0347006D01*
X0161360Y0347673D01*
X0159361D01*
X0238362Y0452173D02*
Y0456172D01*
X0240362D01*
X0241028Y0455506D01*
Y0454173D01*
X0240362Y0453506D01*
X0238362D01*
X0242361Y0455506D02*
X0243027Y0456172D01*
X0244360D01*
X0245027Y0455506D01*
Y0454839D01*
X0244360Y0454173D01*
X0245027Y0453506D01*
Y0452840D01*
X0244360Y0452173D01*
X0243027D01*
X0242361Y0452840D01*
Y0453506D01*
X0243027Y0454173D01*
X0242361Y0454839D01*
Y0455506D01*
X0243027Y0454173D02*
X0244360D01*
X0143362Y0441673D02*
X0139364D01*
Y0443673D01*
X0140030Y0444339D01*
X0141363D01*
X0142029Y0443673D01*
Y0441673D01*
Y0443006D02*
X0143362Y0444339D01*
Y0445672D02*
Y0447005D01*
Y0446338D01*
X0139364D01*
X0140030Y0445672D01*
X0135862Y0441673D02*
X0131864D01*
Y0443673D01*
X0132530Y0444339D01*
X0133863D01*
X0134529Y0443673D01*
Y0441673D01*
Y0443006D02*
X0135862Y0444339D01*
Y0448338D02*
Y0445672D01*
X0133196Y0448338D01*
X0132530D01*
X0131864Y0447671D01*
Y0446338D01*
X0132530Y0445672D01*
X0206362Y0239673D02*
X0202364D01*
Y0241673D01*
X0203030Y0242339D01*
X0204363D01*
X0205029Y0241673D01*
Y0239673D01*
Y0241006D02*
X0206362Y0242339D01*
X0203030Y0243672D02*
X0202364Y0244338D01*
Y0245671D01*
X0203030Y0246338D01*
X0203696D01*
X0204363Y0245671D01*
Y0245005D01*
Y0245671D01*
X0205029Y0246338D01*
X0205696D01*
X0206362Y0245671D01*
Y0244338D01*
X0205696Y0243672D01*
X0150862Y0441673D02*
X0146864D01*
Y0443673D01*
X0147530Y0444339D01*
X0148863D01*
X0149529Y0443673D01*
Y0441673D01*
Y0443006D02*
X0150862Y0444339D01*
Y0447671D02*
X0146864D01*
X0148863Y0445672D01*
Y0448338D01*
X0173862Y0430673D02*
X0169864D01*
Y0432673D01*
X0170530Y0433339D01*
X0171863D01*
X0172529Y0432673D01*
Y0430673D01*
Y0432006D02*
X0173862Y0433339D01*
X0169864Y0437338D02*
Y0434672D01*
X0171863D01*
X0171196Y0436005D01*
Y0436671D01*
X0171863Y0437338D01*
X0173196D01*
X0173862Y0436671D01*
Y0435338D01*
X0173196Y0434672D01*
X0198362Y0469173D02*
Y0473172D01*
X0200362D01*
X0201028Y0472506D01*
Y0471173D01*
X0200362Y0470506D01*
X0198362D01*
X0199695D02*
X0201028Y0469173D01*
X0205027Y0473172D02*
X0203694Y0472506D01*
X0202361Y0471173D01*
Y0469840D01*
X0203027Y0469173D01*
X0204360D01*
X0205027Y0469840D01*
Y0470506D01*
X0204360Y0471173D01*
X0202361D01*
X0282695Y0393250D02*
Y0397249D01*
X0284694D01*
X0285360Y0396582D01*
Y0395249D01*
X0284694Y0394583D01*
X0282695D01*
X0284027D02*
X0285360Y0393250D01*
X0286693Y0397249D02*
X0289359D01*
Y0396582D01*
X0286693Y0393916D01*
Y0393250D01*
X0282695Y0399058D02*
Y0403056D01*
X0284694D01*
X0285360Y0402390D01*
Y0401057D01*
X0284694Y0400391D01*
X0282695D01*
X0284027D02*
X0285360Y0399058D01*
X0286693Y0402390D02*
X0287360Y0403056D01*
X0288693D01*
X0289359Y0402390D01*
Y0401723D01*
X0288693Y0401057D01*
X0289359Y0400391D01*
Y0399724D01*
X0288693Y0399058D01*
X0287360D01*
X0286693Y0399724D01*
Y0400391D01*
X0287360Y0401057D01*
X0286693Y0401723D01*
Y0402390D01*
X0287360Y0401057D02*
X0288693D01*
X0282695Y0404866D02*
Y0408864D01*
X0284694D01*
X0285360Y0408198D01*
Y0406865D01*
X0284694Y0406198D01*
X0282695D01*
X0284027D02*
X0285360Y0404866D01*
X0286693Y0405532D02*
X0287360Y0404866D01*
X0288693D01*
X0289359Y0405532D01*
Y0408198D01*
X0288693Y0408864D01*
X0287360D01*
X0286693Y0408198D01*
Y0407531D01*
X0287360Y0406865D01*
X0289359D01*
X0279362Y0410673D02*
Y0414672D01*
X0281362D01*
X0282028Y0414006D01*
Y0412673D01*
X0281362Y0412006D01*
X0279362D01*
X0280695D02*
X0282028Y0410673D01*
X0283361D02*
X0284694D01*
X0284027D01*
Y0414672D01*
X0283361Y0414006D01*
X0286693D02*
X0287360Y0414672D01*
X0288693D01*
X0289359Y0414006D01*
Y0411340D01*
X0288693Y0410673D01*
X0287360D01*
X0286693Y0411340D01*
Y0414006D01*
X0267862Y0393423D02*
Y0397422D01*
X0269862D01*
X0270528Y0396756D01*
Y0395423D01*
X0269862Y0394756D01*
X0267862D01*
X0269195D02*
X0270528Y0393423D01*
X0271861D02*
X0273194D01*
X0272527D01*
Y0397422D01*
X0271861Y0396756D01*
X0275193Y0393423D02*
X0276526D01*
X0275860D01*
Y0397422D01*
X0275193Y0396756D01*
X0267862Y0399173D02*
Y0403172D01*
X0269862D01*
X0270528Y0402505D01*
Y0401173D01*
X0269862Y0400506D01*
X0267862D01*
X0269195D02*
X0270528Y0399173D01*
X0271861D02*
X0273194D01*
X0272527D01*
Y0403172D01*
X0271861Y0402505D01*
X0277859Y0399173D02*
X0275193D01*
X0277859Y0401839D01*
Y0402505D01*
X0277193Y0403172D01*
X0275860D01*
X0275193Y0402505D01*
X0267862Y0404923D02*
Y0408922D01*
X0269862D01*
X0270528Y0408255D01*
Y0406923D01*
X0269862Y0406256D01*
X0267862D01*
X0269195D02*
X0270528Y0404923D01*
X0271861D02*
X0273194D01*
X0272527D01*
Y0408922D01*
X0271861Y0408255D01*
X0275193D02*
X0275860Y0408922D01*
X0277193D01*
X0277859Y0408255D01*
Y0407589D01*
X0277193Y0406923D01*
X0276526D01*
X0277193D01*
X0277859Y0406256D01*
Y0405590D01*
X0277193Y0404923D01*
X0275860D01*
X0275193Y0405590D01*
X0267862Y0410673D02*
Y0414672D01*
X0269862D01*
X0270528Y0414006D01*
Y0412673D01*
X0269862Y0412006D01*
X0267862D01*
X0269195D02*
X0270528Y0410673D01*
X0271861D02*
X0273194D01*
X0272527D01*
Y0414672D01*
X0271861Y0414006D01*
X0277193Y0410673D02*
Y0414672D01*
X0275193Y0412673D01*
X0277859D01*
X0163362Y0474173D02*
X0159364D01*
Y0476173D01*
X0160030Y0476839D01*
X0161363D01*
X0162029Y0476173D01*
Y0474173D01*
Y0475506D02*
X0163362Y0476839D01*
Y0478172D02*
Y0479505D01*
Y0478838D01*
X0159364D01*
X0160030Y0478172D01*
X0159364Y0484170D02*
Y0481504D01*
X0161363D01*
X0160696Y0482837D01*
Y0483503D01*
X0161363Y0484170D01*
X0162696D01*
X0163362Y0483503D01*
Y0482171D01*
X0162696Y0481504D01*
X0224362Y0461673D02*
Y0465672D01*
X0226362D01*
X0227028Y0465005D01*
Y0463673D01*
X0226362Y0463006D01*
X0224362D01*
X0225695D02*
X0227028Y0461673D01*
X0228361D02*
X0229694D01*
X0229027D01*
Y0465672D01*
X0228361Y0465005D01*
X0234359Y0465672D02*
X0233026Y0465005D01*
X0231693Y0463673D01*
Y0462340D01*
X0232360Y0461673D01*
X0233693D01*
X0234359Y0462340D01*
Y0463006D01*
X0233693Y0463673D01*
X0231693D01*
X0250862Y0465173D02*
X0246864D01*
Y0467173D01*
X0247530Y0467839D01*
X0248863D01*
X0249529Y0467173D01*
Y0465173D01*
Y0466506D02*
X0250862Y0467839D01*
Y0469172D02*
Y0470505D01*
Y0469838D01*
X0246864D01*
X0247530Y0469172D01*
X0246864Y0472504D02*
Y0475170D01*
X0247530D01*
X0250196Y0472504D01*
X0250862D01*
X0208862Y0385673D02*
Y0389672D01*
X0210862D01*
X0211528Y0389005D01*
Y0387673D01*
X0210862Y0387006D01*
X0208862D01*
X0210195D02*
X0211528Y0385673D01*
X0212861D02*
X0214194D01*
X0213527D01*
Y0389672D01*
X0212861Y0389005D01*
X0216193D02*
X0216860Y0389672D01*
X0218193D01*
X0218859Y0389005D01*
Y0388339D01*
X0218193Y0387673D01*
X0218859Y0387006D01*
Y0386340D01*
X0218193Y0385673D01*
X0216860D01*
X0216193Y0386340D01*
Y0387006D01*
X0216860Y0387673D01*
X0216193Y0388339D01*
Y0389005D01*
X0216860Y0387673D02*
X0218193D01*
X0184362Y0398673D02*
X0180364D01*
Y0400673D01*
X0181030Y0401339D01*
X0182363D01*
X0183029Y0400673D01*
Y0398673D01*
Y0400006D02*
X0184362Y0401339D01*
Y0402672D02*
Y0404005D01*
Y0403338D01*
X0180364D01*
X0181030Y0402672D01*
X0183696Y0406004D02*
X0184362Y0406671D01*
Y0408004D01*
X0183696Y0408670D01*
X0181030D01*
X0180364Y0408004D01*
Y0406671D01*
X0181030Y0406004D01*
X0181696D01*
X0182363Y0406671D01*
Y0408670D01*
X0264362Y0379673D02*
Y0383672D01*
X0266362D01*
X0267028Y0383005D01*
Y0381673D01*
X0266362Y0381006D01*
X0264362D01*
X0265695D02*
X0267028Y0379673D01*
X0271027D02*
X0268361D01*
X0271027Y0382339D01*
Y0383005D01*
X0270360Y0383672D01*
X0269027D01*
X0268361Y0383005D01*
X0272360D02*
X0273026Y0383672D01*
X0274359D01*
X0275026Y0383005D01*
Y0380340D01*
X0274359Y0379673D01*
X0273026D01*
X0272360Y0380340D01*
Y0383005D01*
X0256862Y0349673D02*
X0252864D01*
Y0351673D01*
X0253530Y0352339D01*
X0254863D01*
X0255529Y0351673D01*
Y0349673D01*
Y0351006D02*
X0256862Y0352339D01*
Y0356338D02*
Y0353672D01*
X0254197Y0356338D01*
X0253530D01*
X0252864Y0355671D01*
Y0354338D01*
X0253530Y0353672D01*
X0256862Y0357671D02*
Y0359003D01*
Y0358337D01*
X0252864D01*
X0253530Y0357671D01*
X0228362Y0397673D02*
X0224364D01*
Y0399673D01*
X0225030Y0400339D01*
X0226363D01*
X0227029Y0399673D01*
Y0397673D01*
Y0399006D02*
X0228362Y0400339D01*
Y0404338D02*
Y0401672D01*
X0225696Y0404338D01*
X0225030D01*
X0224364Y0403671D01*
Y0402338D01*
X0225030Y0401672D01*
X0228362Y0408336D02*
Y0405671D01*
X0225696Y0408336D01*
X0225030D01*
X0224364Y0407670D01*
Y0406337D01*
X0225030Y0405671D01*
X0277862Y0348173D02*
X0273864D01*
Y0350173D01*
X0274530Y0350839D01*
X0275863D01*
X0276529Y0350173D01*
Y0348173D01*
Y0349506D02*
X0277862Y0350839D01*
Y0354838D02*
Y0352172D01*
X0275197Y0354838D01*
X0274530D01*
X0273864Y0354171D01*
Y0352838D01*
X0274530Y0352172D01*
Y0356171D02*
X0273864Y0356837D01*
Y0358170D01*
X0274530Y0358837D01*
X0275197D01*
X0275863Y0358170D01*
Y0357504D01*
Y0358170D01*
X0276529Y0358837D01*
X0277196D01*
X0277862Y0358170D01*
Y0356837D01*
X0277196Y0356171D01*
X0231862Y0425173D02*
X0227864D01*
Y0427173D01*
X0228530Y0427839D01*
X0229863D01*
X0230529Y0427173D01*
Y0425173D01*
Y0426506D02*
X0231862Y0427839D01*
Y0431838D02*
Y0429172D01*
X0229197Y0431838D01*
X0228530D01*
X0227864Y0431171D01*
Y0429838D01*
X0228530Y0429172D01*
X0231862Y0435170D02*
X0227864D01*
X0229863Y0433171D01*
Y0435836D01*
X0184362Y0432173D02*
X0180364D01*
Y0434173D01*
X0181030Y0434839D01*
X0182363D01*
X0183029Y0434173D01*
Y0432173D01*
Y0433506D02*
X0184362Y0434839D01*
Y0438838D02*
Y0436172D01*
X0181696Y0438838D01*
X0181030D01*
X0180364Y0438171D01*
Y0436838D01*
X0181030Y0436172D01*
X0180364Y0442836D02*
Y0440171D01*
X0182363D01*
X0181696Y0441503D01*
Y0442170D01*
X0182363Y0442836D01*
X0183696D01*
X0184362Y0442170D01*
Y0440837D01*
X0183696Y0440171D01*
X0207362Y0405672D02*
X0210028D01*
X0208695D01*
Y0401673D01*
X0211361D02*
X0212694D01*
X0212027D01*
Y0405672D01*
X0211361Y0405006D01*
X0249362Y0405172D02*
X0252028D01*
X0250695D01*
Y0401173D01*
X0256027D02*
X0253361D01*
X0256027Y0403839D01*
Y0404505D01*
X0255360Y0405172D01*
X0254027D01*
X0253361Y0404505D01*
X0192362Y0460672D02*
X0195028D01*
X0193695D01*
Y0456673D01*
X0196361Y0460006D02*
X0197027Y0460672D01*
X0198360D01*
X0199027Y0460006D01*
Y0459339D01*
X0198360Y0458673D01*
X0197694D01*
X0198360D01*
X0199027Y0458006D01*
Y0457340D01*
X0198360Y0456673D01*
X0197027D01*
X0196361Y0457340D01*
X0212862Y0369672D02*
Y0366340D01*
X0213529Y0365673D01*
X0214862D01*
X0215528Y0366340D01*
Y0369672D01*
X0216861Y0365673D02*
X0218194D01*
X0217527D01*
Y0369672D01*
X0216861Y0369005D01*
X0211862Y0328672D02*
Y0325340D01*
X0212529Y0324673D01*
X0213862D01*
X0214528Y0325340D01*
Y0328672D01*
X0218527Y0324673D02*
X0215861D01*
X0218527Y0327339D01*
Y0328006D01*
X0217860Y0328672D01*
X0216527D01*
X0215861Y0328006D01*
X0212862Y0268672D02*
Y0265340D01*
X0213529Y0264673D01*
X0214862D01*
X0215528Y0265340D01*
Y0268672D01*
X0216861Y0268005D02*
X0217527Y0268672D01*
X0218860D01*
X0219527Y0268005D01*
Y0267339D01*
X0218860Y0266673D01*
X0218194D01*
X0218860D01*
X0219527Y0266006D01*
Y0265340D01*
X0218860Y0264673D01*
X0217527D01*
X0216861Y0265340D01*
X0256364Y0322673D02*
X0259696D01*
X0260362Y0323340D01*
Y0324673D01*
X0259696Y0325339D01*
X0256364D01*
X0260362Y0328671D02*
X0256364D01*
X0258363Y0326672D01*
Y0329338D01*
D52*
X0287499Y0474780D02*
D03*
M02*
