G04 Layer_Color=65535*
%FSLAX24Y24*%
%MOIN*%
G70*
G01*
G75*
%ADD14C,0.0100*%
%ADD28C,0.0079*%
%ADD29C,0.0080*%
D14*
X4290Y5060D02*
X4740D01*
X4290Y3710D02*
X4740D01*
X4290Y2380D02*
X4740D01*
X4290Y1050D02*
X4740D01*
X8250Y150D02*
X10570D01*
X8250D02*
Y7140D01*
X25230D01*
Y150D02*
Y7140D01*
X10570Y150D02*
X25230D01*
X12830Y1191D02*
Y1841D01*
X12318D02*
X12830D01*
X12308Y1920D02*
X12318Y1841D01*
X10172Y1920D02*
X12308D01*
X10172Y1703D02*
Y1920D01*
X9847Y1703D02*
X10172D01*
X10083Y4990D02*
X10152Y4931D01*
X9867Y4990D02*
X10083D01*
X9867D02*
Y5699D01*
X12879D01*
Y5148D02*
Y5699D01*
X12229Y5148D02*
X12879D01*
X12229Y4922D02*
Y5148D01*
X10152Y4931D02*
X12229Y4922D01*
X9847Y1191D02*
X12830D01*
X9847D02*
Y1703D01*
X3618Y5863D02*
X4720D01*
X163Y6178D02*
Y9722D01*
X8037D01*
Y6178D02*
Y9712D01*
X163Y6178D02*
X8037D01*
X21420Y8620D02*
X21320Y8720D01*
X21120D01*
X21020Y8620D01*
Y8220D01*
X21120Y8120D01*
X21320D01*
X21420Y8220D01*
X21620Y8120D02*
X21820D01*
X21720D01*
Y8720D01*
X21620Y8620D01*
X8300Y8700D02*
X8433D01*
X8367D01*
Y8300D01*
X8300D01*
X8433D01*
X8633D02*
Y8700D01*
X8833D01*
X8900Y8633D01*
Y8500D01*
X8833Y8433D01*
X8633D01*
X8767D02*
X8900Y8300D01*
X9033D02*
Y8700D01*
X9300Y8300D01*
Y8700D01*
X9433Y8300D02*
Y8567D01*
X9566Y8700D01*
X9700Y8567D01*
Y8300D01*
Y8500D01*
X9433D01*
X10099Y8633D02*
X10033Y8700D01*
X9899D01*
X9833Y8633D01*
Y8567D01*
X9899Y8500D01*
X10033D01*
X10099Y8433D01*
Y8367D01*
X10033Y8300D01*
X9899D01*
X9833Y8367D01*
X10633Y8500D02*
X10899D01*
X11432Y8300D02*
Y8700D01*
X11566Y8567D01*
X11699Y8700D01*
Y8300D01*
X11832Y8567D02*
Y8367D01*
X11899Y8300D01*
X12099D01*
Y8567D01*
X12232Y8300D02*
X12432D01*
X12499Y8367D01*
X12432Y8433D01*
X12299D01*
X12232Y8500D01*
X12299Y8567D01*
X12499D01*
X12699Y8633D02*
Y8567D01*
X12632D01*
X12765D01*
X12699D01*
Y8367D01*
X12765Y8300D01*
X12965D02*
X13098D01*
X13032D01*
Y8567D01*
X12965D01*
X13698Y8500D02*
X13965D01*
X14498Y8567D02*
X14631Y8300D01*
X14765Y8567D01*
X15098Y8300D02*
X14965D01*
X14898Y8367D01*
Y8500D01*
X14965Y8567D01*
X15098D01*
X15164Y8500D01*
Y8433D01*
X14898D01*
X15298Y8567D02*
Y8300D01*
Y8433D01*
X15364Y8500D01*
X15431Y8567D01*
X15498D01*
X15964Y8300D02*
X15698D01*
X15964Y8567D01*
Y8633D01*
X15898Y8700D01*
X15764D01*
X15698Y8633D01*
X16097Y8300D02*
Y8367D01*
X16164D01*
Y8300D01*
X16097D01*
X16431Y8633D02*
X16497Y8700D01*
X16631D01*
X16697Y8633D01*
Y8367D01*
X16631Y8300D01*
X16497D01*
X16431Y8367D01*
Y8633D01*
X8300Y7800D02*
Y7400D01*
Y7533D01*
X8567Y7800D01*
X8367Y7600D01*
X8567Y7400D01*
X8900Y7800D02*
X8767D01*
X8700Y7733D01*
Y7467D01*
X8767Y7400D01*
X8900D01*
X8966Y7467D01*
Y7733D01*
X8900Y7800D01*
X9100Y7400D02*
Y7800D01*
X9300D01*
X9366Y7733D01*
Y7600D01*
X9300Y7533D01*
X9100D01*
X9233D02*
X9366Y7400D01*
X9500Y7800D02*
Y7467D01*
X9566Y7400D01*
X9700D01*
X9766Y7467D01*
Y7800D01*
X9899D02*
X10166D01*
Y7733D01*
X9899Y7467D01*
Y7400D01*
X10166D01*
X10299D02*
Y7667D01*
X10433Y7800D01*
X10566Y7667D01*
Y7400D01*
Y7600D01*
X10299D01*
X11366Y7733D02*
X11299Y7800D01*
X11166D01*
X11099Y7733D01*
Y7667D01*
X11166Y7600D01*
X11299D01*
X11366Y7533D01*
Y7467D01*
X11299Y7400D01*
X11166D01*
X11099Y7467D01*
X11766Y7800D02*
X11499D01*
Y7600D01*
X11632D01*
X11499D01*
Y7400D01*
X11899D02*
Y7800D01*
X12099D01*
X12165Y7733D01*
Y7600D01*
X12099Y7533D01*
X11899D01*
X12899Y7400D02*
X12765D01*
X12699Y7467D01*
Y7600D01*
X12765Y7667D01*
X12899D01*
X12965Y7600D01*
Y7533D01*
X12699D01*
X13098Y7667D02*
X13365Y7400D01*
X13232Y7533D01*
X13365Y7667D01*
X13098Y7400D01*
X13565Y7733D02*
Y7667D01*
X13498D01*
X13632D01*
X13565D01*
Y7467D01*
X13632Y7400D01*
X14031D02*
X13898D01*
X13832Y7467D01*
Y7600D01*
X13898Y7667D01*
X14031D01*
X14098Y7600D01*
Y7533D01*
X13832D01*
X14231Y7400D02*
Y7667D01*
X14431D01*
X14498Y7600D01*
Y7400D01*
X14631D02*
X14831D01*
X14898Y7467D01*
X14831Y7533D01*
X14698D01*
X14631Y7600D01*
X14698Y7667D01*
X14898D01*
X15031Y7400D02*
X15164D01*
X15098D01*
Y7667D01*
X15031D01*
X15431Y7400D02*
X15564D01*
X15631Y7467D01*
Y7600D01*
X15564Y7667D01*
X15431D01*
X15364Y7600D01*
Y7467D01*
X15431Y7400D01*
X15764D02*
Y7667D01*
X15964D01*
X16031Y7600D01*
Y7400D01*
X16564Y7600D02*
X16831D01*
X17364Y7400D02*
X17564D01*
X17630Y7467D01*
X17564Y7533D01*
X17430D01*
X17364Y7600D01*
X17430Y7667D01*
X17630D01*
X17830Y7400D02*
X17964D01*
X18030Y7467D01*
Y7600D01*
X17964Y7667D01*
X17830D01*
X17764Y7600D01*
Y7467D01*
X17830Y7400D01*
X18430Y7667D02*
X18230D01*
X18163Y7600D01*
Y7467D01*
X18230Y7400D01*
X18430D01*
X18563D02*
Y7800D01*
Y7533D02*
X18763Y7667D01*
X18563Y7533D02*
X18763Y7400D01*
X19163D02*
X19030D01*
X18963Y7467D01*
Y7600D01*
X19030Y7667D01*
X19163D01*
X19230Y7600D01*
Y7533D01*
X18963D01*
X19430Y7733D02*
Y7667D01*
X19363D01*
X19496D01*
X19430D01*
Y7467D01*
X19496Y7400D01*
D28*
X22553Y8091D02*
Y8249D01*
X22987Y8091D02*
Y8249D01*
X180Y1290D02*
X513D01*
X347D01*
Y790D01*
X680Y1290D02*
Y790D01*
X930D01*
X1013Y873D01*
Y1207D01*
X930Y1290D01*
X680D01*
X1180Y707D02*
X1513D01*
X1680Y790D02*
Y1290D01*
X2013Y790D01*
Y1290D01*
X190Y2570D02*
X523D01*
X357D01*
Y2070D01*
X690Y2570D02*
Y2070D01*
X940D01*
X1023Y2153D01*
Y2487D01*
X940Y2570D01*
X690D01*
X1190Y1987D02*
X1523D01*
X1690Y2070D02*
Y2570D01*
X1939D01*
X2023Y2487D01*
Y2320D01*
X1939Y2237D01*
X1690D01*
X200Y3460D02*
Y3960D01*
X450D01*
X533Y3877D01*
Y3710D01*
X450Y3627D01*
X200D01*
X367D02*
X533Y3460D01*
X700Y3960D02*
Y3460D01*
X950D01*
X1033Y3543D01*
Y3877D01*
X950Y3960D01*
X700D01*
X1200Y3377D02*
X1533D01*
X1700Y3460D02*
Y3960D01*
X1949D01*
X2033Y3877D01*
Y3710D01*
X1949Y3627D01*
X1700D01*
X210Y4860D02*
Y5360D01*
X460D01*
X543Y5277D01*
Y5110D01*
X460Y5027D01*
X210D01*
X377D02*
X543Y4860D01*
X710Y5360D02*
Y4860D01*
X960D01*
X1043Y4943D01*
Y5277D01*
X960Y5360D01*
X710D01*
X1210Y4777D02*
X1543D01*
X1710Y4860D02*
Y5360D01*
X2043Y4860D01*
Y5360D01*
D29*
X3683Y6467D02*
X3750D01*
X3817Y6533D01*
Y6867D01*
X3617D01*
X3550Y6800D01*
Y6667D01*
X3617Y6600D01*
X3817D01*
X3950D02*
Y6867D01*
X4150D01*
X4216Y6800D01*
Y6600D01*
X4616Y7000D02*
Y6600D01*
X4416D01*
X4350Y6667D01*
Y6800D01*
X4416Y6867D01*
X4616D01*
X4700Y9050D02*
X4900D01*
X4967Y9117D01*
X4900Y9183D01*
X4767D01*
X4700Y9250D01*
X4767Y9317D01*
X4967D01*
X5366D02*
X5167D01*
X5100Y9250D01*
Y9117D01*
X5167Y9050D01*
X5366D01*
X5500D02*
X5633D01*
X5566D01*
Y9450D01*
X5500D01*
X3450Y9050D02*
X3650D01*
X3717Y9117D01*
X3650Y9183D01*
X3517D01*
X3450Y9250D01*
X3517Y9317D01*
X3717D01*
X4116Y9450D02*
Y9050D01*
X3917D01*
X3850Y9117D01*
Y9250D01*
X3917Y9317D01*
X4116D01*
X4316D02*
X4450D01*
X4516Y9250D01*
Y9050D01*
X4316D01*
X4250Y9117D01*
X4316Y9183D01*
X4516D01*
M02*
