G04 Layer_Color=8388736*
%FSLAX24Y24*%
%MOIN*%
G70*
G01*
G75*
%ADD30R,0.0780X0.0780*%
%ADD31R,0.0880X0.1280*%
%ADD32R,0.0867X0.0277*%
%ADD33R,0.0592X0.0513*%
%ADD34C,0.0680*%
%ADD35O,0.0680X0.0880*%
%ADD36C,0.0631*%
%ADD37R,0.0867X0.0867*%
%ADD38C,0.0690*%
%ADD39C,0.0789*%
%ADD40R,0.0719X0.0719*%
%ADD41C,0.1340*%
D30*
X5190Y5060D02*
D03*
Y3710D02*
D03*
Y2380D02*
D03*
Y1050D02*
D03*
D31*
X3790Y5060D02*
D03*
Y3710D02*
D03*
Y2380D02*
D03*
Y1050D02*
D03*
D32*
X12839Y4951D02*
D03*
X12839Y4636D02*
D03*
Y4321D02*
D03*
X12839Y4006D02*
D03*
Y3691D02*
D03*
Y3376D02*
D03*
Y3061D02*
D03*
Y2746D02*
D03*
Y2431D02*
D03*
Y2116D02*
D03*
X9611Y1959D02*
D03*
Y2274D02*
D03*
Y2589D02*
D03*
Y2904D02*
D03*
Y3219D02*
D03*
Y3534D02*
D03*
Y3849D02*
D03*
X9611Y4164D02*
D03*
Y4479D02*
D03*
X9611Y4794D02*
D03*
D33*
X22770Y7796D02*
D03*
Y8544D02*
D03*
D34*
X2630Y480D02*
D03*
Y5710D02*
D03*
D35*
Y1720D02*
D03*
Y3040D02*
D03*
Y4380D02*
D03*
D36*
X8750Y1550D02*
D03*
X23371Y6221D02*
D03*
X8750Y5330D02*
D03*
Y3440D02*
D03*
D37*
X14504Y6250D02*
D03*
X11550Y640D02*
D03*
X15490D02*
D03*
X19430D02*
D03*
X12530D02*
D03*
X14380D02*
D03*
X23370D02*
D03*
X15490Y2880D02*
D03*
Y5000D02*
D03*
X17460Y6250D02*
D03*
X21400D02*
D03*
X23370Y4020D02*
D03*
X13520Y6250D02*
D03*
X12530D02*
D03*
X10570D02*
D03*
X9580D02*
D03*
X10570Y640D02*
D03*
D38*
X11225Y1565D02*
D03*
X11206Y5355D02*
D03*
D39*
X2100Y8450D02*
D03*
X3100D02*
D03*
X4100D02*
D03*
X5100D02*
D03*
X6100D02*
D03*
Y7450D02*
D03*
X5100D02*
D03*
X4100D02*
D03*
X3100D02*
D03*
D40*
X2100D02*
D03*
D41*
X19700Y8500D02*
D03*
M02*
