G04 Layer_Color=2752767*
%FSLAX24Y24*%
%MOIN*%
G70*
G01*
G75*
%ADD43C,0.0020*%
%ADD44C,0.0027*%
%ADD45C,0.0013*%
D43*
X2550Y400D02*
Y560D01*
X2710D01*
Y400D01*
X2550D01*
Y5630D02*
Y5790D01*
X2710D01*
Y5630D01*
X2550D01*
X8750Y1470D02*
X8670Y1630D01*
X8830D01*
X8750Y1470D01*
X14504Y6170D02*
X14544Y6210D01*
X14584D01*
X14544Y6250D01*
X14584Y6290D01*
X14544D01*
X14504Y6330D01*
X14464Y6290D01*
X14424D01*
X14464Y6250D01*
X14424Y6210D01*
X14464D01*
X14504Y6170D01*
X23371Y6141D02*
X23291Y6301D01*
X23451D01*
X23371Y6141D01*
X11145Y1485D02*
X11185Y1565D01*
X11145Y1645D01*
X11225Y1605D01*
X11305Y1645D01*
X11265Y1565D01*
X11305Y1485D01*
X11225Y1525D01*
X11145Y1485D01*
X11126Y5275D02*
X11166Y5355D01*
X11126Y5435D01*
X11206Y5395D01*
X11286Y5435D01*
X11246Y5355D01*
X11286Y5275D01*
X11206Y5315D01*
X11126Y5275D01*
X11550Y560D02*
X11590Y600D01*
X11630D01*
X11590Y640D01*
X11630Y680D01*
X11590D01*
X11550Y720D01*
X11510Y680D01*
X11470D01*
X11510Y640D01*
X11470Y600D01*
X11510D01*
X11550Y560D01*
X15490D02*
X15530Y600D01*
X15570D01*
X15530Y640D01*
X15570Y680D01*
X15530D01*
X15490Y720D01*
X15450Y680D01*
X15410D01*
X15450Y640D01*
X15410Y600D01*
X15450D01*
X15490Y560D01*
X19430D02*
X19470Y600D01*
X19510D01*
X19470Y640D01*
X19510Y680D01*
X19470D01*
X19430Y720D01*
X19390Y680D01*
X19350D01*
X19390Y640D01*
X19350Y600D01*
X19390D01*
X19430Y560D01*
X12530D02*
X12570Y600D01*
X12610D01*
X12570Y640D01*
X12610Y680D01*
X12570D01*
X12530Y720D01*
X12490Y680D01*
X12450D01*
X12490Y640D01*
X12450Y600D01*
X12490D01*
X12530Y560D01*
X14380D02*
X14420Y600D01*
X14460D01*
X14420Y640D01*
X14460Y680D01*
X14420D01*
X14380Y720D01*
X14340Y680D01*
X14300D01*
X14340Y640D01*
X14300Y600D01*
X14340D01*
X14380Y560D01*
X23370D02*
X23410Y600D01*
X23450D01*
X23410Y640D01*
X23450Y680D01*
X23410D01*
X23370Y720D01*
X23330Y680D01*
X23290D01*
X23330Y640D01*
X23290Y600D01*
X23330D01*
X23370Y560D01*
X15490Y2800D02*
X15530Y2840D01*
X15570D01*
X15530Y2880D01*
X15570Y2920D01*
X15530D01*
X15490Y2960D01*
X15450Y2920D01*
X15410D01*
X15450Y2880D01*
X15410Y2840D01*
X15450D01*
X15490Y2800D01*
Y4920D02*
X15530Y4960D01*
X15570D01*
X15530Y5000D01*
X15570Y5040D01*
X15530D01*
X15490Y5080D01*
X15450Y5040D01*
X15410D01*
X15450Y5000D01*
X15410Y4960D01*
X15450D01*
X15490Y4920D01*
X17460Y6170D02*
X17500Y6210D01*
X17540D01*
X17500Y6250D01*
X17540Y6290D01*
X17500D01*
X17460Y6330D01*
X17420Y6290D01*
X17380D01*
X17420Y6250D01*
X17380Y6210D01*
X17420D01*
X17460Y6170D01*
X21400D02*
X21440Y6210D01*
X21480D01*
X21440Y6250D01*
X21480Y6290D01*
X21440D01*
X21400Y6330D01*
X21360Y6290D01*
X21320D01*
X21360Y6250D01*
X21320Y6210D01*
X21360D01*
X21400Y6170D01*
X23370Y3940D02*
X23410Y3980D01*
X23450D01*
X23410Y4020D01*
X23450Y4060D01*
X23410D01*
X23370Y4100D01*
X23330Y4060D01*
X23290D01*
X23330Y4020D01*
X23290Y3980D01*
X23330D01*
X23370Y3940D01*
X13520Y6170D02*
X13560Y6210D01*
X13600D01*
X13560Y6250D01*
X13600Y6290D01*
X13560D01*
X13520Y6330D01*
X13480Y6290D01*
X13440D01*
X13480Y6250D01*
X13440Y6210D01*
X13480D01*
X13520Y6170D01*
X12530D02*
X12570Y6210D01*
X12610D01*
X12570Y6250D01*
X12610Y6290D01*
X12570D01*
X12530Y6330D01*
X12490Y6290D01*
X12450D01*
X12490Y6250D01*
X12450Y6210D01*
X12490D01*
X12530Y6170D01*
X10570D02*
X10610Y6210D01*
X10650D01*
X10610Y6250D01*
X10650Y6290D01*
X10610D01*
X10570Y6330D01*
X10530Y6290D01*
X10490D01*
X10530Y6250D01*
X10490Y6210D01*
X10530D01*
X10570Y6170D01*
X9580D02*
X9620Y6210D01*
X9660D01*
X9620Y6250D01*
X9660Y6290D01*
X9620D01*
X9580Y6330D01*
X9540Y6290D01*
X9500D01*
X9540Y6250D01*
X9500Y6210D01*
X9540D01*
X9580Y6170D01*
X10570Y560D02*
X10610Y600D01*
X10650D01*
X10610Y640D01*
X10650Y680D01*
X10610D01*
X10570Y720D01*
X10530Y680D01*
X10490D01*
X10530Y640D01*
X10490Y600D01*
X10530D01*
X10570Y560D01*
X8750Y5250D02*
X8670Y5410D01*
X8830D01*
X8750Y5250D01*
Y3360D02*
X8670Y3520D01*
X8830D01*
X8750Y3360D01*
X2060Y8410D02*
Y8370D01*
X2140D01*
Y8410D01*
X2180D01*
Y8490D01*
X2140D01*
Y8530D01*
X2060D01*
Y8490D01*
X2020D01*
Y8410D01*
X2060D01*
X3060D02*
Y8370D01*
X3140D01*
Y8410D01*
X3180D01*
Y8490D01*
X3140D01*
Y8530D01*
X3060D01*
Y8490D01*
X3020D01*
Y8410D01*
X3060D01*
X4060D02*
Y8370D01*
X4140D01*
Y8410D01*
X4180D01*
Y8490D01*
X4140D01*
Y8530D01*
X4060D01*
Y8490D01*
X4020D01*
Y8410D01*
X4060D01*
X5060D02*
Y8370D01*
X5140D01*
Y8410D01*
X5180D01*
Y8490D01*
X5140D01*
Y8530D01*
X5060D01*
Y8490D01*
X5020D01*
Y8410D01*
X5060D01*
X6060D02*
Y8370D01*
X6140D01*
Y8410D01*
X6180D01*
Y8490D01*
X6140D01*
Y8530D01*
X6060D01*
Y8490D01*
X6020D01*
Y8410D01*
X6060D01*
Y7410D02*
Y7370D01*
X6140D01*
Y7410D01*
X6180D01*
Y7490D01*
X6140D01*
Y7530D01*
X6060D01*
Y7490D01*
X6020D01*
Y7410D01*
X6060D01*
X5060D02*
Y7370D01*
X5140D01*
Y7410D01*
X5180D01*
Y7490D01*
X5140D01*
Y7530D01*
X5060D01*
Y7490D01*
X5020D01*
Y7410D01*
X5060D01*
X4060D02*
Y7370D01*
X4140D01*
Y7410D01*
X4180D01*
Y7490D01*
X4140D01*
Y7530D01*
X4060D01*
Y7490D01*
X4020D01*
Y7410D01*
X4060D01*
X3060D02*
Y7370D01*
X3140D01*
Y7410D01*
X3180D01*
Y7490D01*
X3140D01*
Y7530D01*
X3060D01*
Y7490D01*
X3020D01*
Y7410D01*
X3060D01*
X2020Y7370D02*
X2060D01*
X2100Y7410D01*
X2140Y7370D01*
X2180D01*
Y7410D01*
X2140Y7450D01*
X2180Y7490D01*
Y7530D01*
X2140D01*
X2100Y7490D01*
X2060Y7530D01*
X2020D01*
Y7490D01*
X2060Y7450D01*
X2020Y7410D01*
Y7370D01*
X19620Y8500D02*
X19700Y8580D01*
X19780Y8500D01*
X19700Y8420D01*
X19620Y8500D01*
X7970Y252D02*
Y412D01*
X8130D01*
Y252D01*
X7970D01*
X8010Y292D02*
Y372D01*
X8090D01*
Y292D01*
X8010D01*
X7173Y272D02*
Y432D01*
X7333D01*
Y272D01*
X7173D01*
X7213Y312D02*
Y392D01*
X7293D01*
Y312D01*
X7213D01*
X6395Y252D02*
Y412D01*
X6555D01*
Y252D01*
X6395D01*
X6435Y292D02*
Y372D01*
X6515D01*
Y292D01*
X6435D01*
X13324Y400D02*
Y560D01*
X13484D01*
Y400D01*
X13324D01*
X13364Y440D02*
Y520D01*
X13444D01*
Y440D01*
X13364D01*
X17232Y390D02*
Y550D01*
X17392D01*
Y390D01*
X17232D01*
X17272Y430D02*
Y510D01*
X17352D01*
Y430D01*
X17272D01*
X21474Y390D02*
Y550D01*
X21634D01*
Y390D01*
X21474D01*
X21514Y430D02*
Y510D01*
X21594D01*
Y430D01*
X21514D01*
X24811Y449D02*
Y609D01*
X24971D01*
Y449D01*
X24811D01*
X24851Y489D02*
Y569D01*
X24931D01*
Y489D01*
X24851D01*
X24811Y3815D02*
Y3975D01*
X24971D01*
Y3815D01*
X24811D01*
X24851Y3855D02*
Y3935D01*
X24931D01*
Y3855D01*
X24851D01*
X24889Y7427D02*
Y7587D01*
X25049D01*
Y7427D01*
X24889D01*
X24929Y7467D02*
Y7547D01*
X25009D01*
Y7467D01*
X24929D01*
X24948Y9396D02*
Y9556D01*
X25108D01*
Y9396D01*
X24948D01*
X24988Y9436D02*
Y9516D01*
X25068D01*
Y9436D01*
X24988D01*
X391Y9366D02*
Y9526D01*
X551D01*
Y9366D01*
X391D01*
X431Y9406D02*
Y9486D01*
X511D01*
Y9406D01*
X431D01*
X1848Y321D02*
Y481D01*
X2008D01*
Y321D01*
X1848D01*
X1888Y361D02*
Y441D01*
X1968D01*
Y361D01*
X1888D01*
X283Y321D02*
Y481D01*
X443D01*
Y321D01*
X283D01*
X323Y361D02*
Y441D01*
X403D01*
Y361D01*
X323D01*
X273Y1581D02*
Y1741D01*
X433D01*
Y1581D01*
X273D01*
X313Y1621D02*
Y1701D01*
X393D01*
Y1621D01*
X313D01*
X283Y2939D02*
Y3099D01*
X443D01*
Y2939D01*
X283D01*
X323Y2979D02*
Y3059D01*
X403D01*
Y2979D01*
X323D01*
X273Y4298D02*
Y4458D01*
X433D01*
Y4298D01*
X273D01*
X313Y4338D02*
Y4418D01*
X393D01*
Y4338D01*
X313D01*
X303Y5695D02*
Y5855D01*
X463D01*
Y5695D01*
X303D01*
X343Y5735D02*
Y5815D01*
X423D01*
Y5735D01*
X343D01*
X7744Y5744D02*
Y5904D01*
X7904D01*
Y5744D01*
X7744D01*
X7784Y5784D02*
Y5864D01*
X7864D01*
Y5784D01*
X7784D01*
X7055Y5754D02*
Y5914D01*
X7215D01*
Y5754D01*
X7055D01*
X7095Y5794D02*
Y5874D01*
X7175D01*
Y5794D01*
X7095D01*
X6385Y5725D02*
Y5885D01*
X6545D01*
Y5725D01*
X6385D01*
X6425Y5765D02*
Y5845D01*
X6505D01*
Y5765D01*
X6425D01*
X6937Y2979D02*
Y3139D01*
X7097D01*
Y2979D01*
X6937D01*
X6977Y3019D02*
Y3099D01*
X7057D01*
Y3019D01*
X6977D01*
X6395Y2998D02*
Y3158D01*
X6555D01*
Y2998D01*
X6395D01*
X6435Y3038D02*
Y3118D01*
X6515D01*
Y3038D01*
X6435D01*
X8059Y2969D02*
Y3129D01*
X8219D01*
Y2969D01*
X8059D01*
X8099Y3009D02*
Y3089D01*
X8179D01*
Y3009D01*
X8099D01*
X7626Y2929D02*
Y3089D01*
X7786D01*
Y2929D01*
X7626D01*
X7666Y2969D02*
Y3049D01*
X7746D01*
Y2969D01*
X7666D01*
X7261Y2664D02*
Y2824D01*
X7421D01*
Y2664D01*
X7261D01*
X7301Y2704D02*
Y2784D01*
X7381D01*
Y2704D01*
X7301D01*
X6937Y2349D02*
Y2509D01*
X7097D01*
Y2349D01*
X6937D01*
X6977Y2389D02*
Y2469D01*
X7057D01*
Y2389D01*
X6977D01*
X6513Y2250D02*
Y2410D01*
X6673D01*
Y2250D01*
X6513D01*
X6553Y2290D02*
Y2370D01*
X6633D01*
Y2290D01*
X6553D01*
X6090Y2388D02*
Y2548D01*
X6250D01*
Y2388D01*
X6090D01*
X6130Y2428D02*
Y2508D01*
X6210D01*
Y2428D01*
X6130D01*
X5755Y2674D02*
Y2834D01*
X5915D01*
Y2674D01*
X5755D01*
X5795Y2714D02*
Y2794D01*
X5875D01*
Y2714D01*
X5795D01*
X8236Y1729D02*
Y1889D01*
X8396D01*
Y1729D01*
X8236D01*
X8276Y1769D02*
Y1849D01*
X8356D01*
Y1769D01*
X8276D01*
X7881Y1502D02*
Y1662D01*
X8041D01*
Y1502D01*
X7881D01*
X7921Y1542D02*
Y1622D01*
X8001D01*
Y1542D01*
X7921D01*
X7576Y1197D02*
Y1357D01*
X7736D01*
Y1197D01*
X7576D01*
X7616Y1237D02*
Y1317D01*
X7696D01*
Y1237D01*
X7616D01*
X7183Y1000D02*
Y1160D01*
X7343D01*
Y1000D01*
X7183D01*
X7223Y1040D02*
Y1120D01*
X7303D01*
Y1040D01*
X7223D01*
X6750Y1010D02*
Y1170D01*
X6910D01*
Y1010D01*
X6750D01*
X6790Y1050D02*
Y1130D01*
X6870D01*
Y1050D01*
X6790D01*
X6316Y990D02*
Y1150D01*
X6476D01*
Y990D01*
X6316D01*
X6356Y1030D02*
Y1110D01*
X6436D01*
Y1030D01*
X6356D01*
X5962Y735D02*
Y895D01*
X6122D01*
Y735D01*
X5962D01*
X6002Y775D02*
Y855D01*
X6082D01*
Y775D01*
X6002D01*
X5706Y400D02*
Y560D01*
X5866D01*
Y400D01*
X5706D01*
X5746Y440D02*
Y520D01*
X5826D01*
Y440D01*
X5746D01*
X5293Y282D02*
Y442D01*
X5453D01*
Y282D01*
X5293D01*
X5333Y322D02*
Y402D01*
X5413D01*
Y322D01*
X5333D01*
X4860Y282D02*
Y442D01*
X5020D01*
Y282D01*
X4860D01*
X4900Y322D02*
Y402D01*
X4980D01*
Y322D01*
X4900D01*
X4437Y420D02*
Y580D01*
X4597D01*
Y420D01*
X4437D01*
X4477Y460D02*
Y540D01*
X4557D01*
Y460D01*
X4477D01*
X4397Y833D02*
Y993D01*
X4557D01*
Y833D01*
X4397D01*
X4437Y873D02*
Y953D01*
X4517D01*
Y873D01*
X4437D01*
X4407Y1286D02*
Y1446D01*
X4567D01*
Y1286D01*
X4407D01*
X4447Y1326D02*
Y1406D01*
X4527D01*
Y1326D01*
X4447D01*
X4437Y2487D02*
Y2647D01*
X4597D01*
Y2487D01*
X4437D01*
X4477Y2527D02*
Y2607D01*
X4557D01*
Y2527D01*
X4477D01*
X4446Y2053D02*
Y2213D01*
X4606D01*
Y2053D01*
X4446D01*
X4486Y2093D02*
Y2173D01*
X4566D01*
Y2093D01*
X4486D01*
X4594Y1640D02*
Y1800D01*
X4754D01*
Y1640D01*
X4594D01*
X4634Y1680D02*
Y1760D01*
X4714D01*
Y1680D01*
X4634D01*
X5027Y1650D02*
Y1810D01*
X5187D01*
Y1650D01*
X5027D01*
X5067Y1690D02*
Y1770D01*
X5147D01*
Y1690D01*
X5067D01*
X5450Y1650D02*
Y1810D01*
X5610D01*
Y1650D01*
X5450D01*
X5490Y1690D02*
Y1770D01*
X5570D01*
Y1690D01*
X5490D01*
X4456Y5134D02*
Y5294D01*
X4616D01*
Y5134D01*
X4456D01*
X4496Y5174D02*
Y5254D01*
X4576D01*
Y5174D01*
X4496D01*
X4466Y4701D02*
Y4861D01*
X4626D01*
Y4701D01*
X4466D01*
X4506Y4741D02*
Y4821D01*
X4586D01*
Y4741D01*
X4506D01*
X4446Y3520D02*
Y3680D01*
X4606D01*
Y3520D01*
X4446D01*
X4486Y3560D02*
Y3640D01*
X4566D01*
Y3560D01*
X4486D01*
X4456Y3953D02*
Y4113D01*
X4616D01*
Y3953D01*
X4456D01*
X4496Y3993D02*
Y4073D01*
X4576D01*
Y3993D01*
X4496D01*
X4604Y2969D02*
Y3129D01*
X4764D01*
Y2969D01*
X4604D01*
X4644Y3009D02*
Y3089D01*
X4724D01*
Y3009D01*
X4644D01*
X5017Y2979D02*
Y3139D01*
X5177D01*
Y2979D01*
X5017D01*
X5057Y3019D02*
Y3099D01*
X5137D01*
Y3019D01*
X5057D01*
X5431Y2988D02*
Y3149D01*
X5591D01*
Y2988D01*
X5431D01*
X5471Y3029D02*
Y3108D01*
X5551D01*
Y3029D01*
X5471D01*
X5795Y3195D02*
Y3355D01*
X5955D01*
Y3195D01*
X5795D01*
X5835Y3235D02*
Y3315D01*
X5915D01*
Y3235D01*
X5835D01*
X6070Y3510D02*
Y3670D01*
X6230D01*
Y3510D01*
X6070D01*
X6110Y3550D02*
Y3630D01*
X6190D01*
Y3550D01*
X6110D01*
X6444Y3677D02*
Y3837D01*
X6604D01*
Y3677D01*
X6444D01*
X6484Y3717D02*
Y3797D01*
X6564D01*
Y3717D01*
X6484D01*
X6868Y3677D02*
Y3837D01*
X7028D01*
Y3677D01*
X6868D01*
X6908Y3717D02*
Y3797D01*
X6988D01*
Y3717D01*
X6908D01*
X7281Y3677D02*
Y3837D01*
X7441D01*
Y3677D01*
X7281D01*
X7321Y3717D02*
Y3797D01*
X7401D01*
Y3717D01*
X7321D01*
X7704Y3677D02*
Y3837D01*
X7864D01*
Y3677D01*
X7704D01*
X7744Y3717D02*
Y3797D01*
X7824D01*
Y3717D01*
X7744D01*
X8118Y3677D02*
Y3837D01*
X8278D01*
Y3677D01*
X8118D01*
X8158Y3717D02*
Y3797D01*
X8238D01*
Y3717D01*
X8158D01*
X5352Y4317D02*
Y4477D01*
X5512D01*
Y4317D01*
X5352D01*
X5392Y4357D02*
Y4437D01*
X5472D01*
Y4357D01*
X5392D01*
X4909Y4327D02*
Y4487D01*
X5069D01*
Y4327D01*
X4909D01*
X4949Y4367D02*
Y4447D01*
X5029D01*
Y4367D01*
X4949D01*
X4456Y4327D02*
Y4487D01*
X4616D01*
Y4327D01*
X4456D01*
X4496Y4367D02*
Y4447D01*
X4576D01*
Y4367D01*
X4496D01*
X4702Y5636D02*
Y5796D01*
X4862D01*
Y5636D01*
X4702D01*
X4742Y5676D02*
Y5756D01*
X4822D01*
Y5676D01*
X4742D01*
X5175Y5636D02*
Y5796D01*
X5335D01*
Y5636D01*
X5175D01*
X5215Y5676D02*
Y5756D01*
X5295D01*
Y5676D01*
X5215D01*
X5637Y5626D02*
Y5786D01*
X5797D01*
Y5626D01*
X5637D01*
X5677Y5666D02*
Y5746D01*
X5757D01*
Y5666D01*
X5677D01*
X5923Y5242D02*
Y5402D01*
X6083D01*
Y5242D01*
X5923D01*
X5963Y5282D02*
Y5362D01*
X6043D01*
Y5282D01*
X5963D01*
X6267Y4947D02*
Y5107D01*
X6427D01*
Y4947D01*
X6267D01*
X6307Y4987D02*
Y5067D01*
X6387D01*
Y4987D01*
X6307D01*
X6730Y4947D02*
Y5107D01*
X6890D01*
Y4947D01*
X6730D01*
X6770Y4987D02*
Y5067D01*
X6850D01*
Y4987D01*
X6770D01*
X7192Y4947D02*
Y5107D01*
X7352D01*
Y4947D01*
X7192D01*
X7232Y4987D02*
Y5067D01*
X7312D01*
Y4987D01*
X7232D01*
X7655Y4947D02*
Y5107D01*
X7815D01*
Y4947D01*
X7655D01*
X7695Y4987D02*
Y5067D01*
X7775D01*
Y4987D01*
X7695D01*
X8108Y4947D02*
Y5107D01*
X8268D01*
Y4947D01*
X8108D01*
X8148Y4987D02*
Y5067D01*
X8228D01*
Y4987D01*
X8148D01*
X20814Y9406D02*
Y9566D01*
X20974D01*
Y9406D01*
X20814D01*
X20854Y9446D02*
Y9526D01*
X20934D01*
Y9446D01*
X20854D01*
D44*
X2710Y1720D02*
G03*
X2710Y1720I-80J0D01*
G01*
Y3040D02*
G03*
X2710Y3040I-80J0D01*
G01*
Y4380D02*
G03*
X2710Y4380I-80J0D01*
G01*
X9370Y1060D02*
G03*
X9370Y1060I-80J0D01*
G01*
X10628Y2578D02*
G03*
X10628Y2578I-80J0D01*
G01*
X10600Y4470D02*
G03*
X10600Y4470I-80J0D01*
G01*
X13750Y1760D02*
G03*
X13750Y1760I-80J0D01*
G01*
X13610Y5340D02*
G03*
X13610Y5340I-80J0D01*
G01*
X16850Y6980D02*
G03*
X16850Y6980I-80J0D01*
G01*
X17520Y5070D02*
G03*
X17520Y5070I-80J0D01*
G01*
X17810Y4280D02*
G03*
X17810Y4280I-80J0D01*
G01*
X17380Y3660D02*
G03*
X17380Y3660I-80J0D01*
G01*
X16780Y2270D02*
G03*
X16780Y2270I-80J0D01*
G01*
X11310Y3990D02*
G03*
X11310Y3990I-80J0D01*
G01*
X10730Y3360D02*
G03*
X10730Y3360I-80J0D01*
G01*
D45*
X9330Y1060D02*
G03*
X9330Y1060I-40J0D01*
G01*
X10588Y2578D02*
G03*
X10588Y2578I-40J0D01*
G01*
X10560Y4470D02*
G03*
X10560Y4470I-40J0D01*
G01*
X13710Y1760D02*
G03*
X13710Y1760I-40J0D01*
G01*
X13570Y5340D02*
G03*
X13570Y5340I-40J0D01*
G01*
X16810Y6980D02*
G03*
X16810Y6980I-40J0D01*
G01*
X17480Y5070D02*
G03*
X17480Y5070I-40J0D01*
G01*
X17770Y4280D02*
G03*
X17770Y4280I-40J0D01*
G01*
X17340Y3660D02*
G03*
X17340Y3660I-40J0D01*
G01*
X16740Y2270D02*
G03*
X16740Y2270I-40J0D01*
G01*
X11270Y3990D02*
G03*
X11270Y3990I-40J0D01*
G01*
X10690Y3360D02*
G03*
X10690Y3360I-40J0D01*
G01*
M02*
