M48
;Layer_Color=9474304
;FILE_FORMAT=2:4
INCH,TZ
;TYPE=PLATED
T1F00S00C0.0150
T2F00S00C0.0280
T3F00S00C0.0300
T4F00S00C0.0398
T5F00S00C0.0413
T6F00S00C0.0420
T7F00S00C0.0500
T9F00S00C0.0610
;TYPE=NON_PLATED
T10F00S00C0.1260
%
T01
X13404Y480
X17312Y470
X21554
X24891Y529
Y3895
X8198Y3757
X7784
X7361
X6948
X6524
X6150Y3590
X5875Y3275
X5835Y2754
X6170Y2468
X6593Y2330
X7017Y2429
Y3059
X6475Y3078
X5511Y3068
X5097Y3059
X4684Y3049
X4517Y2567
X4526Y2133
X4674Y1720
X5107Y1730
X5530
X4487Y1366
X4477Y913
X4517Y500
X4940Y362
X5373
X5786Y480
X6042Y815
X6396Y1070
X6830Y1090
X7263Y1080
X7656Y1277
X7961Y1582
X8316Y1809
X8139Y3049
X7706Y3009
X7341Y2744
X7272Y5027
X6810
X6347
X6003Y5322
X5717Y5706
X5255Y5716
X4782
X4536Y5214
X4546Y4781
X4536Y4407
Y4033
X4526Y3600
X4989Y4407
X5432Y4397
X6465Y5805
X7135Y5834
X7824Y5824
X7735Y5027
X8188
X8050Y332
X7253Y352
X6475Y332
X1928Y401
X363
X353Y1661
X363Y3019
X353Y4378
X383Y5775
X471Y9446
X20894Y9486
X25028Y9476
X24969Y7507
T02
X10548Y2578
X10650Y3360
X11230Y3990
X10520Y4470
X13530Y5340
X13670Y1760
X16700Y2270
X17300Y3660
X17730Y4280
X17440Y5070
X16770Y6980
X9290Y1060
T03
X2100Y7450
T04
X2100Y8450
X3100
X4100
X5100
X6100
Y7450
X5100
X4100
X3100
T05
X10570Y640
X11550
X12530
X14380
X15490
Y2880
Y5000
X14504Y6250
X13520
X12530
X10570
X17460
X21400
X23370Y4020
Y640
X19430
X9580Y6250
T06
X23371Y6221
X8750Y5330
Y3440
Y1550
T07
X2630Y480
Y5710
T09
X11225Y1565
X11206Y5355
T10
X19700Y8500
M30
