G04 Layer_Physical_Order=1*
G04 Layer_Color=255*
%FSLAX24Y24*%
%MOIN*%
G70*
G01*
G75*
%ADD10R,0.0700X0.0700*%
%ADD11R,0.0800X0.1200*%
%ADD12R,0.0787X0.0197*%
%ADD13R,0.0512X0.0433*%
%ADD14C,0.0100*%
%ADD15C,0.0200*%
%ADD16C,0.0190*%
%ADD17C,0.0150*%
%ADD18C,0.0600*%
%ADD19O,0.0600X0.0800*%
%ADD20C,0.0551*%
%ADD21R,0.0787X0.0787*%
%ADD22C,0.0610*%
%ADD23C,0.0709*%
%ADD24R,0.0639X0.0639*%
%ADD25C,0.1260*%
%ADD26C,0.0300*%
%ADD27C,0.0500*%
G36*
X25319Y131D02*
X23885D01*
X23814Y196D01*
X23814Y230D01*
Y1084D01*
X22926D01*
Y230D01*
X22926Y196D01*
X22855Y131D01*
X19945D01*
X19874Y196D01*
X19874Y230D01*
Y1084D01*
X18986D01*
Y230D01*
X18986Y196D01*
X18915Y131D01*
X16005D01*
X15934Y196D01*
X15934Y230D01*
Y1084D01*
X15046D01*
Y230D01*
X15046Y196D01*
X14975Y131D01*
X14895D01*
X14824Y196D01*
X14824Y230D01*
Y1084D01*
X13936D01*
Y230D01*
X13936Y196D01*
X13865Y131D01*
X13045D01*
X12974Y196D01*
X12974Y230D01*
Y1084D01*
X12092D01*
X12086Y1084D01*
X11994D01*
X11988Y1084D01*
X11106D01*
Y1084D01*
X11014D01*
Y1084D01*
X10126D01*
Y230D01*
X10126Y196D01*
X10055Y131D01*
X131D01*
Y9719D01*
X25319D01*
Y131D01*
D02*
G37*
%LPC*%
G36*
X8750Y5658D02*
X8665Y5647D01*
X8586Y5614D01*
X8518Y5562D01*
X8466Y5494D01*
X8433Y5415D01*
X8422Y5330D01*
X8433Y5245D01*
X8466Y5166D01*
X8518Y5098D01*
X8586Y5046D01*
X8665Y5013D01*
X8750Y5002D01*
X8835Y5013D01*
X8914Y5046D01*
X8982Y5098D01*
X9034Y5166D01*
X9067Y5245D01*
X9078Y5330D01*
X9067Y5415D01*
X9034Y5494D01*
X8982Y5562D01*
X8914Y5614D01*
X8835Y5647D01*
X8750Y5658D01*
D02*
G37*
G36*
X11206Y5713D02*
X11113Y5701D01*
X11026Y5665D01*
X10952Y5608D01*
X10895Y5534D01*
X10860Y5447D01*
X10847Y5355D01*
X10860Y5262D01*
X10895Y5175D01*
X10952Y5101D01*
X11026Y5044D01*
X11113Y5009D01*
X11206Y4996D01*
X11298Y5009D01*
X11385Y5044D01*
X11459Y5101D01*
X11516Y5175D01*
X11551Y5262D01*
X11564Y5355D01*
X11551Y5447D01*
X11516Y5534D01*
X11459Y5608D01*
X11385Y5665D01*
X11298Y5701D01*
X11206Y5713D01*
D02*
G37*
G36*
X23371Y6549D02*
X23286Y6538D01*
X23207Y6505D01*
X23139Y6453D01*
X23086Y6385D01*
X23054Y6306D01*
X23042Y6221D01*
X23054Y6136D01*
X23086Y6057D01*
X23139Y5989D01*
X23207Y5936D01*
X23286Y5903D01*
X23371Y5892D01*
X23456Y5903D01*
X23535Y5936D01*
X23603Y5989D01*
X23655Y6057D01*
X23688Y6136D01*
X23699Y6221D01*
X23688Y6306D01*
X23655Y6385D01*
X23603Y6453D01*
X23535Y6505D01*
X23456Y6538D01*
X23371Y6549D01*
D02*
G37*
G36*
X21844Y6694D02*
X20956D01*
Y5806D01*
X21844D01*
Y6694D01*
D02*
G37*
G36*
X5640Y5510D02*
X4740D01*
Y4610D01*
X5640D01*
Y4651D01*
X5731Y4689D01*
X5968Y4451D01*
X6026Y4385D01*
X5968Y4319D01*
X5731Y4081D01*
X5640Y4119D01*
Y4160D01*
X4740D01*
Y3260D01*
X5640D01*
Y3511D01*
X5641D01*
X5717Y3526D01*
X5781Y3569D01*
X6253Y4041D01*
X8957D01*
X8975Y4023D01*
X9039Y3980D01*
X9115Y3965D01*
X9611D01*
X9613Y3965D01*
X10105D01*
Y4280D01*
Y4641D01*
X10353D01*
X10367Y4627D01*
Y4470D01*
X10379Y4411D01*
X10412Y4362D01*
X10461Y4329D01*
X10520Y4317D01*
X10579Y4329D01*
X10628Y4362D01*
X10661Y4411D01*
X10673Y4470D01*
Y4690D01*
X10661Y4749D01*
X10628Y4798D01*
X10525Y4902D01*
X10475Y4935D01*
X10416Y4946D01*
X9611D01*
X9553Y4935D01*
X9503Y4902D01*
X9470Y4852D01*
X9458Y4794D01*
X9462Y4776D01*
X9407Y4689D01*
X9390Y4677D01*
X9289D01*
X9235Y4714D01*
X9159Y4729D01*
X6253D01*
X5781Y5201D01*
X5717Y5244D01*
X5641Y5259D01*
X5640D01*
Y5510D01*
D02*
G37*
G36*
X8750Y1878D02*
X8665Y1867D01*
X8586Y1834D01*
X8518Y1782D01*
X8466Y1714D01*
X8433Y1635D01*
X8422Y1550D01*
X8433Y1465D01*
X8466Y1386D01*
X8518Y1318D01*
X8586Y1266D01*
X8665Y1233D01*
X8750Y1222D01*
X8835Y1233D01*
X8914Y1266D01*
X8982Y1318D01*
X9034Y1386D01*
X9067Y1465D01*
X9078Y1550D01*
X9067Y1635D01*
X9034Y1714D01*
X8982Y1782D01*
X8914Y1834D01*
X8835Y1867D01*
X8750Y1878D01*
D02*
G37*
G36*
X11225Y1923D02*
X11132Y1911D01*
X11046Y1875D01*
X10972Y1818D01*
X10915Y1744D01*
X10879Y1658D01*
X10867Y1565D01*
X10879Y1472D01*
X10915Y1386D01*
X10972Y1312D01*
X11046Y1255D01*
X11132Y1219D01*
X11225Y1207D01*
X11318Y1219D01*
X11404Y1255D01*
X11478Y1312D01*
X11535Y1386D01*
X11571Y1472D01*
X11583Y1565D01*
X11571Y1658D01*
X11535Y1744D01*
X11478Y1818D01*
X11404Y1875D01*
X11318Y1911D01*
X11225Y1923D01*
D02*
G37*
G36*
X11230Y4293D02*
X11152Y4282D01*
X11079Y4252D01*
X11016Y4204D01*
X10968Y4141D01*
X10948Y4092D01*
X10700D01*
X10661Y4084D01*
X10628Y4062D01*
X10208Y3642D01*
X10055D01*
Y3682D01*
X9167D01*
Y3518D01*
X9069Y3512D01*
X9067Y3525D01*
X9034Y3604D01*
X8982Y3672D01*
X8914Y3724D01*
X8835Y3757D01*
X8750Y3768D01*
X8665Y3757D01*
X8586Y3724D01*
X8518Y3672D01*
X8466Y3604D01*
X8433Y3525D01*
X8422Y3440D01*
X8433Y3355D01*
X8466Y3276D01*
X8518Y3208D01*
X8586Y3155D01*
X8665Y3123D01*
X8750Y3111D01*
X8835Y3123D01*
X8914Y3155D01*
X8982Y3208D01*
X9034Y3276D01*
X9044Y3299D01*
X9158Y3323D01*
X9167Y3314D01*
X9167Y3287D01*
Y3070D01*
X9427D01*
X9476Y2972D01*
X9470Y2962D01*
X9458Y2904D01*
X9462Y2886D01*
X9407Y2799D01*
X9390Y2787D01*
X9117D01*
Y2764D01*
X9067Y2754D01*
X9054Y2745D01*
X7901D01*
X7832Y2731D01*
X7774Y2693D01*
X7100Y2018D01*
X6235D01*
X5747Y2506D01*
X5689Y2545D01*
X5640Y2555D01*
Y2830D01*
X4740D01*
Y1930D01*
X5640D01*
Y1980D01*
X5731Y2018D01*
X6034Y1715D01*
X5731Y1412D01*
X5640Y1450D01*
Y1500D01*
X4740D01*
Y600D01*
X5640D01*
Y875D01*
X5689Y885D01*
X5747Y924D01*
X6235Y1412D01*
X7278D01*
X7346Y1425D01*
X7404Y1464D01*
X8078Y2138D01*
X9023D01*
X9067Y2109D01*
X9117Y2099D01*
Y2075D01*
X9390D01*
X9407Y2063D01*
X9462Y1977D01*
X9458Y1959D01*
Y1444D01*
X9182Y1168D01*
X9149Y1119D01*
X9137Y1060D01*
X9149Y1001D01*
X9182Y952D01*
X9231Y919D01*
X9290Y907D01*
X9349Y919D01*
X9398Y952D01*
X9719Y1273D01*
X9752Y1322D01*
X9764Y1381D01*
Y1959D01*
X9760Y1977D01*
X9815Y2063D01*
X9832Y2075D01*
X10105D01*
Y2390D01*
Y2657D01*
X10203Y2698D01*
X10432Y2469D01*
X10481Y2436D01*
X10540Y2425D01*
X10548D01*
X10606Y2436D01*
X10656Y2469D01*
X10689Y2519D01*
X10701Y2578D01*
X10689Y2636D01*
X10656Y2686D01*
X10633Y2701D01*
X10322Y3012D01*
X10312Y3018D01*
X10342Y3117D01*
X10474D01*
X10499Y3098D01*
X10572Y3068D01*
X10650Y3057D01*
X10728Y3068D01*
X10801Y3098D01*
X10864Y3146D01*
X10912Y3209D01*
X10942Y3282D01*
X10953Y3360D01*
X10942Y3438D01*
X10912Y3511D01*
X10864Y3574D01*
X10801Y3622D01*
X10728Y3652D01*
X10655Y3662D01*
X10644Y3678D01*
X10611Y3757D01*
X10742Y3888D01*
X10948D01*
X10968Y3839D01*
X11016Y3776D01*
X11079Y3728D01*
X11152Y3698D01*
X11230Y3687D01*
X11308Y3698D01*
X11381Y3728D01*
X11444Y3776D01*
X11492Y3839D01*
X11522Y3912D01*
X11533Y3990D01*
X11522Y4068D01*
X11492Y4141D01*
X11444Y4204D01*
X11381Y4252D01*
X11308Y4282D01*
X11230Y4293D01*
D02*
G37*
G36*
X23814Y4464D02*
X22926D01*
Y3576D01*
X23814D01*
Y4464D01*
D02*
G37*
G36*
X3100Y8858D02*
X2994Y8844D01*
X2896Y8803D01*
X2812Y8738D01*
X2747Y8654D01*
X2706Y8556D01*
X2692Y8450D01*
X2706Y8344D01*
X2747Y8246D01*
X2812Y8162D01*
X2896Y8097D01*
X2994Y8056D01*
X3100Y8042D01*
X3206Y8056D01*
X3304Y8097D01*
X3388Y8162D01*
X3453Y8246D01*
X3494Y8344D01*
X3508Y8450D01*
X3494Y8556D01*
X3453Y8654D01*
X3388Y8738D01*
X3304Y8803D01*
X3206Y8844D01*
X3100Y8858D01*
D02*
G37*
G36*
X2100D02*
X1994Y8844D01*
X1896Y8803D01*
X1812Y8738D01*
X1747Y8654D01*
X1706Y8556D01*
X1692Y8450D01*
X1706Y8344D01*
X1747Y8246D01*
X1812Y8162D01*
X1896Y8097D01*
X1994Y8056D01*
X2100Y8042D01*
X2206Y8056D01*
X2304Y8097D01*
X2388Y8162D01*
X2453Y8246D01*
X2494Y8344D01*
X2508Y8450D01*
X2494Y8556D01*
X2453Y8654D01*
X2388Y8738D01*
X2304Y8803D01*
X2206Y8844D01*
X2100Y8858D01*
D02*
G37*
G36*
X19700Y9183D02*
X19567Y9170D01*
X19439Y9131D01*
X19320Y9068D01*
X19217Y8983D01*
X19132Y8880D01*
X19069Y8761D01*
X19030Y8633D01*
X19017Y8500D01*
X19030Y8367D01*
X19069Y8239D01*
X19132Y8120D01*
X19217Y8017D01*
X19320Y7932D01*
X19439Y7869D01*
X19567Y7830D01*
X19700Y7817D01*
X19833Y7830D01*
X19961Y7869D01*
X20080Y7932D01*
X20183Y8017D01*
X20268Y8120D01*
X20331Y8239D01*
X20370Y8367D01*
X20383Y8500D01*
X20370Y8633D01*
X20331Y8761D01*
X20268Y8880D01*
X20183Y8983D01*
X20080Y9068D01*
X19961Y9131D01*
X19833Y9170D01*
X19700Y9183D01*
D02*
G37*
G36*
X6100Y8858D02*
X5994Y8844D01*
X5896Y8803D01*
X5812Y8738D01*
X5747Y8654D01*
X5706Y8556D01*
X5692Y8450D01*
X5706Y8344D01*
X5747Y8246D01*
X5812Y8162D01*
X5896Y8097D01*
X5994Y8056D01*
X6100Y8042D01*
X6206Y8056D01*
X6304Y8097D01*
X6388Y8162D01*
X6453Y8246D01*
X6494Y8344D01*
X6508Y8450D01*
X6494Y8556D01*
X6453Y8654D01*
X6388Y8738D01*
X6304Y8803D01*
X6206Y8844D01*
X6100Y8858D01*
D02*
G37*
G36*
X5100D02*
X4994Y8844D01*
X4896Y8803D01*
X4812Y8738D01*
X4747Y8654D01*
X4706Y8556D01*
X4692Y8450D01*
X4706Y8344D01*
X4747Y8246D01*
X4812Y8162D01*
X4896Y8097D01*
X4994Y8056D01*
X5100Y8042D01*
X5206Y8056D01*
X5304Y8097D01*
X5388Y8162D01*
X5453Y8246D01*
X5494Y8344D01*
X5508Y8450D01*
X5494Y8556D01*
X5453Y8654D01*
X5388Y8738D01*
X5304Y8803D01*
X5206Y8844D01*
X5100Y8858D01*
D02*
G37*
G36*
X4100D02*
X3994Y8844D01*
X3896Y8803D01*
X3812Y8738D01*
X3747Y8654D01*
X3706Y8556D01*
X3692Y8450D01*
X3706Y8344D01*
X3747Y8246D01*
X3812Y8162D01*
X3896Y8097D01*
X3994Y8056D01*
X4100Y8042D01*
X4206Y8056D01*
X4304Y8097D01*
X4388Y8162D01*
X4453Y8246D01*
X4494Y8344D01*
X4508Y8450D01*
X4494Y8556D01*
X4453Y8654D01*
X4388Y8738D01*
X4304Y8803D01*
X4206Y8844D01*
X4100Y8858D01*
D02*
G37*
G36*
X23076Y8063D02*
X22464D01*
Y7529D01*
X23076D01*
Y8063D01*
D02*
G37*
G36*
X2470Y7820D02*
X1730D01*
Y7080D01*
X2470D01*
Y7820D01*
D02*
G37*
G36*
X3100Y7858D02*
X2994Y7844D01*
X2896Y7803D01*
X2812Y7738D01*
X2747Y7654D01*
X2706Y7556D01*
X2692Y7450D01*
X2706Y7344D01*
X2747Y7246D01*
X2812Y7162D01*
X2896Y7097D01*
X2994Y7056D01*
X3100Y7042D01*
X3206Y7056D01*
X3304Y7097D01*
X3388Y7162D01*
X3453Y7246D01*
X3494Y7344D01*
X3508Y7450D01*
X3494Y7556D01*
X3453Y7654D01*
X3388Y7738D01*
X3304Y7803D01*
X3206Y7844D01*
X3100Y7858D01*
D02*
G37*
G36*
X6100D02*
X5994Y7844D01*
X5896Y7803D01*
X5812Y7738D01*
X5747Y7654D01*
X5706Y7556D01*
X5692Y7450D01*
X5706Y7344D01*
X5747Y7246D01*
X5812Y7162D01*
X5896Y7097D01*
X5918Y7088D01*
X5898Y6989D01*
X5705D01*
X5451Y7243D01*
X5453Y7246D01*
X5494Y7344D01*
X5508Y7450D01*
X5494Y7556D01*
X5453Y7654D01*
X5388Y7738D01*
X5304Y7803D01*
X5206Y7844D01*
X5100Y7858D01*
X4994Y7844D01*
X4896Y7803D01*
X4812Y7738D01*
X4747Y7654D01*
X4706Y7556D01*
X4692Y7450D01*
X4706Y7344D01*
X4747Y7246D01*
X4812Y7162D01*
X4896Y7097D01*
X4994Y7056D01*
X5100Y7042D01*
X5206Y7056D01*
X5304Y7097D01*
X5307Y7099D01*
X5591Y6815D01*
X5624Y6793D01*
X5663Y6785D01*
X9120D01*
X9136Y6694D01*
X9136Y6687D01*
Y5806D01*
X10024D01*
Y6687D01*
X10024Y6694D01*
X10025Y6701D01*
X10125D01*
X10126Y6694D01*
X10126Y6687D01*
Y5806D01*
X11014D01*
Y6687D01*
X11014Y6694D01*
X11030Y6785D01*
X12070D01*
X12086Y6694D01*
X12086Y6687D01*
Y5806D01*
X12974D01*
Y6687D01*
X12974Y6694D01*
X12975Y6701D01*
X13075D01*
X13076Y6694D01*
X13076Y6687D01*
Y5806D01*
X13962D01*
X13964Y5806D01*
X14061D01*
X14062Y5806D01*
X14872D01*
X14893Y5806D01*
X14906Y5775D01*
X14934Y5708D01*
X13649Y4423D01*
X13283D01*
Y4470D01*
X13024D01*
X12974Y4568D01*
X12981Y4578D01*
X12992Y4636D01*
Y4798D01*
X13141D01*
X13200Y4810D01*
X13249Y4843D01*
X13638Y5232D01*
X13671Y5281D01*
X13683Y5340D01*
X13671Y5399D01*
X13638Y5448D01*
X13589Y5481D01*
X13530Y5493D01*
X13471Y5481D01*
X13422Y5448D01*
X13078Y5104D01*
X12839D01*
X12781Y5092D01*
X12731Y5059D01*
X12698Y5010D01*
X12686Y4951D01*
X12686Y4951D01*
Y4636D01*
X12698Y4578D01*
X12704Y4568D01*
X12655Y4470D01*
X12396D01*
Y4253D01*
X12396Y4155D01*
X12396Y4074D01*
X12396Y3858D01*
X12396Y3759D01*
X12396Y3543D01*
X12396Y3444D01*
X12396Y3228D01*
X12396Y3129D01*
X12396Y2913D01*
X12396Y2814D01*
X12396Y2598D01*
X12396Y2499D01*
Y2283D01*
X12655D01*
X12704Y2184D01*
X12698Y2175D01*
X12686Y2116D01*
X12698Y2058D01*
X12731Y2008D01*
X12738Y2002D01*
X12787Y1969D01*
X12846Y1957D01*
X13257D01*
X13562Y1652D01*
X13611Y1619D01*
X13670Y1607D01*
X13729Y1619D01*
X13778Y1652D01*
X13811Y1701D01*
X13823Y1760D01*
X13811Y1819D01*
X13778Y1868D01*
X13428Y2218D01*
X13409Y2231D01*
X13439Y2329D01*
X13746D01*
X13878Y2198D01*
X13911Y2176D01*
X13950Y2168D01*
X16418D01*
X16438Y2119D01*
X16486Y2056D01*
X16549Y2008D01*
X16622Y1978D01*
X16700Y1967D01*
X16778Y1978D01*
X16851Y2008D01*
X16914Y2056D01*
X16962Y2119D01*
X16992Y2192D01*
X17003Y2270D01*
X16992Y2348D01*
X16962Y2421D01*
X16914Y2484D01*
X16851Y2532D01*
X16778Y2562D01*
X16700Y2573D01*
X16622Y2562D01*
X16549Y2532D01*
X16486Y2484D01*
X16438Y2421D01*
X16418Y2372D01*
X16005D01*
X15934Y2436D01*
X15934Y2470D01*
Y3230D01*
X15934Y3324D01*
X16030Y3328D01*
X17070D01*
X17109Y3336D01*
X17142Y3358D01*
X17172Y3388D01*
X17222Y3368D01*
X17300Y3357D01*
X17378Y3368D01*
X17451Y3398D01*
X17514Y3446D01*
X17562Y3509D01*
X17592Y3582D01*
X17603Y3660D01*
X17592Y3738D01*
X17562Y3811D01*
X17514Y3874D01*
X17451Y3922D01*
X17378Y3952D01*
X17300Y3963D01*
X17222Y3952D01*
X17177Y3934D01*
X17122Y4017D01*
X17282Y4178D01*
X17448D01*
X17468Y4129D01*
X17516Y4066D01*
X17579Y4018D01*
X17652Y3988D01*
X17730Y3977D01*
X17808Y3988D01*
X17881Y4018D01*
X17944Y4066D01*
X17992Y4129D01*
X18022Y4202D01*
X18033Y4280D01*
X18022Y4358D01*
X17992Y4431D01*
X17944Y4494D01*
X17881Y4542D01*
X17808Y4572D01*
X17730Y4583D01*
X17652Y4572D01*
X17579Y4542D01*
X17516Y4494D01*
X17468Y4431D01*
X17448Y4382D01*
X17240D01*
X17201Y4374D01*
X17168Y4352D01*
X16568Y3752D01*
X16405D01*
X16365Y3850D01*
X17312Y4798D01*
X17362Y4778D01*
X17440Y4767D01*
X17518Y4778D01*
X17591Y4808D01*
X17654Y4856D01*
X17702Y4919D01*
X17732Y4992D01*
X17743Y5070D01*
X17732Y5148D01*
X17702Y5221D01*
X17654Y5284D01*
X17591Y5332D01*
X17518Y5362D01*
X17440Y5373D01*
X17362Y5362D01*
X17289Y5332D01*
X17226Y5284D01*
X17178Y5221D01*
X17148Y5148D01*
X17137Y5070D01*
X17148Y4992D01*
X17168Y4942D01*
X16966Y4741D01*
X16909Y4759D01*
X16872Y4785D01*
Y6649D01*
X16921Y6674D01*
X17016Y6613D01*
X17016Y5806D01*
X17904D01*
Y6694D01*
X17107D01*
X17061Y6694D01*
X17046Y6695D01*
X17033Y6710D01*
X16998Y6785D01*
X17032Y6829D01*
X17062Y6902D01*
X17073Y6980D01*
X17062Y7058D01*
X17032Y7131D01*
X16984Y7194D01*
X16921Y7242D01*
X16848Y7272D01*
X16770Y7283D01*
X16692Y7272D01*
X16619Y7242D01*
X16556Y7194D01*
X16508Y7131D01*
X16478Y7058D01*
X16467Y6980D01*
X16470Y6964D01*
X16376Y6918D01*
X15772Y7522D01*
X15739Y7544D01*
X15700Y7552D01*
X6494D01*
X6494Y7556D01*
X6453Y7654D01*
X6388Y7738D01*
X6304Y7803D01*
X6206Y7844D01*
X6100Y7858D01*
D02*
G37*
%LPD*%
G36*
X14154Y2861D02*
X14145Y2848D01*
X13423D01*
X13391Y2904D01*
X13422Y2958D01*
X13424Y2959D01*
X14101D01*
X14154Y2861D01*
D02*
G37*
G36*
X15046Y3233D02*
Y2470D01*
X15046Y2436D01*
X14975Y2372D01*
X13992D01*
X13861Y2503D01*
X13828Y2526D01*
X13789Y2533D01*
X13423D01*
X13391Y2589D01*
X13422Y2643D01*
X13424Y2644D01*
X14276D01*
X14315Y2652D01*
X14348Y2674D01*
X14948Y3274D01*
X15046Y3233D01*
D02*
G37*
G36*
X15318Y6628D02*
Y6092D01*
X15046Y5821D01*
X14948Y5861D01*
X14948Y5880D01*
X14948Y5880D01*
X14948Y5882D01*
Y6687D01*
X14948Y6694D01*
X14964Y6785D01*
X15160D01*
X15318Y6628D01*
D02*
G37*
G36*
X14139Y3176D02*
X14130Y3163D01*
X13423D01*
X13391Y3219D01*
X13422Y3273D01*
X13424Y3274D01*
X14086D01*
X14139Y3176D01*
D02*
G37*
G36*
X15046Y5393D02*
Y4600D01*
X15046Y4556D01*
X14970Y4502D01*
X14560D01*
X14521Y4494D01*
X14488Y4472D01*
X14124Y4108D01*
X13423D01*
X13391Y4164D01*
X13422Y4218D01*
X13424Y4219D01*
X13691D01*
X13730Y4227D01*
X13763Y4249D01*
X14948Y5434D01*
X15046Y5393D01*
D02*
G37*
G36*
X16428Y6578D02*
Y4912D01*
X16018Y4502D01*
X16010D01*
X15934Y4556D01*
X15934Y4600D01*
Y5444D01*
X15097D01*
X15056Y5542D01*
X15492Y5978D01*
X15514Y6011D01*
X15522Y6050D01*
Y6670D01*
X15514Y6709D01*
X15492Y6742D01*
X15275Y6959D01*
X15242Y6982D01*
X15203Y6989D01*
X6302D01*
X6282Y7088D01*
X6304Y7097D01*
X6388Y7162D01*
X6453Y7246D01*
X6494Y7344D01*
X6494Y7348D01*
X15658D01*
X16428Y6578D01*
D02*
G37*
G36*
X14128Y3806D02*
X14120Y3793D01*
X13423D01*
X13391Y3849D01*
X13422Y3903D01*
X13424Y3904D01*
X14072D01*
X14128Y3806D01*
D02*
G37*
G36*
X14174Y3491D02*
X14170Y3483D01*
X14161Y3478D01*
X13424D01*
X13422Y3479D01*
X13391Y3534D01*
X13423Y3589D01*
X14117D01*
X14174Y3491D01*
D02*
G37*
G36*
X17026Y3783D02*
X17008Y3738D01*
X16997Y3660D01*
X17001Y3630D01*
X16938Y3541D01*
X16922Y3532D01*
X16775D01*
X16735Y3630D01*
X16943Y3838D01*
X17026Y3783D01*
D02*
G37*
D10*
X5190Y5060D02*
D03*
Y3710D02*
D03*
Y2380D02*
D03*
Y1050D02*
D03*
D11*
X3790Y5060D02*
D03*
Y3710D02*
D03*
Y2380D02*
D03*
Y1050D02*
D03*
D12*
X12839Y4951D02*
D03*
X12839Y4636D02*
D03*
Y4321D02*
D03*
X12839Y4006D02*
D03*
Y3691D02*
D03*
Y3376D02*
D03*
Y3061D02*
D03*
Y2746D02*
D03*
Y2431D02*
D03*
Y2116D02*
D03*
X9611Y1959D02*
D03*
Y2274D02*
D03*
Y2589D02*
D03*
Y2904D02*
D03*
Y3219D02*
D03*
Y3534D02*
D03*
Y3849D02*
D03*
X9611Y4164D02*
D03*
Y4479D02*
D03*
X9611Y4794D02*
D03*
D13*
X22770Y7796D02*
D03*
Y8544D02*
D03*
D14*
X15420Y6050D02*
Y6670D01*
X13691Y4321D02*
X15420Y6050D01*
X12839Y4321D02*
X13691D01*
X16610Y3650D02*
X17240Y4280D01*
X14850Y3650D02*
X16610D01*
X14261Y3061D02*
X14850Y3650D01*
X16250Y3880D02*
X17440Y5070D01*
X14790Y3880D02*
X16250D01*
X14286Y3376D02*
X14790Y3880D01*
X16140Y4140D02*
X16770Y4770D01*
X14690Y4140D02*
X16140D01*
X14241Y3691D02*
X14690Y4140D01*
X16060Y4400D02*
X16530Y4870D01*
X14560Y4400D02*
X16060D01*
X14166Y4006D02*
X14560Y4400D01*
X12839Y4006D02*
X14166D01*
X16530Y4870D02*
Y6620D01*
X15700Y7450D02*
X16530Y6620D01*
X6100Y7450D02*
X15700D01*
X12839Y3691D02*
X14241D01*
X16770Y4770D02*
Y6980D01*
X12839Y3376D02*
X14286D01*
X12839Y3061D02*
X14261D01*
X17240Y4280D02*
X17730D01*
X17070Y3430D02*
X17300Y3660D01*
X14960Y3430D02*
X17070D01*
X14276Y2746D02*
X14960Y3430D01*
X12839Y2746D02*
X14276D01*
X12839Y2431D02*
X13789D01*
X13950Y2270D01*
X16700D01*
X10250Y3540D02*
X10700Y3990D01*
X11230D01*
X9611Y3219D02*
X10509D01*
X9617Y3540D02*
X10250D01*
X9611Y3534D02*
X9617Y3540D01*
X5100Y7450D02*
X5663Y6887D01*
X15203D01*
X15420Y6670D01*
D15*
X9290Y1060D02*
X9611Y1381D01*
Y1959D01*
X10540Y2578D02*
X10548D01*
X10214Y2904D02*
X10540Y2578D01*
X9611Y2904D02*
X10214D01*
X10520Y4470D02*
Y4690D01*
X10416Y4794D02*
X10520Y4690D01*
X9611Y4794D02*
X10416D01*
X13320Y2110D02*
X13670Y1760D01*
X12846Y2110D02*
X13320D01*
X12839Y2116D02*
X12846Y2110D01*
X12839Y4951D02*
X12839Y4951D01*
Y4636D02*
Y4951D01*
X13141Y4951D02*
X13530Y5340D01*
X12839Y4951D02*
X13141D01*
X10570Y640D02*
X11550D01*
D16*
X5190Y3710D02*
X5641D01*
X6171Y4240D01*
X5190Y5060D02*
X5641D01*
X6171Y4530D01*
Y4240D02*
X9039D01*
X9115Y4164D01*
X9611D01*
X6171Y4530D02*
X9159D01*
X9210Y4479D01*
X9611D01*
D17*
X5190Y1050D02*
X5621D01*
X6161Y1590D01*
X5190Y2380D02*
X5621D01*
X6161Y1840D01*
X7174D01*
X7901Y2567D01*
X9113D01*
X6161Y1590D02*
X7278D01*
X8004Y2317D01*
X9113Y2567D02*
X9135Y2589D01*
X9611D01*
X8004Y2317D02*
X9092D01*
X9135Y2274D01*
X9611D01*
D18*
X2630Y480D02*
D03*
Y5710D02*
D03*
D19*
Y1720D02*
D03*
Y3040D02*
D03*
Y4380D02*
D03*
D20*
X8750Y1550D02*
D03*
X23371Y6221D02*
D03*
X8750Y5330D02*
D03*
Y3440D02*
D03*
D21*
X14504Y6250D02*
D03*
X11550Y640D02*
D03*
X15490D02*
D03*
X19430D02*
D03*
X12530D02*
D03*
X14380D02*
D03*
X23370D02*
D03*
X15490Y2880D02*
D03*
Y5000D02*
D03*
X17460Y6250D02*
D03*
X21400D02*
D03*
X23370Y4020D02*
D03*
X13520Y6250D02*
D03*
X12530D02*
D03*
X10570D02*
D03*
X9580D02*
D03*
X10570Y640D02*
D03*
D22*
X11225Y1565D02*
D03*
X11206Y5355D02*
D03*
D23*
X2100Y8450D02*
D03*
X3100D02*
D03*
X4100D02*
D03*
X5100D02*
D03*
X6100D02*
D03*
Y7450D02*
D03*
X5100D02*
D03*
X4100D02*
D03*
X3100D02*
D03*
D24*
X2100D02*
D03*
D25*
X19700Y8500D02*
D03*
D26*
X8050Y332D02*
D03*
X7253Y352D02*
D03*
X6475Y332D02*
D03*
X13404Y480D02*
D03*
X17312Y470D02*
D03*
X21554D02*
D03*
X24891Y529D02*
D03*
Y3895D02*
D03*
X24969Y7507D02*
D03*
X25028Y9476D02*
D03*
X471Y9446D02*
D03*
X1928Y401D02*
D03*
X363D02*
D03*
X353Y1661D02*
D03*
X363Y3019D02*
D03*
X353Y4378D02*
D03*
X383Y5775D02*
D03*
X7824Y5824D02*
D03*
X7135Y5834D02*
D03*
X6465Y5805D02*
D03*
X7017Y3059D02*
D03*
X6475Y3078D02*
D03*
X8139Y3049D02*
D03*
X7706Y3009D02*
D03*
X7341Y2744D02*
D03*
X7017Y2429D02*
D03*
X6593Y2330D02*
D03*
X6170Y2468D02*
D03*
X5835Y2754D02*
D03*
X8316Y1809D02*
D03*
X7961Y1582D02*
D03*
X7656Y1277D02*
D03*
X7263Y1080D02*
D03*
X6830Y1090D02*
D03*
X6396Y1070D02*
D03*
X6042Y815D02*
D03*
X5786Y480D02*
D03*
X5373Y362D02*
D03*
X4940D02*
D03*
X4517Y500D02*
D03*
X4477Y913D02*
D03*
X4487Y1366D02*
D03*
X4517Y2567D02*
D03*
X4526Y2133D02*
D03*
X4674Y1720D02*
D03*
X5107Y1730D02*
D03*
X5530D02*
D03*
X4536Y5214D02*
D03*
X4546Y4781D02*
D03*
X4526Y3600D02*
D03*
X4536Y4033D02*
D03*
X4684Y3049D02*
D03*
X5097Y3059D02*
D03*
X5511Y3068D02*
D03*
X5875Y3275D02*
D03*
X6150Y3590D02*
D03*
X6524Y3757D02*
D03*
X6948D02*
D03*
X7361D02*
D03*
X7784D02*
D03*
X8198D02*
D03*
X5432Y4397D02*
D03*
X4989Y4407D02*
D03*
X4536D02*
D03*
X4782Y5716D02*
D03*
X5255D02*
D03*
X5717Y5706D02*
D03*
X6003Y5322D02*
D03*
X6347Y5027D02*
D03*
X6810D02*
D03*
X7272D02*
D03*
X7735D02*
D03*
X8188D02*
D03*
X20894Y9486D02*
D03*
D27*
X9290Y1060D02*
D03*
X10548Y2578D02*
D03*
X10520Y4470D02*
D03*
X13670Y1760D02*
D03*
X13530Y5340D02*
D03*
X16770Y6980D02*
D03*
X17440Y5070D02*
D03*
X17730Y4280D02*
D03*
X17300Y3660D02*
D03*
X16700Y2270D02*
D03*
X11230Y3990D02*
D03*
X10650Y3360D02*
D03*
M02*
