G04 Layer_Color=128*
%FSLAX24Y24*%
%MOIN*%
G70*
G01*
G75*
%ADD43C,0.0020*%
D43*
X2380Y480D02*
X2880D01*
X2630Y230D02*
Y730D01*
X2380Y1720D02*
X2880D01*
X2630Y1470D02*
Y1970D01*
X2380Y3040D02*
X2880D01*
X2630Y2790D02*
Y3290D01*
X2380Y4380D02*
X2880D01*
X2630Y4130D02*
Y4630D01*
X2380Y5710D02*
X2880D01*
X2630Y5460D02*
Y5960D01*
X8540Y1550D02*
X8960D01*
X8750Y1340D02*
Y1760D01*
X14298Y6250D02*
X14711D01*
X14504Y6043D02*
Y6457D01*
X23161Y6221D02*
X23581D01*
X23371Y6011D02*
Y6431D01*
X10920Y1565D02*
X11530D01*
X11225Y1260D02*
Y1870D01*
X10900Y5355D02*
X11511D01*
X11206Y5049D02*
Y5660D01*
X11343Y640D02*
X11757D01*
X11550Y433D02*
Y847D01*
X15283Y640D02*
X15697D01*
X15490Y433D02*
Y847D01*
X19223Y640D02*
X19637D01*
X19430Y433D02*
Y847D01*
X12323Y640D02*
X12737D01*
X12530Y433D02*
Y847D01*
X14173Y640D02*
X14587D01*
X14380Y433D02*
Y847D01*
X23163Y640D02*
X23577D01*
X23370Y433D02*
Y847D01*
X15283Y2880D02*
X15697D01*
X15490Y2673D02*
Y3087D01*
X15283Y5000D02*
X15697D01*
X15490Y4793D02*
Y5207D01*
X17253Y6250D02*
X17667D01*
X17460Y6043D02*
Y6457D01*
X21193Y6250D02*
X21607D01*
X21400Y6043D02*
Y6457D01*
X23163Y4020D02*
X23577D01*
X23370Y3813D02*
Y4227D01*
X13313Y6250D02*
X13727D01*
X13520Y6043D02*
Y6457D01*
X12323Y6250D02*
X12737D01*
X12530Y6043D02*
Y6457D01*
X10363Y6250D02*
X10777D01*
X10570Y6043D02*
Y6457D01*
X9373Y6250D02*
X9787D01*
X9580Y6043D02*
Y6457D01*
X10363Y640D02*
X10777D01*
X10570Y433D02*
Y847D01*
X8540Y5330D02*
X8960D01*
X8750Y5120D02*
Y5540D01*
X8540Y3440D02*
X8960D01*
X8750Y3230D02*
Y3650D01*
X1901Y8450D02*
X2299D01*
X2100Y8251D02*
Y8649D01*
X2901Y8450D02*
X3299D01*
X3100Y8251D02*
Y8649D01*
X3901Y8450D02*
X4299D01*
X4100Y8251D02*
Y8649D01*
X4901Y8450D02*
X5299D01*
X5100Y8251D02*
Y8649D01*
X5901Y8450D02*
X6299D01*
X6100Y8251D02*
Y8649D01*
X5901Y7450D02*
X6299D01*
X6100Y7251D02*
Y7649D01*
X4901Y7450D02*
X5299D01*
X5100Y7251D02*
Y7649D01*
X3901Y7450D02*
X4299D01*
X4100Y7251D02*
Y7649D01*
X2901Y7450D02*
X3299D01*
X3100Y7251D02*
Y7649D01*
X1950Y7450D02*
X2250D01*
X2100Y7300D02*
Y7600D01*
X19070Y8500D02*
X20330D01*
X19700Y7870D02*
Y9130D01*
X7975Y332D02*
X8125D01*
X8050Y257D02*
Y407D01*
X7178Y352D02*
X7328D01*
X7253Y277D02*
Y427D01*
X6400Y332D02*
X6550D01*
X6475Y257D02*
Y407D01*
X13329Y480D02*
X13479D01*
X13404Y405D02*
Y555D01*
X17237Y470D02*
X17387D01*
X17312Y395D02*
Y545D01*
X21479Y470D02*
X21629D01*
X21554Y395D02*
Y545D01*
X24816Y529D02*
X24966D01*
X24891Y454D02*
Y604D01*
X24816Y3895D02*
X24966D01*
X24891Y3820D02*
Y3970D01*
X24894Y7507D02*
X25044D01*
X24969Y7432D02*
Y7582D01*
X24953Y9476D02*
X25103D01*
X25028Y9401D02*
Y9551D01*
X396Y9446D02*
X546D01*
X471Y9371D02*
Y9521D01*
X1853Y401D02*
X2003D01*
X1928Y326D02*
Y476D01*
X288Y401D02*
X438D01*
X363Y326D02*
Y476D01*
X278Y1661D02*
X428D01*
X353Y1586D02*
Y1736D01*
X288Y3019D02*
X438D01*
X363Y2944D02*
Y3094D01*
X278Y4378D02*
X428D01*
X353Y4303D02*
Y4453D01*
X308Y5775D02*
X458D01*
X383Y5700D02*
Y5850D01*
X7749Y5824D02*
X7899D01*
X7824Y5749D02*
Y5899D01*
X7060Y5834D02*
X7210D01*
X7135Y5759D02*
Y5909D01*
X6390Y5805D02*
X6540D01*
X6465Y5730D02*
Y5880D01*
X6942Y3059D02*
X7092D01*
X7017Y2984D02*
Y3134D01*
X6400Y3078D02*
X6550D01*
X6475Y3003D02*
Y3153D01*
X8064Y3049D02*
X8214D01*
X8139Y2974D02*
Y3124D01*
X7631Y3009D02*
X7781D01*
X7706Y2934D02*
Y3084D01*
X7266Y2744D02*
X7416D01*
X7341Y2669D02*
Y2819D01*
X6942Y2429D02*
X7092D01*
X7017Y2354D02*
Y2504D01*
X6518Y2330D02*
X6668D01*
X6593Y2255D02*
Y2405D01*
X6095Y2468D02*
X6245D01*
X6170Y2393D02*
Y2543D01*
X5760Y2754D02*
X5910D01*
X5835Y2679D02*
Y2829D01*
X8241Y1809D02*
X8391D01*
X8316Y1734D02*
Y1884D01*
X7886Y1582D02*
X8036D01*
X7961Y1507D02*
Y1657D01*
X7581Y1277D02*
X7731D01*
X7656Y1202D02*
Y1352D01*
X7188Y1080D02*
X7338D01*
X7263Y1005D02*
Y1155D01*
X6755Y1090D02*
X6905D01*
X6830Y1015D02*
Y1165D01*
X6321Y1070D02*
X6471D01*
X6396Y995D02*
Y1145D01*
X5967Y815D02*
X6117D01*
X6042Y740D02*
Y890D01*
X5711Y480D02*
X5861D01*
X5786Y405D02*
Y555D01*
X5298Y362D02*
X5448D01*
X5373Y287D02*
Y437D01*
X4865Y362D02*
X5015D01*
X4940Y287D02*
Y437D01*
X4442Y500D02*
X4592D01*
X4517Y425D02*
Y575D01*
X4402Y913D02*
X4552D01*
X4477Y838D02*
Y988D01*
X4412Y1366D02*
X4562D01*
X4487Y1291D02*
Y1441D01*
X4442Y2567D02*
X4592D01*
X4517Y2492D02*
Y2642D01*
X4451Y2133D02*
X4601D01*
X4526Y2058D02*
Y2208D01*
X4599Y1720D02*
X4749D01*
X4674Y1645D02*
Y1795D01*
X5032Y1730D02*
X5182D01*
X5107Y1655D02*
Y1805D01*
X5455Y1730D02*
X5605D01*
X5530Y1655D02*
Y1805D01*
X4461Y5214D02*
X4611D01*
X4536Y5139D02*
Y5289D01*
X4471Y4781D02*
X4621D01*
X4546Y4706D02*
Y4856D01*
X4451Y3600D02*
X4601D01*
X4526Y3525D02*
Y3675D01*
X4461Y4033D02*
X4611D01*
X4536Y3958D02*
Y4108D01*
X4609Y3049D02*
X4759D01*
X4684Y2974D02*
Y3124D01*
X5022Y3059D02*
X5172D01*
X5097Y2984D02*
Y3134D01*
X5436Y3068D02*
X5586D01*
X5511Y2993D02*
Y3144D01*
X5800Y3275D02*
X5950D01*
X5875Y3200D02*
Y3350D01*
X6075Y3590D02*
X6225D01*
X6150Y3515D02*
Y3665D01*
X6449Y3757D02*
X6599D01*
X6524Y3682D02*
Y3832D01*
X6873Y3757D02*
X7023D01*
X6948Y3682D02*
Y3832D01*
X7286Y3757D02*
X7436D01*
X7361Y3682D02*
Y3832D01*
X7709Y3757D02*
X7859D01*
X7784Y3682D02*
Y3832D01*
X8123Y3757D02*
X8273D01*
X8198Y3682D02*
Y3832D01*
X5357Y4397D02*
X5507D01*
X5432Y4322D02*
Y4472D01*
X4914Y4407D02*
X5064D01*
X4989Y4332D02*
Y4482D01*
X4461Y4407D02*
X4611D01*
X4536Y4332D02*
Y4482D01*
X4707Y5716D02*
X4857D01*
X4782Y5641D02*
Y5791D01*
X5180Y5716D02*
X5330D01*
X5255Y5641D02*
Y5791D01*
X5642Y5706D02*
X5792D01*
X5717Y5631D02*
Y5781D01*
X5928Y5322D02*
X6078D01*
X6003Y5247D02*
Y5397D01*
X6272Y5027D02*
X6422D01*
X6347Y4952D02*
Y5102D01*
X6735Y5027D02*
X6885D01*
X6810Y4952D02*
Y5102D01*
X7197Y5027D02*
X7347D01*
X7272Y4952D02*
Y5102D01*
X7660Y5027D02*
X7810D01*
X7735Y4952D02*
Y5102D01*
X8113Y5027D02*
X8263D01*
X8188Y4952D02*
Y5102D01*
X9150Y1060D02*
X9430D01*
X9290Y920D02*
Y1200D01*
X10408Y2578D02*
X10688D01*
X10548Y2438D02*
Y2718D01*
X10380Y4470D02*
X10660D01*
X10520Y4330D02*
Y4610D01*
X13530Y1760D02*
X13810D01*
X13670Y1620D02*
Y1900D01*
X13390Y5340D02*
X13670D01*
X13530Y5200D02*
Y5480D01*
X16630Y6980D02*
X16910D01*
X16770Y6840D02*
Y7120D01*
X17300Y5070D02*
X17580D01*
X17440Y4930D02*
Y5210D01*
X17590Y4280D02*
X17870D01*
X17730Y4140D02*
Y4420D01*
X17160Y3660D02*
X17440D01*
X17300Y3520D02*
Y3800D01*
X16560Y2270D02*
X16840D01*
X16700Y2130D02*
Y2410D01*
X11090Y3990D02*
X11370D01*
X11230Y3850D02*
Y4130D01*
X10510Y3360D02*
X10790D01*
X10650Y3220D02*
Y3500D01*
X20819Y9486D02*
X20969D01*
X20894Y9411D02*
Y9561D01*
M02*
