  0
SECTION
  2
HEADER
  9
$ACADVER
  1
AC1014
  9
$HANDSEED
  5
FFFF
  9
$MEASUREMENT
 70
     1
  0
ENDSEC
  0
SECTION
  2
TABLES
  0
TABLE
  2
VPORT
  5
8
330
0
100
AcDbSymbolTable
 70
     4
  0
VPORT
  5
2E
330
8
100
AcDbSymbolTableRecord
100
AcDbViewportTableRecord
  2
*ACTIVE
 70
     0
 10
0.0
 20
0.0
 11
1.0
 21
1.0
 12
210.0
 22
148.5
 13
0.0
 23
0.0
 14
10.0
 24
10.0
 15
10.0
 25
10.0
 16
0.0
 26
0.0
 36
1.0
 17
0.0
 27
0.0
 37
0.0
 40
341.0
 41
1.24
 42
50.0
 43
0.0
 44
0.0
 50
0.0
 51
0.0
 71
     0
 72
   100
 73
     1
 74
     3
 75
     0
 76
     0
 77
     0
 78
     0
  0
ENDTAB
  0
TABLE
  2
LTYPE
  5
5
330
0
100
AcDbSymbolTable
 70
     1
  0
LTYPE
  5
14
330
5
100
AcDbSymbolTableRecord
100
AcDbLinetypeTableRecord
  2
BYBLOCK
 70
     0
  3

 72
    65
 73
     0
 40
0.0
  0
LTYPE
  5
15
330
5
100
AcDbSymbolTableRecord
100
AcDbLinetypeTableRecord
  2
BYLAYER
 70
     0
  3

 72
    65
 73
     0
 40
0.0
  0
LTYPE
  5
16
330
5
100
AcDbSymbolTableRecord
100
AcDbLinetypeTableRecord
  2
CONTINUOUS
 70
     0
  3
Solid line
 72
    65
 73
     0
 40
0.0
  0
ENDTAB
  0
TABLE
  2
LAYER
  5
2
100
AcDbSymbolTable
 70
1
  0
LAYER
  5
50
100
AcDbSymbolTableRecord
100
AcDbLayerTableRecord
  2
0
 70
0
  6
CONTINUOUS
  0
ENDTAB
  0
TABLE
  2
STYLE
  5
3
330
0
100
AcDbSymbolTable
 70
     1
  0
STYLE
  5
11
330
3
100
AcDbSymbolTableRecord
100
AcDbTextStyleTableRecord
  2
STANDARD
 70
     0
 40
0.0
 41
1.0
 50
0.0
 71
     0
 42
2.5
  3
txt
  4

  0
ENDTAB
  0
TABLE
  2
VIEW
  5
6
330
0
100
AcDbSymbolTable
 70
     0
  0
ENDTAB
  0
TABLE
  2
UCS
  5
7
330
0
100
AcDbSymbolTable
 70
     0
  0
ENDTAB
  0
TABLE
  2
APPID
  5
9
330
0
100
AcDbSymbolTable
 70
     2
  0
APPID
  5
12
330
9
100
AcDbSymbolTableRecord
100
AcDbRegAppTableRecord
  2
ACAD
 70
     0
  0
ENDTAB
  0
TABLE
  2
DIMSTYLE
  5
A
330
0
100
AcDbSymbolTable
 70
     1
  0
DIMSTYLE
105
27
330
A
100
AcDbSymbolTableRecord
100
AcDbDimStyleTableRecord
  2
ISO-25
 70
     0
  3

  4

  5

  6

  7

 40
1.0
 41
2.5
 42
0.625
 43
3.75
 44
1.25
 45
0.0
 46
0.0
 47
0.0
 48
0.0
140
2.5
141
2.5
142
0.0
143
0.03937007874016
144
1.0
145
0.0
146
1.0
147
0.625
 71
     0
 72
     0
 73
     0
 74
     0
 75
     0
 76
     0
 77
     1
 78
     8
170
     0
171
     3
172
     1
173
     0
174
     0
175
     0
176
     0
177
     0
178
     0
270
     2
271
     2
272
     2
273
     2
274
     3
340
11
275
     0
280
     0
281
     0
282
     0
283
     0
284
     8
285
     0
286
     0
287
     3
288
     0
  0
ENDTAB
  0
TABLE
  2
BLOCK_RECORD
  5
1
330
0
100
AcDbSymbolTable
 70
     1
  0
BLOCK_RECORD
  5
1F
330
1
100
AcDbSymbolTableRecord
100
AcDbBlockTableRecord
  2
*MODEL_SPACE
  0
BLOCK_RECORD
  5
1B
330
1
100
AcDbSymbolTableRecord
100
AcDbBlockTableRecord
  2
*PAPER_SPACE
  0
ENDTAB
  0
ENDSEC
  0
SECTION
  2
BLOCKS
  0
BLOCK
  5
20
330
1F
100
AcDbEntity
  8
0
100
AcDbBlockBegin
  2
*MODEL_SPACE
 70
     0
 10
0.0
 20
0.0
 30
0.0
  3
*MODEL_SPACE
  1

  0
ENDBLK
  5
21
330
1F
100
AcDbEntity
  8
0
100
AcDbBlockEnd
  0
BLOCK
  5
1C
330
1B
100
AcDbEntity
 67
     1
  8
0
100
AcDbBlockBegin
  2
*PAPER_SPACE
  1

  0
ENDBLK
  5
1D
330
1B
100
AcDbEntity
 67
     1
  8
0
100
AcDbBlockEnd
  0
ENDSEC
  0
SECTION
  2
ENTITIES
  0
LWPOLYLINE
  5
100
100
AcDbEntity
  8
0
 62
7
100
AcDbPolyline
 90
53
 70
0
 10
3.149207
 20
13.091331
 30
0.0
 10
3.689628
 20
12.771658
 30
0.0
 10
4.265934
 20
12.522314
 30
0.0
 10
4.868905
 20
12.347139
 30
0.0
 10
5.489037
 20
12.248869
 30
0.0
 10
6.116680
 20
12.229114
 30
0.0
 10
37.229322
 20
12.229198
 30
0.0
 10
37.854484
 20
12.288239
 30
0.0
 10
38.467228
 20
12.425230
 30
0.0
 10
39.058043
 20
12.637884
 30
0.0
 10
39.617498
 20
12.922985
 30
0.0
 10
40.136846
 20
13.275876
 30
0.0
 10
40.607835
 20
13.691166
 30
0.0
 10
41.023091
 20
14.162138
 30
0.0
 10
41.375996
 20
14.681484
 30
0.0
 10
41.661086
 20
15.240927
 30
0.0
 10
41.873749
 20
15.831759
 30
0.0
 10
42.010751
 20
16.444492
 30
0.0
 10
42.069800
 20
17.069671
 30
0.0
 10
42.050073
 20
17.697220
 30
0.0
 10
41.951834
 20
18.317403
 30
0.0
 10
41.776684
 20
18.920343
 30
0.0
 10
41.527357
 20
19.496641
 30
0.0
 10
41.207676
 20
20.037096
 30
0.0
 10
40.822795
 20
20.533271
 30
0.0
 10
40.378803
 20
20.977263
 30
0.0
 10
39.882699
 20
21.362073
 30
0.0
 10
39.342258
 20
21.681746
 30
0.0
 10
38.765965
 20
21.931061
 30
0.0
 10
38.163015
 20
22.106208
 30
0.0
 10
37.542845
 20
22.204478
 30
0.0
 10
36.915206
 20
22.224234
 30
0.0
 10
5.802529
 20
22.224177
 30
0.0
 10
5.177423
 20
22.165108
 30
0.0
 10
4.564672
 20
22.028174
 30
0.0
 10
3.973849
 20
21.815435
 30
0.0
 10
3.414436
 20
21.530419
 30
0.0
 10
2.895094
 20
21.177471
 30
0.0
 10
2.424069
 20
20.762210
 30
0.0
 10
2.008806
 20
20.291209
 30
0.0
 10
1.655932
 20
19.771920
 30
0.0
 10
1.370848
 20
19.212443
 30
0.0
 10
1.158115
 20
18.621611
 30
0.0
 10
1.021190
 20
18.008878
 30
0.0
 10
0.962100
 20
17.383756
 30
0.0
 10
0.981769
 20
16.756122
 30
0.0
 10
1.080045
 20
16.135995
 30
0.0
 10
1.255217
 20
15.533027
 30
0.0
 10
1.504555
 20
14.956729
 30
0.0
 10
1.824216
 20
14.416308
 30
0.0
 10
2.209066
 20
13.920161
 30
0.0
 10
2.653066
 20
13.476169
 30
0.0
 10
3.149207
 20
13.091331
 30
0.0
  0
LWPOLYLINE
  5
101
100
AcDbEntity
  8
0
 62
7
100
AcDbPolyline
 90
20
 70
0
 10
35.872095
 20
16.168620
 30
0.0
 10
35.748973
 20
16.327341
 30
0.0
 10
35.646704
 20
16.500287
 30
0.0
 10
35.566858
 20
16.684748
 30
0.0
 10
35.510840
 20
16.877618
 30
0.0
 10
35.479380
 20
17.076133
 30
0.0
 10
35.473059
 20
17.276991
 30
0.0
 10
35.492018
 20
17.476974
 30
0.0
 10
35.535822
 20
17.673090
 30
0.0
 10
35.603855
 20
17.862151
 30
0.0
 10
35.695128
 20
18.041108
 30
0.0
 10
35.808031
 20
18.207337
 30
0.0
 10
35.940932
 20
18.358071
 30
0.0
 10
36.091636
 20
18.490942
 30
0.0
 10
36.257857
 20
18.603859
 30
0.0
 10
36.436819
 20
18.695129
 30
0.0
 10
36.625905
 20
18.763173
 30
0.0
 10
36.822016
 20
18.806946
 30
0.0
 10
37.021999
 20
18.825855
 30
0.0
 10
37.222859
 20
18.819702
 30
0.0
  0
LWPOLYLINE
  5
102
100
AcDbEntity
  8
0
 62
7
100
AcDbPolyline
 90
32
 70
0
 10
37.222859
 20
18.819589
 30
0.0
 10
37.421343
 20
18.788122
 30
0.0
 10
37.614236
 20
18.732129
 30
0.0
 10
37.798700
 20
18.652260
 30
0.0
 10
37.971643
 20
18.550011
 30
0.0
 10
38.130367
 20
18.426877
 30
0.0
 10
38.272497
 20
18.284750
 30
0.0
 10
38.395625
 20
18.126028
 30
0.0
 10
38.497885
 20
17.953083
 30
0.0
 10
38.577670
 20
17.768679
 30
0.0
 10
38.633750
 20
17.575723
 30
0.0
 10
38.665215
 20
17.377236
 30
0.0
 10
38.671480
 20
17.176463
 30
0.0
 10
38.652585
 20
16.976396
 30
0.0
 10
38.608776
 20
16.780280
 30
0.0
 10
38.540673
 20
16.591276
 30
0.0
 10
38.449464
 20
16.412234
 30
0.0
 10
38.336559
 20
16.246033
 30
0.0
 10
38.203674
 20
16.095327
 30
0.0
 10
38.052954
 20
15.962428
 30
0.0
 10
37.886733
 20
15.849511
 30
0.0
 10
37.707708
 20
15.758297
 30
0.0
 10
37.518693
 20
15.690197
 30
0.0
 10
37.322577
 20
15.646396
 30
0.0
 10
37.122521
 20
15.627487
 30
0.0
 10
36.921739
 20
15.633724
 30
0.0
 10
36.723247
 20
15.665220
 30
0.0
 10
36.530291
 20
15.721326
 30
0.0
 10
36.345890
 20
15.801082
 30
0.0
 10
36.172956
 20
15.903359
 30
0.0
 10
36.014223
 20
16.026493
 30
0.0
 10
35.872095
 20
16.168620
 30
0.0
  0
LWPOLYLINE
  5
103
100
AcDbEntity
  8
0
 62
7
100
AcDbPolyline
 90
20
 70
0
 10
4.759445
 20
16.168620
 30
0.0
 10
4.636238
 20
16.327341
 30
0.0
 10
4.533984
 20
16.500287
 30
0.0
 10
4.454201
 20
16.684719
 30
0.0
 10
4.398149
 20
16.877675
 30
0.0
 10
4.366717
 20
17.076133
 30
0.0
 10
4.360376
 20
17.276935
 30
0.0
 10
4.379340
 20
17.477030
 30
0.0
 10
4.423131
 20
17.673090
 30
0.0
 10
4.491183
 20
17.862122
 30
0.0
 10
4.582413
 20
18.041164
 30
0.0
 10
4.695374
 20
18.207365
 30
0.0
 10
4.828225
 20
18.358071
 30
0.0
 10
4.978924
 20
18.490913
 30
0.0
 10
5.145129
 20
18.603887
 30
0.0
 10
5.324154
 20
18.695101
 30
0.0
 10
5.513206
 20
18.763173
 30
0.0
 10
5.709336
 20
18.807031
 30
0.0
 10
5.909363
 20
18.825939
 30
0.0
 10
6.110160
 20
18.819420
 30
0.0
  0
LWPOLYLINE
  5
104
100
AcDbEntity
  8
0
 62
7
100
AcDbPolyline
 90
26
 70
0
 10
6.110160
 20
18.819561
 30
0.0
 10
6.308610
 20
18.788150
 30
0.0
 10
6.501558
 20
18.732101
 30
0.0
 10
6.685992
 20
18.652316
 30
0.0
 10
6.858958
 20
18.550039
 30
0.0
 10
7.017661
 20
18.426849
 30
0.0
 10
7.159747
 20
18.284750
 30
0.0
 10
7.282953
 20
18.126057
 30
0.0
 10
7.385215
 20
17.953083
 30
0.0
 10
7.464991
 20
17.768650
 30
0.0
 10
7.521050
 20
17.575695
 30
0.0
 10
7.552481
 20
17.377265
 30
0.0
 10
7.558823
 20
17.176463
 30
0.0
 10
7.539929
 20
16.976424
 30
0.0
 10
7.496061
 20
16.780308
 30
0.0
 10
7.428009
 20
16.591247
 30
0.0
 10
7.336785
 20
16.412234
 30
0.0
 10
7.223818
 20
16.246033
 30
0.0
 10
7.090967
 20
16.095327
 30
0.0
 10
6.940268
 20
15.962485
 30
0.0
 10
6.774070
 20
15.849511
 30
0.0
 10
6.595037
 20
15.758269
 30
0.0
 10
6.405985
 20
15.690225
 30
0.0
 10
6.209933
 20
15.646424
 30
0.0
 10
6.009836
 20
15.627515
 30
0.0
 10
5.809039
 20
15.633950
 30
0.0
  0
LWPOLYLINE
  5
105
100
AcDbEntity
  8
0
 62
7
100
AcDbPolyline
 90
7
 70
0
 10
5.809039
 20
15.633809
 30
0.0
 10
5.610589
 20
15.665248
 30
0.0
 10
5.417634
 20
15.721297
 30
0.0
 10
5.233206
 20
15.801082
 30
0.0
 10
5.060234
 20
15.903331
 30
0.0
 10
4.901531
 20
16.026549
 30
0.0
 10
4.759445
 20
16.168620
 30
0.0
  0
LWPOLYLINE
  5
106
100
AcDbEntity
  8
0
 62
7
100
AcDbPolyline
 90
53
 70
0
 10
48.629367
 20
10.294565
 30
0.0
 10
48.012279
 20
10.410615
 30
0.0
 10
47.385565
 20
10.448376
 30
0.0
 10
5.121937
 20
10.254913
 30
0.0
 10
4.495396
 20
10.213906
 30
0.0
 10
3.878911
 20
10.094554
 30
0.0
 10
3.282256
 20
9.898946
 30
0.0
 10
2.714836
 20
9.630157
 30
0.0
 10
2.185560
 20
9.292253
 30
0.0
 10
1.702818
 20
8.890735
 30
0.0
 10
1.274195
 20
8.431955
 30
0.0
 10
0.906452
 20
7.922939
 30
0.0
 10
0.605425
 20
7.371984
 30
0.0
 10
0.375813
 20
6.787530
 30
0.0
 10
0.221255
 20
6.178918
 30
0.0
 10
0.144198
 20
5.555715
 30
0.0
 10
0.145871
 20
4.927912
 30
0.0
 10
0.226204
 20
4.305132
 30
0.0
 10
0.383952
 20
3.697310
 30
0.0
 10
0.616660
 20
3.114182
 30
0.0
 10
0.920600
 20
2.564752
 30
0.0
 10
1.290993
 20
2.057684
 30
0.0
 10
1.722038
 20
1.601161
 30
0.0
 10
2.206895
 20
1.202183
 30
0.0
 10
2.737933
 20
0.867073
 30
0.0
 10
3.306784
 20
0.601304
 30
0.0
 10
3.904472
 20
0.408828
 30
0.0
 10
4.521569
 20
0.292807
 30
0.0
 10
5.148333
 20
0.255017
 30
0.0
 10
47.411939
 20
0.448481
 30
0.0
 10
48.038512
 20
0.489488
 30
0.0
 10
48.654981
 20
0.608839
 30
0.0
 10
49.251605
 20
0.804448
 30
0.0
 10
49.819044
 20
1.073236
 30
0.0
 10
50.348301
 20
1.411141
 30
0.0
 10
50.831109
 20
1.812630
 30
0.0
 10
51.259672
 20
2.271439
 30
0.0
 10
51.627464
 20
2.780455
 30
0.0
 10
51.928480
 20
3.331522
 30
0.0
 10
52.158113
 20
3.915835
 30
0.0
 10
52.312643
 20
4.524475
 30
0.0
 10
52.389730
 20
5.147650
 30
0.0
 10
52.388036
 20
5.775594
 30
0.0
 10
52.307713
 20
6.398261
 30
0.0
 10
52.149917
 20
7.006083
 30
0.0
 10
51.917267
 20
7.589211
 30
0.0
 10
51.613263
 20
8.138641
 30
0.0
 10
51.242886
 20
8.645738
 30
0.0
 10
50.811822
 20
9.102232
 30
0.0
 10
50.326996
 20
9.501210
 30
0.0
 10
49.795975
 20
9.836292
 30
0.0
 10
49.227094
 20
10.102118
 30
0.0
 10
48.629367
 20
10.294565
 30
0.0
  0
LWPOLYLINE
  5
107
100
AcDbEntity
  8
0
 62
7
100
AcDbPolyline
 90
51
 70
0
 10
47.004910
 20
3.897688
 30
0.0
 10
46.813682
 20
3.959184
 30
0.0
 10
46.631671
 20
4.044274
 30
0.0
 10
46.461666
 20
4.151547
 30
0.0
 10
46.306585
 20
4.279196
 30
0.0
 10
46.168609
 20
4.425330
 30
0.0
 10
46.050039
 20
4.587524
 30
0.0
 10
45.952867
 20
4.763404
 30
0.0
 10
45.878363
 20
4.949982
 30
0.0
 10
45.827831
 20
5.144489
 30
0.0
 10
45.802206
 20
5.343738
 30
0.0
 10
45.801650
 20
5.544708
 30
0.0
 10
45.826307
 20
5.744070
 30
0.0
 10
45.875742
 20
5.938804
 30
0.0
 10
45.949269
 20
6.125832
 30
0.0
 10
46.045515
 20
6.302193
 30
0.0
 10
46.163236
 20
6.465035
 30
0.0
 10
46.300438
 20
6.611904
 30
0.0
 10
46.454839
 20
6.740399
 30
0.0
 10
46.624226
 20
6.848462
 30
0.0
 10
46.805850
 20
6.934484
 30
0.0
 10
46.996706
 20
6.997080
 30
0.0
 10
47.194061
 20
7.035265
 30
0.0
 10
47.394549
 20
7.048530
 30
0.0
 10
47.595056
 20
7.036309
 30
0.0
 10
47.792595
 20
6.999141
 30
0.0
 10
47.983823
 20
6.937644
 30
0.0
 10
48.165831
 20
6.852554
 30
0.0
 10
48.335740
 20
6.745310
 30
0.0
 10
48.490920
 20
6.617633
 30
0.0
 10
48.628895
 20
6.471526
 30
0.0
 10
48.747466
 20
6.309305
 30
0.0
 10
48.844654
 20
6.133537
 30
0.0
 10
48.919141
 20
5.946847
 30
0.0
 10
48.969574
 20
5.752396
 30
0.0
 10
48.995285
 20
5.553090
 30
0.0
 10
48.995855
 20
5.352120
 30
0.0
 10
48.971197
 20
5.152758
 30
0.0
 10
48.921763
 20
4.958025
 30
0.0
 10
48.848236
 20
4.770996
 30
0.0
 10
48.751891
 20
4.594664
 30
0.0
 10
48.634269
 20
4.431793
 30
0.0
 10
48.497084
 20
4.285010
 30
0.0
 10
48.342663
 20
4.156457
 30
0.0
 10
48.173279
 20
4.048394
 30
0.0
 10
47.991655
 20
3.962373
 30
0.0
 10
47.800700
 20
3.899776
 30
0.0
 10
47.603444
 20
3.861563
 30
0.0
 10
47.402956
 20
3.848299
 30
0.0
 10
47.202448
 20
3.860519
 30
0.0
 10
47.004910
 20
3.897688
 30
0.0
  0
LWPOLYLINE
  5
108
100
AcDbEntity
  8
0
 62
7
100
AcDbPolyline
 90
51
 70
0
 10
4.741323
 20
3.704253
 30
0.0
 10
4.550054
 20
3.765749
 30
0.0
 10
4.368035
 20
3.850839
 30
0.0
 10
4.198097
 20
3.958083
 30
0.0
 10
4.042947
 20
4.085761
 30
0.0
 10
3.905020
 20
4.231867
 30
0.0
 10
3.786482
 20
4.394060
 30
0.0
 10
3.689231
 20
4.569969
 30
0.0
 10
3.614756
 20
4.756546
 30
0.0
 10
3.564264
 20
4.951026
 30
0.0
 10
3.538568
 20
5.150303
 30
0.0
 10
3.538031
 20
5.351273
 30
0.0
 10
3.562689
 20
5.550635
 30
0.0
 10
3.612143
 20
5.745340
 30
0.0
 10
3.685622
 20
5.932397
 30
0.0
 10
3.781947
 20
6.108730
 30
0.0
 10
3.899628
 20
6.271600
 30
0.0
 10
4.036802
 20
6.418468
 30
0.0
 10
4.191282
 20
6.546936
 30
0.0
 10
4.360638
 20
6.654999
 30
0.0
 10
4.542213
 20
6.741020
 30
0.0
 10
4.733138
 20
6.803617
 30
0.0
 10
4.930425
 20
6.841830
 30
0.0
 10
5.130923
 20
6.855094
 30
0.0
 10
5.331468
 20
6.842874
 30
0.0
 10
5.528948
 20
6.805706
 30
0.0
 10
5.720216
 20
6.744209
 30
0.0
 10
5.902245
 20
6.659091
 30
0.0
 10
6.072173
 20
6.551847
 30
0.0
 10
6.227333
 20
6.424198
 30
0.0
 10
6.365260
 20
6.278091
 30
0.0
 10
6.483799
 20
6.115870
 30
0.0
 10
6.581067
 20
5.940074
 30
0.0
 10
6.655515
 20
5.753412
 30
0.0
 10
6.706006
 20
5.558932
 30
0.0
 10
6.731714
 20
5.359655
 30
0.0
 10
6.732222
 20
5.158685
 30
0.0
 10
6.707581
 20
4.959323
 30
0.0
 10
6.658127
 20
4.764590
 30
0.0
 10
6.584658
 20
4.577561
 30
0.0
 10
6.488324
 20
4.401229
 30
0.0
 10
6.370643
 20
4.238358
 30
0.0
 10
6.233496
 20
4.091574
 30
0.0
 10
6.078998
 20
3.963022
 30
0.0
 10
5.909642
 20
3.854931
 30
0.0
 10
5.728068
 20
3.768910
 30
0.0
 10
5.537133
 20
3.706313
 30
0.0
 10
5.339856
 20
3.668128
 30
0.0
 10
5.139348
 20
3.654864
 30
0.0
 10
4.938803
 20
3.667084
 30
0.0
 10
4.741323
 20
3.704253
 30
0.0
  0
LWPOLYLINE
  5
109
100
AcDbEntity
  8
0
 62
7
100
AcDbPolyline
 90
53
 70
0
 10
56.271597
 20
1.648856
 30
0.0
 10
56.812016
 20
1.329183
 30
0.0
 10
57.388323
 20
1.079840
 30
0.0
 10
57.991293
 20
0.904665
 30
0.0
 10
58.611426
 20
0.806395
 30
0.0
 10
59.239068
 20
0.786639
 30
0.0
 10
90.351712
 20
0.786724
 30
0.0
 10
90.976873
 20
0.845765
 30
0.0
 10
91.589617
 20
0.982756
 30
0.0
 10
92.180433
 20
1.195410
 30
0.0
 10
92.739887
 20
1.480511
 30
0.0
 10
93.259235
 20
1.833402
 30
0.0
 10
93.730225
 20
2.248692
 30
0.0
 10
94.145481
 20
2.719664
 30
0.0
 10
94.498386
 20
3.239009
 30
0.0
 10
94.783475
 20
3.798458
 30
0.0
 10
94.996138
 20
4.389291
 30
0.0
 10
95.133140
 20
5.002023
 30
0.0
 10
95.192190
 20
5.627202
 30
0.0
 10
95.172462
 20
6.254751
 30
0.0
 10
95.074224
 20
6.874935
 30
0.0
 10
94.899074
 20
7.477874
 30
0.0
 10
94.649747
 20
8.054172
 30
0.0
 10
94.330066
 20
8.594628
 30
0.0
 10
93.945185
 20
9.090802
 30
0.0
 10
93.501193
 20
9.534794
 30
0.0
 10
93.005089
 20
9.919604
 30
0.0
 10
92.464647
 20
10.239278
 30
0.0
 10
91.888355
 20
10.488593
 30
0.0
 10
91.285404
 20
10.663740
 30
0.0
 10
90.665235
 20
10.762010
 30
0.0
 10
90.037595
 20
10.781765
 30
0.0
 10
58.924918
 20
10.781709
 30
0.0
 10
58.299813
 20
10.722640
 30
0.0
 10
57.687060
 20
10.585705
 30
0.0
 10
57.096239
 20
10.372966
 30
0.0
 10
56.536824
 20
10.087950
 30
0.0
 10
56.017485
 20
9.735003
 30
0.0
 10
55.546458
 20
9.319741
 30
0.0
 10
55.131197
 20
8.848740
 30
0.0
 10
54.778320
 20
8.329452
 30
0.0
 10
54.493236
 20
7.769974
 30
0.0
 10
54.280506
 20
7.179142
 30
0.0
 10
54.143580
 20
6.566409
 30
0.0
 10
54.084491
 20
5.941287
 30
0.0
 10
54.104162
 20
5.313653
 30
0.0
 10
54.202434
 20
4.693526
 30
0.0
 10
54.377607
 20
4.090558
 30
0.0
 10
54.626945
 20
3.514261
 30
0.0
 10
54.946606
 20
2.973833
 30
0.0
 10
55.331456
 20
2.477687
 30
0.0
 10
55.775456
 20
2.033695
 30
0.0
 10
56.271597
 20
1.648856
 30
0.0
  0
LWPOLYLINE
  5
10a
100
AcDbEntity
  8
0
 62
7
100
AcDbPolyline
 90
20
 70
0
 10
88.994485
 20
4.726151
 30
0.0
 10
88.871363
 20
4.884873
 30
0.0
 10
88.769094
 20
5.057819
 30
0.0
 10
88.689248
 20
5.242279
 30
0.0
 10
88.633229
 20
5.435150
 30
0.0
 10
88.601770
 20
5.633665
 30
0.0
 10
88.595448
 20
5.834522
 30
0.0
 10
88.614408
 20
6.034505
 30
0.0
 10
88.658212
 20
6.230621
 30
0.0
 10
88.726244
 20
6.419682
 30
0.0
 10
88.817518
 20
6.598639
 30
0.0
 10
88.930421
 20
6.764868
 30
0.0
 10
89.063322
 20
6.915603
 30
0.0
 10
89.214026
 20
7.048473
 30
0.0
 10
89.380246
 20
7.161390
 30
0.0
 10
89.559209
 20
7.252661
 30
0.0
 10
89.748295
 20
7.320705
 30
0.0
 10
89.944406
 20
7.364477
 30
0.0
 10
90.144388
 20
7.383386
 30
0.0
 10
90.345249
 20
7.377234
 30
0.0
  0
LWPOLYLINE
  5
10b
100
AcDbEntity
  8
0
 62
7
100
AcDbPolyline
 90
32
 70
0
 10
90.345249
 20
7.377121
 30
0.0
 10
90.543733
 20
7.345653
 30
0.0
 10
90.736626
 20
7.289660
 30
0.0
 10
90.921089
 20
7.209791
 30
0.0
 10
91.094032
 20
7.107542
 30
0.0
 10
91.252757
 20
6.984409
 30
0.0
 10
91.394887
 20
6.842282
 30
0.0
 10
91.518015
 20
6.683560
 30
0.0
 10
91.620275
 20
6.510614
 30
0.0
 10
91.700059
 20
6.326210
 30
0.0
 10
91.756140
 20
6.133255
 30
0.0
 10
91.787605
 20
5.934768
 30
0.0
 10
91.793870
 20
5.733995
 30
0.0
 10
91.774975
 20
5.533928
 30
0.0
 10
91.731166
 20
5.337811
 30
0.0
 10
91.663063
 20
5.148807
 30
0.0
 10
91.571854
 20
4.969765
 30
0.0
 10
91.458948
 20
4.803565
 30
0.0
 10
91.326064
 20
4.652858
 30
0.0
 10
91.175343
 20
4.519960
 30
0.0
 10
91.009123
 20
4.407042
 30
0.0
 10
90.830098
 20
4.315828
 30
0.0
 10
90.641083
 20
4.247728
 30
0.0
 10
90.444966
 20
4.203927
 30
0.0
 10
90.244910
 20
4.185018
 30
0.0
 10
90.044129
 20
4.191255
 30
0.0
 10
89.845636
 20
4.222751
 30
0.0
 10
89.652681
 20
4.278857
 30
0.0
 10
89.468280
 20
4.358613
 30
0.0
 10
89.295345
 20
4.460890
 30
0.0
 10
89.136612
 20
4.584024
 30
0.0
 10
88.994485
 20
4.726151
 30
0.0
  0
LWPOLYLINE
  5
10c
100
AcDbEntity
  8
0
 62
7
100
AcDbPolyline
 90
20
 70
0
 10
57.881833
 20
4.726151
 30
0.0
 10
57.758629
 20
4.884873
 30
0.0
 10
57.656374
 20
5.057819
 30
0.0
 10
57.576590
 20
5.242251
 30
0.0
 10
57.520538
 20
5.435206
 30
0.0
 10
57.489107
 20
5.633665
 30
0.0
 10
57.482757
 20
5.834466
 30
0.0
 10
57.501731
 20
6.034562
 30
0.0
 10
57.545520
 20
6.230621
 30
0.0
 10
57.613573
 20
6.419654
 30
0.0
 10
57.704804
 20
6.598696
 30
0.0
 10
57.817763
 20
6.764896
 30
0.0
 10
57.950614
 20
6.915603
 30
0.0
 10
58.101312
 20
7.048445
 30
0.0
 10
58.267518
 20
7.161418
 30
0.0
 10
58.446543
 20
7.252633
 30
0.0
 10
58.635595
 20
7.320705
 30
0.0
 10
58.831726
 20
7.364562
 30
0.0
 10
59.031753
 20
7.383471
 30
0.0
 10
59.232549
 20
7.376952
 30
0.0
  0
LWPOLYLINE
  5
10d
100
AcDbEntity
  8
0
 62
7
100
AcDbPolyline
 90
26
 70
0
 10
59.232549
 20
7.377093
 30
0.0
 10
59.430999
 20
7.345681
 30
0.0
 10
59.623949
 20
7.289632
 30
0.0
 10
59.808381
 20
7.209848
 30
0.0
 10
59.981346
 20
7.107570
 30
0.0
 10
60.140051
 20
6.984380
 30
0.0
 10
60.282136
 20
6.842282
 30
0.0
 10
60.405343
 20
6.683588
 30
0.0
 10
60.507603
 20
6.510614
 30
0.0
 10
60.587379
 20
6.326182
 30
0.0
 10
60.643440
 20
6.133226
 30
0.0
 10
60.674871
 20
5.934796
 30
0.0
 10
60.681221
 20
5.733995
 30
0.0
 10
60.662332
 20
5.533956
 30
0.0
 10
60.618452
 20
5.337840
 30
0.0
 10
60.550400
 20
5.148779
 30
0.0
 10
60.459174
 20
4.969765
 30
0.0
 10
60.346206
 20
4.803565
 30
0.0
 10
60.213356
 20
4.652858
 30
0.0
 10
60.062658
 20
4.520016
 30
0.0
 10
59.896460
 20
4.407042
 30
0.0
 10
59.717426
 20
4.315800
 30
0.0
 10
59.528374
 20
4.247756
 30
0.0
 10
59.332323
 20
4.203955
 30
0.0
 10
59.132224
 20
4.185046
 30
0.0
 10
58.931429
 20
4.191481
 30
0.0
  0
LWPOLYLINE
  5
10e
100
AcDbEntity
  8
0
 62
7
100
AcDbPolyline
 90
7
 70
0
 10
58.931429
 20
4.191340
 30
0.0
 10
58.732979
 20
4.222780
 30
0.0
 10
58.540023
 20
4.278829
 30
0.0
 10
58.355597
 20
4.358613
 30
0.0
 10
58.182623
 20
4.460862
 30
0.0
 10
58.023921
 20
4.584080
 30
0.0
 10
57.881833
 20
4.726151
 30
0.0
  0
LWPOLYLINE
  5
10f
100
AcDbEntity
  8
0
 62
7
100
AcDbPolyline
 90
53
 70
0
 10
92.217661
 20
22.851636
 30
0.0
 10
91.600573
 20
22.967686
 30
0.0
 10
90.973859
 20
23.005447
 30
0.0
 10
48.710232
 20
22.811984
 30
0.0
 10
48.083690
 20
22.770977
 30
0.0
 10
47.467204
 20
22.651625
 30
0.0
 10
46.870549
 20
22.456017
 30
0.0
 10
46.303130
 20
22.187229
 30
0.0
 10
45.773854
 20
21.849324
 30
0.0
 10
45.291113
 20
21.447806
 30
0.0
 10
44.862490
 20
20.989026
 30
0.0
 10
44.494746
 20
20.480010
 30
0.0
 10
44.193720
 20
19.929056
 30
0.0
 10
43.964106
 20
19.344602
 30
0.0
 10
43.809547
 20
18.735990
 30
0.0
 10
43.732492
 20
18.112786
 30
0.0
 10
43.734186
 20
17.484983
 30
0.0
 10
43.814498
 20
16.862203
 30
0.0
 10
43.972246
 20
16.254381
 30
0.0
 10
44.204955
 20
15.671254
 30
0.0
 10
44.508894
 20
15.121824
 30
0.0
 10
44.879288
 20
14.614766
 30
0.0
 10
45.310332
 20
14.158244
 30
0.0
 10
45.795190
 20
13.759266
 30
0.0
 10
46.326227
 20
13.424155
 30
0.0
 10
46.895077
 20
13.158387
 30
0.0
 10
47.492768
 20
12.965911
 30
0.0
 10
48.109863
 20
12.849890
 30
0.0
 10
48.736628
 20
12.812100
 30
0.0
 10
91.000233
 20
13.005563
 30
0.0
 10
91.626806
 20
13.046570
 30
0.0
 10
92.243275
 20
13.165922
 30
0.0
 10
92.839898
 20
13.361530
 30
0.0
 10
93.407337
 20
13.630319
 30
0.0
 10
93.936594
 20
13.968223
 30
0.0
 10
94.419403
 20
14.369713
 30
0.0
 10
94.847966
 20
14.828510
 30
0.0
 10
95.215758
 20
15.337526
 30
0.0
 10
95.516773
 20
15.888593
 30
0.0
 10
95.746406
 20
16.472906
 30
0.0
 10
95.900937
 20
17.081546
 30
0.0
 10
95.978023
 20
17.704721
 30
0.0
 10
95.976330
 20
18.332666
 30
0.0
 10
95.896007
 20
18.955333
 30
0.0
 10
95.738211
 20
19.563155
 30
0.0
 10
95.505561
 20
20.146282
 30
0.0
 10
95.201557
 20
20.695712
 30
0.0
 10
94.831179
 20
21.202809
 30
0.0
 10
94.400116
 20
21.659304
 30
0.0
 10
93.915289
 20
22.058281
 30
0.0
 10
93.384268
 20
22.393364
 30
0.0
 10
92.815387
 20
22.659189
 30
0.0
 10
92.217661
 20
22.851636
 30
0.0
  0
LWPOLYLINE
  5
110
100
AcDbEntity
  8
0
 62
7
100
AcDbPolyline
 90
51
 70
0
 10
90.593204
 20
16.454759
 30
0.0
 10
90.401975
 20
16.516255
 30
0.0
 10
90.219965
 20
16.601345
 30
0.0
 10
90.049960
 20
16.708618
 30
0.0
 10
89.894878
 20
16.836267
 30
0.0
 10
89.756903
 20
16.982402
 30
0.0
 10
89.638333
 20
17.144595
 30
0.0
 10
89.541161
 20
17.320476
 30
0.0
 10
89.466657
 20
17.507053
 30
0.0
 10
89.416125
 20
17.701560
 30
0.0
 10
89.390499
 20
17.900809
 30
0.0
 10
89.389943
 20
18.101780
 30
0.0
 10
89.414601
 20
18.301142
 30
0.0
 10
89.464035
 20
18.495875
 30
0.0
 10
89.537563
 20
18.682904
 30
0.0
 10
89.633809
 20
18.859264
 30
0.0
 10
89.751529
 20
19.022106
 30
0.0
 10
89.888732
 20
19.168975
 30
0.0
 10
90.043133
 20
19.297471
 30
0.0
 10
90.212520
 20
19.405534
 30
0.0
 10
90.394144
 20
19.491555
 30
0.0
 10
90.584999
 20
19.554152
 30
0.0
 10
90.782354
 20
19.592336
 30
0.0
 10
90.982842
 20
19.605601
 30
0.0
 10
91.183350
 20
19.593381
 30
0.0
 10
91.380889
 20
19.556212
 30
0.0
 10
91.572117
 20
19.494716
 30
0.0
 10
91.754125
 20
19.409626
 30
0.0
 10
91.924034
 20
19.302381
 30
0.0
 10
92.079214
 20
19.174704
 30
0.0
 10
92.217189
 20
19.028598
 30
0.0
 10
92.335759
 20
18.866376
 30
0.0
 10
92.432948
 20
18.690608
 30
0.0
 10
92.507435
 20
18.503918
 30
0.0
 10
92.557868
 20
18.309467
 30
0.0
 10
92.583579
 20
18.110162
 30
0.0
 10
92.584149
 20
17.909191
 30
0.0
 10
92.559491
 20
17.709830
 30
0.0
 10
92.510057
 20
17.515096
 30
0.0
 10
92.436529
 20
17.328068
 30
0.0
 10
92.340184
 20
17.151735
 30
0.0
 10
92.222563
 20
16.988865
 30
0.0
 10
92.085377
 20
16.842081
 30
0.0
 10
91.930957
 20
16.713529
 30
0.0
 10
91.761572
 20
16.605466
 30
0.0
 10
91.579948
 20
16.519444
 30
0.0
 10
91.388994
 20
16.456848
 30
0.0
 10
91.191738
 20
16.418635
 30
0.0
 10
90.991250
 20
16.405370
 30
0.0
 10
90.790742
 20
16.417590
 30
0.0
 10
90.593204
 20
16.454759
 30
0.0
  0
LWPOLYLINE
  5
111
100
AcDbEntity
  8
0
 62
7
100
AcDbPolyline
 90
51
 70
0
 10
48.329619
 20
16.261324
 30
0.0
 10
48.138351
 20
16.322820
 30
0.0
 10
47.956332
 20
16.407910
 30
0.0
 10
47.786392
 20
16.515155
 30
0.0
 10
47.631240
 20
16.642832
 30
0.0
 10
47.493315
 20
16.788938
 30
0.0
 10
47.374776
 20
16.951132
 30
0.0
 10
47.277525
 20
17.127041
 30
0.0
 10
47.203050
 20
17.313618
 30
0.0
 10
47.152557
 20
17.508097
 30
0.0
 10
47.126875
 20
17.707374
 30
0.0
 10
47.126296
 20
17.908345
 30
0.0
 10
47.150974
 20
18.107706
 30
0.0
 10
47.200436
 20
18.302412
 30
0.0
 10
47.273916
 20
18.489468
 30
0.0
 10
47.370241
 20
18.665801
 30
0.0
 10
47.487922
 20
18.828671
 30
0.0
 10
47.625096
 20
18.975540
 30
0.0
 10
47.779576
 20
19.104007
 30
0.0
 10
47.948935
 20
19.212070
 30
0.0
 10
48.130508
 20
19.298092
 30
0.0
 10
48.321434
 20
19.360688
 30
0.0
 10
48.518719
 20
19.398901
 30
0.0
 10
48.719218
 20
19.412166
 30
0.0
 10
48.919762
 20
19.399946
 30
0.0
 10
49.117242
 20
19.362777
 30
0.0
 10
49.308512
 20
19.301281
 30
0.0
 10
49.490540
 20
19.216162
 30
0.0
 10
49.660469
 20
19.108918
 30
0.0
 10
49.815629
 20
18.981269
 30
0.0
 10
49.953556
 20
18.835162
 30
0.0
 10
50.072095
 20
18.672941
 30
0.0
 10
50.169363
 20
18.497145
 30
0.0
 10
50.243811
 20
18.310483
 30
0.0
 10
50.294303
 20
18.116004
 30
0.0
 10
50.320013
 20
17.916727
 30
0.0
 10
50.320572
 20
17.715756
 30
0.0
 10
50.295886
 20
17.516394
 30
0.0
 10
50.246424
 20
17.321661
 30
0.0
 10
50.172953
 20
17.134632
 30
0.0
 10
50.076619
 20
16.958300
 30
0.0
 10
49.958938
 20
16.795430
 30
0.0
 10
49.821792
 20
16.648646
 30
0.0
 10
49.667293
 20
16.520094
 30
0.0
 10
49.497937
 20
16.412002
 30
0.0
 10
49.316363
 20
16.325981
 30
0.0
 10
49.125429
 20
16.263384
 30
0.0
 10
48.928150
 20
16.225200
 30
0.0
 10
48.727642
 20
16.211935
 30
0.0
 10
48.527098
 20
16.224155
 30
0.0
 10
48.329619
 20
16.261324
 30
0.0
  0
ENDSEC
  0
SECTION
  2
OBJECTS
  0
DICTIONARY
  5
C
330
0
100
AcDbDictionary
  3
ACAD_GROUP
350
D
  3
ACAD_MLINESTYLE
350
17
  0
DICTIONARY
  5
D
330
C
100
AcDbDictionary
  0
DICTIONARY
  5
1A
330
C
100
AcDbDictionary
  0
DICTIONARY
  5
17
330
C
100
AcDbDictionary
  3
STANDARD
350
18
  0
DICTIONARY
  5
19
330
C
100
AcDbDictionary
  0
ENDSEC
  0
EOF
