  0
SECTION
  2
BLOCKS
  0
ENDSEC
  0
SECTION
  2
ENTITIES
  0
LINE
  8
0
 10
-48
 20
-48
 11
48
 21
-48
  0
LINE
  8
0
 10
48
 20
-48
 11
48
 21
48
  0
LINE
  8
0
 10
48
 20
48
 11
-48
 21
48
  0
LINE
  8
0
 10
-48
 20
48
 11
-48
 21
-48
  0
LINE
  8
0
 10
-46.65
 20
-17
 11
-46.5692
 21
-16.4901
  0
LINE
  8
0
 10
-46.5692
 20
-16.4901
 11
-46.3349
 21
-16.0302
  0
LINE
  8
0
 10
-46.3349
 20
-16.0302
 11
-45.9698
 21
-15.6651
  0
LINE
  8
0
 10
-45.9698
 20
-15.6651
 11
-45.5099
 21
-15.4308
  0
LINE
  8
0
 10
-45.5099
 20
-15.4308
 11
-45
 21
-15.35
  0
LINE
  8
0
 10
-45
 20
-15.35
 11
-44.4901
 21
-15.4308
  0
LINE
  8
0
 10
-44.4901
 20
-15.4308
 11
-44.0302
 21
-15.6651
  0
LINE
  8
0
 10
-44.0302
 20
-15.6651
 11
-43.6651
 21
-16.0302
  0
LINE
  8
0
 10
-43.6651
 20
-16.0302
 11
-43.4308
 21
-16.4901
  0
LINE
  8
0
 10
-43.4308
 20
-16.4901
 11
-43.35
 21
-17
  0
LINE
  8
0
 10
-43.35
 20
-17
 11
-43.4308
 21
-17.5099
  0
LINE
  8
0
 10
-43.4308
 20
-17.5099
 11
-43.6651
 21
-17.9698
  0
LINE
  8
0
 10
-43.6651
 20
-17.9698
 11
-44.0302
 21
-18.3349
  0
LINE
  8
0
 10
-44.0302
 20
-18.3349
 11
-44.4901
 21
-18.5692
  0
LINE
  8
0
 10
-44.4901
 20
-18.5692
 11
-45
 21
-18.65
  0
LINE
  8
0
 10
-45
 20
-18.65
 11
-45.5099
 21
-18.5692
  0
LINE
  8
0
 10
-45.5099
 20
-18.5692
 11
-45.9698
 21
-18.3349
  0
LINE
  8
0
 10
-45.9698
 20
-18.3349
 11
-46.3349
 21
-17.9698
  0
LINE
  8
0
 10
-46.3349
 20
-17.9698
 11
-46.5692
 21
-17.5099
  0
LINE
  8
0
 10
-46.5692
 20
-17.5099
 11
-46.65
 21
-17
  0
LINE
  8
0
 10
-46.65
 20
17
 11
-46.5692
 21
17.5099
  0
LINE
  8
0
 10
-46.5692
 20
17.5099
 11
-46.3349
 21
17.9698
  0
LINE
  8
0
 10
-46.3349
 20
17.9698
 11
-45.9698
 21
18.3349
  0
LINE
  8
0
 10
-45.9698
 20
18.3349
 11
-45.5099
 21
18.5692
  0
LINE
  8
0
 10
-45.5099
 20
18.5692
 11
-45
 21
18.65
  0
LINE
  8
0
 10
-45
 20
18.65
 11
-44.4901
 21
18.5692
  0
LINE
  8
0
 10
-44.4901
 20
18.5692
 11
-44.0302
 21
18.3349
  0
LINE
  8
0
 10
-44.0302
 20
18.3349
 11
-43.6651
 21
17.9698
  0
LINE
  8
0
 10
-43.6651
 20
17.9698
 11
-43.4308
 21
17.5099
  0
LINE
  8
0
 10
-43.4308
 20
17.5099
 11
-43.35
 21
17
  0
LINE
  8
0
 10
-43.35
 20
17
 11
-43.4308
 21
16.4901
  0
LINE
  8
0
 10
-43.4308
 20
16.4901
 11
-43.6651
 21
16.0302
  0
LINE
  8
0
 10
-43.6651
 20
16.0302
 11
-44.0302
 21
15.6651
  0
LINE
  8
0
 10
-44.0302
 20
15.6651
 11
-44.4901
 21
15.4308
  0
LINE
  8
0
 10
-44.4901
 20
15.4308
 11
-45
 21
15.35
  0
LINE
  8
0
 10
-45
 20
15.35
 11
-45.5099
 21
15.4308
  0
LINE
  8
0
 10
-45.5099
 20
15.4308
 11
-45.9698
 21
15.6651
  0
LINE
  8
0
 10
-45.9698
 20
15.6651
 11
-46.3349
 21
16.0302
  0
LINE
  8
0
 10
-46.3349
 20
16.0302
 11
-46.5692
 21
16.4901
  0
LINE
  8
0
 10
-46.5692
 20
16.4901
 11
-46.65
 21
17
  0
LINE
  8
0
 10
-33.65
 20
-17
 11
-33.5692
 21
-16.4901
  0
LINE
  8
0
 10
-33.5692
 20
-16.4901
 11
-33.3349
 21
-16.0302
  0
LINE
  8
0
 10
-33.3349
 20
-16.0302
 11
-32.9698
 21
-15.6651
  0
LINE
  8
0
 10
-32.9698
 20
-15.6651
 11
-32.5099
 21
-15.4308
  0
LINE
  8
0
 10
-32.5099
 20
-15.4308
 11
-32
 21
-15.35
  0
LINE
  8
0
 10
-32
 20
-15.35
 11
-31.4901
 21
-15.4308
  0
LINE
  8
0
 10
-31.4901
 20
-15.4308
 11
-31.0302
 21
-15.6651
  0
LINE
  8
0
 10
-31.0302
 20
-15.6651
 11
-30.6651
 21
-16.0302
  0
LINE
  8
0
 10
-30.6651
 20
-16.0302
 11
-30.4308
 21
-16.4901
  0
LINE
  8
0
 10
-30.4308
 20
-16.4901
 11
-30.35
 21
-17
  0
LINE
  8
0
 10
-30.35
 20
-17
 11
-30.4308
 21
-17.5099
  0
LINE
  8
0
 10
-30.4308
 20
-17.5099
 11
-30.6651
 21
-17.9698
  0
LINE
  8
0
 10
-30.6651
 20
-17.9698
 11
-31.0302
 21
-18.3349
  0
LINE
  8
0
 10
-31.0302
 20
-18.3349
 11
-31.4901
 21
-18.5692
  0
LINE
  8
0
 10
-31.4901
 20
-18.5692
 11
-32
 21
-18.65
  0
LINE
  8
0
 10
-32
 20
-18.65
 11
-32.5099
 21
-18.5692
  0
LINE
  8
0
 10
-32.5099
 20
-18.5692
 11
-32.9698
 21
-18.3349
  0
LINE
  8
0
 10
-32.9698
 20
-18.3349
 11
-33.3349
 21
-17.9698
  0
LINE
  8
0
 10
-33.3349
 20
-17.9698
 11
-33.5692
 21
-17.5099
  0
LINE
  8
0
 10
-33.5692
 20
-17.5099
 11
-33.65
 21
-17
  0
LINE
  8
0
 10
-33.65
 20
17
 11
-33.5692
 21
17.5099
  0
LINE
  8
0
 10
-33.5692
 20
17.5099
 11
-33.3349
 21
17.9698
  0
LINE
  8
0
 10
-33.3349
 20
17.9698
 11
-32.9698
 21
18.3349
  0
LINE
  8
0
 10
-32.9698
 20
18.3349
 11
-32.5099
 21
18.5692
  0
LINE
  8
0
 10
-32.5099
 20
18.5692
 11
-32
 21
18.65
  0
LINE
  8
0
 10
-32
 20
18.65
 11
-31.4901
 21
18.5692
  0
LINE
  8
0
 10
-31.4901
 20
18.5692
 11
-31.0302
 21
18.3349
  0
LINE
  8
0
 10
-31.0302
 20
18.3349
 11
-30.6651
 21
17.9698
  0
LINE
  8
0
 10
-30.6651
 20
17.9698
 11
-30.4308
 21
17.5099
  0
LINE
  8
0
 10
-30.4308
 20
17.5099
 11
-30.35
 21
17
  0
LINE
  8
0
 10
-30.35
 20
17
 11
-30.4308
 21
16.4901
  0
LINE
  8
0
 10
-30.4308
 20
16.4901
 11
-30.6651
 21
16.0302
  0
LINE
  8
0
 10
-30.6651
 20
16.0302
 11
-31.0302
 21
15.6651
  0
LINE
  8
0
 10
-31.0302
 20
15.6651
 11
-31.4901
 21
15.4308
  0
LINE
  8
0
 10
-31.4901
 20
15.4308
 11
-32
 21
15.35
  0
LINE
  8
0
 10
-32
 20
15.35
 11
-32.5099
 21
15.4308
  0
LINE
  8
0
 10
-32.5099
 20
15.4308
 11
-32.9698
 21
15.6651
  0
LINE
  8
0
 10
-32.9698
 20
15.6651
 11
-33.3349
 21
16.0302
  0
LINE
  8
0
 10
-33.3349
 20
16.0302
 11
-33.5692
 21
16.4901
  0
LINE
  8
0
 10
-33.5692
 20
16.4901
 11
-33.65
 21
17
  0
LINE
  8
0
 10
-33.5
 20
0
 11
-33.4527
 21
0.751999
  0
LINE
  8
0
 10
-33.4527
 20
0.751999
 11
-33.3115
 21
1.49214
  0
LINE
  8
0
 10
-33.3115
 20
1.49214
 11
-33.0787
 21
2.20875
  0
LINE
  8
0
 10
-33.0787
 20
2.20875
 11
-32.7578
 21
2.89052
  0
LINE
  8
0
 10
-32.7578
 20
2.89052
 11
-32.3541
 21
3.52671
  0
LINE
  8
0
 10
-32.3541
 20
3.52671
 11
-31.8738
 21
4.10728
  0
LINE
  8
0
 10
-31.8738
 20
4.10728
 11
-31.3245
 21
4.62308
  0
LINE
  8
0
 10
-31.3245
 20
4.62308
 11
-30.715
 21
5.06597
  0
LINE
  8
0
 10
-30.715
 20
5.06597
 11
-30.0547
 21
5.42896
  0
LINE
  8
0
 10
-30.0547
 20
5.42896
 11
-29.3541
 21
5.70634
  0
LINE
  8
0
 10
-29.3541
 20
5.70634
 11
-28.6243
 21
5.89372
  0
LINE
  8
0
 10
-28.6243
 20
5.89372
 11
-27.8767
 21
5.98816
  0
LINE
  8
0
 10
-27.8767
 20
5.98816
 11
-27.1233
 21
5.98816
  0
LINE
  8
0
 10
-27.1233
 20
5.98816
 11
-26.3757
 21
5.89372
  0
LINE
  8
0
 10
-26.3757
 20
5.89372
 11
-25.6459
 21
5.70634
  0
LINE
  8
0
 10
-25.6459
 20
5.70634
 11
-24.9453
 21
5.42896
  0
LINE
  8
0
 10
-24.9453
 20
5.42896
 11
-24.285
 21
5.06597
  0
LINE
  8
0
 10
-24.285
 20
5.06597
 11
-23.6755
 21
4.62308
  0
LINE
  8
0
 10
-23.6755
 20
4.62308
 11
-23.1262
 21
4.10728
  0
LINE
  8
0
 10
-23.1262
 20
4.10728
 11
-22.6459
 21
3.52671
  0
LINE
  8
0
 10
-22.6459
 20
3.52671
 11
-22.2422
 21
2.89052
  0
LINE
  8
0
 10
-22.2422
 20
2.89052
 11
-21.9213
 21
2.20875
  0
LINE
  8
0
 10
-21.9213
 20
2.20875
 11
-21.6885
 21
1.49214
  0
LINE
  8
0
 10
-21.6885
 20
1.49214
 11
-21.5473
 21
0.751999
  0
LINE
  8
0
 10
-21.5473
 20
0.751999
 11
-21.5
 21
0
  0
LINE
  8
0
 10
-21.5
 20
0
 11
-21.5473
 21
-0.751999
  0
LINE
  8
0
 10
-21.5473
 20
-0.751999
 11
-21.6885
 21
-1.49214
  0
LINE
  8
0
 10
-21.6885
 20
-1.49214
 11
-21.9213
 21
-2.20875
  0
LINE
  8
0
 10
-21.9213
 20
-2.20875
 11
-22.2422
 21
-2.89052
  0
LINE
  8
0
 10
-22.2422
 20
-2.89052
 11
-22.6459
 21
-3.52671
  0
LINE
  8
0
 10
-22.6459
 20
-3.52671
 11
-23.1262
 21
-4.10728
  0
LINE
  8
0
 10
-23.1262
 20
-4.10728
 11
-23.6755
 21
-4.62308
  0
LINE
  8
0
 10
-23.6755
 20
-4.62308
 11
-24.285
 21
-5.06597
  0
LINE
  8
0
 10
-24.285
 20
-5.06597
 11
-24.9453
 21
-5.42896
  0
LINE
  8
0
 10
-24.9453
 20
-5.42896
 11
-25.6459
 21
-5.70634
  0
LINE
  8
0
 10
-25.6459
 20
-5.70634
 11
-26.3757
 21
-5.89372
  0
LINE
  8
0
 10
-26.3757
 20
-5.89372
 11
-27.1233
 21
-5.98816
  0
LINE
  8
0
 10
-27.1233
 20
-5.98816
 11
-27.8767
 21
-5.98816
  0
LINE
  8
0
 10
-27.8767
 20
-5.98816
 11
-28.6243
 21
-5.89372
  0
LINE
  8
0
 10
-28.6243
 20
-5.89372
 11
-29.3541
 21
-5.70634
  0
LINE
  8
0
 10
-29.3541
 20
-5.70634
 11
-30.0547
 21
-5.42896
  0
LINE
  8
0
 10
-30.0547
 20
-5.42896
 11
-30.715
 21
-5.06597
  0
LINE
  8
0
 10
-30.715
 20
-5.06597
 11
-31.3245
 21
-4.62308
  0
LINE
  8
0
 10
-31.3245
 20
-4.62308
 11
-31.8738
 21
-4.10728
  0
LINE
  8
0
 10
-31.8738
 20
-4.10728
 11
-32.3541
 21
-3.52671
  0
LINE
  8
0
 10
-32.3541
 20
-3.52671
 11
-32.7578
 21
-2.89052
  0
LINE
  8
0
 10
-32.7578
 20
-2.89052
 11
-33.0787
 21
-2.20875
  0
LINE
  8
0
 10
-33.0787
 20
-2.20875
 11
-33.3115
 21
-1.49214
  0
LINE
  8
0
 10
-33.3115
 20
-1.49214
 11
-33.4527
 21
-0.751999
  0
LINE
  8
0
 10
-33.4527
 20
-0.751999
 11
-33.5
 21
0
  0
LINE
  8
0
 10
-18.65
 20
32
 11
-18.5692
 21
32.5099
  0
LINE
  8
0
 10
-18.5692
 20
32.5099
 11
-18.3349
 21
32.9698
  0
LINE
  8
0
 10
-18.3349
 20
32.9698
 11
-17.9698
 21
33.3349
  0
LINE
  8
0
 10
-17.9698
 20
33.3349
 11
-17.5099
 21
33.5692
  0
LINE
  8
0
 10
-17.5099
 20
33.5692
 11
-17
 21
33.65
  0
LINE
  8
0
 10
-17
 20
33.65
 11
-16.4901
 21
33.5692
  0
LINE
  8
0
 10
-16.4901
 20
33.5692
 11
-16.0302
 21
33.3349
  0
LINE
  8
0
 10
-16.0302
 20
33.3349
 11
-15.6651
 21
32.9698
  0
LINE
  8
0
 10
-15.6651
 20
32.9698
 11
-15.4308
 21
32.5099
  0
LINE
  8
0
 10
-15.4308
 20
32.5099
 11
-15.35
 21
32
  0
LINE
  8
0
 10
-15.35
 20
32
 11
-15.4308
 21
31.4901
  0
LINE
  8
0
 10
-15.4308
 20
31.4901
 11
-15.6651
 21
31.0302
  0
LINE
  8
0
 10
-15.6651
 20
31.0302
 11
-16.0302
 21
30.6651
  0
LINE
  8
0
 10
-16.0302
 20
30.6651
 11
-16.4901
 21
30.4308
  0
LINE
  8
0
 10
-16.4901
 20
30.4308
 11
-17
 21
30.35
  0
LINE
  8
0
 10
-17
 20
30.35
 11
-17.5099
 21
30.4308
  0
LINE
  8
0
 10
-17.5099
 20
30.4308
 11
-17.9698
 21
30.6651
  0
LINE
  8
0
 10
-17.9698
 20
30.6651
 11
-18.3349
 21
31.0302
  0
LINE
  8
0
 10
-18.3349
 20
31.0302
 11
-18.5692
 21
31.4901
  0
LINE
  8
0
 10
-18.5692
 20
31.4901
 11
-18.65
 21
32
  0
LINE
  8
0
 10
-18.65
 20
45
 11
-18.5692
 21
45.5099
  0
LINE
  8
0
 10
-18.5692
 20
45.5099
 11
-18.3349
 21
45.9698
  0
LINE
  8
0
 10
-18.3349
 20
45.9698
 11
-17.9698
 21
46.3349
  0
LINE
  8
0
 10
-17.9698
 20
46.3349
 11
-17.5099
 21
46.5692
  0
LINE
  8
0
 10
-17.5099
 20
46.5692
 11
-17
 21
46.65
  0
LINE
  8
0
 10
-17
 20
46.65
 11
-16.4901
 21
46.5692
  0
LINE
  8
0
 10
-16.4901
 20
46.5692
 11
-16.0302
 21
46.3349
  0
LINE
  8
0
 10
-16.0302
 20
46.3349
 11
-15.6651
 21
45.9698
  0
LINE
  8
0
 10
-15.6651
 20
45.9698
 11
-15.4308
 21
45.5099
  0
LINE
  8
0
 10
-15.4308
 20
45.5099
 11
-15.35
 21
45
  0
LINE
  8
0
 10
-15.35
 20
45
 11
-15.4308
 21
44.4901
  0
LINE
  8
0
 10
-15.4308
 20
44.4901
 11
-15.6651
 21
44.0302
  0
LINE
  8
0
 10
-15.6651
 20
44.0302
 11
-16.0302
 21
43.6651
  0
LINE
  8
0
 10
-16.0302
 20
43.6651
 11
-16.4901
 21
43.4308
  0
LINE
  8
0
 10
-16.4901
 20
43.4308
 11
-17
 21
43.35
  0
LINE
  8
0
 10
-17
 20
43.35
 11
-17.5099
 21
43.4308
  0
LINE
  8
0
 10
-17.5099
 20
43.4308
 11
-17.9698
 21
43.6651
  0
LINE
  8
0
 10
-17.9698
 20
43.6651
 11
-18.3349
 21
44.0302
  0
LINE
  8
0
 10
-18.3349
 20
44.0302
 11
-18.5692
 21
44.4901
  0
LINE
  8
0
 10
-18.5692
 20
44.4901
 11
-18.65
 21
45
  0
LINE
  8
0
 10
-17.1
 20
0
 11
-16.8981
 21
3.20853
  0
LINE
  8
0
 10
-16.8981
 20
3.20853
 11
-16.2957
 21
6.36646
  0
LINE
  8
0
 10
-16.2957
 20
6.36646
 11
-15.3023
 21
9.42399
  0
LINE
  8
0
 10
-15.3023
 20
9.42399
 11
-13.9335
 21
12.3329
  0
LINE
  8
0
 10
-13.9335
 20
12.3329
 11
-12.2108
 21
15.0473
  0
LINE
  8
0
 10
-12.2108
 20
15.0473
 11
-10.1616
 21
17.5244
  0
LINE
  8
0
 10
-10.1616
 20
17.5244
 11
-7.81805
 21
19.7251
  0
LINE
  8
0
 10
-7.81805
 20
19.7251
 11
-5.21717
 21
21.6148
  0
LINE
  8
0
 10
-5.21717
 20
21.6148
 11
-2.39995
 21
23.1636
  0
LINE
  8
0
 10
-2.39995
 20
23.1636
 11
0.589165
 21
24.347
  0
LINE
  8
0
 10
0.589165
 20
24.347
 11
3.70304
 21
25.1466
  0
LINE
  8
0
 10
3.70304
 20
25.1466
 11
6.89256
 21
25.5495
  0
LINE
  8
0
 10
6.89256
 20
25.5495
 11
10.1074
 21
25.5495
  0
LINE
  8
0
 10
10.1074
 20
25.5495
 11
13.297
 21
25.1466
  0
LINE
  8
0
 10
13.297
 20
25.1466
 11
16.4108
 21
24.347
  0
LINE
  8
0
 10
16.4108
 20
24.347
 11
19.3999
 21
23.1636
  0
LINE
  8
0
 10
19.3999
 20
23.1636
 11
22.2172
 21
21.6148
  0
LINE
  8
0
 10
22.2172
 20
21.6148
 11
24.8181
 21
19.7251
  0
LINE
  8
0
 10
24.8181
 20
19.7251
 11
27.1616
 21
17.5244
  0
LINE
  8
0
 10
27.1616
 20
17.5244
 11
29.2108
 21
15.0473
  0
LINE
  8
0
 10
29.2108
 20
15.0473
 11
30.9335
 21
12.3329
  0
LINE
  8
0
 10
30.9335
 20
12.3329
 11
32.3023
 21
9.42399
  0
LINE
  8
0
 10
32.3023
 20
9.42399
 11
33.2957
 21
6.36646
  0
LINE
  8
0
 10
33.2957
 20
6.36646
 11
33.8981
 21
3.20853
  0
LINE
  8
0
 10
33.8981
 20
3.20853
 11
34.1
 21
0
  0
LINE
  8
0
 10
34.1
 20
0
 11
33.8981
 21
-3.20853
  0
LINE
  8
0
 10
33.8981
 20
-3.20853
 11
33.2957
 21
-6.36646
  0
LINE
  8
0
 10
33.2957
 20
-6.36646
 11
32.3023
 21
-9.42399
  0
LINE
  8
0
 10
32.3023
 20
-9.42399
 11
30.9335
 21
-12.3329
  0
LINE
  8
0
 10
30.9335
 20
-12.3329
 11
29.2108
 21
-15.0473
  0
LINE
  8
0
 10
29.2108
 20
-15.0473
 11
27.1616
 21
-17.5244
  0
LINE
  8
0
 10
27.1616
 20
-17.5244
 11
24.8181
 21
-19.7251
  0
LINE
  8
0
 10
24.8181
 20
-19.7251
 11
22.2172
 21
-21.6148
  0
LINE
  8
0
 10
22.2172
 20
-21.6148
 11
19.3999
 21
-23.1636
  0
LINE
  8
0
 10
19.3999
 20
-23.1636
 11
16.4108
 21
-24.347
  0
LINE
  8
0
 10
16.4108
 20
-24.347
 11
13.297
 21
-25.1466
  0
LINE
  8
0
 10
13.297
 20
-25.1466
 11
10.1074
 21
-25.5495
  0
LINE
  8
0
 10
10.1074
 20
-25.5495
 11
6.89256
 21
-25.5495
  0
LINE
  8
0
 10
6.89256
 20
-25.5495
 11
3.70304
 21
-25.1466
  0
LINE
  8
0
 10
3.70304
 20
-25.1466
 11
0.589165
 21
-24.347
  0
LINE
  8
0
 10
0.589165
 20
-24.347
 11
-2.39995
 21
-23.1636
  0
LINE
  8
0
 10
-2.39995
 20
-23.1636
 11
-5.21717
 21
-21.6148
  0
LINE
  8
0
 10
-5.21717
 20
-21.6148
 11
-7.81805
 21
-19.7251
  0
LINE
  8
0
 10
-7.81805
 20
-19.7251
 11
-10.1616
 21
-17.5244
  0
LINE
  8
0
 10
-10.1616
 20
-17.5244
 11
-12.2108
 21
-15.0473
  0
LINE
  8
0
 10
-12.2108
 20
-15.0473
 11
-13.9335
 21
-12.3329
  0
LINE
  8
0
 10
-13.9335
 20
-12.3329
 11
-15.3023
 21
-9.42399
  0
LINE
  8
0
 10
-15.3023
 20
-9.42399
 11
-16.2957
 21
-6.36646
  0
LINE
  8
0
 10
-16.2957
 20
-6.36646
 11
-16.8981
 21
-3.20853
  0
LINE
  8
0
 10
-16.8981
 20
-3.20853
 11
-17.1
 21
0
  0
LINE
  8
0
 10
-14.65
 20
-45
 11
-14.5692
 21
-44.4901
  0
LINE
  8
0
 10
-14.5692
 20
-44.4901
 11
-14.3349
 21
-44.0302
  0
LINE
  8
0
 10
-14.3349
 20
-44.0302
 11
-13.9698
 21
-43.6651
  0
LINE
  8
0
 10
-13.9698
 20
-43.6651
 11
-13.5099
 21
-43.4308
  0
LINE
  8
0
 10
-13.5099
 20
-43.4308
 11
-13
 21
-43.35
  0
LINE
  8
0
 10
-13
 20
-43.35
 11
-12.4901
 21
-43.4308
  0
LINE
  8
0
 10
-12.4901
 20
-43.4308
 11
-12.0302
 21
-43.6651
  0
LINE
  8
0
 10
-12.0302
 20
-43.6651
 11
-11.6651
 21
-44.0302
  0
LINE
  8
0
 10
-11.6651
 20
-44.0302
 11
-11.4308
 21
-44.4901
  0
LINE
  8
0
 10
-11.4308
 20
-44.4901
 11
-11.35
 21
-45
  0
LINE
  8
0
 10
-11.35
 20
-45
 11
-11.4308
 21
-45.5099
  0
LINE
  8
0
 10
-11.4308
 20
-45.5099
 11
-11.6651
 21
-45.9698
  0
LINE
  8
0
 10
-11.6651
 20
-45.9698
 11
-12.0302
 21
-46.3349
  0
LINE
  8
0
 10
-12.0302
 20
-46.3349
 11
-12.4901
 21
-46.5692
  0
LINE
  8
0
 10
-12.4901
 20
-46.5692
 11
-13
 21
-46.65
  0
LINE
  8
0
 10
-13
 20
-46.65
 11
-13.5099
 21
-46.5692
  0
LINE
  8
0
 10
-13.5099
 20
-46.5692
 11
-13.9698
 21
-46.3349
  0
LINE
  8
0
 10
-13.9698
 20
-46.3349
 11
-14.3349
 21
-45.9698
  0
LINE
  8
0
 10
-14.3349
 20
-45.9698
 11
-14.5692
 21
-45.5099
  0
LINE
  8
0
 10
-14.5692
 20
-45.5099
 11
-14.65
 21
-45
  0
LINE
  8
0
 10
-14.65
 20
-32
 11
-14.5692
 21
-31.4901
  0
LINE
  8
0
 10
-14.5692
 20
-31.4901
 11
-14.3349
 21
-31.0302
  0
LINE
  8
0
 10
-14.3349
 20
-31.0302
 11
-13.9698
 21
-30.6651
  0
LINE
  8
0
 10
-13.9698
 20
-30.6651
 11
-13.5099
 21
-30.4308
  0
LINE
  8
0
 10
-13.5099
 20
-30.4308
 11
-13
 21
-30.35
  0
LINE
  8
0
 10
-13
 20
-30.35
 11
-12.4901
 21
-30.4308
  0
LINE
  8
0
 10
-12.4901
 20
-30.4308
 11
-12.0302
 21
-30.6651
  0
LINE
  8
0
 10
-12.0302
 20
-30.6651
 11
-11.6651
 21
-31.0302
  0
LINE
  8
0
 10
-11.6651
 20
-31.0302
 11
-11.4308
 21
-31.4901
  0
LINE
  8
0
 10
-11.4308
 20
-31.4901
 11
-11.35
 21
-32
  0
LINE
  8
0
 10
-11.35
 20
-32
 11
-11.4308
 21
-32.5099
  0
LINE
  8
0
 10
-11.4308
 20
-32.5099
 11
-11.6651
 21
-32.9698
  0
LINE
  8
0
 10
-11.6651
 20
-32.9698
 11
-12.0302
 21
-33.3349
  0
LINE
  8
0
 10
-12.0302
 20
-33.3349
 11
-12.4901
 21
-33.5692
  0
LINE
  8
0
 10
-12.4901
 20
-33.5692
 11
-13
 21
-33.65
  0
LINE
  8
0
 10
-13
 20
-33.65
 11
-13.5099
 21
-33.5692
  0
LINE
  8
0
 10
-13.5099
 20
-33.5692
 11
-13.9698
 21
-33.3349
  0
LINE
  8
0
 10
-13.9698
 20
-33.3349
 11
-14.3349
 21
-32.9698
  0
LINE
  8
0
 10
-14.3349
 20
-32.9698
 11
-14.5692
 21
-32.5099
  0
LINE
  8
0
 10
-14.5692
 20
-32.5099
 11
-14.65
 21
-32
  0
LINE
  8
0
 10
-7.6
 20
-30
 11
-7.56767
 21
-29.4861
  0
LINE
  8
0
 10
-7.56767
 20
-29.4861
 11
-7.47119
 21
-28.9804
  0
LINE
  8
0
 10
-7.47119
 20
-28.9804
 11
-7.31208
 21
-28.4907
  0
LINE
  8
0
 10
-7.31208
 20
-28.4907
 11
-7.09286
 21
-28.0248
  0
LINE
  8
0
 10
-7.09286
 20
-28.0248
 11
-6.81697
 21
-27.5901
  0
LINE
  8
0
 10
-6.81697
 20
-27.5901
 11
-6.48877
 21
-27.1934
  0
LINE
  8
0
 10
-6.48877
 20
-27.1934
 11
-6.11344
 21
-26.8409
  0
LINE
  8
0
 10
-6.11344
 20
-26.8409
 11
-5.69689
 21
-26.5383
  0
LINE
  8
0
 10
-5.69689
 20
-26.5383
 11
-5.24569
 21
-26.2902
  0
LINE
  8
0
 10
-5.24569
 20
-26.2902
 11
-4.76697
 21
-26.1007
  0
LINE
  8
0
 10
-4.76697
 20
-26.1007
 11
-4.26826
 21
-25.9726
  0
LINE
  8
0
 10
-4.26826
 20
-25.9726
 11
-3.75744
 21
-25.9081
  0
LINE
  8
0
 10
-3.75744
 20
-25.9081
 11
-3.24256
 21
-25.9081
  0
LINE
  8
0
 10
-3.24256
 20
-25.9081
 11
-2.73174
 21
-25.9726
  0
LINE
  8
0
 10
-2.73174
 20
-25.9726
 11
-2.23303
 21
-26.1007
  0
LINE
  8
0
 10
-2.23303
 20
-26.1007
 11
-1.7543
 21
-26.2902
  0
LINE
  8
0
 10
-1.7543
 20
-26.2902
 11
-1.30311
 21
-26.5383
  0
LINE
  8
0
 10
-1.30311
 20
-26.5383
 11
-0.886561
 21
-26.8409
  0
LINE
  8
0
 10
-0.886561
 20
-26.8409
 11
-0.511229
 21
-27.1934
  0
LINE
  8
0
 10
-0.511229
 20
-27.1934
 11
-0.18303
 21
-27.5901
  0
LINE
  8
0
 10
-0.18303
 20
-27.5901
 11
0.0928574
 21
-28.0248
  0
LINE
  8
0
 10
0.0928574
 20
-28.0248
 11
0.312083
 21
-28.4907
  0
LINE
  8
0
 10
0.312083
 20
-28.4907
 11
0.47119
 21
-28.9804
  0
LINE
  8
0
 10
0.47119
 20
-28.9804
 11
0.56767
 21
-29.4861
  0
LINE
  8
0
 10
0.56767
 20
-29.4861
 11
0.599999
 21
-30
  0
LINE
  8
0
 10
0.599999
 20
-30
 11
0.56767
 21
-30.5139
  0
LINE
  8
0
 10
0.56767
 20
-30.5139
 11
0.47119
 21
-31.0196
  0
LINE
  8
0
 10
0.47119
 20
-31.0196
 11
0.312083
 21
-31.5093
  0
LINE
  8
0
 10
0.312083
 20
-31.5093
 11
0.0928574
 21
-31.9752
  0
LINE
  8
0
 10
0.0928574
 20
-31.9752
 11
-0.18303
 21
-32.4099
  0
LINE
  8
0
 10
-0.18303
 20
-32.4099
 11
-0.511229
 21
-32.8066
  0
LINE
  8
0
 10
-0.511229
 20
-32.8066
 11
-0.886561
 21
-33.1591
  0
LINE
  8
0
 10
-0.886561
 20
-33.1591
 11
-1.30311
 21
-33.4617
  0
LINE
  8
0
 10
-1.30311
 20
-33.4617
 11
-1.7543
 21
-33.7098
  0
LINE
  8
0
 10
-1.7543
 20
-33.7098
 11
-2.23303
 21
-33.8993
  0
LINE
  8
0
 10
-2.23303
 20
-33.8993
 11
-2.73174
 21
-34.0274
  0
LINE
  8
0
 10
-2.73174
 20
-34.0274
 11
-3.24256
 21
-34.0919
  0
LINE
  8
0
 10
-3.24256
 20
-34.0919
 11
-3.75744
 21
-34.0919
  0
LINE
  8
0
 10
-3.75744
 20
-34.0919
 11
-4.26826
 21
-34.0274
  0
LINE
  8
0
 10
-4.26826
 20
-34.0274
 11
-4.76697
 21
-33.8993
  0
LINE
  8
0
 10
-4.76697
 20
-33.8993
 11
-5.24569
 21
-33.7098
  0
LINE
  8
0
 10
-5.24569
 20
-33.7098
 11
-5.69689
 21
-33.4617
  0
LINE
  8
0
 10
-5.69689
 20
-33.4617
 11
-6.11344
 21
-33.1591
  0
LINE
  8
0
 10
-6.11344
 20
-33.1591
 11
-6.48877
 21
-32.8066
  0
LINE
  8
0
 10
-6.48877
 20
-32.8066
 11
-6.81697
 21
-32.4099
  0
LINE
  8
0
 10
-6.81697
 20
-32.4099
 11
-7.09286
 21
-31.9752
  0
LINE
  8
0
 10
-7.09286
 20
-31.9752
 11
-7.31208
 21
-31.5093
  0
LINE
  8
0
 10
-7.31208
 20
-31.5093
 11
-7.47119
 21
-31.0196
  0
LINE
  8
0
 10
-7.47119
 20
-31.0196
 11
-7.56767
 21
-30.5139
  0
LINE
  8
0
 10
-7.56767
 20
-30.5139
 11
-7.6
 21
-30
  0
LINE
  8
0
 10
-7.6
 20
30
 11
-7.56767
 21
30.5139
  0
LINE
  8
0
 10
-7.56767
 20
30.5139
 11
-7.47119
 21
31.0196
  0
LINE
  8
0
 10
-7.47119
 20
31.0196
 11
-7.31208
 21
31.5093
  0
LINE
  8
0
 10
-7.31208
 20
31.5093
 11
-7.09286
 21
31.9752
  0
LINE
  8
0
 10
-7.09286
 20
31.9752
 11
-6.81697
 21
32.4099
  0
LINE
  8
0
 10
-6.81697
 20
32.4099
 11
-6.48877
 21
32.8066
  0
LINE
  8
0
 10
-6.48877
 20
32.8066
 11
-6.11344
 21
33.1591
  0
LINE
  8
0
 10
-6.11344
 20
33.1591
 11
-5.69689
 21
33.4617
  0
LINE
  8
0
 10
-5.69689
 20
33.4617
 11
-5.24569
 21
33.7098
  0
LINE
  8
0
 10
-5.24569
 20
33.7098
 11
-4.76697
 21
33.8993
  0
LINE
  8
0
 10
-4.76697
 20
33.8993
 11
-4.26826
 21
34.0274
  0
LINE
  8
0
 10
-4.26826
 20
34.0274
 11
-3.75744
 21
34.0919
  0
LINE
  8
0
 10
-3.75744
 20
34.0919
 11
-3.24256
 21
34.0919
  0
LINE
  8
0
 10
-3.24256
 20
34.0919
 11
-2.73174
 21
34.0274
  0
LINE
  8
0
 10
-2.73174
 20
34.0274
 11
-2.23303
 21
33.8993
  0
LINE
  8
0
 10
-2.23303
 20
33.8993
 11
-1.7543
 21
33.7098
  0
LINE
  8
0
 10
-1.7543
 20
33.7098
 11
-1.30311
 21
33.4617
  0
LINE
  8
0
 10
-1.30311
 20
33.4617
 11
-0.886561
 21
33.1591
  0
LINE
  8
0
 10
-0.886561
 20
33.1591
 11
-0.511229
 21
32.8066
  0
LINE
  8
0
 10
-0.511229
 20
32.8066
 11
-0.18303
 21
32.4099
  0
LINE
  8
0
 10
-0.18303
 20
32.4099
 11
0.0928574
 21
31.9752
  0
LINE
  8
0
 10
0.0928574
 20
31.9752
 11
0.312083
 21
31.5093
  0
LINE
  8
0
 10
0.312083
 20
31.5093
 11
0.47119
 21
31.0196
  0
LINE
  8
0
 10
0.47119
 20
31.0196
 11
0.56767
 21
30.5139
  0
LINE
  8
0
 10
0.56767
 20
30.5139
 11
0.599999
 21
30
  0
LINE
  8
0
 10
0.599999
 20
30
 11
0.56767
 21
29.4861
  0
LINE
  8
0
 10
0.56767
 20
29.4861
 11
0.47119
 21
28.9804
  0
LINE
  8
0
 10
0.47119
 20
28.9804
 11
0.312083
 21
28.4907
  0
LINE
  8
0
 10
0.312083
 20
28.4907
 11
0.0928574
 21
28.0248
  0
LINE
  8
0
 10
0.0928574
 20
28.0248
 11
-0.18303
 21
27.5901
  0
LINE
  8
0
 10
-0.18303
 20
27.5901
 11
-0.511229
 21
27.1934
  0
LINE
  8
0
 10
-0.511229
 20
27.1934
 11
-0.886561
 21
26.8409
  0
LINE
  8
0
 10
-0.886561
 20
26.8409
 11
-1.30311
 21
26.5383
  0
LINE
  8
0
 10
-1.30311
 20
26.5383
 11
-1.7543
 21
26.2902
  0
LINE
  8
0
 10
-1.7543
 20
26.2902
 11
-2.23303
 21
26.1007
  0
LINE
  8
0
 10
-2.23303
 20
26.1007
 11
-2.73174
 21
25.9726
  0
LINE
  8
0
 10
-2.73174
 20
25.9726
 11
-3.24256
 21
25.9081
  0
LINE
  8
0
 10
-3.24256
 20
25.9081
 11
-3.75744
 21
25.9081
  0
LINE
  8
0
 10
-3.75744
 20
25.9081
 11
-4.26826
 21
25.9726
  0
LINE
  8
0
 10
-4.26826
 20
25.9726
 11
-4.76697
 21
26.1007
  0
LINE
  8
0
 10
-4.76697
 20
26.1007
 11
-5.24569
 21
26.2902
  0
LINE
  8
0
 10
-5.24569
 20
26.2902
 11
-5.69689
 21
26.5383
  0
LINE
  8
0
 10
-5.69689
 20
26.5383
 11
-6.11344
 21
26.8409
  0
LINE
  8
0
 10
-6.11344
 20
26.8409
 11
-6.48877
 21
27.1934
  0
LINE
  8
0
 10
-6.48877
 20
27.1934
 11
-6.81697
 21
27.5901
  0
LINE
  8
0
 10
-6.81697
 20
27.5901
 11
-7.09286
 21
28.0248
  0
LINE
  8
0
 10
-7.09286
 20
28.0248
 11
-7.31208
 21
28.4907
  0
LINE
  8
0
 10
-7.31208
 20
28.4907
 11
-7.47119
 21
28.9804
  0
LINE
  8
0
 10
-7.47119
 20
28.9804
 11
-7.56767
 21
29.4861
  0
LINE
  8
0
 10
-7.56767
 20
29.4861
 11
-7.6
 21
30
  0
LINE
  8
0
 10
8.35
 20
-45
 11
8.43076
 21
-44.4901
  0
LINE
  8
0
 10
8.43076
 20
-44.4901
 11
8.66512
 21
-44.0302
  0
LINE
  8
0
 10
8.66512
 20
-44.0302
 11
9.03016
 21
-43.6651
  0
LINE
  8
0
 10
9.03016
 20
-43.6651
 11
9.49012
 21
-43.4308
  0
LINE
  8
0
 10
9.49012
 20
-43.4308
 11
10
 21
-43.35
  0
LINE
  8
0
 10
10
 20
-43.35
 11
10.5099
 21
-43.4308
  0
LINE
  8
0
 10
10.5099
 20
-43.4308
 11
10.9698
 21
-43.6651
  0
LINE
  8
0
 10
10.9698
 20
-43.6651
 11
11.3349
 21
-44.0302
  0
LINE
  8
0
 10
11.3349
 20
-44.0302
 11
11.5692
 21
-44.4901
  0
LINE
  8
0
 10
11.5692
 20
-44.4901
 11
11.65
 21
-45
  0
LINE
  8
0
 10
11.65
 20
-45
 11
11.5692
 21
-45.5099
  0
LINE
  8
0
 10
11.5692
 20
-45.5099
 11
11.3349
 21
-45.9698
  0
LINE
  8
0
 10
11.3349
 20
-45.9698
 11
10.9698
 21
-46.3349
  0
LINE
  8
0
 10
10.9698
 20
-46.3349
 11
10.5099
 21
-46.5692
  0
LINE
  8
0
 10
10.5099
 20
-46.5692
 11
10
 21
-46.65
  0
LINE
  8
0
 10
10
 20
-46.65
 11
9.49012
 21
-46.5692
  0
LINE
  8
0
 10
9.49012
 20
-46.5692
 11
9.03016
 21
-46.3349
  0
LINE
  8
0
 10
9.03016
 20
-46.3349
 11
8.66512
 21
-45.9698
  0
LINE
  8
0
 10
8.66512
 20
-45.9698
 11
8.43076
 21
-45.5099
  0
LINE
  8
0
 10
8.43076
 20
-45.5099
 11
8.35
 21
-45
  0
LINE
  8
0
 10
8.35
 20
-32
 11
8.43076
 21
-31.4901
  0
LINE
  8
0
 10
8.43076
 20
-31.4901
 11
8.66512
 21
-31.0302
  0
LINE
  8
0
 10
8.66512
 20
-31.0302
 11
9.03016
 21
-30.6651
  0
LINE
  8
0
 10
9.03016
 20
-30.6651
 11
9.49012
 21
-30.4308
  0
LINE
  8
0
 10
9.49012
 20
-30.4308
 11
10
 21
-30.35
  0
LINE
  8
0
 10
10
 20
-30.35
 11
10.5099
 21
-30.4308
  0
LINE
  8
0
 10
10.5099
 20
-30.4308
 11
10.9698
 21
-30.6651
  0
LINE
  8
0
 10
10.9698
 20
-30.6651
 11
11.3349
 21
-31.0302
  0
LINE
  8
0
 10
11.3349
 20
-31.0302
 11
11.5692
 21
-31.4901
  0
LINE
  8
0
 10
11.5692
 20
-31.4901
 11
11.65
 21
-32
  0
LINE
  8
0
 10
11.65
 20
-32
 11
11.5692
 21
-32.5099
  0
LINE
  8
0
 10
11.5692
 20
-32.5099
 11
11.3349
 21
-32.9698
  0
LINE
  8
0
 10
11.3349
 20
-32.9698
 11
10.9698
 21
-33.3349
  0
LINE
  8
0
 10
10.9698
 20
-33.3349
 11
10.5099
 21
-33.5692
  0
LINE
  8
0
 10
10.5099
 20
-33.5692
 11
10
 21
-33.65
  0
LINE
  8
0
 10
10
 20
-33.65
 11
9.49012
 21
-33.5692
  0
LINE
  8
0
 10
9.49012
 20
-33.5692
 11
9.03016
 21
-33.3349
  0
LINE
  8
0
 10
9.03016
 20
-33.3349
 11
8.66512
 21
-32.9698
  0
LINE
  8
0
 10
8.66512
 20
-32.9698
 11
8.43076
 21
-32.5099
  0
LINE
  8
0
 10
8.43076
 20
-32.5099
 11
8.35
 21
-32
  0
LINE
  8
0
 10
15.35
 20
32
 11
15.4308
 21
32.5099
  0
LINE
  8
0
 10
15.4308
 20
32.5099
 11
15.6651
 21
32.9698
  0
LINE
  8
0
 10
15.6651
 20
32.9698
 11
16.0302
 21
33.3349
  0
LINE
  8
0
 10
16.0302
 20
33.3349
 11
16.4901
 21
33.5692
  0
LINE
  8
0
 10
16.4901
 20
33.5692
 11
17
 21
33.65
  0
LINE
  8
0
 10
17
 20
33.65
 11
17.5099
 21
33.5692
  0
LINE
  8
0
 10
17.5099
 20
33.5692
 11
17.9698
 21
33.3349
  0
LINE
  8
0
 10
17.9698
 20
33.3349
 11
18.3349
 21
32.9698
  0
LINE
  8
0
 10
18.3349
 20
32.9698
 11
18.5692
 21
32.5099
  0
LINE
  8
0
 10
18.5692
 20
32.5099
 11
18.65
 21
32
  0
LINE
  8
0
 10
18.65
 20
32
 11
18.5692
 21
31.4901
  0
LINE
  8
0
 10
18.5692
 20
31.4901
 11
18.3349
 21
31.0302
  0
LINE
  8
0
 10
18.3349
 20
31.0302
 11
17.9698
 21
30.6651
  0
LINE
  8
0
 10
17.9698
 20
30.6651
 11
17.5099
 21
30.4308
  0
LINE
  8
0
 10
17.5099
 20
30.4308
 11
17
 21
30.35
  0
LINE
  8
0
 10
17
 20
30.35
 11
16.4901
 21
30.4308
  0
LINE
  8
0
 10
16.4901
 20
30.4308
 11
16.0302
 21
30.6651
  0
LINE
  8
0
 10
16.0302
 20
30.6651
 11
15.6651
 21
31.0302
  0
LINE
  8
0
 10
15.6651
 20
31.0302
 11
15.4308
 21
31.4901
  0
LINE
  8
0
 10
15.4308
 20
31.4901
 11
15.35
 21
32
  0
LINE
  8
0
 10
15.35
 20
45
 11
15.4308
 21
45.5099
  0
LINE
  8
0
 10
15.4308
 20
45.5099
 11
15.6651
 21
45.9698
  0
LINE
  8
0
 10
15.6651
 20
45.9698
 11
16.0302
 21
46.3349
  0
LINE
  8
0
 10
16.0302
 20
46.3349
 11
16.4901
 21
46.5692
  0
LINE
  8
0
 10
16.4901
 20
46.5692
 11
17
 21
46.65
  0
LINE
  8
0
 10
17
 20
46.65
 11
17.5099
 21
46.5692
  0
LINE
  8
0
 10
17.5099
 20
46.5692
 11
17.9698
 21
46.3349
  0
LINE
  8
0
 10
17.9698
 20
46.3349
 11
18.3349
 21
45.9698
  0
LINE
  8
0
 10
18.3349
 20
45.9698
 11
18.5692
 21
45.5099
  0
LINE
  8
0
 10
18.5692
 20
45.5099
 11
18.65
 21
45
  0
LINE
  8
0
 10
18.65
 20
45
 11
18.5692
 21
44.4901
  0
LINE
  8
0
 10
18.5692
 20
44.4901
 11
18.3349
 21
44.0302
  0
LINE
  8
0
 10
18.3349
 20
44.0302
 11
17.9698
 21
43.6651
  0
LINE
  8
0
 10
17.9698
 20
43.6651
 11
17.5099
 21
43.4308
  0
LINE
  8
0
 10
17.5099
 20
43.4308
 11
17
 21
43.35
  0
LINE
  8
0
 10
17
 20
43.35
 11
16.4901
 21
43.4308
  0
LINE
  8
0
 10
16.4901
 20
43.4308
 11
16.0302
 21
43.6651
  0
LINE
  8
0
 10
16.0302
 20
43.6651
 11
15.6651
 21
44.0302
  0
LINE
  8
0
 10
15.6651
 20
44.0302
 11
15.4308
 21
44.4901
  0
LINE
  8
0
 10
15.4308
 20
44.4901
 11
15.35
 21
45
  0
LINE
  8
0
 10
22.4
 20
-25
 11
22.4323
 21
-24.4861
  0
LINE
  8
0
 10
22.4323
 20
-24.4861
 11
22.5288
 21
-23.9804
  0
LINE
  8
0
 10
22.5288
 20
-23.9804
 11
22.6879
 21
-23.4907
  0
LINE
  8
0
 10
22.6879
 20
-23.4907
 11
22.9071
 21
-23.0248
  0
LINE
  8
0
 10
22.9071
 20
-23.0248
 11
23.183
 21
-22.5901
  0
LINE
  8
0
 10
23.183
 20
-22.5901
 11
23.5112
 21
-22.1934
  0
LINE
  8
0
 10
23.5112
 20
-22.1934
 11
23.8866
 21
-21.8409
  0
LINE
  8
0
 10
23.8866
 20
-21.8409
 11
24.3031
 21
-21.5383
  0
LINE
  8
0
 10
24.3031
 20
-21.5383
 11
24.7543
 21
-21.2902
  0
LINE
  8
0
 10
24.7543
 20
-21.2902
 11
25.233
 21
-21.1007
  0
LINE
  8
0
 10
25.233
 20
-21.1007
 11
25.7317
 21
-20.9726
  0
LINE
  8
0
 10
25.7317
 20
-20.9726
 11
26.2426
 21
-20.9081
  0
LINE
  8
0
 10
26.2426
 20
-20.9081
 11
26.7574
 21
-20.9081
  0
LINE
  8
0
 10
26.7574
 20
-20.9081
 11
27.2683
 21
-20.9726
  0
LINE
  8
0
 10
27.2683
 20
-20.9726
 11
27.767
 21
-21.1007
  0
LINE
  8
0
 10
27.767
 20
-21.1007
 11
28.2457
 21
-21.2902
  0
LINE
  8
0
 10
28.2457
 20
-21.2902
 11
28.6969
 21
-21.5383
  0
LINE
  8
0
 10
28.6969
 20
-21.5383
 11
29.1134
 21
-21.8409
  0
LINE
  8
0
 10
29.1134
 20
-21.8409
 11
29.4888
 21
-22.1934
  0
LINE
  8
0
 10
29.4888
 20
-22.1934
 11
29.817
 21
-22.5901
  0
LINE
  8
0
 10
29.817
 20
-22.5901
 11
30.0929
 21
-23.0248
  0
LINE
  8
0
 10
30.0929
 20
-23.0248
 11
30.3121
 21
-23.4907
  0
LINE
  8
0
 10
30.3121
 20
-23.4907
 11
30.4712
 21
-23.9804
  0
LINE
  8
0
 10
30.4712
 20
-23.9804
 11
30.5677
 21
-24.4861
  0
LINE
  8
0
 10
30.5677
 20
-24.4861
 11
30.6
 21
-25
  0
LINE
  8
0
 10
30.6
 20
-25
 11
30.5677
 21
-25.5139
  0
LINE
  8
0
 10
30.5677
 20
-25.5139
 11
30.4712
 21
-26.0196
  0
LINE
  8
0
 10
30.4712
 20
-26.0196
 11
30.3121
 21
-26.5093
  0
LINE
  8
0
 10
30.3121
 20
-26.5093
 11
30.0929
 21
-26.9752
  0
LINE
  8
0
 10
30.0929
 20
-26.9752
 11
29.817
 21
-27.4099
  0
LINE
  8
0
 10
29.817
 20
-27.4099
 11
29.4888
 21
-27.8066
  0
LINE
  8
0
 10
29.4888
 20
-27.8066
 11
29.1134
 21
-28.1591
  0
LINE
  8
0
 10
29.1134
 20
-28.1591
 11
28.6969
 21
-28.4617
  0
LINE
  8
0
 10
28.6969
 20
-28.4617
 11
28.2457
 21
-28.7098
  0
LINE
  8
0
 10
28.2457
 20
-28.7098
 11
27.767
 21
-28.8993
  0
LINE
  8
0
 10
27.767
 20
-28.8993
 11
27.2683
 21
-29.0274
  0
LINE
  8
0
 10
27.2683
 20
-29.0274
 11
26.7574
 21
-29.0919
  0
LINE
  8
0
 10
26.7574
 20
-29.0919
 11
26.2426
 21
-29.0919
  0
LINE
  8
0
 10
26.2426
 20
-29.0919
 11
25.7317
 21
-29.0274
  0
LINE
  8
0
 10
25.7317
 20
-29.0274
 11
25.233
 21
-28.8993
  0
LINE
  8
0
 10
25.233
 20
-28.8993
 11
24.7543
 21
-28.7098
  0
LINE
  8
0
 10
24.7543
 20
-28.7098
 11
24.3031
 21
-28.4617
  0
LINE
  8
0
 10
24.3031
 20
-28.4617
 11
23.8866
 21
-28.1591
  0
LINE
  8
0
 10
23.8866
 20
-28.1591
 11
23.5112
 21
-27.8066
  0
LINE
  8
0
 10
23.5112
 20
-27.8066
 11
23.183
 21
-27.4099
  0
LINE
  8
0
 10
23.183
 20
-27.4099
 11
22.9071
 21
-26.9752
  0
LINE
  8
0
 10
22.9071
 20
-26.9752
 11
22.6879
 21
-26.5093
  0
LINE
  8
0
 10
22.6879
 20
-26.5093
 11
22.5288
 21
-26.0196
  0
LINE
  8
0
 10
22.5288
 20
-26.0196
 11
22.4323
 21
-25.5139
  0
LINE
  8
0
 10
22.4323
 20
-25.5139
 11
22.4
 21
-25
  0
LINE
  8
0
 10
22.4
 20
25
 11
22.4323
 21
25.5139
  0
LINE
  8
0
 10
22.4323
 20
25.5139
 11
22.5288
 21
26.0196
  0
LINE
  8
0
 10
22.5288
 20
26.0196
 11
22.6879
 21
26.5093
  0
LINE
  8
0
 10
22.6879
 20
26.5093
 11
22.9071
 21
26.9752
  0
LINE
  8
0
 10
22.9071
 20
26.9752
 11
23.183
 21
27.4099
  0
LINE
  8
0
 10
23.183
 20
27.4099
 11
23.5112
 21
27.8066
  0
LINE
  8
0
 10
23.5112
 20
27.8066
 11
23.8866
 21
28.1591
  0
LINE
  8
0
 10
23.8866
 20
28.1591
 11
24.3031
 21
28.4617
  0
LINE
  8
0
 10
24.3031
 20
28.4617
 11
24.7543
 21
28.7098
  0
LINE
  8
0
 10
24.7543
 20
28.7098
 11
25.233
 21
28.8993
  0
LINE
  8
0
 10
25.233
 20
28.8993
 11
25.7317
 21
29.0274
  0
LINE
  8
0
 10
25.7317
 20
29.0274
 11
26.2426
 21
29.0919
  0
LINE
  8
0
 10
26.2426
 20
29.0919
 11
26.7574
 21
29.0919
  0
LINE
  8
0
 10
26.7574
 20
29.0919
 11
27.2683
 21
29.0274
  0
LINE
  8
0
 10
27.2683
 20
29.0274
 11
27.767
 21
28.8993
  0
LINE
  8
0
 10
27.767
 20
28.8993
 11
28.2457
 21
28.7098
  0
LINE
  8
0
 10
28.2457
 20
28.7098
 11
28.6969
 21
28.4617
  0
LINE
  8
0
 10
28.6969
 20
28.4617
 11
29.1134
 21
28.1591
  0
LINE
  8
0
 10
29.1134
 20
28.1591
 11
29.4888
 21
27.8066
  0
LINE
  8
0
 10
29.4888
 20
27.8066
 11
29.817
 21
27.4099
  0
LINE
  8
0
 10
29.817
 20
27.4099
 11
30.0929
 21
26.9752
  0
LINE
  8
0
 10
30.0929
 20
26.9752
 11
30.3121
 21
26.5093
  0
LINE
  8
0
 10
30.3121
 20
26.5093
 11
30.4712
 21
26.0196
  0
LINE
  8
0
 10
30.4712
 20
26.0196
 11
30.5677
 21
25.5139
  0
LINE
  8
0
 10
30.5677
 20
25.5139
 11
30.6
 21
25
  0
LINE
  8
0
 10
30.6
 20
25
 11
30.5677
 21
24.4861
  0
LINE
  8
0
 10
30.5677
 20
24.4861
 11
30.4712
 21
23.9804
  0
LINE
  8
0
 10
30.4712
 20
23.9804
 11
30.3121
 21
23.4907
  0
LINE
  8
0
 10
30.3121
 20
23.4907
 11
30.0929
 21
23.0248
  0
LINE
  8
0
 10
30.0929
 20
23.0248
 11
29.817
 21
22.5901
  0
LINE
  8
0
 10
29.817
 20
22.5901
 11
29.4888
 21
22.1934
  0
LINE
  8
0
 10
29.4888
 20
22.1934
 11
29.1134
 21
21.8409
  0
LINE
  8
0
 10
29.1134
 20
21.8409
 11
28.6969
 21
21.5383
  0
LINE
  8
0
 10
28.6969
 20
21.5383
 11
28.2457
 21
21.2902
  0
LINE
  8
0
 10
28.2457
 20
21.2902
 11
27.767
 21
21.1007
  0
LINE
  8
0
 10
27.767
 20
21.1007
 11
27.2683
 21
20.9726
  0
LINE
  8
0
 10
27.2683
 20
20.9726
 11
26.7574
 21
20.9081
  0
LINE
  8
0
 10
26.7574
 20
20.9081
 11
26.2426
 21
20.9081
  0
LINE
  8
0
 10
26.2426
 20
20.9081
 11
25.7317
 21
20.9726
  0
LINE
  8
0
 10
25.7317
 20
20.9726
 11
25.233
 21
21.1007
  0
LINE
  8
0
 10
25.233
 20
21.1007
 11
24.7543
 21
21.2902
  0
LINE
  8
0
 10
24.7543
 20
21.2902
 11
24.3031
 21
21.5383
  0
LINE
  8
0
 10
24.3031
 20
21.5383
 11
23.8866
 21
21.8409
  0
LINE
  8
0
 10
23.8866
 20
21.8409
 11
23.5112
 21
22.1934
  0
LINE
  8
0
 10
23.5112
 20
22.1934
 11
23.183
 21
22.5901
  0
LINE
  8
0
 10
23.183
 20
22.5901
 11
22.9071
 21
23.0248
  0
LINE
  8
0
 10
22.9071
 20
23.0248
 11
22.6879
 21
23.4907
  0
LINE
  8
0
 10
22.6879
 20
23.4907
 11
22.5288
 21
23.9804
  0
LINE
  8
0
 10
22.5288
 20
23.9804
 11
22.4323
 21
24.4861
  0
LINE
  8
0
 10
22.4323
 20
24.4861
 11
22.4
 21
25
  0
LINE
  8
0
 10
30.35
 20
-17
 11
30.4308
 21
-16.4901
  0
LINE
  8
0
 10
30.4308
 20
-16.4901
 11
30.6651
 21
-16.0302
  0
LINE
  8
0
 10
30.6651
 20
-16.0302
 11
31.0302
 21
-15.6651
  0
LINE
  8
0
 10
31.0302
 20
-15.6651
 11
31.4901
 21
-15.4308
  0
LINE
  8
0
 10
31.4901
 20
-15.4308
 11
32
 21
-15.35
  0
LINE
  8
0
 10
32
 20
-15.35
 11
32.5099
 21
-15.4308
  0
LINE
  8
0
 10
32.5099
 20
-15.4308
 11
32.9698
 21
-15.6651
  0
LINE
  8
0
 10
32.9698
 20
-15.6651
 11
33.3349
 21
-16.0302
  0
LINE
  8
0
 10
33.3349
 20
-16.0302
 11
33.5692
 21
-16.4901
  0
LINE
  8
0
 10
33.5692
 20
-16.4901
 11
33.65
 21
-17
  0
LINE
  8
0
 10
33.65
 20
-17
 11
33.5692
 21
-17.5099
  0
LINE
  8
0
 10
33.5692
 20
-17.5099
 11
33.3349
 21
-17.9698
  0
LINE
  8
0
 10
33.3349
 20
-17.9698
 11
32.9698
 21
-18.3349
  0
LINE
  8
0
 10
32.9698
 20
-18.3349
 11
32.5099
 21
-18.5692
  0
LINE
  8
0
 10
32.5099
 20
-18.5692
 11
32
 21
-18.65
  0
LINE
  8
0
 10
32
 20
-18.65
 11
31.4901
 21
-18.5692
  0
LINE
  8
0
 10
31.4901
 20
-18.5692
 11
31.0302
 21
-18.3349
  0
LINE
  8
0
 10
31.0302
 20
-18.3349
 11
30.6651
 21
-17.9698
  0
LINE
  8
0
 10
30.6651
 20
-17.9698
 11
30.4308
 21
-17.5099
  0
LINE
  8
0
 10
30.4308
 20
-17.5099
 11
30.35
 21
-17
  0
LINE
  8
0
 10
30.35
 20
17
 11
30.4308
 21
17.5099
  0
LINE
  8
0
 10
30.4308
 20
17.5099
 11
30.6651
 21
17.9698
  0
LINE
  8
0
 10
30.6651
 20
17.9698
 11
31.0302
 21
18.3349
  0
LINE
  8
0
 10
31.0302
 20
18.3349
 11
31.4901
 21
18.5692
  0
LINE
  8
0
 10
31.4901
 20
18.5692
 11
32
 21
18.65
  0
LINE
  8
0
 10
32
 20
18.65
 11
32.5099
 21
18.5692
  0
LINE
  8
0
 10
32.5099
 20
18.5692
 11
32.9698
 21
18.3349
  0
LINE
  8
0
 10
32.9698
 20
18.3349
 11
33.3349
 21
17.9698
  0
LINE
  8
0
 10
33.3349
 20
17.9698
 11
33.5692
 21
17.5099
  0
LINE
  8
0
 10
33.5692
 20
17.5099
 11
33.65
 21
17
  0
LINE
  8
0
 10
33.65
 20
17
 11
33.5692
 21
16.4901
  0
LINE
  8
0
 10
33.5692
 20
16.4901
 11
33.3349
 21
16.0302
  0
LINE
  8
0
 10
33.3349
 20
16.0302
 11
32.9698
 21
15.6651
  0
LINE
  8
0
 10
32.9698
 20
15.6651
 11
32.5099
 21
15.4308
  0
LINE
  8
0
 10
32.5099
 20
15.4308
 11
32
 21
15.35
  0
LINE
  8
0
 10
32
 20
15.35
 11
31.4901
 21
15.4308
  0
LINE
  8
0
 10
31.4901
 20
15.4308
 11
31.0302
 21
15.6651
  0
LINE
  8
0
 10
31.0302
 20
15.6651
 11
30.6651
 21
16.0302
  0
LINE
  8
0
 10
30.6651
 20
16.0302
 11
30.4308
 21
16.4901
  0
LINE
  8
0
 10
30.4308
 20
16.4901
 11
30.35
 21
17
  0
LINE
  8
0
 10
43.35
 20
-17
 11
43.4308
 21
-16.4901
  0
LINE
  8
0
 10
43.4308
 20
-16.4901
 11
43.6651
 21
-16.0302
  0
LINE
  8
0
 10
43.6651
 20
-16.0302
 11
44.0302
 21
-15.6651
  0
LINE
  8
0
 10
44.0302
 20
-15.6651
 11
44.4901
 21
-15.4308
  0
LINE
  8
0
 10
44.4901
 20
-15.4308
 11
45
 21
-15.35
  0
LINE
  8
0
 10
45
 20
-15.35
 11
45.5099
 21
-15.4308
  0
LINE
  8
0
 10
45.5099
 20
-15.4308
 11
45.9698
 21
-15.6651
  0
LINE
  8
0
 10
45.9698
 20
-15.6651
 11
46.3349
 21
-16.0302
  0
LINE
  8
0
 10
46.3349
 20
-16.0302
 11
46.5692
 21
-16.4901
  0
LINE
  8
0
 10
46.5692
 20
-16.4901
 11
46.65
 21
-17
  0
LINE
  8
0
 10
46.65
 20
-17
 11
46.5692
 21
-17.5099
  0
LINE
  8
0
 10
46.5692
 20
-17.5099
 11
46.3349
 21
-17.9698
  0
LINE
  8
0
 10
46.3349
 20
-17.9698
 11
45.9698
 21
-18.3349
  0
LINE
  8
0
 10
45.9698
 20
-18.3349
 11
45.5099
 21
-18.5692
  0
LINE
  8
0
 10
45.5099
 20
-18.5692
 11
45
 21
-18.65
  0
LINE
  8
0
 10
45
 20
-18.65
 11
44.4901
 21
-18.5692
  0
LINE
  8
0
 10
44.4901
 20
-18.5692
 11
44.0302
 21
-18.3349
  0
LINE
  8
0
 10
44.0302
 20
-18.3349
 11
43.6651
 21
-17.9698
  0
LINE
  8
0
 10
43.6651
 20
-17.9698
 11
43.4308
 21
-17.5099
  0
LINE
  8
0
 10
43.4308
 20
-17.5099
 11
43.35
 21
-17
  0
LINE
  8
0
 10
43.35
 20
17
 11
43.4308
 21
17.5099
  0
LINE
  8
0
 10
43.4308
 20
17.5099
 11
43.6651
 21
17.9698
  0
LINE
  8
0
 10
43.6651
 20
17.9698
 11
44.0302
 21
18.3349
  0
LINE
  8
0
 10
44.0302
 20
18.3349
 11
44.4901
 21
18.5692
  0
LINE
  8
0
 10
44.4901
 20
18.5692
 11
45
 21
18.65
  0
LINE
  8
0
 10
45
 20
18.65
 11
45.5099
 21
18.5692
  0
LINE
  8
0
 10
45.5099
 20
18.5692
 11
45.9698
 21
18.3349
  0
LINE
  8
0
 10
45.9698
 20
18.3349
 11
46.3349
 21
17.9698
  0
LINE
  8
0
 10
46.3349
 20
17.9698
 11
46.5692
 21
17.5099
  0
LINE
  8
0
 10
46.5692
 20
17.5099
 11
46.65
 21
17
  0
LINE
  8
0
 10
46.65
 20
17
 11
46.5692
 21
16.4901
  0
LINE
  8
0
 10
46.5692
 20
16.4901
 11
46.3349
 21
16.0302
  0
LINE
  8
0
 10
46.3349
 20
16.0302
 11
45.9698
 21
15.6651
  0
LINE
  8
0
 10
45.9698
 20
15.6651
 11
45.5099
 21
15.4308
  0
LINE
  8
0
 10
45.5099
 20
15.4308
 11
45
 21
15.35
  0
LINE
  8
0
 10
45
 20
15.35
 11
44.4901
 21
15.4308
  0
LINE
  8
0
 10
44.4901
 20
15.4308
 11
44.0302
 21
15.6651
  0
LINE
  8
0
 10
44.0302
 20
15.6651
 11
43.6651
 21
16.0302
  0
LINE
  8
0
 10
43.6651
 20
16.0302
 11
43.4308
 21
16.4901
  0
LINE
  8
0
 10
43.4308
 20
16.4901
 11
43.35
 21
17
  0
ENDSEC
  0
SECTION
  2
OBJECTS
  0
DICTIONARY
  0
ENDSEC
  0
EOF
