solid OpenSCAD_Model
  facet normal -1 0 0
    outer loop
      vertex 0 0 5.3
      vertex 0 0 8
      vertex 0 13 5.3
    endloop
  endfacet
  facet normal -1 0 0
    outer loop
      vertex 0 13 5.3
      vertex 0 0 8
      vertex 0 13 8
    endloop
  endfacet
  facet normal 0 -1 0
    outer loop
      vertex 0 0 8
      vertex 0 0 5.3
      vertex 10 0 5.3
    endloop
  endfacet
  facet normal 0 -1 0
    outer loop
      vertex 46 0 0
      vertex 0 0 8
      vertex 10 0 5.3
    endloop
  endfacet
  facet normal 0 -1 0
    outer loop
      vertex 10 0 0
      vertex 46 0 0
      vertex 10 0 5.3
    endloop
  endfacet
  facet normal 0 -1 0
    outer loop
      vertex 46 0 0
      vertex 46 0 8
      vertex 0 0 8
    endloop
  endfacet
  facet normal 0 0 -1
    outer loop
      vertex 10 13 5.3
      vertex 10 0 5.3
      vertex 0 13 5.3
    endloop
  endfacet
  facet normal 0 0 -1
    outer loop
      vertex 0 13 5.3
      vertex 10 0 5.3
      vertex 0 0 5.3
    endloop
  endfacet
  facet normal 0 1 0
    outer loop
      vertex 0 13 5.3
      vertex 0 13 8
      vertex 10 13 5.3
    endloop
  endfacet
  facet normal 0 1 0
    outer loop
      vertex 10 13 5.3
      vertex 0 13 8
      vertex 46 13 8
    endloop
  endfacet
  facet normal 0 1 0
    outer loop
      vertex 10 13 5.3
      vertex 46 13 8
      vertex 46 13 0
    endloop
  endfacet
  facet normal 0 1 0
    outer loop
      vertex 10 13 5.3
      vertex 46 13 0
      vertex 10 13 0
    endloop
  endfacet
  facet normal 0 0 1
    outer loop
      vertex 0 13 8
      vertex 0 0 8
      vertex 46 0 8
    endloop
  endfacet
  facet normal 0 0 1
    outer loop
      vertex 46 13 8
      vertex 0 13 8
      vertex 46 0 8
    endloop
  endfacet
  facet normal 1 0 0
    outer loop
      vertex 46 1.4 2.3
      vertex 46 0 0
      vertex 46 13 0
    endloop
  endfacet
  facet normal 1 0 0
    outer loop
      vertex 46 0 8
      vertex 46 0 0
      vertex 46 1.4 2.3
    endloop
  endfacet
  facet normal 1 0 0
    outer loop
      vertex 46 1.4 3.8
      vertex 46 11.6 3.8
      vertex 46 0 8
    endloop
  endfacet
  facet normal 1 0 0
    outer loop
      vertex 46 0 8
      vertex 46 1.4 2.3
      vertex 46 1.4 3.8
    endloop
  endfacet
  facet normal 1 0 0
    outer loop
      vertex 46 13 8
      vertex 46 11.6 3.8
      vertex 46 13 0
    endloop
  endfacet
  facet normal 1 0 0
    outer loop
      vertex 46 13 8
      vertex 46 0 8
      vertex 46 11.6 3.8
    endloop
  endfacet
  facet normal 1 0 0
    outer loop
      vertex 46 11.6 3.8
      vertex 46 11.6 2.3
      vertex 46 13 0
    endloop
  endfacet
  facet normal 1 0 0
    outer loop
      vertex 46 11.6 2.3
      vertex 46 1.4 2.3
      vertex 46 13 0
    endloop
  endfacet
  facet normal 0 0 -1
    outer loop
      vertex 10 0 0
      vertex 10 13 0
      vertex 46 0 0
    endloop
  endfacet
  facet normal 0 0 -1
    outer loop
      vertex 46 0 0
      vertex 10 13 0
      vertex 46 13 0
    endloop
  endfacet
  facet normal -1 0 0
    outer loop
      vertex 10 1.4 3.8
      vertex 10 0 5.3
      vertex 10 11.6 3.8
    endloop
  endfacet
  facet normal -1 0 0
    outer loop
      vertex 10 1.4 2.3
      vertex 10 13 0
      vertex 10 0 0
    endloop
  endfacet
  facet normal -1 0 0
    outer loop
      vertex 10 0 5.3
      vertex 10 1.4 2.3
      vertex 10 0 0
    endloop
  endfacet
  facet normal -1 0 0
    outer loop
      vertex 10 13 5.3
      vertex 10 13 0
      vertex 10 11.6 2.3
    endloop
  endfacet
  facet normal -1 0 0
    outer loop
      vertex 10 13 5.3
      vertex 10 11.6 2.3
      vertex 10 11.6 3.8
    endloop
  endfacet
  facet normal -1 0 0
    outer loop
      vertex 10 13 5.3
      vertex 10 11.6 3.8
      vertex 10 0 5.3
    endloop
  endfacet
  facet normal -1 0 0
    outer loop
      vertex 10 0 5.3
      vertex 10 1.4 3.8
      vertex 10 1.4 2.3
    endloop
  endfacet
  facet normal -1 0 0
    outer loop
      vertex 10 11.6 2.3
      vertex 10 13 0
      vertex 10 1.4 2.3
    endloop
  endfacet
  facet normal 0 1 0
    outer loop
      vertex 46 1.4 3.8
      vertex 46 1.4 2.3
      vertex 10 1.4 3.8
    endloop
  endfacet
  facet normal 0 1 0
    outer loop
      vertex 10 1.4 3.8
      vertex 46 1.4 2.3
      vertex 10 1.4 2.3
    endloop
  endfacet
  facet normal 0 0 1
    outer loop
      vertex 46 1.4 2.3
      vertex 46 11.6 2.3
      vertex 10 11.6 2.3
    endloop
  endfacet
  facet normal 0 0 1
    outer loop
      vertex 10 1.4 2.3
      vertex 46 1.4 2.3
      vertex 10 11.6 2.3
    endloop
  endfacet
  facet normal 0 -1 0
    outer loop
      vertex 46 11.6 2.3
      vertex 46 11.6 3.8
      vertex 10 11.6 3.8
    endloop
  endfacet
  facet normal 0 -1 0
    outer loop
      vertex 10 11.6 2.3
      vertex 46 11.6 2.3
      vertex 10 11.6 3.8
    endloop
  endfacet
  facet normal 0 0 -1
    outer loop
      vertex 46 11.6 3.8
      vertex 46 1.4 3.8
      vertex 10 11.6 3.8
    endloop
  endfacet
  facet normal 0 0 -1
    outer loop
      vertex 10 11.6 3.8
      vertex 46 1.4 3.8
      vertex 10 1.4 3.8
    endloop
  endfacet
endsolid OpenSCAD_Model
