M48
;Layer_Color=9474304
;FILE_FORMAT=2:4
INCH
;TYPE=PLATED
T1F00S00C0.0300
T2F00S00C0.0354
T3F00S00C0.0394
T5F00S00C0.0398
T6F00S00C0.0512
T7F00S00C0.0984
T8F00S00C0.1220
%
T01
X066750Y022763
X067850
X068400Y023715
X067850Y024668
X066750
X066200Y023715
X059964Y043933
X066750Y045597
X067850
X068400Y046550
X066200
X066750Y047503
X067850
T02
X068250Y032750
Y033750
X068200Y040900
Y041900
T03
X057450Y027600
X058434
X059222
X060206
X058150Y031862
Y032797
X056246
Y031862
X049750
Y032797
X064646
Y031862
Y047600
X058150
X056246
X049750
T05
X059964Y042933
X060964
X061964
Y043933
X060964
X062964
Y042933
X063964
Y043933
T06
X065900Y027100
Y029100
X052050Y028350
X050050
T07
X056241Y026537
X061415
T08
X067300Y023715
Y046550
M30
