%FSAX25Y25*%
%MOIN*%
G70*
G01*
G75*
G04 Layer_Color=32896*
%ADD10R,0.07480X0.08071*%
%ADD11R,0.05118X0.04331*%
%ADD12R,0.12402X0.08858*%
%ADD13C,0.10000*%
%ADD14C,0.05000*%
%ADD15R,0.11024X0.11024*%
G04:AMPARAMS|DCode=16|XSize=236.22mil|YSize=98.43mil|CornerRadius=24.61mil|HoleSize=0mil|Usage=FLASHONLY|Rotation=270.000|XOffset=0mil|YOffset=0mil|HoleType=Round|Shape=RoundedRectangle|*
%AMROUNDEDRECTD16*
21,1,0.23622,0.04921,0,0,270.0*
21,1,0.18701,0.09843,0,0,270.0*
1,1,0.04921,-0.02461,-0.09350*
1,1,0.04921,-0.02461,0.09350*
1,1,0.04921,0.02461,0.09350*
1,1,0.04921,0.02461,-0.09350*
%
%ADD16ROUNDEDRECTD16*%
%ADD17O,0.09843X0.21260*%
%ADD18O,0.19685X0.07874*%
G04:AMPARAMS|DCode=19|XSize=157.48mil|YSize=118.11mil|CornerRadius=29.53mil|HoleSize=0mil|Usage=FLASHONLY|Rotation=270.000|XOffset=0mil|YOffset=0mil|HoleType=Round|Shape=RoundedRectangle|*
%AMROUNDEDRECTD19*
21,1,0.15748,0.05906,0,0,270.0*
21,1,0.09843,0.11811,0,0,270.0*
1,1,0.05906,-0.02953,-0.04921*
1,1,0.05906,-0.02953,0.04921*
1,1,0.05906,0.02953,0.04921*
1,1,0.05906,0.02953,-0.04921*
%
%ADD19ROUNDEDRECTD19*%
%ADD20O,0.25590X0.07874*%
G04:AMPARAMS|DCode=21|XSize=236.22mil|YSize=98.43mil|CornerRadius=24.61mil|HoleSize=0mil|Usage=FLASHONLY|Rotation=0.000|XOffset=0mil|YOffset=0mil|HoleType=Round|Shape=RoundedRectangle|*
%AMROUNDEDRECTD21*
21,1,0.23622,0.04921,0,0,0.0*
21,1,0.18701,0.09843,0,0,0.0*
1,1,0.04921,0.09350,-0.02461*
1,1,0.04921,-0.09350,-0.02461*
1,1,0.04921,-0.09350,0.02461*
1,1,0.04921,0.09350,0.02461*
%
%ADD21ROUNDEDRECTD21*%
%ADD22O,0.21260X0.09843*%
%ADD23O,0.07874X0.19685*%
G04:AMPARAMS|DCode=24|XSize=157.48mil|YSize=118.11mil|CornerRadius=29.53mil|HoleSize=0mil|Usage=FLASHONLY|Rotation=0.000|XOffset=0mil|YOffset=0mil|HoleType=Round|Shape=RoundedRectangle|*
%AMROUNDEDRECTD24*
21,1,0.15748,0.05906,0,0,0.0*
21,1,0.09843,0.11811,0,0,0.0*
1,1,0.05906,0.04921,-0.02953*
1,1,0.05906,-0.04921,-0.02953*
1,1,0.05906,-0.04921,0.02953*
1,1,0.05906,0.04921,0.02953*
%
%ADD24ROUNDEDRECTD24*%
%ADD25O,0.07874X0.25590*%
%ADD26R,0.15748X0.19685*%
%ADD27R,0.05906X0.09843*%
%ADD28C,0.06000*%
%ADD29C,0.25000*%
%ADD30R,0.05906X0.05906*%
%ADD31C,0.05906*%
%ADD32R,0.06394X0.06394*%
%ADD33C,0.07087*%
%ADD34C,0.00500*%
%ADD35C,0.00787*%
%ADD36C,0.00984*%
%ADD37C,0.01000*%
%ADD38C,0.00800*%
%ADD39C,0.01200*%
%ADD40C,0.01600*%
%ADD41R,0.13500X0.22500*%
%ADD42R,0.18500X0.21000*%
%ADD43R,0.08280X0.08871*%
%ADD44R,0.05918X0.05131*%
%ADD45R,0.13202X0.09658*%
%ADD46R,0.11824X0.11824*%
G04:AMPARAMS|DCode=47|XSize=244.22mil|YSize=106.42mil|CornerRadius=28.61mil|HoleSize=0mil|Usage=FLASHONLY|Rotation=270.000|XOffset=0mil|YOffset=0mil|HoleType=Round|Shape=RoundedRectangle|*
%AMROUNDEDRECTD47*
21,1,0.24422,0.04921,0,0,270.0*
21,1,0.18701,0.10642,0,0,270.0*
1,1,0.05721,-0.02461,-0.09350*
1,1,0.05721,-0.02461,0.09350*
1,1,0.05721,0.02461,0.09350*
1,1,0.05721,0.02461,-0.09350*
%
%ADD47ROUNDEDRECTD47*%
%ADD48O,0.10642X0.22060*%
%ADD49O,0.20485X0.08674*%
G04:AMPARAMS|DCode=50|XSize=165.48mil|YSize=126.11mil|CornerRadius=33.53mil|HoleSize=0mil|Usage=FLASHONLY|Rotation=270.000|XOffset=0mil|YOffset=0mil|HoleType=Round|Shape=RoundedRectangle|*
%AMROUNDEDRECTD50*
21,1,0.16548,0.05906,0,0,270.0*
21,1,0.09843,0.12611,0,0,270.0*
1,1,0.06706,-0.02953,-0.04921*
1,1,0.06706,-0.02953,0.04921*
1,1,0.06706,0.02953,0.04921*
1,1,0.06706,0.02953,-0.04921*
%
%ADD50ROUNDEDRECTD50*%
%ADD51O,0.26391X0.08674*%
G04:AMPARAMS|DCode=52|XSize=244.22mil|YSize=106.42mil|CornerRadius=28.61mil|HoleSize=0mil|Usage=FLASHONLY|Rotation=0.000|XOffset=0mil|YOffset=0mil|HoleType=Round|Shape=RoundedRectangle|*
%AMROUNDEDRECTD52*
21,1,0.24422,0.04921,0,0,0.0*
21,1,0.18701,0.10642,0,0,0.0*
1,1,0.05721,0.09350,-0.02461*
1,1,0.05721,-0.09350,-0.02461*
1,1,0.05721,-0.09350,0.02461*
1,1,0.05721,0.09350,0.02461*
%
%ADD52ROUNDEDRECTD52*%
%ADD53O,0.22060X0.10642*%
%ADD54O,0.08674X0.20485*%
G04:AMPARAMS|DCode=55|XSize=165.48mil|YSize=126.11mil|CornerRadius=33.53mil|HoleSize=0mil|Usage=FLASHONLY|Rotation=0.000|XOffset=0mil|YOffset=0mil|HoleType=Round|Shape=RoundedRectangle|*
%AMROUNDEDRECTD55*
21,1,0.16548,0.05906,0,0,0.0*
21,1,0.09843,0.12611,0,0,0.0*
1,1,0.06706,0.04921,-0.02953*
1,1,0.06706,-0.04921,-0.02953*
1,1,0.06706,-0.04921,0.02953*
1,1,0.06706,0.04921,0.02953*
%
%ADD55ROUNDEDRECTD55*%
%ADD56O,0.08674X0.26391*%
%ADD57R,0.16548X0.20485*%
%ADD58R,0.06706X0.10642*%
%ADD59C,0.06800*%
%ADD60C,0.25800*%
%ADD61R,0.06706X0.06706*%
%ADD62C,0.06706*%
%ADD63R,0.07194X0.07194*%
%ADD64C,0.07887*%
D37*
X0580268Y0452043D02*
X0659008D01*
Y0416709D02*
Y0452043D01*
X0580268Y0416610D02*
X0659008D01*
X0580268D02*
Y0452043D01*
X0614815Y0455193D02*
X0625839D01*
X0576788Y0454677D02*
X0570790D01*
Y0451678D01*
X0571789Y0450678D01*
X0573789D01*
X0574788Y0451678D01*
Y0454677D01*
X0576788Y0448679D02*
Y0446679D01*
Y0447679D01*
X0570790D01*
X0571789Y0448679D01*
X0642498Y0460999D02*
X0643498Y0459999D01*
Y0458000D01*
X0642498Y0457000D01*
X0638500D01*
X0637500Y0458000D01*
Y0459999D01*
X0638500Y0460999D01*
X0640499D01*
Y0458999D01*
X0637500Y0462998D02*
X0643498D01*
X0637500Y0466997D01*
X0643498D01*
Y0468996D02*
X0637500D01*
Y0471995D01*
X0638500Y0472995D01*
X0642498D01*
X0643498Y0471995D01*
Y0468996D01*
X0632498Y0460999D02*
X0633498Y0459999D01*
Y0458000D01*
X0632498Y0457000D01*
X0628500D01*
X0627500Y0458000D01*
Y0459999D01*
X0628500Y0460999D01*
X0630499D01*
Y0458999D01*
X0627500Y0462998D02*
X0633498D01*
X0627500Y0466997D01*
X0633498D01*
Y0468996D02*
X0627500D01*
Y0471995D01*
X0628500Y0472995D01*
X0632498D01*
X0633498Y0471995D01*
Y0468996D01*
X0617500Y0460999D02*
Y0457000D01*
X0621499Y0460999D01*
X0622498D01*
X0623498Y0459999D01*
Y0458000D01*
X0622498Y0457000D01*
X0617500Y0465997D02*
X0623498D01*
X0620499Y0462998D01*
Y0466997D01*
X0623498Y0468996D02*
X0619499D01*
X0617500Y0470996D01*
X0619499Y0472995D01*
X0623498D01*
X0608500Y0457000D02*
X0607500Y0458000D01*
Y0459999D01*
X0608500Y0460999D01*
X0612498D01*
X0613498Y0459999D01*
Y0458000D01*
X0612498Y0457000D01*
X0611499D01*
X0610499Y0458000D01*
Y0460999D01*
X0613498Y0462998D02*
X0609499D01*
X0607500Y0464997D01*
X0609499Y0466997D01*
X0613498D01*
X0603498Y0460999D02*
Y0457000D01*
X0600499D01*
X0601499Y0458999D01*
Y0459999D01*
X0600499Y0460999D01*
X0598500D01*
X0597500Y0459999D01*
Y0458000D01*
X0598500Y0457000D01*
X0603498Y0462998D02*
X0599499D01*
X0597500Y0464997D01*
X0599499Y0466997D01*
X0603498D01*
X0602498Y0401499D02*
Y0397500D01*
X0599499D01*
X0600499Y0399499D01*
Y0400499D01*
X0599499Y0401499D01*
X0597500D01*
X0596500Y0400499D01*
Y0398500D01*
X0597500Y0397500D01*
X0602498Y0403498D02*
X0598499D01*
X0596500Y0405497D01*
X0598499Y0407497D01*
X0602498D01*
X0607500Y0397500D02*
X0606500Y0398500D01*
Y0400499D01*
X0607500Y0401499D01*
X0611498D01*
X0612498Y0400499D01*
Y0398500D01*
X0611498Y0397500D01*
X0610499D01*
X0609499Y0398500D01*
Y0401499D01*
X0612498Y0403498D02*
X0608499D01*
X0606500Y0405497D01*
X0608499Y0407497D01*
X0612498D01*
X0616500Y0401499D02*
Y0397500D01*
X0620499Y0401499D01*
X0621498D01*
X0622498Y0400499D01*
Y0398500D01*
X0621498Y0397500D01*
X0616500Y0406497D02*
X0622498D01*
X0619499Y0403498D01*
Y0407497D01*
X0622498Y0409496D02*
X0618499D01*
X0616500Y0411495D01*
X0618499Y0413495D01*
X0622498D01*
X0631498Y0401499D02*
X0632498Y0400499D01*
Y0398500D01*
X0631498Y0397500D01*
X0627500D01*
X0626500Y0398500D01*
Y0400499D01*
X0627500Y0401499D01*
X0629499D01*
Y0399499D01*
X0626500Y0403498D02*
X0632498D01*
X0626500Y0407497D01*
X0632498D01*
Y0409496D02*
X0626500D01*
Y0412495D01*
X0627500Y0413495D01*
X0631498D01*
X0632498Y0412495D01*
Y0409496D01*
X0641498Y0401499D02*
X0642498Y0400499D01*
Y0398500D01*
X0641498Y0397500D01*
X0637500D01*
X0636500Y0398500D01*
Y0400499D01*
X0637500Y0401499D01*
X0639499D01*
Y0399499D01*
X0636500Y0403498D02*
X0642498D01*
X0636500Y0407497D01*
X0642498D01*
Y0409496D02*
X0636500D01*
Y0412495D01*
X0637500Y0413495D01*
X0641498D01*
X0642498Y0412495D01*
Y0409496D01*
M02*
