%FSAX25Y25*%
%MOIN*%
G70*
G01*
G75*
G04 Layer_Color=65535*
%ADD10R,0.07480X0.08071*%
%ADD11R,0.05118X0.04331*%
%ADD12R,0.12402X0.08858*%
%ADD13C,0.10000*%
%ADD14C,0.05000*%
%ADD15R,0.11024X0.11024*%
G04:AMPARAMS|DCode=16|XSize=236.22mil|YSize=98.43mil|CornerRadius=24.61mil|HoleSize=0mil|Usage=FLASHONLY|Rotation=270.000|XOffset=0mil|YOffset=0mil|HoleType=Round|Shape=RoundedRectangle|*
%AMROUNDEDRECTD16*
21,1,0.23622,0.04921,0,0,270.0*
21,1,0.18701,0.09843,0,0,270.0*
1,1,0.04921,-0.02461,-0.09350*
1,1,0.04921,-0.02461,0.09350*
1,1,0.04921,0.02461,0.09350*
1,1,0.04921,0.02461,-0.09350*
%
%ADD16ROUNDEDRECTD16*%
%ADD17O,0.09843X0.21260*%
%ADD18O,0.19685X0.07874*%
G04:AMPARAMS|DCode=19|XSize=157.48mil|YSize=118.11mil|CornerRadius=29.53mil|HoleSize=0mil|Usage=FLASHONLY|Rotation=270.000|XOffset=0mil|YOffset=0mil|HoleType=Round|Shape=RoundedRectangle|*
%AMROUNDEDRECTD19*
21,1,0.15748,0.05906,0,0,270.0*
21,1,0.09843,0.11811,0,0,270.0*
1,1,0.05906,-0.02953,-0.04921*
1,1,0.05906,-0.02953,0.04921*
1,1,0.05906,0.02953,0.04921*
1,1,0.05906,0.02953,-0.04921*
%
%ADD19ROUNDEDRECTD19*%
%ADD20O,0.25590X0.07874*%
G04:AMPARAMS|DCode=21|XSize=236.22mil|YSize=98.43mil|CornerRadius=24.61mil|HoleSize=0mil|Usage=FLASHONLY|Rotation=0.000|XOffset=0mil|YOffset=0mil|HoleType=Round|Shape=RoundedRectangle|*
%AMROUNDEDRECTD21*
21,1,0.23622,0.04921,0,0,0.0*
21,1,0.18701,0.09843,0,0,0.0*
1,1,0.04921,0.09350,-0.02461*
1,1,0.04921,-0.09350,-0.02461*
1,1,0.04921,-0.09350,0.02461*
1,1,0.04921,0.09350,0.02461*
%
%ADD21ROUNDEDRECTD21*%
%ADD22O,0.21260X0.09843*%
%ADD23O,0.07874X0.19685*%
G04:AMPARAMS|DCode=24|XSize=157.48mil|YSize=118.11mil|CornerRadius=29.53mil|HoleSize=0mil|Usage=FLASHONLY|Rotation=0.000|XOffset=0mil|YOffset=0mil|HoleType=Round|Shape=RoundedRectangle|*
%AMROUNDEDRECTD24*
21,1,0.15748,0.05906,0,0,0.0*
21,1,0.09843,0.11811,0,0,0.0*
1,1,0.05906,0.04921,-0.02953*
1,1,0.05906,-0.04921,-0.02953*
1,1,0.05906,-0.04921,0.02953*
1,1,0.05906,0.04921,0.02953*
%
%ADD24ROUNDEDRECTD24*%
%ADD25O,0.07874X0.25590*%
%ADD26R,0.15748X0.19685*%
%ADD27R,0.05906X0.09843*%
%ADD28C,0.06000*%
%ADD29C,0.25000*%
%ADD30R,0.05906X0.05906*%
%ADD31C,0.05906*%
%ADD32R,0.06394X0.06394*%
%ADD33C,0.07087*%
%ADD34C,0.00500*%
%ADD35C,0.00787*%
%ADD36C,0.00984*%
%ADD37C,0.01000*%
%ADD38C,0.00800*%
%ADD39C,0.01200*%
%ADD40C,0.01600*%
%ADD41R,0.13500X0.22500*%
%ADD42R,0.18500X0.21000*%
G36*
X0597453Y0306776D02*
X0597539Y0306760D01*
X0597633Y0306729D01*
X0597742Y0306698D01*
X0597859Y0306643D01*
X0597984Y0306573D01*
X0597758Y0305995D01*
X0597750Y0306003D01*
X0597719Y0306018D01*
X0597672Y0306042D01*
X0597617Y0306065D01*
X0597547Y0306089D01*
X0597469Y0306112D01*
X0597383Y0306128D01*
X0597297Y0306136D01*
X0597266D01*
X0597227Y0306128D01*
X0597172Y0306120D01*
X0597117Y0306104D01*
X0597055Y0306081D01*
X0596992Y0306050D01*
X0596930Y0306011D01*
X0596922Y0306003D01*
X0596907Y0305987D01*
X0596875Y0305956D01*
X0596844Y0305917D01*
X0596805Y0305870D01*
X0596766Y0305807D01*
X0596735Y0305737D01*
X0596703Y0305659D01*
X0596696Y0305644D01*
X0596688Y0305605D01*
X0596672Y0305534D01*
X0596657Y0305440D01*
X0596633Y0305331D01*
X0596618Y0305206D01*
X0596610Y0305073D01*
X0596602Y0304925D01*
Y0302980D01*
X0595969D01*
Y0306698D01*
X0596539D01*
Y0306143D01*
X0596547Y0306151D01*
X0596579Y0306198D01*
X0596618Y0306268D01*
X0596664Y0306346D01*
X0596727Y0306432D01*
X0596797Y0306518D01*
X0596860Y0306596D01*
X0596930Y0306651D01*
X0596938Y0306659D01*
X0596961Y0306674D01*
X0597000Y0306690D01*
X0597055Y0306721D01*
X0597110Y0306745D01*
X0597180Y0306760D01*
X0597258Y0306776D01*
X0597336Y0306784D01*
X0597391D01*
X0597453Y0306776D01*
D02*
G37*
G36*
X0580669Y0306768D02*
X0580779Y0306752D01*
X0580912Y0306721D01*
X0581052Y0306682D01*
X0581193Y0306620D01*
X0581333Y0306534D01*
X0581341D01*
X0581349Y0306526D01*
X0581396Y0306487D01*
X0581458Y0306432D01*
X0581544Y0306354D01*
X0581630Y0306260D01*
X0581724Y0306136D01*
X0581810Y0306003D01*
X0581888Y0305839D01*
Y0305831D01*
X0581896Y0305815D01*
X0581904Y0305792D01*
X0581919Y0305761D01*
X0581935Y0305722D01*
X0581950Y0305667D01*
X0581982Y0305550D01*
X0582013Y0305401D01*
X0582044Y0305237D01*
X0582067Y0305058D01*
X0582075Y0304862D01*
Y0304855D01*
Y0304839D01*
Y0304808D01*
Y0304769D01*
X0582067Y0304714D01*
Y0304660D01*
X0582052Y0304519D01*
X0582021Y0304363D01*
X0581989Y0304191D01*
X0581935Y0304011D01*
X0581864Y0303832D01*
Y0303824D01*
X0581857Y0303808D01*
X0581841Y0303785D01*
X0581825Y0303753D01*
X0581778Y0303675D01*
X0581716Y0303574D01*
X0581630Y0303465D01*
X0581529Y0303347D01*
X0581411Y0303238D01*
X0581271Y0303136D01*
X0581263D01*
X0581255Y0303129D01*
X0581232Y0303113D01*
X0581201Y0303098D01*
X0581122Y0303058D01*
X0581021Y0303019D01*
X0580896Y0302973D01*
X0580763Y0302933D01*
X0580607Y0302902D01*
X0580451Y0302894D01*
X0580396D01*
X0580341Y0302902D01*
X0580263Y0302910D01*
X0580177Y0302926D01*
X0580084Y0302949D01*
X0579982Y0302980D01*
X0579888Y0303019D01*
X0579881Y0303027D01*
X0579849Y0303043D01*
X0579803Y0303074D01*
X0579748Y0303113D01*
X0579678Y0303160D01*
X0579615Y0303215D01*
X0579545Y0303285D01*
X0579482Y0303355D01*
Y0301559D01*
X0578850D01*
Y0306698D01*
X0579428D01*
Y0306214D01*
X0579435Y0306229D01*
X0579459Y0306260D01*
X0579506Y0306307D01*
X0579561Y0306370D01*
X0579623Y0306440D01*
X0579701Y0306510D01*
X0579787Y0306581D01*
X0579881Y0306635D01*
X0579896Y0306643D01*
X0579927Y0306659D01*
X0579982Y0306682D01*
X0580053Y0306714D01*
X0580146Y0306737D01*
X0580248Y0306760D01*
X0580365Y0306776D01*
X0580498Y0306784D01*
X0580576D01*
X0580669Y0306768D01*
D02*
G37*
G36*
X0604334Y0306776D02*
X0604381D01*
X0604435Y0306768D01*
X0604553Y0306745D01*
X0604693Y0306706D01*
X0604834Y0306651D01*
X0604966Y0306573D01*
X0605091Y0306471D01*
X0605107Y0306456D01*
X0605138Y0306417D01*
X0605185Y0306339D01*
X0605248Y0306237D01*
X0605302Y0306104D01*
X0605349Y0305948D01*
X0605380Y0305753D01*
X0605396Y0305644D01*
Y0305526D01*
Y0302980D01*
X0604763D01*
Y0305315D01*
Y0305323D01*
Y0305331D01*
Y0305378D01*
Y0305448D01*
X0604755Y0305526D01*
X0604740Y0305706D01*
X0604724Y0305792D01*
X0604701Y0305862D01*
Y0305870D01*
X0604685Y0305893D01*
X0604670Y0305925D01*
X0604646Y0305964D01*
X0604615Y0306003D01*
X0604576Y0306050D01*
X0604529Y0306097D01*
X0604474Y0306136D01*
X0604467Y0306143D01*
X0604443Y0306151D01*
X0604412Y0306167D01*
X0604373Y0306190D01*
X0604318Y0306206D01*
X0604248Y0306222D01*
X0604178Y0306229D01*
X0604100Y0306237D01*
X0604037D01*
X0603959Y0306222D01*
X0603873Y0306206D01*
X0603771Y0306175D01*
X0603662Y0306128D01*
X0603545Y0306058D01*
X0603443Y0305972D01*
X0603436Y0305956D01*
X0603404Y0305925D01*
X0603365Y0305862D01*
X0603319Y0305768D01*
X0603264Y0305651D01*
X0603225Y0305511D01*
X0603194Y0305339D01*
X0603186Y0305136D01*
Y0302980D01*
X0602553D01*
Y0305394D01*
Y0305401D01*
Y0305409D01*
Y0305433D01*
Y0305464D01*
X0602545Y0305542D01*
X0602537Y0305628D01*
X0602514Y0305737D01*
X0602491Y0305839D01*
X0602452Y0305940D01*
X0602397Y0306026D01*
X0602389Y0306034D01*
X0602366Y0306058D01*
X0602334Y0306097D01*
X0602280Y0306136D01*
X0602210Y0306167D01*
X0602124Y0306206D01*
X0602022Y0306229D01*
X0601897Y0306237D01*
X0601850D01*
X0601803Y0306229D01*
X0601733Y0306222D01*
X0601663Y0306206D01*
X0601577Y0306175D01*
X0601491Y0306143D01*
X0601405Y0306097D01*
X0601397Y0306089D01*
X0601366Y0306073D01*
X0601327Y0306034D01*
X0601280Y0305995D01*
X0601225Y0305932D01*
X0601171Y0305862D01*
X0601124Y0305776D01*
X0601077Y0305683D01*
X0601069Y0305667D01*
X0601061Y0305636D01*
X0601046Y0305573D01*
X0601030Y0305487D01*
X0601007Y0305378D01*
X0600991Y0305245D01*
X0600983Y0305089D01*
X0600976Y0304909D01*
Y0302980D01*
X0600343D01*
Y0306698D01*
X0600905D01*
Y0306175D01*
X0600913Y0306190D01*
X0600936Y0306222D01*
X0600976Y0306268D01*
X0601030Y0306331D01*
X0601093Y0306401D01*
X0601171Y0306471D01*
X0601264Y0306550D01*
X0601366Y0306612D01*
X0601382Y0306620D01*
X0601421Y0306635D01*
X0601483Y0306667D01*
X0601561Y0306698D01*
X0601663Y0306729D01*
X0601772Y0306760D01*
X0601905Y0306776D01*
X0602038Y0306784D01*
X0602108D01*
X0602186Y0306776D01*
X0602280Y0306760D01*
X0602381Y0306745D01*
X0602498Y0306714D01*
X0602608Y0306667D01*
X0602709Y0306612D01*
X0602725Y0306604D01*
X0602756Y0306581D01*
X0602803Y0306542D01*
X0602858Y0306487D01*
X0602920Y0306417D01*
X0602983Y0306339D01*
X0603037Y0306237D01*
X0603084Y0306128D01*
X0603092Y0306136D01*
X0603108Y0306159D01*
X0603131Y0306190D01*
X0603162Y0306229D01*
X0603209Y0306284D01*
X0603264Y0306339D01*
X0603326Y0306393D01*
X0603397Y0306456D01*
X0603475Y0306518D01*
X0603561Y0306573D01*
X0603764Y0306682D01*
X0603873Y0306721D01*
X0603990Y0306752D01*
X0604107Y0306776D01*
X0604240Y0306784D01*
X0604295D01*
X0604334Y0306776D01*
D02*
G37*
G36*
X0590291Y0302980D02*
X0589643D01*
X0589057Y0305198D01*
X0588909Y0305839D01*
X0588152Y0302980D01*
X0587480D01*
X0586363Y0306698D01*
X0587027D01*
X0587613Y0304550D01*
X0587823Y0303753D01*
Y0303761D01*
X0587831Y0303777D01*
X0587839Y0303808D01*
X0587847Y0303832D01*
X0587855Y0303871D01*
X0587862Y0303910D01*
X0587878Y0303964D01*
X0587894Y0304027D01*
X0587909Y0304097D01*
X0587933Y0304183D01*
X0587956Y0304285D01*
X0587988Y0304394D01*
X0588019Y0304519D01*
X0588612Y0306698D01*
X0589253D01*
X0589815Y0304535D01*
X0589995Y0303824D01*
X0590205Y0304542D01*
X0590854Y0306698D01*
X0591463D01*
X0590291Y0302980D01*
D02*
G37*
G36*
X0549062Y0306026D02*
X0551312Y0302980D01*
X0550414D01*
X0548586Y0305565D01*
X0547750Y0304761D01*
Y0302980D01*
X0547071D01*
Y0308112D01*
X0547750D01*
Y0305573D01*
X0550296Y0308112D01*
X0551218D01*
X0549062Y0306026D01*
D02*
G37*
G36*
X0563238Y0297480D02*
X0562605D01*
Y0301198D01*
X0563238D01*
Y0297480D01*
D02*
G37*
G36*
X0582591D02*
X0581872D01*
Y0298199D01*
X0582591D01*
Y0297480D01*
D02*
G37*
G36*
X0561347Y0301198D02*
X0561980D01*
Y0300706D01*
X0561347D01*
Y0298527D01*
Y0298519D01*
Y0298488D01*
Y0298441D01*
X0561355Y0298386D01*
X0561363Y0298269D01*
X0561371Y0298222D01*
X0561379Y0298183D01*
X0561387Y0298168D01*
X0561402Y0298136D01*
X0561434Y0298097D01*
X0561480Y0298058D01*
X0561496Y0298050D01*
X0561535Y0298043D01*
X0561605Y0298027D01*
X0561699Y0298019D01*
X0561777D01*
X0561816Y0298027D01*
X0561863D01*
X0561980Y0298043D01*
X0562066Y0297488D01*
X0562050D01*
X0562019Y0297480D01*
X0561972Y0297473D01*
X0561902Y0297465D01*
X0561832Y0297449D01*
X0561754Y0297441D01*
X0561590Y0297433D01*
X0561535D01*
X0561473Y0297441D01*
X0561394Y0297449D01*
X0561308Y0297457D01*
X0561215Y0297480D01*
X0561129Y0297504D01*
X0561051Y0297535D01*
X0561043Y0297543D01*
X0561020Y0297558D01*
X0560988Y0297582D01*
X0560949Y0297613D01*
X0560902Y0297652D01*
X0560863Y0297699D01*
X0560816Y0297754D01*
X0560785Y0297816D01*
Y0297824D01*
X0560777Y0297855D01*
X0560762Y0297902D01*
X0560754Y0297980D01*
X0560738Y0298082D01*
X0560731Y0298136D01*
X0560723Y0298207D01*
Y0298285D01*
X0560715Y0298371D01*
Y0298464D01*
Y0298566D01*
Y0300706D01*
X0560246D01*
Y0301198D01*
X0560715D01*
Y0302112D01*
X0561347Y0302494D01*
Y0301198D01*
D02*
G37*
G36*
X0613284Y0302980D02*
X0612698D01*
Y0303441D01*
X0612690Y0303433D01*
X0612683Y0303418D01*
X0612659Y0303394D01*
X0612628Y0303355D01*
X0612597Y0303316D01*
X0612550Y0303269D01*
X0612495Y0303222D01*
X0612433Y0303168D01*
X0612362Y0303121D01*
X0612284Y0303066D01*
X0612198Y0303019D01*
X0612113Y0302980D01*
X0612011Y0302941D01*
X0611902Y0302918D01*
X0611785Y0302902D01*
X0611660Y0302894D01*
X0611613D01*
X0611582Y0302902D01*
X0611496Y0302910D01*
X0611394Y0302926D01*
X0611261Y0302957D01*
X0611129Y0302996D01*
X0610980Y0303058D01*
X0610840Y0303136D01*
X0610832D01*
X0610824Y0303144D01*
X0610777Y0303183D01*
X0610715Y0303238D01*
X0610629Y0303316D01*
X0610543Y0303410D01*
X0610441Y0303527D01*
X0610355Y0303660D01*
X0610269Y0303816D01*
Y0303824D01*
X0610262Y0303839D01*
X0610254Y0303863D01*
X0610238Y0303894D01*
X0610222Y0303933D01*
X0610207Y0303988D01*
X0610168Y0304113D01*
X0610129Y0304261D01*
X0610098Y0304433D01*
X0610074Y0304620D01*
X0610066Y0304831D01*
Y0304839D01*
Y0304855D01*
Y0304886D01*
Y0304925D01*
X0610074Y0304972D01*
Y0305034D01*
X0610090Y0305167D01*
X0610113Y0305323D01*
X0610144Y0305487D01*
X0610183Y0305667D01*
X0610246Y0305839D01*
Y0305847D01*
X0610254Y0305862D01*
X0610269Y0305886D01*
X0610285Y0305917D01*
X0610324Y0305995D01*
X0610387Y0306097D01*
X0610465Y0306214D01*
X0610558Y0306331D01*
X0610668Y0306440D01*
X0610801Y0306542D01*
X0610808D01*
X0610816Y0306550D01*
X0610863Y0306581D01*
X0610941Y0306620D01*
X0611043Y0306667D01*
X0611167Y0306706D01*
X0611308Y0306745D01*
X0611464Y0306776D01*
X0611628Y0306784D01*
X0611683D01*
X0611746Y0306776D01*
X0611831Y0306768D01*
X0611917Y0306745D01*
X0612019Y0306721D01*
X0612120Y0306682D01*
X0612222Y0306635D01*
X0612238Y0306628D01*
X0612269Y0306612D01*
X0612316Y0306581D01*
X0612378Y0306534D01*
X0612441Y0306487D01*
X0612519Y0306424D01*
X0612589Y0306346D01*
X0612651Y0306268D01*
Y0308112D01*
X0613284D01*
Y0302980D01*
D02*
G37*
G36*
X0602850Y0301276D02*
X0602912Y0301268D01*
X0602990Y0301260D01*
X0603069Y0301245D01*
X0603162Y0301221D01*
X0603350Y0301159D01*
X0603451Y0301120D01*
X0603553Y0301065D01*
X0603654Y0301010D01*
X0603756Y0300940D01*
X0603850Y0300862D01*
X0603943Y0300768D01*
X0603951Y0300761D01*
X0603967Y0300745D01*
X0603990Y0300714D01*
X0604021Y0300675D01*
X0604053Y0300620D01*
X0604092Y0300557D01*
X0604139Y0300487D01*
X0604185Y0300401D01*
X0604224Y0300300D01*
X0604271Y0300198D01*
X0604310Y0300081D01*
X0604349Y0299948D01*
X0604373Y0299816D01*
X0604396Y0299667D01*
X0604412Y0299511D01*
X0604420Y0299339D01*
Y0299331D01*
Y0299300D01*
Y0299245D01*
X0604412Y0299175D01*
X0601647D01*
Y0299167D01*
Y0299152D01*
X0601655Y0299113D01*
Y0299074D01*
X0601663Y0299019D01*
X0601671Y0298964D01*
X0601702Y0298824D01*
X0601749Y0298675D01*
X0601803Y0298519D01*
X0601889Y0298363D01*
X0601991Y0298230D01*
X0602006Y0298214D01*
X0602045Y0298183D01*
X0602116Y0298129D01*
X0602202Y0298074D01*
X0602319Y0298011D01*
X0602452Y0297957D01*
X0602600Y0297925D01*
X0602764Y0297910D01*
X0602826D01*
X0602889Y0297918D01*
X0602967Y0297933D01*
X0603061Y0297957D01*
X0603162Y0297988D01*
X0603264Y0298027D01*
X0603358Y0298090D01*
X0603365Y0298097D01*
X0603397Y0298129D01*
X0603443Y0298168D01*
X0603498Y0298238D01*
X0603561Y0298316D01*
X0603623Y0298417D01*
X0603686Y0298542D01*
X0603748Y0298683D01*
X0604396Y0298597D01*
Y0298589D01*
X0604389Y0298574D01*
X0604381Y0298542D01*
X0604365Y0298503D01*
X0604349Y0298457D01*
X0604326Y0298402D01*
X0604263Y0298269D01*
X0604185Y0298129D01*
X0604092Y0297980D01*
X0603967Y0297832D01*
X0603826Y0297707D01*
X0603818D01*
X0603811Y0297691D01*
X0603787Y0297676D01*
X0603748Y0297660D01*
X0603709Y0297637D01*
X0603662Y0297605D01*
X0603608Y0297582D01*
X0603537Y0297551D01*
X0603389Y0297496D01*
X0603201Y0297441D01*
X0602998Y0297410D01*
X0602764Y0297394D01*
X0602686D01*
X0602631Y0297402D01*
X0602561Y0297410D01*
X0602483Y0297418D01*
X0602397Y0297433D01*
X0602295Y0297457D01*
X0602092Y0297519D01*
X0601983Y0297558D01*
X0601882Y0297605D01*
X0601772Y0297660D01*
X0601671Y0297730D01*
X0601569Y0297808D01*
X0601475Y0297894D01*
X0601468Y0297902D01*
X0601452Y0297918D01*
X0601429Y0297949D01*
X0601405Y0297988D01*
X0601366Y0298035D01*
X0601327Y0298097D01*
X0601280Y0298175D01*
X0601241Y0298261D01*
X0601194Y0298355D01*
X0601147Y0298457D01*
X0601108Y0298574D01*
X0601077Y0298699D01*
X0601046Y0298831D01*
X0601022Y0298980D01*
X0601007Y0299136D01*
X0600999Y0299300D01*
Y0299308D01*
Y0299339D01*
Y0299394D01*
X0601007Y0299456D01*
X0601015Y0299534D01*
X0601022Y0299628D01*
X0601038Y0299730D01*
X0601061Y0299839D01*
X0601116Y0300073D01*
X0601155Y0300190D01*
X0601202Y0300315D01*
X0601257Y0300432D01*
X0601319Y0300550D01*
X0601389Y0300659D01*
X0601475Y0300761D01*
X0601483Y0300768D01*
X0601499Y0300784D01*
X0601522Y0300807D01*
X0601561Y0300846D01*
X0601608Y0300886D01*
X0601671Y0300924D01*
X0601733Y0300971D01*
X0601811Y0301026D01*
X0601897Y0301073D01*
X0601991Y0301120D01*
X0602092Y0301159D01*
X0602210Y0301206D01*
X0602327Y0301237D01*
X0602452Y0301260D01*
X0602584Y0301276D01*
X0602725Y0301284D01*
X0602795D01*
X0602850Y0301276D01*
D02*
G37*
G36*
X0566658Y0305144D02*
Y0305136D01*
Y0305112D01*
Y0305073D01*
Y0305019D01*
X0566650Y0304948D01*
Y0304878D01*
X0566643Y0304792D01*
X0566635Y0304698D01*
X0566611Y0304503D01*
X0566580Y0304300D01*
X0566541Y0304097D01*
X0566479Y0303918D01*
Y0303910D01*
X0566471Y0303894D01*
X0566463Y0303871D01*
X0566447Y0303839D01*
X0566401Y0303761D01*
X0566338Y0303652D01*
X0566252Y0303535D01*
X0566143Y0303410D01*
X0566002Y0303293D01*
X0565846Y0303176D01*
X0565838D01*
X0565823Y0303160D01*
X0565799Y0303152D01*
X0565760Y0303129D01*
X0565721Y0303113D01*
X0565666Y0303090D01*
X0565596Y0303058D01*
X0565526Y0303035D01*
X0565448Y0303011D01*
X0565354Y0302980D01*
X0565260Y0302957D01*
X0565151Y0302941D01*
X0564917Y0302910D01*
X0564651Y0302894D01*
X0564581D01*
X0564534Y0302902D01*
X0564472D01*
X0564401Y0302910D01*
X0564323Y0302918D01*
X0564237Y0302926D01*
X0564050Y0302957D01*
X0563855Y0302996D01*
X0563652Y0303058D01*
X0563472Y0303136D01*
X0563464D01*
X0563448Y0303152D01*
X0563433Y0303160D01*
X0563402Y0303183D01*
X0563316Y0303238D01*
X0563222Y0303324D01*
X0563113Y0303426D01*
X0563011Y0303543D01*
X0562910Y0303691D01*
X0562824Y0303855D01*
Y0303863D01*
X0562816Y0303878D01*
X0562808Y0303902D01*
X0562792Y0303941D01*
X0562777Y0303988D01*
X0562761Y0304050D01*
X0562746Y0304121D01*
X0562730Y0304199D01*
X0562707Y0304285D01*
X0562691Y0304378D01*
X0562675Y0304488D01*
X0562660Y0304597D01*
X0562644Y0304722D01*
X0562636Y0304855D01*
X0562628Y0304995D01*
Y0305144D01*
Y0308112D01*
X0563308D01*
Y0305144D01*
Y0305136D01*
Y0305112D01*
Y0305081D01*
Y0305034D01*
Y0304980D01*
X0563316Y0304917D01*
X0563323Y0304769D01*
X0563339Y0304613D01*
X0563355Y0304449D01*
X0563386Y0304292D01*
X0563402Y0304222D01*
X0563425Y0304160D01*
X0563433Y0304144D01*
X0563448Y0304105D01*
X0563480Y0304050D01*
X0563526Y0303980D01*
X0563581Y0303902D01*
X0563659Y0303816D01*
X0563745Y0303738D01*
X0563855Y0303668D01*
X0563870Y0303660D01*
X0563909Y0303644D01*
X0563972Y0303613D01*
X0564058Y0303590D01*
X0564167Y0303558D01*
X0564292Y0303527D01*
X0564432Y0303511D01*
X0564589Y0303504D01*
X0564659D01*
X0564714Y0303511D01*
X0564776D01*
X0564846Y0303519D01*
X0565003Y0303543D01*
X0565182Y0303590D01*
X0565354Y0303644D01*
X0565518Y0303730D01*
X0565596Y0303777D01*
X0565659Y0303839D01*
Y0303847D01*
X0565674Y0303855D01*
X0565690Y0303878D01*
X0565705Y0303910D01*
X0565737Y0303949D01*
X0565760Y0303996D01*
X0565791Y0304058D01*
X0565823Y0304128D01*
X0565846Y0304214D01*
X0565877Y0304308D01*
X0565909Y0304410D01*
X0565932Y0304535D01*
X0565948Y0304667D01*
X0565963Y0304808D01*
X0565979Y0304972D01*
Y0305144D01*
Y0308112D01*
X0566658D01*
Y0305144D01*
D02*
G37*
G36*
X0607942Y0306776D02*
X0608012Y0306768D01*
X0608083Y0306760D01*
X0608169Y0306745D01*
X0608262Y0306721D01*
X0608458Y0306659D01*
X0608559Y0306620D01*
X0608668Y0306573D01*
X0608770Y0306510D01*
X0608871Y0306440D01*
X0608973Y0306362D01*
X0609067Y0306276D01*
X0609074Y0306268D01*
X0609090Y0306253D01*
X0609114Y0306222D01*
X0609145Y0306182D01*
X0609184Y0306136D01*
X0609223Y0306073D01*
X0609270Y0305995D01*
X0609317Y0305917D01*
X0609356Y0305823D01*
X0609403Y0305714D01*
X0609442Y0305605D01*
X0609481Y0305480D01*
X0609512Y0305347D01*
X0609535Y0305198D01*
X0609551Y0305050D01*
X0609559Y0304886D01*
Y0304878D01*
Y0304855D01*
Y0304816D01*
Y0304769D01*
X0609551Y0304706D01*
Y0304636D01*
X0609543Y0304558D01*
X0609535Y0304472D01*
X0609504Y0304292D01*
X0609465Y0304105D01*
X0609410Y0303918D01*
X0609340Y0303753D01*
Y0303746D01*
X0609332Y0303738D01*
X0609301Y0303683D01*
X0609246Y0303613D01*
X0609176Y0303519D01*
X0609090Y0303418D01*
X0608981Y0303316D01*
X0608856Y0303215D01*
X0608707Y0303121D01*
X0608700D01*
X0608692Y0303113D01*
X0608668Y0303098D01*
X0608637Y0303090D01*
X0608551Y0303051D01*
X0608442Y0303011D01*
X0608309Y0302965D01*
X0608161Y0302933D01*
X0607997Y0302902D01*
X0607817Y0302894D01*
X0607739D01*
X0607684Y0302902D01*
X0607622Y0302910D01*
X0607544Y0302918D01*
X0607458Y0302933D01*
X0607364Y0302957D01*
X0607169Y0303019D01*
X0607059Y0303058D01*
X0606958Y0303105D01*
X0606849Y0303160D01*
X0606747Y0303230D01*
X0606646Y0303308D01*
X0606552Y0303394D01*
X0606544Y0303402D01*
X0606528Y0303418D01*
X0606505Y0303449D01*
X0606482Y0303488D01*
X0606442Y0303543D01*
X0606403Y0303605D01*
X0606357Y0303675D01*
X0606318Y0303761D01*
X0606271Y0303863D01*
X0606224Y0303964D01*
X0606185Y0304089D01*
X0606153Y0304214D01*
X0606122Y0304355D01*
X0606099Y0304503D01*
X0606083Y0304667D01*
X0606075Y0304839D01*
Y0304855D01*
Y0304886D01*
X0606083Y0304941D01*
Y0305011D01*
X0606091Y0305097D01*
X0606107Y0305190D01*
X0606122Y0305300D01*
X0606146Y0305417D01*
X0606177Y0305542D01*
X0606216Y0305667D01*
X0606263Y0305792D01*
X0606318Y0305917D01*
X0606380Y0306042D01*
X0606458Y0306159D01*
X0606544Y0306268D01*
X0606646Y0306370D01*
X0606653Y0306378D01*
X0606669Y0306385D01*
X0606692Y0306409D01*
X0606732Y0306432D01*
X0606778Y0306464D01*
X0606833Y0306503D01*
X0606895Y0306542D01*
X0606974Y0306581D01*
X0607052Y0306612D01*
X0607138Y0306651D01*
X0607341Y0306721D01*
X0607567Y0306768D01*
X0607692Y0306776D01*
X0607817Y0306784D01*
X0607887D01*
X0607942Y0306776D01*
D02*
G37*
G36*
X0621500D02*
X0621563Y0306768D01*
X0621641Y0306760D01*
X0621719Y0306745D01*
X0621813Y0306721D01*
X0622000Y0306659D01*
X0622101Y0306620D01*
X0622203Y0306565D01*
X0622305Y0306510D01*
X0622406Y0306440D01*
X0622500Y0306362D01*
X0622594Y0306268D01*
X0622601Y0306260D01*
X0622617Y0306245D01*
X0622640Y0306214D01*
X0622672Y0306175D01*
X0622703Y0306120D01*
X0622742Y0306058D01*
X0622789Y0305987D01*
X0622836Y0305901D01*
X0622875Y0305800D01*
X0622922Y0305698D01*
X0622961Y0305581D01*
X0623000Y0305448D01*
X0623023Y0305315D01*
X0623047Y0305167D01*
X0623062Y0305011D01*
X0623070Y0304839D01*
Y0304831D01*
Y0304800D01*
Y0304745D01*
X0623062Y0304675D01*
X0620297D01*
Y0304667D01*
Y0304652D01*
X0620305Y0304613D01*
Y0304573D01*
X0620313Y0304519D01*
X0620321Y0304464D01*
X0620352Y0304324D01*
X0620399Y0304175D01*
X0620454Y0304019D01*
X0620540Y0303863D01*
X0620641Y0303730D01*
X0620657Y0303714D01*
X0620696Y0303683D01*
X0620766Y0303628D01*
X0620852Y0303574D01*
X0620969Y0303511D01*
X0621102Y0303457D01*
X0621250Y0303426D01*
X0621414Y0303410D01*
X0621477D01*
X0621539Y0303418D01*
X0621617Y0303433D01*
X0621711Y0303457D01*
X0621813Y0303488D01*
X0621914Y0303527D01*
X0622008Y0303590D01*
X0622016Y0303597D01*
X0622047Y0303628D01*
X0622094Y0303668D01*
X0622148Y0303738D01*
X0622211Y0303816D01*
X0622273Y0303918D01*
X0622336Y0304043D01*
X0622398Y0304183D01*
X0623047Y0304097D01*
Y0304089D01*
X0623039Y0304074D01*
X0623031Y0304043D01*
X0623015Y0304003D01*
X0623000Y0303957D01*
X0622976Y0303902D01*
X0622914Y0303769D01*
X0622836Y0303628D01*
X0622742Y0303480D01*
X0622617Y0303332D01*
X0622476Y0303207D01*
X0622469D01*
X0622461Y0303191D01*
X0622437Y0303176D01*
X0622398Y0303160D01*
X0622359Y0303136D01*
X0622312Y0303105D01*
X0622258Y0303082D01*
X0622187Y0303051D01*
X0622039Y0302996D01*
X0621852Y0302941D01*
X0621649Y0302910D01*
X0621414Y0302894D01*
X0621336D01*
X0621281Y0302902D01*
X0621211Y0302910D01*
X0621133Y0302918D01*
X0621047Y0302933D01*
X0620946Y0302957D01*
X0620743Y0303019D01*
X0620633Y0303058D01*
X0620532Y0303105D01*
X0620422Y0303160D01*
X0620321Y0303230D01*
X0620219Y0303308D01*
X0620126Y0303394D01*
X0620118Y0303402D01*
X0620102Y0303418D01*
X0620079Y0303449D01*
X0620055Y0303488D01*
X0620016Y0303535D01*
X0619977Y0303597D01*
X0619930Y0303675D01*
X0619891Y0303761D01*
X0619844Y0303855D01*
X0619798Y0303957D01*
X0619759Y0304074D01*
X0619727Y0304199D01*
X0619696Y0304331D01*
X0619673Y0304480D01*
X0619657Y0304636D01*
X0619649Y0304800D01*
Y0304808D01*
Y0304839D01*
Y0304894D01*
X0619657Y0304956D01*
X0619665Y0305034D01*
X0619673Y0305128D01*
X0619688Y0305230D01*
X0619712Y0305339D01*
X0619766Y0305573D01*
X0619805Y0305690D01*
X0619852Y0305815D01*
X0619907Y0305932D01*
X0619969Y0306050D01*
X0620040Y0306159D01*
X0620126Y0306260D01*
X0620133Y0306268D01*
X0620149Y0306284D01*
X0620173Y0306307D01*
X0620212Y0306346D01*
X0620258Y0306385D01*
X0620321Y0306424D01*
X0620383Y0306471D01*
X0620461Y0306526D01*
X0620547Y0306573D01*
X0620641Y0306620D01*
X0620743Y0306659D01*
X0620860Y0306706D01*
X0620977Y0306737D01*
X0621102Y0306760D01*
X0621235Y0306776D01*
X0621375Y0306784D01*
X0621446D01*
X0621500Y0306776D01*
D02*
G37*
G36*
X0593634D02*
X0593697Y0306768D01*
X0593775Y0306760D01*
X0593853Y0306745D01*
X0593947Y0306721D01*
X0594134Y0306659D01*
X0594236Y0306620D01*
X0594337Y0306565D01*
X0594439Y0306510D01*
X0594540Y0306440D01*
X0594634Y0306362D01*
X0594728Y0306268D01*
X0594735Y0306260D01*
X0594751Y0306245D01*
X0594774Y0306214D01*
X0594806Y0306175D01*
X0594837Y0306120D01*
X0594876Y0306058D01*
X0594923Y0305987D01*
X0594970Y0305901D01*
X0595009Y0305800D01*
X0595055Y0305698D01*
X0595095Y0305581D01*
X0595134Y0305448D01*
X0595157Y0305315D01*
X0595181Y0305167D01*
X0595196Y0305011D01*
X0595204Y0304839D01*
Y0304831D01*
Y0304800D01*
Y0304745D01*
X0595196Y0304675D01*
X0592431D01*
Y0304667D01*
Y0304652D01*
X0592439Y0304613D01*
Y0304573D01*
X0592447Y0304519D01*
X0592455Y0304464D01*
X0592486Y0304324D01*
X0592533Y0304175D01*
X0592588Y0304019D01*
X0592673Y0303863D01*
X0592775Y0303730D01*
X0592791Y0303714D01*
X0592830Y0303683D01*
X0592900Y0303628D01*
X0592986Y0303574D01*
X0593103Y0303511D01*
X0593236Y0303457D01*
X0593384Y0303426D01*
X0593548Y0303410D01*
X0593611D01*
X0593673Y0303418D01*
X0593751Y0303433D01*
X0593845Y0303457D01*
X0593947Y0303488D01*
X0594048Y0303527D01*
X0594142Y0303590D01*
X0594149Y0303597D01*
X0594181Y0303628D01*
X0594228Y0303668D01*
X0594282Y0303738D01*
X0594345Y0303816D01*
X0594407Y0303918D01*
X0594470Y0304043D01*
X0594532Y0304183D01*
X0595181Y0304097D01*
Y0304089D01*
X0595173Y0304074D01*
X0595165Y0304043D01*
X0595149Y0304003D01*
X0595134Y0303957D01*
X0595110Y0303902D01*
X0595048Y0303769D01*
X0594970Y0303628D01*
X0594876Y0303480D01*
X0594751Y0303332D01*
X0594610Y0303207D01*
X0594602D01*
X0594595Y0303191D01*
X0594571Y0303176D01*
X0594532Y0303160D01*
X0594493Y0303136D01*
X0594446Y0303105D01*
X0594392Y0303082D01*
X0594321Y0303051D01*
X0594173Y0302996D01*
X0593986Y0302941D01*
X0593783Y0302910D01*
X0593548Y0302894D01*
X0593470D01*
X0593415Y0302902D01*
X0593345Y0302910D01*
X0593267Y0302918D01*
X0593181Y0302933D01*
X0593080Y0302957D01*
X0592876Y0303019D01*
X0592767Y0303058D01*
X0592666Y0303105D01*
X0592556Y0303160D01*
X0592455Y0303230D01*
X0592353Y0303308D01*
X0592260Y0303394D01*
X0592252Y0303402D01*
X0592236Y0303418D01*
X0592213Y0303449D01*
X0592189Y0303488D01*
X0592150Y0303535D01*
X0592111Y0303597D01*
X0592064Y0303675D01*
X0592025Y0303761D01*
X0591978Y0303855D01*
X0591931Y0303957D01*
X0591892Y0304074D01*
X0591861Y0304199D01*
X0591830Y0304331D01*
X0591807Y0304480D01*
X0591791Y0304636D01*
X0591783Y0304800D01*
Y0304808D01*
Y0304839D01*
Y0304894D01*
X0591791Y0304956D01*
X0591799Y0305034D01*
X0591807Y0305128D01*
X0591822Y0305230D01*
X0591846Y0305339D01*
X0591900Y0305573D01*
X0591939Y0305690D01*
X0591986Y0305815D01*
X0592041Y0305932D01*
X0592103Y0306050D01*
X0592174Y0306159D01*
X0592260Y0306260D01*
X0592267Y0306268D01*
X0592283Y0306284D01*
X0592306Y0306307D01*
X0592345Y0306346D01*
X0592392Y0306385D01*
X0592455Y0306424D01*
X0592517Y0306471D01*
X0592595Y0306526D01*
X0592681Y0306573D01*
X0592775Y0306620D01*
X0592876Y0306659D01*
X0592994Y0306706D01*
X0593111Y0306737D01*
X0593236Y0306760D01*
X0593368Y0306776D01*
X0593509Y0306784D01*
X0593579D01*
X0593634Y0306776D01*
D02*
G37*
G36*
X0554240Y0308190D02*
X0554303D01*
X0554381Y0308182D01*
X0554459Y0308166D01*
X0554553Y0308158D01*
X0554748Y0308112D01*
X0554967Y0308049D01*
X0555186Y0307971D01*
X0555295Y0307916D01*
X0555404Y0307854D01*
X0555412D01*
X0555428Y0307838D01*
X0555459Y0307822D01*
X0555498Y0307791D01*
X0555545Y0307760D01*
X0555599Y0307713D01*
X0555724Y0307612D01*
X0555865Y0307479D01*
X0556013Y0307315D01*
X0556146Y0307127D01*
X0556271Y0306909D01*
Y0306901D01*
X0556287Y0306877D01*
X0556302Y0306846D01*
X0556318Y0306799D01*
X0556341Y0306745D01*
X0556365Y0306674D01*
X0556396Y0306596D01*
X0556427Y0306510D01*
X0556451Y0306409D01*
X0556482Y0306307D01*
X0556529Y0306073D01*
X0556560Y0305815D01*
X0556576Y0305534D01*
Y0305526D01*
Y0305503D01*
Y0305456D01*
X0556568Y0305401D01*
Y0305331D01*
X0556560Y0305253D01*
X0556552Y0305167D01*
X0556537Y0305066D01*
X0556497Y0304847D01*
X0556443Y0304613D01*
X0556365Y0304370D01*
X0556255Y0304136D01*
Y0304128D01*
X0556240Y0304113D01*
X0556224Y0304082D01*
X0556201Y0304035D01*
X0556162Y0303988D01*
X0556123Y0303925D01*
X0556029Y0303793D01*
X0555904Y0303644D01*
X0555748Y0303488D01*
X0555568Y0303340D01*
X0555365Y0303207D01*
X0555357D01*
X0555342Y0303191D01*
X0555310Y0303176D01*
X0555264Y0303160D01*
X0555209Y0303136D01*
X0555146Y0303105D01*
X0555076Y0303082D01*
X0554990Y0303051D01*
X0554811Y0302996D01*
X0554600Y0302941D01*
X0554365Y0302910D01*
X0554123Y0302894D01*
X0554053D01*
X0553998Y0302902D01*
X0553936D01*
X0553866Y0302910D01*
X0553780Y0302926D01*
X0553686Y0302941D01*
X0553491Y0302980D01*
X0553272Y0303043D01*
X0553046Y0303129D01*
X0552936Y0303176D01*
X0552827Y0303238D01*
X0552819Y0303246D01*
X0552803Y0303254D01*
X0552772Y0303277D01*
X0552733Y0303300D01*
X0552686Y0303340D01*
X0552632Y0303379D01*
X0552507Y0303488D01*
X0552366Y0303628D01*
X0552218Y0303785D01*
X0552085Y0303980D01*
X0551960Y0304191D01*
Y0304199D01*
X0551944Y0304222D01*
X0551936Y0304253D01*
X0551913Y0304300D01*
X0551890Y0304355D01*
X0551866Y0304417D01*
X0551843Y0304495D01*
X0551819Y0304581D01*
X0551788Y0304675D01*
X0551765Y0304769D01*
X0551718Y0304988D01*
X0551687Y0305222D01*
X0551671Y0305472D01*
Y0305487D01*
Y0305526D01*
X0551679Y0305597D01*
Y0305683D01*
X0551694Y0305792D01*
X0551710Y0305917D01*
X0551726Y0306050D01*
X0551757Y0306206D01*
X0551796Y0306362D01*
X0551835Y0306526D01*
X0551890Y0306690D01*
X0551960Y0306854D01*
X0552038Y0307018D01*
X0552124Y0307182D01*
X0552233Y0307330D01*
X0552350Y0307471D01*
X0552358Y0307479D01*
X0552382Y0307502D01*
X0552421Y0307541D01*
X0552475Y0307588D01*
X0552546Y0307643D01*
X0552624Y0307698D01*
X0552717Y0307768D01*
X0552827Y0307838D01*
X0552952Y0307901D01*
X0553085Y0307971D01*
X0553233Y0308026D01*
X0553389Y0308088D01*
X0553553Y0308127D01*
X0553733Y0308166D01*
X0553928Y0308190D01*
X0554123Y0308197D01*
X0554194D01*
X0554240Y0308190D01*
D02*
G37*
G36*
X0584465Y0306776D02*
X0584535Y0306768D01*
X0584606Y0306760D01*
X0584692Y0306745D01*
X0584785Y0306721D01*
X0584981Y0306659D01*
X0585082Y0306620D01*
X0585191Y0306573D01*
X0585293Y0306510D01*
X0585394Y0306440D01*
X0585496Y0306362D01*
X0585590Y0306276D01*
X0585598Y0306268D01*
X0585613Y0306253D01*
X0585637Y0306222D01*
X0585668Y0306182D01*
X0585707Y0306136D01*
X0585746Y0306073D01*
X0585793Y0305995D01*
X0585840Y0305917D01*
X0585879Y0305823D01*
X0585926Y0305714D01*
X0585965Y0305605D01*
X0586004Y0305480D01*
X0586035Y0305347D01*
X0586058Y0305198D01*
X0586074Y0305050D01*
X0586082Y0304886D01*
Y0304878D01*
Y0304855D01*
Y0304816D01*
Y0304769D01*
X0586074Y0304706D01*
Y0304636D01*
X0586066Y0304558D01*
X0586058Y0304472D01*
X0586027Y0304292D01*
X0585988Y0304105D01*
X0585933Y0303918D01*
X0585863Y0303753D01*
Y0303746D01*
X0585855Y0303738D01*
X0585824Y0303683D01*
X0585769Y0303613D01*
X0585699Y0303519D01*
X0585613Y0303418D01*
X0585504Y0303316D01*
X0585379Y0303215D01*
X0585230Y0303121D01*
X0585223D01*
X0585215Y0303113D01*
X0585191Y0303098D01*
X0585160Y0303090D01*
X0585074Y0303051D01*
X0584965Y0303011D01*
X0584832Y0302965D01*
X0584684Y0302933D01*
X0584520Y0302902D01*
X0584340Y0302894D01*
X0584262D01*
X0584207Y0302902D01*
X0584145Y0302910D01*
X0584067Y0302918D01*
X0583981Y0302933D01*
X0583887Y0302957D01*
X0583692Y0303019D01*
X0583583Y0303058D01*
X0583481Y0303105D01*
X0583372Y0303160D01*
X0583270Y0303230D01*
X0583169Y0303308D01*
X0583075Y0303394D01*
X0583067Y0303402D01*
X0583051Y0303418D01*
X0583028Y0303449D01*
X0583005Y0303488D01*
X0582966Y0303543D01*
X0582927Y0303605D01*
X0582880Y0303675D01*
X0582841Y0303761D01*
X0582794Y0303863D01*
X0582747Y0303964D01*
X0582708Y0304089D01*
X0582677Y0304214D01*
X0582645Y0304355D01*
X0582622Y0304503D01*
X0582606Y0304667D01*
X0582599Y0304839D01*
Y0304855D01*
Y0304886D01*
X0582606Y0304941D01*
Y0305011D01*
X0582614Y0305097D01*
X0582630Y0305190D01*
X0582645Y0305300D01*
X0582669Y0305417D01*
X0582700Y0305542D01*
X0582739Y0305667D01*
X0582786Y0305792D01*
X0582841Y0305917D01*
X0582903Y0306042D01*
X0582981Y0306159D01*
X0583067Y0306268D01*
X0583169Y0306370D01*
X0583177Y0306378D01*
X0583192Y0306385D01*
X0583216Y0306409D01*
X0583255Y0306432D01*
X0583301Y0306464D01*
X0583356Y0306503D01*
X0583419Y0306542D01*
X0583497Y0306581D01*
X0583575Y0306612D01*
X0583661Y0306651D01*
X0583864Y0306721D01*
X0584090Y0306768D01*
X0584215Y0306776D01*
X0584340Y0306784D01*
X0584410D01*
X0584465Y0306776D01*
D02*
G37*
G36*
X0618884Y0302980D02*
X0618251D01*
Y0308112D01*
X0618884D01*
Y0302980D01*
D02*
G37*
G36*
X0617275D02*
X0616713D01*
Y0303519D01*
X0616705Y0303511D01*
X0616689Y0303496D01*
X0616666Y0303465D01*
X0616635Y0303426D01*
X0616588Y0303371D01*
X0616533Y0303324D01*
X0616470Y0303261D01*
X0616400Y0303207D01*
X0616322Y0303152D01*
X0616236Y0303090D01*
X0616135Y0303043D01*
X0616033Y0302996D01*
X0615916Y0302949D01*
X0615799Y0302918D01*
X0615666Y0302902D01*
X0615533Y0302894D01*
X0615479D01*
X0615416Y0302902D01*
X0615330Y0302910D01*
X0615237Y0302926D01*
X0615135Y0302949D01*
X0615026Y0302980D01*
X0614916Y0303019D01*
X0614901Y0303027D01*
X0614869Y0303043D01*
X0614823Y0303066D01*
X0614760Y0303105D01*
X0614690Y0303152D01*
X0614620Y0303207D01*
X0614557Y0303261D01*
X0614495Y0303332D01*
X0614487Y0303340D01*
X0614471Y0303363D01*
X0614448Y0303410D01*
X0614424Y0303465D01*
X0614385Y0303535D01*
X0614354Y0303613D01*
X0614323Y0303699D01*
X0614299Y0303800D01*
Y0303808D01*
X0614291Y0303839D01*
Y0303878D01*
X0614284Y0303941D01*
X0614276Y0304027D01*
Y0304128D01*
X0614268Y0304245D01*
Y0304386D01*
Y0306698D01*
X0614901D01*
Y0304628D01*
Y0304620D01*
Y0304605D01*
Y0304581D01*
Y0304550D01*
Y0304464D01*
X0614909Y0304363D01*
Y0304253D01*
X0614916Y0304144D01*
X0614924Y0304043D01*
X0614932Y0303964D01*
Y0303957D01*
X0614948Y0303925D01*
X0614963Y0303878D01*
X0614987Y0303824D01*
X0615018Y0303761D01*
X0615065Y0303691D01*
X0615119Y0303628D01*
X0615182Y0303574D01*
X0615190Y0303566D01*
X0615221Y0303550D01*
X0615260Y0303527D01*
X0615315Y0303504D01*
X0615385Y0303480D01*
X0615463Y0303457D01*
X0615557Y0303441D01*
X0615658Y0303433D01*
X0615705D01*
X0615760Y0303441D01*
X0615830Y0303449D01*
X0615908Y0303465D01*
X0615994Y0303496D01*
X0616088Y0303527D01*
X0616182Y0303574D01*
X0616189Y0303582D01*
X0616221Y0303605D01*
X0616267Y0303636D01*
X0616322Y0303683D01*
X0616377Y0303738D01*
X0616439Y0303808D01*
X0616486Y0303886D01*
X0616533Y0303972D01*
X0616541Y0303988D01*
X0616549Y0304019D01*
X0616564Y0304074D01*
X0616588Y0304160D01*
X0616611Y0304261D01*
X0616627Y0304386D01*
X0616635Y0304535D01*
X0616642Y0304698D01*
Y0306698D01*
X0617275D01*
Y0302980D01*
D02*
G37*
G36*
X0576390D02*
X0575624D01*
X0575031Y0304535D01*
X0572875D01*
X0572321Y0302980D01*
X0571602D01*
X0573562Y0308112D01*
X0574304D01*
X0576390Y0302980D01*
D02*
G37*
G36*
X0559903Y0308104D02*
X0559965D01*
X0560121Y0308096D01*
X0560285Y0308080D01*
X0560457Y0308049D01*
X0560621Y0308018D01*
X0560699Y0307994D01*
X0560770Y0307971D01*
X0560777D01*
X0560785Y0307963D01*
X0560832Y0307947D01*
X0560895Y0307908D01*
X0560973Y0307854D01*
X0561066Y0307791D01*
X0561160Y0307705D01*
X0561254Y0307604D01*
X0561340Y0307479D01*
X0561347Y0307463D01*
X0561371Y0307416D01*
X0561410Y0307346D01*
X0561449Y0307252D01*
X0561488Y0307135D01*
X0561527Y0307002D01*
X0561551Y0306862D01*
X0561558Y0306706D01*
Y0306698D01*
Y0306682D01*
Y0306651D01*
X0561551Y0306612D01*
Y0306565D01*
X0561543Y0306510D01*
X0561512Y0306385D01*
X0561473Y0306237D01*
X0561410Y0306089D01*
X0561316Y0305932D01*
X0561262Y0305854D01*
X0561199Y0305784D01*
X0561184Y0305768D01*
X0561160Y0305753D01*
X0561137Y0305722D01*
X0561098Y0305698D01*
X0561051Y0305659D01*
X0560996Y0305628D01*
X0560934Y0305589D01*
X0560863Y0305550D01*
X0560777Y0305511D01*
X0560691Y0305472D01*
X0560590Y0305433D01*
X0560489Y0305394D01*
X0560371Y0305362D01*
X0560246Y0305339D01*
X0560114Y0305315D01*
X0560129Y0305308D01*
X0560160Y0305292D01*
X0560207Y0305269D01*
X0560262Y0305237D01*
X0560395Y0305152D01*
X0560465Y0305105D01*
X0560520Y0305058D01*
X0560535Y0305042D01*
X0560574Y0305011D01*
X0560629Y0304948D01*
X0560699Y0304870D01*
X0560785Y0304769D01*
X0560879Y0304652D01*
X0560981Y0304519D01*
X0561082Y0304370D01*
X0561972Y0302980D01*
X0561121D01*
X0560442Y0304043D01*
Y0304050D01*
X0560426Y0304066D01*
X0560410Y0304089D01*
X0560395Y0304121D01*
X0560340Y0304199D01*
X0560270Y0304300D01*
X0560192Y0304417D01*
X0560106Y0304535D01*
X0560028Y0304644D01*
X0559950Y0304745D01*
X0559942Y0304753D01*
X0559918Y0304784D01*
X0559879Y0304831D01*
X0559840Y0304886D01*
X0559723Y0304995D01*
X0559668Y0305050D01*
X0559606Y0305089D01*
X0559598Y0305097D01*
X0559583Y0305105D01*
X0559551Y0305120D01*
X0559512Y0305144D01*
X0559418Y0305190D01*
X0559301Y0305230D01*
X0559294D01*
X0559278Y0305237D01*
X0559247D01*
X0559208Y0305245D01*
X0559153Y0305253D01*
X0559091D01*
X0559012Y0305261D01*
X0558138D01*
Y0302980D01*
X0557458D01*
Y0308112D01*
X0559840D01*
X0559903Y0308104D01*
D02*
G37*
G36*
X0571344Y0307510D02*
X0568463Y0303949D01*
X0568150Y0303582D01*
X0571430D01*
Y0302980D01*
X0567377D01*
Y0303605D01*
X0569993Y0306893D01*
Y0306901D01*
X0570009Y0306909D01*
X0570040Y0306956D01*
X0570095Y0307018D01*
X0570165Y0307104D01*
X0570251Y0307198D01*
X0570337Y0307299D01*
X0570438Y0307409D01*
X0570532Y0307510D01*
X0567674D01*
Y0308112D01*
X0571344D01*
Y0307510D01*
D02*
G37*
G36*
X0579998Y0297480D02*
X0579350D01*
X0578764Y0299698D01*
X0578616Y0300339D01*
X0577858Y0297480D01*
X0577186D01*
X0576069Y0301198D01*
X0576733D01*
X0577319Y0299050D01*
X0577530Y0298253D01*
Y0298261D01*
X0577538Y0298277D01*
X0577545Y0298308D01*
X0577553Y0298332D01*
X0577561Y0298371D01*
X0577569Y0298410D01*
X0577585Y0298464D01*
X0577600Y0298527D01*
X0577616Y0298597D01*
X0577639Y0298683D01*
X0577663Y0298785D01*
X0577694Y0298894D01*
X0577725Y0299019D01*
X0578319Y0301198D01*
X0578959D01*
X0579521Y0299035D01*
X0579701Y0298324D01*
X0579912Y0299042D01*
X0580560Y0301198D01*
X0581169D01*
X0579998Y0297480D01*
D02*
G37*
G36*
X0558395Y0301276D02*
X0558497Y0301268D01*
X0558622Y0301253D01*
X0558747Y0301229D01*
X0558880Y0301198D01*
X0559005Y0301151D01*
X0559012D01*
X0559020Y0301143D01*
X0559059Y0301128D01*
X0559122Y0301096D01*
X0559192Y0301065D01*
X0559270Y0301010D01*
X0559356Y0300956D01*
X0559434Y0300886D01*
X0559497Y0300807D01*
X0559504Y0300800D01*
X0559520Y0300768D01*
X0559551Y0300722D01*
X0559590Y0300659D01*
X0559621Y0300581D01*
X0559661Y0300479D01*
X0559692Y0300370D01*
X0559723Y0300245D01*
X0559106Y0300159D01*
Y0300175D01*
X0559098Y0300206D01*
X0559083Y0300261D01*
X0559059Y0300323D01*
X0559028Y0300393D01*
X0558981Y0300464D01*
X0558926Y0300542D01*
X0558856Y0300604D01*
X0558848Y0300612D01*
X0558817Y0300628D01*
X0558770Y0300659D01*
X0558708Y0300690D01*
X0558630Y0300714D01*
X0558528Y0300745D01*
X0558419Y0300761D01*
X0558286Y0300768D01*
X0558216D01*
X0558138Y0300761D01*
X0558044Y0300753D01*
X0557942Y0300729D01*
X0557841Y0300706D01*
X0557739Y0300667D01*
X0557661Y0300620D01*
X0557653Y0300612D01*
X0557630Y0300596D01*
X0557607Y0300565D01*
X0557575Y0300526D01*
X0557536Y0300479D01*
X0557513Y0300417D01*
X0557489Y0300354D01*
X0557482Y0300284D01*
Y0300276D01*
Y0300261D01*
X0557489Y0300237D01*
Y0300206D01*
X0557513Y0300136D01*
X0557552Y0300058D01*
X0557560Y0300050D01*
X0557568Y0300042D01*
X0557614Y0300003D01*
X0557646Y0299972D01*
X0557685Y0299948D01*
X0557739Y0299917D01*
X0557794Y0299894D01*
X0557802D01*
X0557817Y0299886D01*
X0557849Y0299878D01*
X0557903Y0299862D01*
X0557974Y0299839D01*
X0558075Y0299808D01*
X0558200Y0299777D01*
X0558270Y0299753D01*
X0558356Y0299730D01*
X0558364D01*
X0558388Y0299722D01*
X0558419Y0299714D01*
X0558466Y0299698D01*
X0558520Y0299683D01*
X0558583Y0299667D01*
X0558723Y0299628D01*
X0558880Y0299581D01*
X0559036Y0299527D01*
X0559176Y0299480D01*
X0559239Y0299456D01*
X0559294Y0299433D01*
X0559309Y0299425D01*
X0559340Y0299409D01*
X0559387Y0299386D01*
X0559442Y0299355D01*
X0559512Y0299308D01*
X0559583Y0299245D01*
X0559645Y0299183D01*
X0559707Y0299105D01*
X0559715Y0299097D01*
X0559731Y0299066D01*
X0559754Y0299019D01*
X0559786Y0298956D01*
X0559817Y0298878D01*
X0559840Y0298785D01*
X0559856Y0298683D01*
X0559864Y0298566D01*
Y0298550D01*
Y0298511D01*
X0559856Y0298449D01*
X0559840Y0298378D01*
X0559817Y0298285D01*
X0559786Y0298183D01*
X0559739Y0298082D01*
X0559676Y0297972D01*
X0559668Y0297957D01*
X0559645Y0297925D01*
X0559598Y0297879D01*
X0559536Y0297816D01*
X0559465Y0297746D01*
X0559372Y0297676D01*
X0559262Y0297605D01*
X0559137Y0297543D01*
X0559122Y0297535D01*
X0559075Y0297519D01*
X0559005Y0297496D01*
X0558911Y0297473D01*
X0558794Y0297441D01*
X0558661Y0297418D01*
X0558512Y0297402D01*
X0558356Y0297394D01*
X0558286D01*
X0558239Y0297402D01*
X0558177D01*
X0558106Y0297410D01*
X0557942Y0297433D01*
X0557763Y0297465D01*
X0557583Y0297519D01*
X0557404Y0297590D01*
X0557325Y0297637D01*
X0557247Y0297691D01*
X0557239D01*
X0557232Y0297707D01*
X0557185Y0297746D01*
X0557122Y0297816D01*
X0557044Y0297918D01*
X0556966Y0298043D01*
X0556888Y0298199D01*
X0556818Y0298378D01*
X0556771Y0298589D01*
X0557396Y0298691D01*
Y0298683D01*
Y0298675D01*
X0557404Y0298628D01*
X0557427Y0298558D01*
X0557450Y0298472D01*
X0557489Y0298378D01*
X0557536Y0298285D01*
X0557607Y0298191D01*
X0557685Y0298105D01*
X0557692Y0298097D01*
X0557731Y0298074D01*
X0557786Y0298043D01*
X0557857Y0298011D01*
X0557958Y0297972D01*
X0558067Y0297941D01*
X0558208Y0297918D01*
X0558356Y0297910D01*
X0558427D01*
X0558505Y0297918D01*
X0558598Y0297933D01*
X0558708Y0297949D01*
X0558817Y0297980D01*
X0558919Y0298027D01*
X0559005Y0298082D01*
X0559012Y0298090D01*
X0559036Y0298113D01*
X0559075Y0298152D01*
X0559114Y0298199D01*
X0559145Y0298261D01*
X0559184Y0298339D01*
X0559208Y0298417D01*
X0559215Y0298503D01*
Y0298511D01*
Y0298542D01*
X0559208Y0298574D01*
X0559192Y0298628D01*
X0559169Y0298675D01*
X0559137Y0298738D01*
X0559091Y0298792D01*
X0559028Y0298839D01*
X0559020Y0298847D01*
X0558997Y0298855D01*
X0558958Y0298870D01*
X0558895Y0298902D01*
X0558809Y0298925D01*
X0558700Y0298964D01*
X0558630Y0298988D01*
X0558559Y0299003D01*
X0558473Y0299027D01*
X0558380Y0299050D01*
X0558372D01*
X0558349Y0299058D01*
X0558317Y0299066D01*
X0558270Y0299081D01*
X0558208Y0299097D01*
X0558145Y0299113D01*
X0557997Y0299160D01*
X0557841Y0299206D01*
X0557677Y0299253D01*
X0557528Y0299308D01*
X0557466Y0299331D01*
X0557411Y0299355D01*
X0557404Y0299362D01*
X0557365Y0299378D01*
X0557318Y0299409D01*
X0557263Y0299448D01*
X0557193Y0299495D01*
X0557130Y0299558D01*
X0557060Y0299628D01*
X0557005Y0299706D01*
X0556997Y0299714D01*
X0556982Y0299745D01*
X0556966Y0299792D01*
X0556943Y0299855D01*
X0556912Y0299925D01*
X0556896Y0300011D01*
X0556880Y0300104D01*
X0556872Y0300206D01*
Y0300214D01*
Y0300245D01*
X0556880Y0300300D01*
X0556888Y0300354D01*
X0556896Y0300425D01*
X0556919Y0300503D01*
X0556943Y0300589D01*
X0556982Y0300667D01*
X0556990Y0300675D01*
X0557005Y0300706D01*
X0557029Y0300745D01*
X0557068Y0300792D01*
X0557107Y0300846D01*
X0557161Y0300901D01*
X0557224Y0300964D01*
X0557294Y0301018D01*
X0557302Y0301026D01*
X0557325Y0301034D01*
X0557357Y0301057D01*
X0557404Y0301081D01*
X0557458Y0301112D01*
X0557528Y0301143D01*
X0557607Y0301174D01*
X0557692Y0301206D01*
X0557708D01*
X0557739Y0301221D01*
X0557786Y0301229D01*
X0557857Y0301245D01*
X0557942Y0301260D01*
X0558028Y0301268D01*
X0558130Y0301284D01*
X0558310D01*
X0558395Y0301276D01*
D02*
G37*
G36*
X0574828Y0297480D02*
X0574179D01*
X0573594Y0299698D01*
X0573445Y0300339D01*
X0572688Y0297480D01*
X0572016D01*
X0570899Y0301198D01*
X0571563D01*
X0572149Y0299050D01*
X0572360Y0298253D01*
Y0298261D01*
X0572367Y0298277D01*
X0572375Y0298308D01*
X0572383Y0298332D01*
X0572391Y0298371D01*
X0572399Y0298410D01*
X0572414Y0298464D01*
X0572430Y0298527D01*
X0572446Y0298597D01*
X0572469Y0298683D01*
X0572492Y0298785D01*
X0572524Y0298894D01*
X0572555Y0299019D01*
X0573148Y0301198D01*
X0573789D01*
X0574351Y0299035D01*
X0574531Y0298324D01*
X0574742Y0299042D01*
X0575390Y0301198D01*
X0575999D01*
X0574828Y0297480D01*
D02*
G37*
G36*
X0612784D02*
X0612191D01*
X0610777Y0301198D01*
X0611441D01*
X0612238Y0298964D01*
X0612245Y0298949D01*
X0612261Y0298902D01*
X0612284Y0298831D01*
X0612316Y0298738D01*
X0612355Y0298628D01*
X0612394Y0298503D01*
X0612441Y0298363D01*
X0612480Y0298222D01*
X0612487Y0298238D01*
X0612495Y0298277D01*
X0612519Y0298339D01*
X0612542Y0298417D01*
X0612573Y0298519D01*
X0612612Y0298644D01*
X0612659Y0298777D01*
X0612714Y0298925D01*
X0613542Y0301198D01*
X0614190D01*
X0612784Y0297480D01*
D02*
G37*
G36*
X0569657D02*
X0569009D01*
X0568423Y0299698D01*
X0568275Y0300339D01*
X0567518Y0297480D01*
X0566846D01*
X0565729Y0301198D01*
X0566393D01*
X0566979Y0299050D01*
X0567189Y0298253D01*
Y0298261D01*
X0567197Y0298277D01*
X0567205Y0298308D01*
X0567213Y0298332D01*
X0567221Y0298371D01*
X0567229Y0298410D01*
X0567244Y0298464D01*
X0567260Y0298527D01*
X0567275Y0298597D01*
X0567299Y0298683D01*
X0567322Y0298785D01*
X0567353Y0298894D01*
X0567385Y0299019D01*
X0567978Y0301198D01*
X0568619D01*
X0569181Y0299035D01*
X0569361Y0298324D01*
X0569571Y0299042D01*
X0570220Y0301198D01*
X0570829D01*
X0569657Y0297480D01*
D02*
G37*
G36*
X0597000Y0301276D02*
X0597102Y0301268D01*
X0597227Y0301253D01*
X0597352Y0301229D01*
X0597484Y0301198D01*
X0597609Y0301151D01*
X0597617D01*
X0597625Y0301143D01*
X0597664Y0301128D01*
X0597726Y0301096D01*
X0597797Y0301065D01*
X0597875Y0301010D01*
X0597961Y0300956D01*
X0598039Y0300886D01*
X0598101Y0300807D01*
X0598109Y0300800D01*
X0598125Y0300768D01*
X0598156Y0300722D01*
X0598195Y0300659D01*
X0598226Y0300581D01*
X0598265Y0300479D01*
X0598297Y0300370D01*
X0598328Y0300245D01*
X0597711Y0300159D01*
Y0300175D01*
X0597703Y0300206D01*
X0597687Y0300261D01*
X0597664Y0300323D01*
X0597633Y0300393D01*
X0597586Y0300464D01*
X0597531Y0300542D01*
X0597461Y0300604D01*
X0597453Y0300612D01*
X0597422Y0300628D01*
X0597375Y0300659D01*
X0597313Y0300690D01*
X0597234Y0300714D01*
X0597133Y0300745D01*
X0597024Y0300761D01*
X0596891Y0300768D01*
X0596821D01*
X0596742Y0300761D01*
X0596649Y0300753D01*
X0596547Y0300729D01*
X0596446Y0300706D01*
X0596344Y0300667D01*
X0596266Y0300620D01*
X0596258Y0300612D01*
X0596235Y0300596D01*
X0596211Y0300565D01*
X0596180Y0300526D01*
X0596141Y0300479D01*
X0596118Y0300417D01*
X0596094Y0300354D01*
X0596086Y0300284D01*
Y0300276D01*
Y0300261D01*
X0596094Y0300237D01*
Y0300206D01*
X0596118Y0300136D01*
X0596157Y0300058D01*
X0596165Y0300050D01*
X0596172Y0300042D01*
X0596219Y0300003D01*
X0596250Y0299972D01*
X0596289Y0299948D01*
X0596344Y0299917D01*
X0596399Y0299894D01*
X0596407D01*
X0596422Y0299886D01*
X0596454Y0299878D01*
X0596508Y0299862D01*
X0596579Y0299839D01*
X0596680Y0299808D01*
X0596805Y0299777D01*
X0596875Y0299753D01*
X0596961Y0299730D01*
X0596969D01*
X0596992Y0299722D01*
X0597024Y0299714D01*
X0597071Y0299698D01*
X0597125Y0299683D01*
X0597188Y0299667D01*
X0597328Y0299628D01*
X0597484Y0299581D01*
X0597641Y0299527D01*
X0597781Y0299480D01*
X0597844Y0299456D01*
X0597898Y0299433D01*
X0597914Y0299425D01*
X0597945Y0299409D01*
X0597992Y0299386D01*
X0598047Y0299355D01*
X0598117Y0299308D01*
X0598187Y0299245D01*
X0598250Y0299183D01*
X0598312Y0299105D01*
X0598320Y0299097D01*
X0598336Y0299066D01*
X0598359Y0299019D01*
X0598390Y0298956D01*
X0598422Y0298878D01*
X0598445Y0298785D01*
X0598461Y0298683D01*
X0598468Y0298566D01*
Y0298550D01*
Y0298511D01*
X0598461Y0298449D01*
X0598445Y0298378D01*
X0598422Y0298285D01*
X0598390Y0298183D01*
X0598344Y0298082D01*
X0598281Y0297972D01*
X0598273Y0297957D01*
X0598250Y0297925D01*
X0598203Y0297879D01*
X0598140Y0297816D01*
X0598070Y0297746D01*
X0597976Y0297676D01*
X0597867Y0297605D01*
X0597742Y0297543D01*
X0597726Y0297535D01*
X0597680Y0297519D01*
X0597609Y0297496D01*
X0597516Y0297473D01*
X0597399Y0297441D01*
X0597266Y0297418D01*
X0597117Y0297402D01*
X0596961Y0297394D01*
X0596891D01*
X0596844Y0297402D01*
X0596781D01*
X0596711Y0297410D01*
X0596547Y0297433D01*
X0596368Y0297465D01*
X0596188Y0297519D01*
X0596008Y0297590D01*
X0595930Y0297637D01*
X0595852Y0297691D01*
X0595844D01*
X0595836Y0297707D01*
X0595790Y0297746D01*
X0595727Y0297816D01*
X0595649Y0297918D01*
X0595571Y0298043D01*
X0595493Y0298199D01*
X0595423Y0298378D01*
X0595376Y0298589D01*
X0596000Y0298691D01*
Y0298683D01*
Y0298675D01*
X0596008Y0298628D01*
X0596032Y0298558D01*
X0596055Y0298472D01*
X0596094Y0298378D01*
X0596141Y0298285D01*
X0596211Y0298191D01*
X0596289Y0298105D01*
X0596297Y0298097D01*
X0596336Y0298074D01*
X0596391Y0298043D01*
X0596461Y0298011D01*
X0596563Y0297972D01*
X0596672Y0297941D01*
X0596813Y0297918D01*
X0596961Y0297910D01*
X0597031D01*
X0597110Y0297918D01*
X0597203Y0297933D01*
X0597313Y0297949D01*
X0597422Y0297980D01*
X0597523Y0298027D01*
X0597609Y0298082D01*
X0597617Y0298090D01*
X0597641Y0298113D01*
X0597680Y0298152D01*
X0597719Y0298199D01*
X0597750Y0298261D01*
X0597789Y0298339D01*
X0597812Y0298417D01*
X0597820Y0298503D01*
Y0298511D01*
Y0298542D01*
X0597812Y0298574D01*
X0597797Y0298628D01*
X0597773Y0298675D01*
X0597742Y0298738D01*
X0597695Y0298792D01*
X0597633Y0298839D01*
X0597625Y0298847D01*
X0597602Y0298855D01*
X0597563Y0298870D01*
X0597500Y0298902D01*
X0597414Y0298925D01*
X0597305Y0298964D01*
X0597234Y0298988D01*
X0597164Y0299003D01*
X0597078Y0299027D01*
X0596985Y0299050D01*
X0596977D01*
X0596953Y0299058D01*
X0596922Y0299066D01*
X0596875Y0299081D01*
X0596813Y0299097D01*
X0596750Y0299113D01*
X0596602Y0299160D01*
X0596446Y0299206D01*
X0596282Y0299253D01*
X0596133Y0299308D01*
X0596071Y0299331D01*
X0596016Y0299355D01*
X0596008Y0299362D01*
X0595969Y0299378D01*
X0595922Y0299409D01*
X0595868Y0299448D01*
X0595797Y0299495D01*
X0595735Y0299558D01*
X0595665Y0299628D01*
X0595610Y0299706D01*
X0595602Y0299714D01*
X0595587Y0299745D01*
X0595571Y0299792D01*
X0595547Y0299855D01*
X0595516Y0299925D01*
X0595501Y0300011D01*
X0595485Y0300104D01*
X0595477Y0300206D01*
Y0300214D01*
Y0300245D01*
X0595485Y0300300D01*
X0595493Y0300354D01*
X0595501Y0300425D01*
X0595524Y0300503D01*
X0595547Y0300589D01*
X0595587Y0300667D01*
X0595594Y0300675D01*
X0595610Y0300706D01*
X0595633Y0300745D01*
X0595673Y0300792D01*
X0595712Y0300846D01*
X0595766Y0300901D01*
X0595829Y0300964D01*
X0595899Y0301018D01*
X0595907Y0301026D01*
X0595930Y0301034D01*
X0595962Y0301057D01*
X0596008Y0301081D01*
X0596063Y0301112D01*
X0596133Y0301143D01*
X0596211Y0301174D01*
X0596297Y0301206D01*
X0596313D01*
X0596344Y0301221D01*
X0596391Y0301229D01*
X0596461Y0301245D01*
X0596547Y0301260D01*
X0596633Y0301268D01*
X0596735Y0301284D01*
X0596914D01*
X0597000Y0301276D01*
D02*
G37*
G36*
X0563238Y0301893D02*
X0562605D01*
Y0302611D01*
X0563238D01*
Y0301893D01*
D02*
G37*
G36*
X0584325D02*
X0583692D01*
Y0302611D01*
X0584325D01*
Y0301893D01*
D02*
G37*
G36*
X0589534Y0301276D02*
X0589612Y0301268D01*
X0589706Y0301253D01*
X0589815Y0301229D01*
X0589917Y0301198D01*
X0590026Y0301159D01*
X0590041Y0301151D01*
X0590073Y0301135D01*
X0590120Y0301112D01*
X0590182Y0301073D01*
X0590252Y0301026D01*
X0590323Y0300971D01*
X0590393Y0300909D01*
X0590448Y0300839D01*
X0590455Y0300831D01*
X0590471Y0300807D01*
X0590494Y0300761D01*
X0590526Y0300706D01*
X0590557Y0300643D01*
X0590588Y0300565D01*
X0590619Y0300471D01*
X0590643Y0300378D01*
Y0300370D01*
X0590651Y0300347D01*
X0590659Y0300300D01*
X0590666Y0300237D01*
Y0300151D01*
X0590674Y0300042D01*
X0590682Y0299917D01*
Y0299761D01*
Y0297480D01*
X0590049D01*
Y0299737D01*
Y0299745D01*
Y0299753D01*
Y0299800D01*
Y0299870D01*
X0590041Y0299956D01*
X0590034Y0300042D01*
X0590018Y0300144D01*
X0589995Y0300229D01*
X0589971Y0300307D01*
Y0300315D01*
X0589956Y0300339D01*
X0589940Y0300378D01*
X0589917Y0300417D01*
X0589878Y0300471D01*
X0589831Y0300518D01*
X0589776Y0300573D01*
X0589713Y0300620D01*
X0589706Y0300628D01*
X0589682Y0300636D01*
X0589643Y0300659D01*
X0589588Y0300682D01*
X0589526Y0300698D01*
X0589448Y0300722D01*
X0589370Y0300729D01*
X0589276Y0300737D01*
X0589206D01*
X0589136Y0300722D01*
X0589034Y0300706D01*
X0588925Y0300675D01*
X0588815Y0300628D01*
X0588690Y0300565D01*
X0588581Y0300479D01*
X0588565Y0300464D01*
X0588534Y0300425D01*
X0588487Y0300362D01*
X0588464Y0300315D01*
X0588440Y0300261D01*
X0588409Y0300198D01*
X0588386Y0300128D01*
X0588362Y0300050D01*
X0588339Y0299964D01*
X0588315Y0299862D01*
X0588308Y0299753D01*
X0588292Y0299636D01*
Y0299511D01*
Y0297480D01*
X0587659D01*
Y0301198D01*
X0588230D01*
Y0300667D01*
X0588237Y0300675D01*
X0588245Y0300690D01*
X0588269Y0300722D01*
X0588308Y0300761D01*
X0588347Y0300807D01*
X0588401Y0300862D01*
X0588456Y0300917D01*
X0588526Y0300979D01*
X0588612Y0301034D01*
X0588698Y0301089D01*
X0588792Y0301143D01*
X0588901Y0301190D01*
X0589011Y0301229D01*
X0589136Y0301260D01*
X0589268Y0301276D01*
X0589409Y0301284D01*
X0589464D01*
X0589534Y0301276D01*
D02*
G37*
G36*
X0551062D02*
X0551109D01*
X0551163Y0301268D01*
X0551280Y0301245D01*
X0551421Y0301206D01*
X0551562Y0301151D01*
X0551694Y0301073D01*
X0551819Y0300971D01*
X0551835Y0300956D01*
X0551866Y0300917D01*
X0551913Y0300839D01*
X0551976Y0300737D01*
X0552030Y0300604D01*
X0552077Y0300448D01*
X0552108Y0300253D01*
X0552124Y0300144D01*
Y0300026D01*
Y0297480D01*
X0551491D01*
Y0299816D01*
Y0299823D01*
Y0299831D01*
Y0299878D01*
Y0299948D01*
X0551483Y0300026D01*
X0551468Y0300206D01*
X0551452Y0300292D01*
X0551429Y0300362D01*
Y0300370D01*
X0551413Y0300393D01*
X0551398Y0300425D01*
X0551374Y0300464D01*
X0551343Y0300503D01*
X0551304Y0300550D01*
X0551257Y0300596D01*
X0551202Y0300636D01*
X0551194Y0300643D01*
X0551171Y0300651D01*
X0551140Y0300667D01*
X0551101Y0300690D01*
X0551046Y0300706D01*
X0550976Y0300722D01*
X0550906Y0300729D01*
X0550828Y0300737D01*
X0550765D01*
X0550687Y0300722D01*
X0550601Y0300706D01*
X0550499Y0300675D01*
X0550390Y0300628D01*
X0550273Y0300557D01*
X0550171Y0300471D01*
X0550164Y0300456D01*
X0550132Y0300425D01*
X0550093Y0300362D01*
X0550046Y0300269D01*
X0549992Y0300151D01*
X0549953Y0300011D01*
X0549922Y0299839D01*
X0549914Y0299636D01*
Y0297480D01*
X0549281D01*
Y0299894D01*
Y0299901D01*
Y0299909D01*
Y0299933D01*
Y0299964D01*
X0549273Y0300042D01*
X0549265Y0300128D01*
X0549242Y0300237D01*
X0549219Y0300339D01*
X0549180Y0300440D01*
X0549125Y0300526D01*
X0549117Y0300534D01*
X0549094Y0300557D01*
X0549062Y0300596D01*
X0549008Y0300636D01*
X0548938Y0300667D01*
X0548852Y0300706D01*
X0548750Y0300729D01*
X0548625Y0300737D01*
X0548578D01*
X0548531Y0300729D01*
X0548461Y0300722D01*
X0548391Y0300706D01*
X0548305Y0300675D01*
X0548219Y0300643D01*
X0548133Y0300596D01*
X0548125Y0300589D01*
X0548094Y0300573D01*
X0548055Y0300534D01*
X0548008Y0300495D01*
X0547953Y0300432D01*
X0547899Y0300362D01*
X0547852Y0300276D01*
X0547805Y0300183D01*
X0547797Y0300167D01*
X0547789Y0300136D01*
X0547774Y0300073D01*
X0547758Y0299987D01*
X0547735Y0299878D01*
X0547719Y0299745D01*
X0547711Y0299589D01*
X0547704Y0299409D01*
Y0297480D01*
X0547071D01*
Y0301198D01*
X0547633D01*
Y0300675D01*
X0547641Y0300690D01*
X0547664Y0300722D01*
X0547704Y0300768D01*
X0547758Y0300831D01*
X0547821Y0300901D01*
X0547899Y0300971D01*
X0547993Y0301049D01*
X0548094Y0301112D01*
X0548110Y0301120D01*
X0548149Y0301135D01*
X0548211Y0301167D01*
X0548289Y0301198D01*
X0548391Y0301229D01*
X0548500Y0301260D01*
X0548633Y0301276D01*
X0548766Y0301284D01*
X0548836D01*
X0548914Y0301276D01*
X0549008Y0301260D01*
X0549109Y0301245D01*
X0549226Y0301214D01*
X0549336Y0301167D01*
X0549437Y0301112D01*
X0549453Y0301104D01*
X0549484Y0301081D01*
X0549531Y0301042D01*
X0549586Y0300987D01*
X0549648Y0300917D01*
X0549711Y0300839D01*
X0549765Y0300737D01*
X0549812Y0300628D01*
X0549820Y0300636D01*
X0549836Y0300659D01*
X0549859Y0300690D01*
X0549890Y0300729D01*
X0549937Y0300784D01*
X0549992Y0300839D01*
X0550054Y0300893D01*
X0550125Y0300956D01*
X0550203Y0301018D01*
X0550289Y0301073D01*
X0550492Y0301182D01*
X0550601Y0301221D01*
X0550718Y0301253D01*
X0550835Y0301276D01*
X0550968Y0301284D01*
X0551023D01*
X0551062Y0301276D01*
D02*
G37*
G36*
X0586761D02*
X0586847Y0301260D01*
X0586941Y0301229D01*
X0587050Y0301198D01*
X0587167Y0301143D01*
X0587292Y0301073D01*
X0587066Y0300495D01*
X0587058Y0300503D01*
X0587027Y0300518D01*
X0586980Y0300542D01*
X0586925Y0300565D01*
X0586855Y0300589D01*
X0586777Y0300612D01*
X0586691Y0300628D01*
X0586605Y0300636D01*
X0586574D01*
X0586535Y0300628D01*
X0586480Y0300620D01*
X0586425Y0300604D01*
X0586363Y0300581D01*
X0586301Y0300550D01*
X0586238Y0300511D01*
X0586230Y0300503D01*
X0586215Y0300487D01*
X0586183Y0300456D01*
X0586152Y0300417D01*
X0586113Y0300370D01*
X0586074Y0300307D01*
X0586043Y0300237D01*
X0586012Y0300159D01*
X0586004Y0300144D01*
X0585996Y0300104D01*
X0585980Y0300034D01*
X0585965Y0299940D01*
X0585941Y0299831D01*
X0585926Y0299706D01*
X0585918Y0299573D01*
X0585910Y0299425D01*
Y0297480D01*
X0585277D01*
Y0301198D01*
X0585848D01*
Y0300643D01*
X0585855Y0300651D01*
X0585887Y0300698D01*
X0585926Y0300768D01*
X0585972Y0300846D01*
X0586035Y0300932D01*
X0586105Y0301018D01*
X0586168Y0301096D01*
X0586238Y0301151D01*
X0586246Y0301159D01*
X0586269Y0301174D01*
X0586308Y0301190D01*
X0586363Y0301221D01*
X0586418Y0301245D01*
X0586488Y0301260D01*
X0586566Y0301276D01*
X0586644Y0301284D01*
X0586699D01*
X0586761Y0301276D01*
D02*
G37*
G36*
X0619626Y0297480D02*
X0618907D01*
Y0298199D01*
X0619626D01*
Y0297480D01*
D02*
G37*
G36*
X0616392Y0302627D02*
X0616455Y0302619D01*
X0616525Y0302611D01*
X0616603Y0302604D01*
X0616689Y0302580D01*
X0616877Y0302533D01*
X0617072Y0302463D01*
X0617173Y0302416D01*
X0617267Y0302362D01*
X0617353Y0302291D01*
X0617439Y0302221D01*
X0617447Y0302213D01*
X0617455Y0302205D01*
X0617478Y0302182D01*
X0617509Y0302151D01*
X0617541Y0302104D01*
X0617580Y0302057D01*
X0617658Y0301940D01*
X0617736Y0301791D01*
X0617806Y0301620D01*
X0617861Y0301424D01*
X0617869Y0301315D01*
X0617876Y0301206D01*
Y0301190D01*
Y0301151D01*
X0617869Y0301089D01*
X0617861Y0301010D01*
X0617845Y0300917D01*
X0617822Y0300815D01*
X0617790Y0300706D01*
X0617744Y0300596D01*
X0617736Y0300581D01*
X0617720Y0300542D01*
X0617689Y0300487D01*
X0617642Y0300409D01*
X0617587Y0300315D01*
X0617517Y0300206D01*
X0617423Y0300097D01*
X0617322Y0299972D01*
X0617306Y0299956D01*
X0617267Y0299909D01*
X0617197Y0299839D01*
X0617150Y0299792D01*
X0617095Y0299737D01*
X0617033Y0299675D01*
X0616955Y0299605D01*
X0616877Y0299534D01*
X0616791Y0299448D01*
X0616697Y0299362D01*
X0616588Y0299269D01*
X0616478Y0299175D01*
X0616353Y0299066D01*
X0616346Y0299058D01*
X0616330Y0299042D01*
X0616299Y0299019D01*
X0616260Y0298988D01*
X0616166Y0298909D01*
X0616049Y0298808D01*
X0615932Y0298699D01*
X0615807Y0298589D01*
X0615705Y0298496D01*
X0615666Y0298457D01*
X0615627Y0298417D01*
X0615619Y0298410D01*
X0615604Y0298386D01*
X0615572Y0298355D01*
X0615533Y0298308D01*
X0615447Y0298207D01*
X0615361Y0298082D01*
X0617884D01*
Y0297480D01*
X0614487D01*
Y0297488D01*
Y0297519D01*
Y0297566D01*
X0614495Y0297621D01*
X0614502Y0297683D01*
X0614510Y0297754D01*
X0614534Y0297832D01*
X0614557Y0297910D01*
Y0297918D01*
X0614565Y0297925D01*
X0614580Y0297972D01*
X0614612Y0298035D01*
X0614659Y0298129D01*
X0614713Y0298230D01*
X0614791Y0298347D01*
X0614869Y0298464D01*
X0614971Y0298589D01*
Y0298597D01*
X0614987Y0298605D01*
X0615026Y0298652D01*
X0615088Y0298722D01*
X0615182Y0298816D01*
X0615299Y0298925D01*
X0615440Y0299058D01*
X0615611Y0299206D01*
X0615799Y0299370D01*
X0615807Y0299378D01*
X0615838Y0299402D01*
X0615877Y0299433D01*
X0615932Y0299487D01*
X0616002Y0299542D01*
X0616080Y0299612D01*
X0616252Y0299761D01*
X0616439Y0299940D01*
X0616627Y0300120D01*
X0616720Y0300206D01*
X0616798Y0300292D01*
X0616869Y0300378D01*
X0616931Y0300456D01*
Y0300464D01*
X0616947Y0300471D01*
X0616963Y0300495D01*
X0616978Y0300526D01*
X0617025Y0300604D01*
X0617080Y0300706D01*
X0617134Y0300823D01*
X0617181Y0300948D01*
X0617212Y0301089D01*
X0617228Y0301221D01*
Y0301229D01*
Y0301237D01*
X0617220Y0301284D01*
X0617212Y0301354D01*
X0617197Y0301440D01*
X0617158Y0301541D01*
X0617111Y0301643D01*
X0617049Y0301752D01*
X0616955Y0301854D01*
X0616939Y0301862D01*
X0616908Y0301893D01*
X0616845Y0301932D01*
X0616767Y0301987D01*
X0616666Y0302033D01*
X0616549Y0302073D01*
X0616408Y0302104D01*
X0616252Y0302112D01*
X0616205D01*
X0616174Y0302104D01*
X0616096Y0302096D01*
X0615994Y0302080D01*
X0615877Y0302041D01*
X0615752Y0301994D01*
X0615635Y0301924D01*
X0615525Y0301831D01*
X0615518Y0301815D01*
X0615486Y0301784D01*
X0615440Y0301721D01*
X0615393Y0301635D01*
X0615338Y0301526D01*
X0615299Y0301401D01*
X0615268Y0301253D01*
X0615252Y0301081D01*
X0614604Y0301151D01*
Y0301159D01*
Y0301182D01*
X0614612Y0301221D01*
X0614620Y0301268D01*
X0614635Y0301331D01*
X0614643Y0301401D01*
X0614690Y0301557D01*
X0614752Y0301737D01*
X0614838Y0301916D01*
X0614955Y0302096D01*
X0615018Y0302174D01*
X0615096Y0302252D01*
X0615104Y0302260D01*
X0615119Y0302268D01*
X0615143Y0302291D01*
X0615174Y0302315D01*
X0615221Y0302338D01*
X0615276Y0302377D01*
X0615338Y0302408D01*
X0615408Y0302448D01*
X0615486Y0302479D01*
X0615572Y0302518D01*
X0615674Y0302549D01*
X0615775Y0302572D01*
X0616010Y0302619D01*
X0616135Y0302627D01*
X0616267Y0302635D01*
X0616338D01*
X0616392Y0302627D01*
D02*
G37*
G36*
X0556037Y0297480D02*
X0555474D01*
Y0298019D01*
X0555467Y0298011D01*
X0555451Y0297996D01*
X0555428Y0297965D01*
X0555396Y0297925D01*
X0555349Y0297871D01*
X0555295Y0297824D01*
X0555232Y0297762D01*
X0555162Y0297707D01*
X0555084Y0297652D01*
X0554998Y0297590D01*
X0554896Y0297543D01*
X0554795Y0297496D01*
X0554678Y0297449D01*
X0554561Y0297418D01*
X0554428Y0297402D01*
X0554295Y0297394D01*
X0554240D01*
X0554178Y0297402D01*
X0554092Y0297410D01*
X0553998Y0297426D01*
X0553897Y0297449D01*
X0553788Y0297480D01*
X0553678Y0297519D01*
X0553662Y0297527D01*
X0553631Y0297543D01*
X0553584Y0297566D01*
X0553522Y0297605D01*
X0553452Y0297652D01*
X0553381Y0297707D01*
X0553319Y0297762D01*
X0553256Y0297832D01*
X0553249Y0297840D01*
X0553233Y0297863D01*
X0553209Y0297910D01*
X0553186Y0297965D01*
X0553147Y0298035D01*
X0553116Y0298113D01*
X0553085Y0298199D01*
X0553061Y0298300D01*
Y0298308D01*
X0553053Y0298339D01*
Y0298378D01*
X0553046Y0298441D01*
X0553038Y0298527D01*
Y0298628D01*
X0553030Y0298745D01*
Y0298886D01*
Y0301198D01*
X0553662D01*
Y0299128D01*
Y0299120D01*
Y0299105D01*
Y0299081D01*
Y0299050D01*
Y0298964D01*
X0553670Y0298863D01*
Y0298753D01*
X0553678Y0298644D01*
X0553686Y0298542D01*
X0553694Y0298464D01*
Y0298457D01*
X0553709Y0298425D01*
X0553725Y0298378D01*
X0553748Y0298324D01*
X0553780Y0298261D01*
X0553827Y0298191D01*
X0553881Y0298129D01*
X0553944Y0298074D01*
X0553952Y0298066D01*
X0553983Y0298050D01*
X0554022Y0298027D01*
X0554076Y0298004D01*
X0554147Y0297980D01*
X0554225Y0297957D01*
X0554319Y0297941D01*
X0554420Y0297933D01*
X0554467D01*
X0554522Y0297941D01*
X0554592Y0297949D01*
X0554670Y0297965D01*
X0554756Y0297996D01*
X0554850Y0298027D01*
X0554943Y0298074D01*
X0554951Y0298082D01*
X0554982Y0298105D01*
X0555029Y0298136D01*
X0555084Y0298183D01*
X0555139Y0298238D01*
X0555201Y0298308D01*
X0555248Y0298386D01*
X0555295Y0298472D01*
X0555303Y0298488D01*
X0555310Y0298519D01*
X0555326Y0298574D01*
X0555349Y0298660D01*
X0555373Y0298761D01*
X0555388Y0298886D01*
X0555396Y0299035D01*
X0555404Y0299199D01*
Y0301198D01*
X0556037D01*
Y0297480D01*
D02*
G37*
G36*
X0622922D02*
X0622289D01*
Y0301495D01*
X0622281Y0301487D01*
X0622250Y0301456D01*
X0622195Y0301417D01*
X0622125Y0301362D01*
X0622039Y0301292D01*
X0621938Y0301221D01*
X0621820Y0301135D01*
X0621688Y0301057D01*
X0621680D01*
X0621672Y0301049D01*
X0621625Y0301018D01*
X0621555Y0300979D01*
X0621469Y0300932D01*
X0621367Y0300878D01*
X0621258Y0300831D01*
X0621141Y0300776D01*
X0621032Y0300729D01*
Y0301346D01*
X0621039D01*
X0621055Y0301354D01*
X0621086Y0301370D01*
X0621117Y0301393D01*
X0621164Y0301417D01*
X0621219Y0301440D01*
X0621344Y0301510D01*
X0621485Y0301596D01*
X0621641Y0301698D01*
X0621797Y0301815D01*
X0621945Y0301940D01*
X0621953Y0301948D01*
X0621961Y0301955D01*
X0622008Y0302002D01*
X0622078Y0302073D01*
X0622164Y0302158D01*
X0622258Y0302268D01*
X0622352Y0302385D01*
X0622437Y0302510D01*
X0622508Y0302635D01*
X0622922D01*
Y0297480D01*
D02*
G37*
G36*
X0593376Y0301276D02*
X0593486Y0301268D01*
X0593611Y0301253D01*
X0593743Y0301237D01*
X0593868Y0301206D01*
X0593986Y0301167D01*
X0594001Y0301159D01*
X0594032Y0301151D01*
X0594087Y0301120D01*
X0594149Y0301089D01*
X0594220Y0301049D01*
X0594298Y0301003D01*
X0594360Y0300948D01*
X0594423Y0300886D01*
X0594431Y0300878D01*
X0594446Y0300854D01*
X0594470Y0300823D01*
X0594501Y0300768D01*
X0594532Y0300706D01*
X0594563Y0300636D01*
X0594595Y0300550D01*
X0594618Y0300456D01*
Y0300448D01*
X0594626Y0300425D01*
X0594634Y0300386D01*
X0594642Y0300323D01*
Y0300245D01*
X0594649Y0300144D01*
X0594657Y0300026D01*
Y0299878D01*
Y0299035D01*
Y0299027D01*
Y0298995D01*
Y0298949D01*
Y0298894D01*
Y0298824D01*
Y0298745D01*
X0594665Y0298566D01*
Y0298371D01*
X0594673Y0298191D01*
X0594681Y0298105D01*
Y0298035D01*
X0594688Y0297972D01*
X0594696Y0297918D01*
Y0297910D01*
X0594704Y0297879D01*
X0594712Y0297832D01*
X0594728Y0297777D01*
X0594751Y0297715D01*
X0594782Y0297637D01*
X0594852Y0297480D01*
X0594196D01*
X0594189Y0297488D01*
X0594181Y0297512D01*
X0594165Y0297558D01*
X0594142Y0297613D01*
X0594118Y0297683D01*
X0594103Y0297762D01*
X0594087Y0297847D01*
X0594071Y0297949D01*
X0594056Y0297933D01*
X0594009Y0297902D01*
X0593947Y0297847D01*
X0593853Y0297785D01*
X0593751Y0297707D01*
X0593634Y0297637D01*
X0593517Y0297574D01*
X0593392Y0297519D01*
X0593376Y0297512D01*
X0593337Y0297504D01*
X0593275Y0297480D01*
X0593189Y0297457D01*
X0593080Y0297433D01*
X0592962Y0297418D01*
X0592837Y0297402D01*
X0592697Y0297394D01*
X0592642D01*
X0592595Y0297402D01*
X0592549D01*
X0592486Y0297410D01*
X0592353Y0297433D01*
X0592197Y0297465D01*
X0592049Y0297519D01*
X0591892Y0297590D01*
X0591760Y0297691D01*
X0591744Y0297707D01*
X0591705Y0297746D01*
X0591658Y0297808D01*
X0591596Y0297902D01*
X0591533Y0298011D01*
X0591486Y0298136D01*
X0591447Y0298292D01*
X0591432Y0298457D01*
Y0298472D01*
Y0298503D01*
X0591439Y0298558D01*
X0591447Y0298621D01*
X0591463Y0298699D01*
X0591478Y0298785D01*
X0591510Y0298870D01*
X0591549Y0298956D01*
X0591557Y0298964D01*
X0591572Y0298995D01*
X0591596Y0299035D01*
X0591635Y0299089D01*
X0591682Y0299144D01*
X0591744Y0299206D01*
X0591807Y0299261D01*
X0591877Y0299316D01*
X0591885Y0299324D01*
X0591916Y0299339D01*
X0591955Y0299362D01*
X0592010Y0299394D01*
X0592080Y0299433D01*
X0592150Y0299464D01*
X0592236Y0299495D01*
X0592330Y0299527D01*
X0592338D01*
X0592369Y0299534D01*
X0592408Y0299542D01*
X0592470Y0299558D01*
X0592549Y0299573D01*
X0592650Y0299589D01*
X0592759Y0299605D01*
X0592892Y0299620D01*
X0592900D01*
X0592923Y0299628D01*
X0592962D01*
X0593017Y0299636D01*
X0593080Y0299644D01*
X0593150Y0299652D01*
X0593322Y0299683D01*
X0593501Y0299714D01*
X0593689Y0299745D01*
X0593868Y0299792D01*
X0593947Y0299816D01*
X0594017Y0299839D01*
Y0299847D01*
Y0299862D01*
X0594025Y0299909D01*
Y0299964D01*
Y0299987D01*
Y0300003D01*
Y0300011D01*
Y0300019D01*
Y0300065D01*
X0594017Y0300136D01*
X0594001Y0300214D01*
X0593978Y0300300D01*
X0593947Y0300393D01*
X0593907Y0300471D01*
X0593845Y0300542D01*
X0593837Y0300550D01*
X0593798Y0300573D01*
X0593743Y0300612D01*
X0593665Y0300651D01*
X0593564Y0300690D01*
X0593439Y0300729D01*
X0593290Y0300753D01*
X0593126Y0300761D01*
X0593056D01*
X0592978Y0300753D01*
X0592876Y0300745D01*
X0592767Y0300722D01*
X0592666Y0300698D01*
X0592556Y0300659D01*
X0592470Y0300604D01*
X0592463Y0300596D01*
X0592439Y0300573D01*
X0592400Y0300534D01*
X0592353Y0300479D01*
X0592299Y0300401D01*
X0592252Y0300307D01*
X0592197Y0300190D01*
X0592158Y0300058D01*
X0591541Y0300144D01*
Y0300151D01*
X0591549Y0300159D01*
X0591557Y0300206D01*
X0591580Y0300276D01*
X0591604Y0300370D01*
X0591643Y0300471D01*
X0591689Y0300573D01*
X0591744Y0300682D01*
X0591814Y0300776D01*
X0591822Y0300784D01*
X0591853Y0300815D01*
X0591892Y0300862D01*
X0591955Y0300917D01*
X0592033Y0300971D01*
X0592135Y0301034D01*
X0592244Y0301096D01*
X0592369Y0301151D01*
X0592377D01*
X0592384Y0301159D01*
X0592408Y0301167D01*
X0592431Y0301174D01*
X0592510Y0301190D01*
X0592611Y0301221D01*
X0592736Y0301245D01*
X0592876Y0301260D01*
X0593041Y0301276D01*
X0593212Y0301284D01*
X0593290D01*
X0593376Y0301276D01*
D02*
G37*
G36*
X0584325Y0297480D02*
X0583692D01*
Y0301198D01*
X0584325D01*
Y0297480D01*
D02*
G37*
G36*
X0608184D02*
X0607622D01*
Y0298019D01*
X0607614Y0298011D01*
X0607598Y0297996D01*
X0607575Y0297965D01*
X0607544Y0297925D01*
X0607497Y0297871D01*
X0607442Y0297824D01*
X0607380Y0297762D01*
X0607309Y0297707D01*
X0607231Y0297652D01*
X0607145Y0297590D01*
X0607044Y0297543D01*
X0606942Y0297496D01*
X0606825Y0297449D01*
X0606708Y0297418D01*
X0606575Y0297402D01*
X0606442Y0297394D01*
X0606388D01*
X0606325Y0297402D01*
X0606239Y0297410D01*
X0606146Y0297426D01*
X0606044Y0297449D01*
X0605935Y0297480D01*
X0605826Y0297519D01*
X0605810Y0297527D01*
X0605779Y0297543D01*
X0605732Y0297566D01*
X0605669Y0297605D01*
X0605599Y0297652D01*
X0605529Y0297707D01*
X0605466Y0297762D01*
X0605404Y0297832D01*
X0605396Y0297840D01*
X0605380Y0297863D01*
X0605357Y0297910D01*
X0605334Y0297965D01*
X0605294Y0298035D01*
X0605263Y0298113D01*
X0605232Y0298199D01*
X0605208Y0298300D01*
Y0298308D01*
X0605201Y0298339D01*
Y0298378D01*
X0605193Y0298441D01*
X0605185Y0298527D01*
Y0298628D01*
X0605177Y0298745D01*
Y0298886D01*
Y0301198D01*
X0605810D01*
Y0299128D01*
Y0299120D01*
Y0299105D01*
Y0299081D01*
Y0299050D01*
Y0298964D01*
X0605818Y0298863D01*
Y0298753D01*
X0605826Y0298644D01*
X0605833Y0298542D01*
X0605841Y0298464D01*
Y0298457D01*
X0605857Y0298425D01*
X0605872Y0298378D01*
X0605896Y0298324D01*
X0605927Y0298261D01*
X0605974Y0298191D01*
X0606029Y0298129D01*
X0606091Y0298074D01*
X0606099Y0298066D01*
X0606130Y0298050D01*
X0606169Y0298027D01*
X0606224Y0298004D01*
X0606294Y0297980D01*
X0606372Y0297957D01*
X0606466Y0297941D01*
X0606567Y0297933D01*
X0606614D01*
X0606669Y0297941D01*
X0606739Y0297949D01*
X0606817Y0297965D01*
X0606903Y0297996D01*
X0606997Y0298027D01*
X0607091Y0298074D01*
X0607098Y0298082D01*
X0607130Y0298105D01*
X0607177Y0298136D01*
X0607231Y0298183D01*
X0607286Y0298238D01*
X0607348Y0298308D01*
X0607395Y0298386D01*
X0607442Y0298472D01*
X0607450Y0298488D01*
X0607458Y0298519D01*
X0607473Y0298574D01*
X0607497Y0298660D01*
X0607520Y0298761D01*
X0607536Y0298886D01*
X0607544Y0299035D01*
X0607551Y0299199D01*
Y0301198D01*
X0608184D01*
Y0297480D01*
D02*
G37*
G36*
X0600109D02*
X0599390D01*
Y0298199D01*
X0600109D01*
Y0297480D01*
D02*
G37*
%LPC*%
G36*
X0602733Y0300768D02*
X0602694D01*
X0602662Y0300761D01*
X0602576Y0300753D01*
X0602475Y0300729D01*
X0602358Y0300698D01*
X0602241Y0300643D01*
X0602116Y0300573D01*
X0601999Y0300471D01*
X0601983Y0300456D01*
X0601952Y0300417D01*
X0601905Y0300354D01*
X0601850Y0300261D01*
X0601795Y0300151D01*
X0601741Y0300019D01*
X0601702Y0299862D01*
X0601678Y0299691D01*
X0603756D01*
Y0299698D01*
Y0299714D01*
X0603748Y0299737D01*
Y0299769D01*
X0603732Y0299855D01*
X0603709Y0299956D01*
X0603678Y0300065D01*
X0603631Y0300183D01*
X0603584Y0300300D01*
X0603514Y0300393D01*
Y0300401D01*
X0603498Y0300409D01*
X0603459Y0300456D01*
X0603389Y0300511D01*
X0603303Y0300581D01*
X0603186Y0300651D01*
X0603053Y0300714D01*
X0602905Y0300753D01*
X0602819Y0300761D01*
X0602733Y0300768D01*
D02*
G37*
G36*
X0594017Y0299347D02*
X0594001Y0299339D01*
X0593978Y0299331D01*
X0593954Y0299324D01*
X0593915Y0299308D01*
X0593868Y0299300D01*
X0593821Y0299284D01*
X0593759Y0299261D01*
X0593689Y0299245D01*
X0593611Y0299230D01*
X0593533Y0299206D01*
X0593439Y0299183D01*
X0593337Y0299167D01*
X0593228Y0299144D01*
X0593111Y0299128D01*
X0592986Y0299105D01*
X0592970D01*
X0592923Y0299097D01*
X0592853Y0299081D01*
X0592767Y0299066D01*
X0592588Y0299027D01*
X0592502Y0299003D01*
X0592431Y0298980D01*
X0592423D01*
X0592408Y0298964D01*
X0592377Y0298949D01*
X0592345Y0298925D01*
X0592267Y0298863D01*
X0592189Y0298769D01*
Y0298761D01*
X0592174Y0298745D01*
X0592166Y0298722D01*
X0592150Y0298683D01*
X0592119Y0298589D01*
X0592111Y0298535D01*
X0592103Y0298472D01*
Y0298464D01*
Y0298433D01*
X0592111Y0298386D01*
X0592127Y0298324D01*
X0592150Y0298261D01*
X0592181Y0298191D01*
X0592228Y0298121D01*
X0592291Y0298050D01*
X0592299Y0298043D01*
X0592330Y0298027D01*
X0592369Y0297996D01*
X0592431Y0297972D01*
X0592510Y0297941D01*
X0592611Y0297910D01*
X0592720Y0297894D01*
X0592853Y0297886D01*
X0592916D01*
X0592978Y0297894D01*
X0593072Y0297910D01*
X0593165Y0297925D01*
X0593275Y0297949D01*
X0593384Y0297988D01*
X0593494Y0298043D01*
X0593509Y0298050D01*
X0593540Y0298074D01*
X0593595Y0298105D01*
X0593657Y0298160D01*
X0593720Y0298214D01*
X0593790Y0298292D01*
X0593861Y0298378D01*
X0593915Y0298480D01*
X0593923Y0298488D01*
X0593931Y0298519D01*
X0593947Y0298566D01*
X0593970Y0298636D01*
X0593986Y0298730D01*
X0594001Y0298839D01*
X0594009Y0298964D01*
X0594017Y0299113D01*
Y0299347D01*
D02*
G37*
G36*
X0621383Y0306268D02*
X0621344D01*
X0621313Y0306260D01*
X0621227Y0306253D01*
X0621125Y0306229D01*
X0621008Y0306198D01*
X0620891Y0306143D01*
X0620766Y0306073D01*
X0620649Y0305972D01*
X0620633Y0305956D01*
X0620602Y0305917D01*
X0620555Y0305854D01*
X0620501Y0305761D01*
X0620446Y0305651D01*
X0620391Y0305519D01*
X0620352Y0305362D01*
X0620329Y0305190D01*
X0622406D01*
Y0305198D01*
Y0305214D01*
X0622398Y0305237D01*
Y0305269D01*
X0622383Y0305355D01*
X0622359Y0305456D01*
X0622328Y0305565D01*
X0622281Y0305683D01*
X0622234Y0305800D01*
X0622164Y0305893D01*
Y0305901D01*
X0622148Y0305909D01*
X0622109Y0305956D01*
X0622039Y0306011D01*
X0621953Y0306081D01*
X0621836Y0306151D01*
X0621703Y0306214D01*
X0621555Y0306253D01*
X0621469Y0306260D01*
X0621383Y0306268D01*
D02*
G37*
G36*
X0554123Y0307612D02*
X0554053D01*
X0554006Y0307604D01*
X0553944Y0307596D01*
X0553866Y0307588D01*
X0553788Y0307573D01*
X0553702Y0307549D01*
X0553506Y0307487D01*
X0553405Y0307448D01*
X0553303Y0307401D01*
X0553194Y0307346D01*
X0553092Y0307276D01*
X0552991Y0307198D01*
X0552889Y0307112D01*
X0552881Y0307104D01*
X0552866Y0307088D01*
X0552843Y0307057D01*
X0552811Y0307018D01*
X0552772Y0306963D01*
X0552725Y0306893D01*
X0552678Y0306815D01*
X0552632Y0306721D01*
X0552585Y0306612D01*
X0552538Y0306495D01*
X0552491Y0306362D01*
X0552452Y0306206D01*
X0552421Y0306042D01*
X0552397Y0305870D01*
X0552382Y0305675D01*
X0552374Y0305464D01*
Y0305456D01*
Y0305425D01*
Y0305378D01*
X0552382Y0305308D01*
X0552389Y0305230D01*
X0552397Y0305144D01*
X0552413Y0305042D01*
X0552436Y0304933D01*
X0552491Y0304698D01*
X0552538Y0304581D01*
X0552585Y0304456D01*
X0552639Y0304339D01*
X0552702Y0304222D01*
X0552780Y0304105D01*
X0552866Y0304003D01*
X0552874Y0303996D01*
X0552889Y0303980D01*
X0552921Y0303957D01*
X0552960Y0303918D01*
X0553007Y0303878D01*
X0553061Y0303839D01*
X0553131Y0303785D01*
X0553209Y0303738D01*
X0553295Y0303691D01*
X0553389Y0303644D01*
X0553491Y0303597D01*
X0553608Y0303558D01*
X0553725Y0303519D01*
X0553850Y0303496D01*
X0553975Y0303480D01*
X0554115Y0303472D01*
X0554186D01*
X0554240Y0303480D01*
X0554311Y0303488D01*
X0554381Y0303504D01*
X0554467Y0303519D01*
X0554561Y0303543D01*
X0554756Y0303605D01*
X0554865Y0303644D01*
X0554967Y0303699D01*
X0555076Y0303761D01*
X0555178Y0303832D01*
X0555279Y0303910D01*
X0555373Y0304003D01*
X0555381Y0304011D01*
X0555396Y0304027D01*
X0555420Y0304058D01*
X0555451Y0304105D01*
X0555490Y0304160D01*
X0555529Y0304230D01*
X0555576Y0304308D01*
X0555623Y0304394D01*
X0555670Y0304503D01*
X0555717Y0304613D01*
X0555756Y0304738D01*
X0555795Y0304878D01*
X0555826Y0305027D01*
X0555849Y0305183D01*
X0555865Y0305355D01*
X0555873Y0305534D01*
Y0305542D01*
Y0305565D01*
Y0305597D01*
Y0305636D01*
X0555865Y0305690D01*
Y0305761D01*
X0555849Y0305909D01*
X0555818Y0306073D01*
X0555779Y0306260D01*
X0555724Y0306448D01*
X0555654Y0306628D01*
Y0306635D01*
X0555646Y0306651D01*
X0555631Y0306674D01*
X0555615Y0306706D01*
X0555568Y0306792D01*
X0555498Y0306893D01*
X0555412Y0307010D01*
X0555303Y0307135D01*
X0555178Y0307252D01*
X0555037Y0307354D01*
X0555029D01*
X0555021Y0307362D01*
X0554998Y0307377D01*
X0554967Y0307393D01*
X0554881Y0307432D01*
X0554772Y0307487D01*
X0554639Y0307534D01*
X0554483Y0307573D01*
X0554311Y0307604D01*
X0554123Y0307612D01*
D02*
G37*
G36*
X0593517Y0306268D02*
X0593478D01*
X0593447Y0306260D01*
X0593361Y0306253D01*
X0593259Y0306229D01*
X0593142Y0306198D01*
X0593025Y0306143D01*
X0592900Y0306073D01*
X0592783Y0305972D01*
X0592767Y0305956D01*
X0592736Y0305917D01*
X0592689Y0305854D01*
X0592634Y0305761D01*
X0592580Y0305651D01*
X0592525Y0305519D01*
X0592486Y0305362D01*
X0592463Y0305190D01*
X0594540D01*
Y0305198D01*
Y0305214D01*
X0594532Y0305237D01*
Y0305269D01*
X0594517Y0305355D01*
X0594493Y0305456D01*
X0594462Y0305565D01*
X0594415Y0305683D01*
X0594368Y0305800D01*
X0594298Y0305893D01*
Y0305901D01*
X0594282Y0305909D01*
X0594243Y0305956D01*
X0594173Y0306011D01*
X0594087Y0306081D01*
X0593970Y0306151D01*
X0593837Y0306214D01*
X0593689Y0306253D01*
X0593603Y0306260D01*
X0593517Y0306268D01*
D02*
G37*
G36*
X0573914Y0307580D02*
Y0307573D01*
X0573906Y0307557D01*
Y0307534D01*
X0573898Y0307494D01*
X0573883Y0307448D01*
X0573867Y0307393D01*
X0573836Y0307268D01*
X0573797Y0307112D01*
X0573750Y0306948D01*
X0573695Y0306768D01*
X0573633Y0306589D01*
X0573070Y0305089D01*
X0574812D01*
X0574281Y0306503D01*
Y0306510D01*
X0574273Y0306534D01*
X0574258Y0306565D01*
X0574242Y0306612D01*
X0574218Y0306667D01*
X0574195Y0306729D01*
X0574148Y0306877D01*
X0574086Y0307049D01*
X0574023Y0307229D01*
X0573969Y0307409D01*
X0573914Y0307580D01*
D02*
G37*
G36*
X0559754Y0307541D02*
X0558138D01*
Y0305847D01*
X0559668D01*
X0559754Y0305854D01*
X0559856Y0305862D01*
X0559973Y0305870D01*
X0560098Y0305886D01*
X0560215Y0305909D01*
X0560317Y0305940D01*
X0560332Y0305948D01*
X0560363Y0305956D01*
X0560410Y0305979D01*
X0560465Y0306011D01*
X0560528Y0306058D01*
X0560598Y0306112D01*
X0560660Y0306175D01*
X0560715Y0306245D01*
X0560723Y0306253D01*
X0560738Y0306284D01*
X0560762Y0306323D01*
X0560785Y0306385D01*
X0560809Y0306448D01*
X0560832Y0306526D01*
X0560848Y0306612D01*
X0560855Y0306706D01*
Y0306714D01*
Y0306721D01*
Y0306768D01*
X0560840Y0306831D01*
X0560824Y0306917D01*
X0560793Y0307010D01*
X0560746Y0307112D01*
X0560676Y0307213D01*
X0560590Y0307307D01*
X0560574Y0307315D01*
X0560543Y0307346D01*
X0560473Y0307385D01*
X0560387Y0307424D01*
X0560270Y0307471D01*
X0560129Y0307502D01*
X0559957Y0307534D01*
X0559754Y0307541D01*
D02*
G37*
G36*
X0584426Y0306260D02*
X0584293D01*
X0584262Y0306253D01*
X0584176Y0306245D01*
X0584067Y0306214D01*
X0583942Y0306175D01*
X0583809Y0306112D01*
X0583676Y0306018D01*
X0583614Y0305964D01*
X0583551Y0305901D01*
X0583536Y0305886D01*
X0583520Y0305862D01*
X0583504Y0305839D01*
X0583481Y0305800D01*
X0583458Y0305753D01*
X0583426Y0305698D01*
X0583403Y0305636D01*
X0583372Y0305565D01*
X0583341Y0305487D01*
X0583317Y0305401D01*
X0583294Y0305300D01*
X0583278Y0305198D01*
X0583262Y0305081D01*
X0583247Y0304964D01*
Y0304831D01*
Y0304823D01*
Y0304800D01*
Y0304761D01*
X0583255Y0304714D01*
Y0304660D01*
X0583262Y0304589D01*
X0583286Y0304433D01*
X0583325Y0304261D01*
X0583372Y0304082D01*
X0583450Y0303910D01*
X0583497Y0303832D01*
X0583551Y0303761D01*
X0583567Y0303746D01*
X0583606Y0303707D01*
X0583676Y0303652D01*
X0583770Y0303590D01*
X0583879Y0303519D01*
X0584020Y0303465D01*
X0584168Y0303426D01*
X0584254Y0303418D01*
X0584340Y0303410D01*
X0584387D01*
X0584418Y0303418D01*
X0584504Y0303426D01*
X0584614Y0303457D01*
X0584738Y0303496D01*
X0584871Y0303558D01*
X0584996Y0303644D01*
X0585059Y0303699D01*
X0585121Y0303761D01*
Y0303769D01*
X0585137Y0303777D01*
X0585152Y0303800D01*
X0585168Y0303832D01*
X0585191Y0303871D01*
X0585223Y0303918D01*
X0585246Y0303972D01*
X0585277Y0304035D01*
X0585309Y0304105D01*
X0585332Y0304183D01*
X0585363Y0304277D01*
X0585387Y0304378D01*
X0585402Y0304480D01*
X0585418Y0304597D01*
X0585434Y0304722D01*
Y0304855D01*
Y0304862D01*
Y0304886D01*
Y0304917D01*
X0585426Y0304972D01*
Y0305027D01*
X0585418Y0305089D01*
X0585394Y0305245D01*
X0585356Y0305409D01*
X0585301Y0305589D01*
X0585223Y0305753D01*
X0585113Y0305901D01*
Y0305909D01*
X0585098Y0305917D01*
X0585059Y0305956D01*
X0584988Y0306018D01*
X0584902Y0306081D01*
X0584785Y0306143D01*
X0584653Y0306206D01*
X0584504Y0306245D01*
X0584426Y0306260D01*
D02*
G37*
G36*
X0580513Y0306292D02*
X0580404D01*
X0580373Y0306284D01*
X0580302Y0306268D01*
X0580201Y0306245D01*
X0580092Y0306198D01*
X0579974Y0306128D01*
X0579912Y0306089D01*
X0579849Y0306034D01*
X0579787Y0305979D01*
X0579732Y0305909D01*
Y0305901D01*
X0579717Y0305893D01*
X0579701Y0305870D01*
X0579685Y0305839D01*
X0579662Y0305800D01*
X0579639Y0305753D01*
X0579607Y0305698D01*
X0579584Y0305636D01*
X0579553Y0305558D01*
X0579521Y0305480D01*
X0579498Y0305386D01*
X0579475Y0305292D01*
X0579459Y0305183D01*
X0579443Y0305066D01*
X0579428Y0304948D01*
Y0304816D01*
Y0304808D01*
Y0304784D01*
Y0304745D01*
X0579435Y0304698D01*
Y0304636D01*
X0579443Y0304573D01*
X0579467Y0304417D01*
X0579498Y0304238D01*
X0579545Y0304066D01*
X0579615Y0303902D01*
X0579662Y0303824D01*
X0579709Y0303753D01*
X0579725Y0303738D01*
X0579764Y0303699D01*
X0579826Y0303644D01*
X0579904Y0303582D01*
X0580006Y0303519D01*
X0580131Y0303465D01*
X0580263Y0303426D01*
X0580334Y0303418D01*
X0580412Y0303410D01*
X0580451D01*
X0580482Y0303418D01*
X0580560Y0303426D01*
X0580654Y0303457D01*
X0580771Y0303496D01*
X0580888Y0303558D01*
X0581005Y0303644D01*
X0581068Y0303699D01*
X0581122Y0303761D01*
Y0303769D01*
X0581138Y0303777D01*
X0581154Y0303800D01*
X0581169Y0303832D01*
X0581193Y0303871D01*
X0581216Y0303918D01*
X0581247Y0303972D01*
X0581279Y0304035D01*
X0581302Y0304105D01*
X0581333Y0304191D01*
X0581357Y0304277D01*
X0581380Y0304378D01*
X0581396Y0304488D01*
X0581411Y0304605D01*
X0581427Y0304730D01*
Y0304862D01*
Y0304870D01*
Y0304894D01*
Y0304933D01*
X0581419Y0304980D01*
Y0305042D01*
X0581411Y0305112D01*
X0581388Y0305269D01*
X0581357Y0305440D01*
X0581302Y0305620D01*
X0581232Y0305784D01*
X0581185Y0305862D01*
X0581130Y0305932D01*
Y0305940D01*
X0581115Y0305948D01*
X0581076Y0305987D01*
X0581021Y0306050D01*
X0580935Y0306112D01*
X0580833Y0306175D01*
X0580716Y0306237D01*
X0580584Y0306276D01*
X0580513Y0306292D01*
D02*
G37*
G36*
X0611769Y0306260D02*
X0611652D01*
X0611621Y0306253D01*
X0611542Y0306245D01*
X0611449Y0306222D01*
X0611339Y0306175D01*
X0611222Y0306112D01*
X0611105Y0306034D01*
X0611050Y0305979D01*
X0610996Y0305917D01*
X0610980Y0305901D01*
X0610972Y0305878D01*
X0610949Y0305854D01*
X0610933Y0305815D01*
X0610910Y0305768D01*
X0610879Y0305714D01*
X0610855Y0305651D01*
X0610832Y0305581D01*
X0610801Y0305503D01*
X0610777Y0305409D01*
X0610761Y0305315D01*
X0610738Y0305206D01*
X0610730Y0305089D01*
X0610715Y0304964D01*
Y0304831D01*
Y0304823D01*
Y0304800D01*
Y0304761D01*
X0610722Y0304714D01*
Y0304652D01*
X0610730Y0304589D01*
X0610754Y0304425D01*
X0610785Y0304253D01*
X0610840Y0304074D01*
X0610910Y0303910D01*
X0610957Y0303832D01*
X0611011Y0303761D01*
X0611027Y0303746D01*
X0611066Y0303707D01*
X0611129Y0303652D01*
X0611214Y0303590D01*
X0611316Y0303519D01*
X0611433Y0303465D01*
X0611574Y0303426D01*
X0611644Y0303418D01*
X0611722Y0303410D01*
X0611761D01*
X0611792Y0303418D01*
X0611870Y0303426D01*
X0611964Y0303449D01*
X0612074Y0303496D01*
X0612191Y0303550D01*
X0612316Y0303636D01*
X0612370Y0303683D01*
X0612425Y0303746D01*
Y0303753D01*
X0612441Y0303761D01*
X0612448Y0303785D01*
X0612472Y0303808D01*
X0612495Y0303847D01*
X0612519Y0303886D01*
X0612542Y0303941D01*
X0612573Y0304003D01*
X0612597Y0304066D01*
X0612620Y0304144D01*
X0612644Y0304230D01*
X0612667Y0304324D01*
X0612690Y0304425D01*
X0612698Y0304535D01*
X0612714Y0304652D01*
Y0304777D01*
Y0304784D01*
Y0304808D01*
Y0304847D01*
X0612706Y0304902D01*
Y0304964D01*
X0612698Y0305034D01*
X0612675Y0305206D01*
X0612644Y0305386D01*
X0612589Y0305573D01*
X0612519Y0305753D01*
X0612472Y0305831D01*
X0612417Y0305901D01*
Y0305909D01*
X0612401Y0305917D01*
X0612362Y0305956D01*
X0612300Y0306018D01*
X0612214Y0306081D01*
X0612113Y0306143D01*
X0611988Y0306206D01*
X0611847Y0306245D01*
X0611769Y0306260D01*
D02*
G37*
G36*
X0607903D02*
X0607770D01*
X0607739Y0306253D01*
X0607653Y0306245D01*
X0607544Y0306214D01*
X0607419Y0306175D01*
X0607286Y0306112D01*
X0607153Y0306018D01*
X0607091Y0305964D01*
X0607028Y0305901D01*
X0607013Y0305886D01*
X0606997Y0305862D01*
X0606981Y0305839D01*
X0606958Y0305800D01*
X0606934Y0305753D01*
X0606903Y0305698D01*
X0606880Y0305636D01*
X0606849Y0305565D01*
X0606817Y0305487D01*
X0606794Y0305401D01*
X0606771Y0305300D01*
X0606755Y0305198D01*
X0606739Y0305081D01*
X0606724Y0304964D01*
Y0304831D01*
Y0304823D01*
Y0304800D01*
Y0304761D01*
X0606732Y0304714D01*
Y0304660D01*
X0606739Y0304589D01*
X0606763Y0304433D01*
X0606802Y0304261D01*
X0606849Y0304082D01*
X0606927Y0303910D01*
X0606974Y0303832D01*
X0607028Y0303761D01*
X0607044Y0303746D01*
X0607083Y0303707D01*
X0607153Y0303652D01*
X0607247Y0303590D01*
X0607356Y0303519D01*
X0607497Y0303465D01*
X0607645Y0303426D01*
X0607731Y0303418D01*
X0607817Y0303410D01*
X0607864D01*
X0607895Y0303418D01*
X0607981Y0303426D01*
X0608090Y0303457D01*
X0608215Y0303496D01*
X0608348Y0303558D01*
X0608473Y0303644D01*
X0608536Y0303699D01*
X0608598Y0303761D01*
Y0303769D01*
X0608614Y0303777D01*
X0608629Y0303800D01*
X0608645Y0303832D01*
X0608668Y0303871D01*
X0608700Y0303918D01*
X0608723Y0303972D01*
X0608754Y0304035D01*
X0608785Y0304105D01*
X0608809Y0304183D01*
X0608840Y0304277D01*
X0608864Y0304378D01*
X0608879Y0304480D01*
X0608895Y0304597D01*
X0608911Y0304722D01*
Y0304855D01*
Y0304862D01*
Y0304886D01*
Y0304917D01*
X0608903Y0304972D01*
Y0305027D01*
X0608895Y0305089D01*
X0608871Y0305245D01*
X0608832Y0305409D01*
X0608778Y0305589D01*
X0608700Y0305753D01*
X0608590Y0305901D01*
Y0305909D01*
X0608575Y0305917D01*
X0608536Y0305956D01*
X0608465Y0306018D01*
X0608379Y0306081D01*
X0608262Y0306143D01*
X0608129Y0306206D01*
X0607981Y0306245D01*
X0607903Y0306260D01*
D02*
G37*
%LPD*%
D34*
X0688000Y0465500D02*
G03*
X0688000Y0465500I-0015000J0000000D01*
G01*
Y0237154D02*
G03*
X0688000Y0237154I-0015000J0000000D01*
G01*
X0573331Y0310941D02*
Y0483874D01*
Y0310941D02*
X0655909D01*
Y0483874D01*
X0573331D02*
X0655909D01*
X0489331Y0310941D02*
Y0483874D01*
Y0310941D02*
X0571910D01*
Y0483874D01*
X0489331D02*
X0571910D01*
D35*
X0688557Y0393130D02*
G03*
X0688557Y0393130I-0000545J0000000D01*
G01*
X0677500Y0342500D02*
X0687500D01*
Y0322500D02*
Y0342500D01*
X0677500Y0322500D02*
X0687500D01*
X0677500D02*
Y0342500D01*
X0677000Y0424000D02*
X0687000D01*
Y0404000D02*
Y0424000D01*
X0677000Y0404000D02*
X0687000D01*
X0677000D02*
Y0424000D01*
X0679153Y0382106D02*
Y0382894D01*
X0685847Y0382106D02*
Y0382894D01*
X0680335Y0358213D02*
Y0359787D01*
X0684665Y0358213D02*
Y0359787D01*
X0549776Y0281051D02*
Y0299949D01*
X0534224Y0281051D02*
Y0299949D01*
D36*
X0534126Y0278492D02*
G03*
X0534126Y0278492I-0000492J0000000D01*
G01*
D37*
X0611471Y0362959D02*
X0622839Y0374327D01*
X0600102D02*
X0611471Y0362959D01*
X0611520D01*
Y0456315D01*
X0600102Y0374327D02*
X0622839D01*
X0527470Y0362959D02*
X0538839Y0374327D01*
X0516102D02*
X0527470Y0362959D01*
X0527520D01*
Y0456315D01*
X0516102Y0374327D02*
X0538839D01*
X0526405Y0270705D02*
X0531524D01*
X0490500Y0302201D02*
X0531524D01*
X0490500Y0264799D02*
X0531524D01*
Y0302201D01*
X0490500Y0264799D02*
Y0302201D01*
Y0270705D02*
X0498059D01*
X0671795Y0296905D02*
Y0302024D01*
X0640299Y0261000D02*
Y0302024D01*
X0677701Y0261000D02*
Y0302024D01*
X0640299D02*
X0677701D01*
X0640299Y0261000D02*
X0677701D01*
X0671795D02*
Y0268559D01*
X0562689Y0226197D02*
Y0253953D01*
Y0226197D02*
X0586114D01*
X0591134D01*
X0614165D01*
Y0253559D01*
X0562492Y0276295D02*
Y0282102D01*
X0614165D01*
Y0277083D02*
Y0282102D01*
X0685500Y0307500D02*
X0679502D01*
Y0310499D01*
X0680502Y0311499D01*
X0682501D01*
X0683501Y0310499D01*
Y0307500D01*
X0685500Y0316497D02*
X0679502D01*
X0682501Y0313498D01*
Y0317497D01*
X0675000Y0354500D02*
X0669002D01*
Y0357499D01*
X0670002Y0358499D01*
X0672001D01*
X0673001Y0357499D01*
Y0354500D01*
Y0356499D02*
X0675000Y0358499D01*
Y0360498D02*
Y0362497D01*
Y0361498D01*
X0669002D01*
X0670002Y0360498D01*
X0684500Y0427500D02*
X0678502D01*
Y0430499D01*
X0679502Y0431499D01*
X0681501D01*
X0682501Y0430499D01*
Y0427500D01*
X0684500Y0437497D02*
Y0433498D01*
X0680501Y0437497D01*
X0679502D01*
X0678502Y0436497D01*
Y0434498D01*
X0679502Y0433498D01*
X0523652Y0278550D02*
X0529650D01*
Y0281549D01*
X0528650Y0282549D01*
X0524652D01*
X0523652Y0281549D01*
Y0278550D01*
X0529650Y0288547D02*
Y0284548D01*
X0525651Y0288547D01*
X0524652D01*
X0523652Y0287547D01*
Y0285548D01*
X0524652Y0284548D01*
X0669002Y0376500D02*
X0675000D01*
Y0379499D01*
X0674000Y0380499D01*
X0670002D01*
X0669002Y0379499D01*
Y0376500D01*
X0675000Y0382498D02*
Y0384497D01*
Y0383498D01*
X0669002D01*
X0670002Y0382498D01*
D38*
X0578677Y0341514D02*
X0577344D01*
X0576677Y0340848D01*
Y0338182D01*
X0577344Y0337516D01*
X0578677D01*
X0579343Y0338182D01*
Y0340848D01*
X0578677Y0341514D01*
X0580676D02*
Y0338182D01*
X0581342Y0337516D01*
X0582675D01*
X0583342Y0338182D01*
Y0341514D01*
X0584675D02*
X0587340D01*
X0586007D01*
Y0337516D01*
X0588673Y0339515D02*
X0591339D01*
X0637928Y0341514D02*
X0636596D01*
X0635929Y0340848D01*
Y0338182D01*
X0636596Y0337516D01*
X0637928D01*
X0638595Y0338182D01*
Y0340848D01*
X0637928Y0341514D01*
X0639928D02*
Y0338182D01*
X0640594Y0337516D01*
X0641927D01*
X0642594Y0338182D01*
Y0341514D01*
X0643927D02*
X0646592D01*
X0645260D01*
Y0337516D01*
X0647925Y0339515D02*
X0650591D01*
X0649258Y0340848D02*
Y0338182D01*
X0642130Y0466121D02*
X0643463D01*
X0642796D01*
Y0462122D01*
X0642130D01*
X0643463D01*
X0645462D02*
Y0466121D01*
X0648128Y0462122D01*
Y0466121D01*
X0649461Y0464121D02*
X0652127D01*
X0650794Y0465454D02*
Y0462788D01*
X0577957Y0466416D02*
X0579290D01*
X0578623D01*
Y0462417D01*
X0577957D01*
X0579290D01*
X0581289D02*
Y0466416D01*
X0583955Y0462417D01*
Y0466416D01*
X0585288Y0464417D02*
X0587954D01*
X0494676Y0341514D02*
X0493344D01*
X0492677Y0340848D01*
Y0338182D01*
X0493344Y0337516D01*
X0494676D01*
X0495343Y0338182D01*
Y0340848D01*
X0494676Y0341514D01*
X0496676D02*
Y0338182D01*
X0497342Y0337516D01*
X0498675D01*
X0499342Y0338182D01*
Y0341514D01*
X0500675D02*
X0503340D01*
X0502007D01*
Y0337516D01*
X0504673Y0339515D02*
X0507339D01*
X0553929Y0341514D02*
X0552596D01*
X0551929Y0340848D01*
Y0338182D01*
X0552596Y0337516D01*
X0553929D01*
X0554595Y0338182D01*
Y0340848D01*
X0553929Y0341514D01*
X0555928D02*
Y0338182D01*
X0556594Y0337516D01*
X0557927D01*
X0558594Y0338182D01*
Y0341514D01*
X0559927D02*
X0562592D01*
X0561260D01*
Y0337516D01*
X0563925Y0339515D02*
X0566591D01*
X0565258Y0340848D02*
Y0338182D01*
X0558130Y0466121D02*
X0559463D01*
X0558796D01*
Y0462122D01*
X0558130D01*
X0559463D01*
X0561462D02*
Y0466121D01*
X0564128Y0462122D01*
Y0466121D01*
X0565461Y0464121D02*
X0568127D01*
X0566794Y0465454D02*
Y0462788D01*
X0493957Y0466416D02*
X0495290D01*
X0494623D01*
Y0462417D01*
X0493957D01*
X0495290D01*
X0497289D02*
Y0466416D01*
X0499955Y0462417D01*
Y0466416D01*
X0501288Y0464417D02*
X0503954D01*
X0665834Y0309500D02*
X0666500Y0310166D01*
Y0311499D01*
X0665834Y0312166D01*
X0663168D01*
X0662501Y0311499D01*
Y0310166D01*
X0663168Y0309500D01*
X0663834D01*
X0664501Y0310166D01*
Y0312166D01*
X0662501Y0313499D02*
X0665167D01*
X0666500Y0314832D01*
X0665167Y0316164D01*
X0662501D01*
X0666500Y0321496D02*
X0663834D01*
Y0322163D01*
X0664501Y0322829D01*
X0666500D01*
X0664501D01*
X0663834Y0323496D01*
X0664501Y0324162D01*
X0666500D01*
Y0327494D02*
Y0326161D01*
X0665834Y0325495D01*
X0664501D01*
X0663834Y0326161D01*
Y0327494D01*
X0664501Y0328161D01*
X0665167D01*
Y0325495D01*
X0663834Y0330160D02*
Y0331493D01*
X0664501Y0332159D01*
X0666500D01*
Y0330160D01*
X0665834Y0329494D01*
X0665167Y0330160D01*
Y0332159D01*
X0666500Y0333492D02*
Y0335492D01*
X0665834Y0336158D01*
X0665167Y0335492D01*
Y0334159D01*
X0664501Y0333492D01*
X0663834Y0334159D01*
Y0336158D01*
Y0337491D02*
X0665834D01*
X0666500Y0338157D01*
Y0340157D01*
X0663834D01*
Y0341490D02*
X0666500D01*
X0665167D01*
X0664501Y0342156D01*
X0663834Y0342823D01*
Y0343489D01*
X0666500Y0347488D02*
Y0346155D01*
X0665834Y0345488D01*
X0664501D01*
X0663834Y0346155D01*
Y0347488D01*
X0664501Y0348154D01*
X0665167D01*
Y0345488D01*
X0662001Y0401666D02*
Y0399000D01*
X0664001D01*
X0663334Y0400333D01*
Y0400999D01*
X0664001Y0401666D01*
X0665334D01*
X0666000Y0400999D01*
Y0399666D01*
X0665334Y0399000D01*
X0662001Y0402999D02*
X0664667D01*
X0666000Y0404332D01*
X0664667Y0405664D01*
X0662001D01*
X0666000Y0410996D02*
X0663334D01*
Y0411663D01*
X0664001Y0412329D01*
X0666000D01*
X0664001D01*
X0663334Y0412995D01*
X0664001Y0413662D01*
X0666000D01*
Y0416994D02*
Y0415661D01*
X0665334Y0414995D01*
X0664001D01*
X0663334Y0415661D01*
Y0416994D01*
X0664001Y0417661D01*
X0664667D01*
Y0414995D01*
X0663334Y0419660D02*
Y0420993D01*
X0664001Y0421659D01*
X0666000D01*
Y0419660D01*
X0665334Y0418994D01*
X0664667Y0419660D01*
Y0421659D01*
X0666000Y0422992D02*
Y0424992D01*
X0665334Y0425658D01*
X0664667Y0424992D01*
Y0423659D01*
X0664001Y0422992D01*
X0663334Y0423659D01*
Y0425658D01*
Y0426991D02*
X0665334D01*
X0666000Y0427657D01*
Y0429657D01*
X0663334D01*
Y0430990D02*
X0666000D01*
X0664667D01*
X0664001Y0431656D01*
X0663334Y0432323D01*
Y0432989D01*
X0666000Y0436988D02*
Y0435655D01*
X0665334Y0434988D01*
X0664001D01*
X0663334Y0435655D01*
Y0436988D01*
X0664001Y0437654D01*
X0664667D01*
Y0434988D01*
X0646500Y0255166D02*
X0647166Y0254500D01*
X0648499D01*
X0649166Y0255166D01*
Y0257832D01*
X0648499Y0258499D01*
X0647166D01*
X0646500Y0257832D01*
Y0257166D01*
X0647166Y0256499D01*
X0649166D01*
X0650499Y0258499D02*
Y0255833D01*
X0651832Y0254500D01*
X0653164Y0255833D01*
Y0258499D01*
X0660496D02*
X0659163D01*
X0658496Y0257832D01*
Y0255166D01*
X0659163Y0254500D01*
X0660496D01*
X0661162Y0255166D01*
Y0257832D01*
X0660496Y0258499D01*
X0662495D02*
Y0255166D01*
X0663161Y0254500D01*
X0664494D01*
X0665161Y0255166D01*
Y0258499D01*
X0666494D02*
X0669159D01*
X0667827D01*
Y0254500D01*
X0490500Y0257000D02*
X0491833D01*
X0491166D01*
Y0260999D01*
X0490500Y0260332D01*
X0496498Y0257000D02*
X0493832D01*
X0496498Y0259666D01*
Y0260332D01*
X0495832Y0260999D01*
X0494499D01*
X0493832Y0260332D01*
X0497831Y0258999D02*
X0500497D01*
X0504495Y0257000D02*
X0501830D01*
X0504495Y0259666D01*
Y0260332D01*
X0503829Y0260999D01*
X0502496D01*
X0501830Y0260332D01*
X0507828Y0257000D02*
Y0260999D01*
X0505828Y0258999D01*
X0508494D01*
X0509827Y0260999D02*
Y0258333D01*
X0511160Y0257000D01*
X0512493Y0258333D01*
Y0260999D01*
X0517825D02*
X0519157D01*
X0518491D01*
Y0257000D01*
X0517825D01*
X0519157D01*
X0521157D02*
Y0260999D01*
X0523823Y0257000D01*
Y0260999D01*
X0525155Y0257000D02*
Y0260999D01*
X0527155D01*
X0527821Y0260332D01*
Y0258999D01*
X0527155Y0258333D01*
X0525155D01*
X0529154Y0260999D02*
Y0257666D01*
X0529821Y0257000D01*
X0531153D01*
X0531820Y0257666D01*
Y0260999D01*
X0533153D02*
X0535819D01*
X0534486D01*
Y0257000D01*
X0579166Y0292999D02*
X0576500D01*
Y0290999D01*
X0577833Y0291666D01*
X0578499D01*
X0579166Y0290999D01*
Y0289666D01*
X0578499Y0289000D01*
X0577166D01*
X0576500Y0289666D01*
X0580499Y0292999D02*
Y0290333D01*
X0581832Y0289000D01*
X0583165Y0290333D01*
Y0292999D01*
X0588496D02*
Y0289666D01*
X0589163Y0289000D01*
X0590495D01*
X0591162Y0289666D01*
Y0292999D01*
X0595161Y0292332D02*
X0594494Y0292999D01*
X0593161D01*
X0592495Y0292332D01*
Y0291666D01*
X0593161Y0290999D01*
X0594494D01*
X0595161Y0290333D01*
Y0289666D01*
X0594494Y0289000D01*
X0593161D01*
X0592495Y0289666D01*
X0596493Y0292999D02*
Y0289000D01*
X0598493D01*
X0599159Y0289666D01*
Y0290333D01*
X0598493Y0290999D01*
X0596493D01*
X0598493D01*
X0599159Y0291666D01*
Y0292332D01*
X0598493Y0292999D01*
X0596493D01*
D39*
X0491904Y0356312D02*
X0494570D01*
X0495902Y0354979D01*
Y0350980D01*
X0491904D01*
X0490571Y0352313D01*
X0491904Y0353646D01*
X0495902D01*
X0503900Y0358978D02*
Y0350980D01*
X0499901D01*
X0498568Y0352313D01*
Y0354979D01*
X0499901Y0356312D01*
X0503900D01*
X0506566Y0348314D02*
X0507899D01*
X0509232Y0349647D01*
Y0356312D01*
X0514563D02*
Y0352313D01*
X0515896Y0350980D01*
X0519895D01*
Y0356312D01*
X0522561Y0350980D02*
X0526559D01*
X0527892Y0352313D01*
X0526559Y0353646D01*
X0523893D01*
X0522561Y0354979D01*
X0523893Y0356312D01*
X0527892D01*
X0531891Y0357645D02*
Y0356312D01*
X0530558D01*
X0533224D01*
X0531891D01*
Y0352313D01*
X0533224Y0350980D01*
X0545220D02*
Y0356312D01*
X0546553D01*
X0547886Y0354979D01*
Y0350980D01*
Y0354979D01*
X0549219Y0356312D01*
X0550552Y0354979D01*
Y0350980D01*
X0554550D02*
X0557216D01*
X0558549Y0352313D01*
Y0354979D01*
X0557216Y0356312D01*
X0554550D01*
X0553217Y0354979D01*
Y0352313D01*
X0554550Y0350980D01*
X0566546Y0358978D02*
Y0350980D01*
X0562548D01*
X0561215Y0352313D01*
Y0354979D01*
X0562548Y0356312D01*
X0566546D01*
X0569212D02*
Y0352313D01*
X0570545Y0350980D01*
X0574544D01*
Y0356312D01*
X0577210Y0350980D02*
X0579875D01*
X0578542D01*
Y0358978D01*
X0577210D01*
X0587873Y0350980D02*
X0585207D01*
X0583874Y0352313D01*
Y0354979D01*
X0585207Y0356312D01*
X0587873D01*
X0589206Y0354979D01*
Y0353646D01*
X0583874D01*
X0599869Y0356312D02*
X0602535Y0350980D01*
X0605200Y0356312D01*
X0609199Y0350980D02*
X0611865D01*
X0613198Y0352313D01*
Y0354979D01*
X0611865Y0356312D01*
X0609199D01*
X0607866Y0354979D01*
Y0352313D01*
X0609199Y0350980D01*
X0615864D02*
X0618529D01*
X0617197D01*
Y0358978D01*
X0615864D01*
X0623861Y0357645D02*
Y0356312D01*
X0622528D01*
X0625194D01*
X0623861D01*
Y0352313D01*
X0625194Y0350980D01*
X0630526Y0356312D02*
X0633191D01*
X0634524Y0354979D01*
Y0350980D01*
X0630526D01*
X0629193Y0352313D01*
X0630526Y0353646D01*
X0634524D01*
X0639856Y0348314D02*
X0641189D01*
X0642522Y0349647D01*
Y0356312D01*
X0638523D01*
X0637190Y0354979D01*
Y0352313D01*
X0638523Y0350980D01*
X0642522D01*
X0649186D02*
X0646520D01*
X0645188Y0352313D01*
Y0354979D01*
X0646520Y0356312D01*
X0649186D01*
X0650519Y0354979D01*
Y0353646D01*
X0645188D01*
X0653185D02*
Y0360311D01*
Y0352313D02*
Y0350980D01*
X0670501Y0405000D02*
Y0410332D01*
X0667836Y0407666D02*
X0673167D01*
X0670501Y0420995D02*
Y0426326D01*
X0671001Y0322500D02*
Y0327832D01*
X0668335Y0325166D02*
X0673667D01*
X0671001Y0338495D02*
Y0343826D01*
D40*
X0630002Y0262500D02*
Y0269164D01*
X0626669Y0265832D02*
X0633334D01*
X0630002Y0292490D02*
Y0299155D01*
X0494000Y0250498D02*
X0500665D01*
X0497332Y0253831D02*
Y0247166D01*
X0523990Y0250498D02*
X0530655D01*
D41*
X0683250Y0272250D02*
D03*
D42*
X0500750Y0235000D02*
D03*
M02*
