M48
;Layer_Color=9474304
;FILE_FORMAT=2:5
INCH
;TYPE=PLATED
T1F00S00C0.01500
T2F00S00C0.02800
T3F00S00C0.03000
T4F00S00C0.03976
T5F00S00C0.04134
T6F00S00C0.04200
T7F00S00C0.05906
T8F00S00C0.06102
;TYPE=NON_PLATED
T9F00S00C0.12598
%
T01
X0375000Y0208500
X0405500Y0209000
X0435500Y0209500
X0374500Y0257500
X0374000Y0298500
X0375000Y0332500
X0444500Y0313500
X0473500Y0316000
X0538000Y0332500
X0616500Y0331000
T02
X0473000Y0272500
X0486500Y0273000
X0485000Y0280000
X0482500Y0267000
X0448500Y0269500
T03
X0390500Y0272500
Y0313500
T04
X0390500Y0282500
X0400500
X0410500
X0420500
X0430500
Y0272500
X0420500
X0410500
X0400500
Y0313500
Y0323500
X0390500
X0410500
X0420500
X0430500
Y0313500
X0420500
X0410500
T05
X0475200Y0245400
X0485000
X0494800
X0513300
X0524400
Y0267800
Y0289000
X0514542Y0301500
X0504700
X0494800
X0475200
X0544100
X0583500
X0603200Y0279200
Y0245400
X0563800
X0465300Y0301500
T06
X0603209Y0301207
X0457000Y0292300
Y0273398
Y0254500
T07
X0382500Y0237000
X0432697
T08
X0481752Y0254652
X0481555Y0292546
T09
X0566500Y0324000
M30
