%FSAX24Y24*%
%MOIN*%
G70*
G01*
G75*
G04 Layer_Color=16711935*
%ADD10R,0.0787X0.0197*%
%ADD11R,0.0354X0.0787*%
%ADD12R,0.0512X0.0433*%
%ADD13C,0.0200*%
%ADD14C,0.0100*%
%ADD15C,0.0551*%
%ADD16R,0.0787X0.0787*%
%ADD17C,0.0610*%
%ADD18C,0.0709*%
%ADD19R,0.0639X0.0639*%
%ADD20R,0.0866X0.1181*%
%ADD21C,0.1260*%
%ADD22C,0.0300*%
%ADD23C,0.0500*%
%ADD24C,0.0079*%
%ADD25C,0.0080*%
%ADD26R,0.0867X0.0277*%
%ADD27R,0.0434X0.0867*%
%ADD28R,0.0592X0.0513*%
%ADD29C,0.0631*%
%ADD30R,0.0867X0.0867*%
%ADD31C,0.0690*%
%ADD32C,0.0789*%
%ADD33R,0.0719X0.0719*%
%ADD34R,0.0946X0.1261*%
%ADD35C,0.1340*%
D29*
X045700Y025450D02*
D03*
X060321Y030121D02*
D03*
X045700Y029230D02*
D03*
Y027340D02*
D03*
D30*
X051454Y030150D02*
D03*
X048500Y024540D02*
D03*
X052440D02*
D03*
X056380D02*
D03*
X049480D02*
D03*
X051330D02*
D03*
X060320D02*
D03*
X052440Y026780D02*
D03*
Y028900D02*
D03*
X054410Y030150D02*
D03*
X058350D02*
D03*
X060320Y027920D02*
D03*
X050470Y030150D02*
D03*
X049480D02*
D03*
X047520D02*
D03*
X046530D02*
D03*
X047520Y024540D02*
D03*
D31*
X048175Y025465D02*
D03*
X048156Y029255D02*
D03*
D32*
X039050Y028250D02*
D03*
X040050D02*
D03*
X041050D02*
D03*
X042050D02*
D03*
X043050D02*
D03*
Y027250D02*
D03*
X042050D02*
D03*
X041050D02*
D03*
X040050D02*
D03*
X039050Y032350D02*
D03*
X040050D02*
D03*
X041050D02*
D03*
X042050D02*
D03*
X043050D02*
D03*
Y031350D02*
D03*
X042050D02*
D03*
X041050D02*
D03*
X040050D02*
D03*
D33*
X039050Y027250D02*
D03*
Y031350D02*
D03*
D34*
X038250Y023700D02*
D03*
X043270D02*
D03*
D35*
X056650Y032400D02*
D03*
M02*
