%FSAX24Y24*%
%MOIN*%
G70*
G01*
G75*
G04 Layer_Physical_Order=2*
G04 Layer_Color=16711680*
%ADD10R,0.0787X0.0197*%
%ADD11R,0.0354X0.0787*%
%ADD12R,0.0512X0.0433*%
%ADD13C,0.0200*%
%ADD14C,0.0100*%
%ADD15C,0.0551*%
%ADD16R,0.0787X0.0787*%
%ADD17C,0.0610*%
%ADD18C,0.0709*%
%ADD19R,0.0639X0.0639*%
%ADD20R,0.0866X0.1181*%
%ADD21C,0.1260*%
%ADD22C,0.0300*%
%ADD23C,0.0500*%
G36*
X062250Y024150D02*
X062350Y024050D01*
X062300Y024000D01*
X044050Y023950D01*
Y020300D01*
X044050D01*
Y020300D01*
X036950D01*
Y033600D01*
X062250D01*
Y024150D01*
D02*
G37*
%LPC*%
G36*
X052340Y027274D02*
X051946D01*
Y026880D01*
X052340D01*
Y027274D01*
D02*
G37*
G36*
X052934Y026680D02*
X052540D01*
Y026286D01*
X052934D01*
Y026680D01*
D02*
G37*
G36*
X052340D02*
X051946D01*
Y026286D01*
X052340D01*
Y026680D01*
D02*
G37*
G36*
X052934Y027274D02*
X052540D01*
Y026880D01*
X052934D01*
Y027274D01*
D02*
G37*
G36*
X060220Y027820D02*
X059826D01*
Y027426D01*
X060220D01*
Y027820D01*
D02*
G37*
G36*
X046065Y027240D02*
X045800D01*
Y026975D01*
X045889Y027012D01*
X045968Y027072D01*
X046028Y027150D01*
X046065Y027240D01*
D02*
G37*
G36*
X045600D02*
X045335D01*
X045372Y027150D01*
X045432Y027072D01*
X045511Y027012D01*
X045600Y026975D01*
Y027240D01*
D02*
G37*
G36*
X037684Y025650D02*
X037550D01*
Y025516D01*
X037630Y025570D01*
X037684Y025650D01*
D02*
G37*
G36*
X037350D02*
X037216D01*
X037270Y025570D01*
X037350Y025516D01*
Y025650D01*
D02*
G37*
G36*
X046065Y025350D02*
X045800D01*
Y025085D01*
X045889Y025122D01*
X045968Y025182D01*
X046028Y025261D01*
X046065Y025350D01*
D02*
G37*
G36*
X045600Y025815D02*
X045511Y025778D01*
X045432Y025718D01*
X045372Y025639D01*
X045335Y025550D01*
X045600D01*
Y025815D01*
D02*
G37*
G36*
X037550Y025984D02*
Y025850D01*
X037684D01*
X037630Y025930D01*
X037550Y025984D01*
D02*
G37*
G36*
X037350D02*
X037270Y025930D01*
X037216Y025850D01*
X037350D01*
Y025984D01*
D02*
G37*
G36*
X045800Y025815D02*
Y025550D01*
X046065D01*
X046028Y025639D01*
X045968Y025718D01*
X045889Y025778D01*
X045800Y025815D01*
D02*
G37*
G36*
X060814Y027820D02*
X060420D01*
Y027426D01*
X060814D01*
Y027820D01*
D02*
G37*
G36*
X048558Y028734D02*
X043350D01*
X043291Y028722D01*
X043280Y028720D01*
X043220Y028680D01*
X043199Y028658D01*
X043163Y028673D01*
X043050Y028688D01*
X042937Y028673D01*
X042831Y028629D01*
X042740Y028560D01*
X042671Y028469D01*
X042627Y028363D01*
X042612Y028250D01*
X042627Y028137D01*
X042671Y028031D01*
X042740Y027940D01*
X042831Y027871D01*
X042937Y027827D01*
X043050Y027812D01*
X043163Y027827D01*
X043269Y027871D01*
X043360Y027940D01*
X043429Y028031D01*
X043473Y028137D01*
X043488Y028250D01*
X043478Y028329D01*
X043511Y028366D01*
X043842D01*
X043861Y028320D01*
X043199Y027658D01*
X043163Y027673D01*
X043050Y027688D01*
X042937Y027673D01*
X042831Y027629D01*
X042740Y027560D01*
X042671Y027469D01*
X042627Y027363D01*
X042612Y027250D01*
X042627Y027137D01*
X042671Y027031D01*
X042740Y026940D01*
X042752Y026931D01*
X042736Y026884D01*
X042364D01*
X042348Y026931D01*
X042360Y026940D01*
X042429Y027031D01*
X042473Y027137D01*
X042488Y027250D01*
X042473Y027363D01*
X042429Y027469D01*
X042360Y027560D01*
X042269Y027629D01*
X042163Y027673D01*
X042050Y027688D01*
X041937Y027673D01*
X041831Y027629D01*
X041740Y027560D01*
X041671Y027469D01*
X041627Y027363D01*
X041612Y027250D01*
X041627Y027137D01*
X041671Y027031D01*
X041740Y026940D01*
X041752Y026931D01*
X041736Y026884D01*
X041364D01*
X041348Y026931D01*
X041360Y026940D01*
X041429Y027031D01*
X041473Y027137D01*
X041488Y027250D01*
X041473Y027363D01*
X041429Y027469D01*
X041360Y027560D01*
X041269Y027629D01*
X041163Y027673D01*
X041050Y027688D01*
X040937Y027673D01*
X040831Y027629D01*
X040740Y027560D01*
X040671Y027469D01*
X040627Y027363D01*
X040612Y027250D01*
X040627Y027137D01*
X040671Y027031D01*
X040740Y026940D01*
X040752Y026931D01*
X040736Y026884D01*
X040676D01*
X040458Y027101D01*
X040473Y027137D01*
X040488Y027250D01*
X040473Y027363D01*
X040429Y027469D01*
X040360Y027560D01*
X040269Y027629D01*
X040163Y027673D01*
X040050Y027688D01*
X039937Y027673D01*
X039831Y027629D01*
X039740Y027560D01*
X039671Y027469D01*
X039627Y027363D01*
X039612Y027250D01*
X039627Y027137D01*
X039671Y027031D01*
X039740Y026940D01*
X039831Y026871D01*
X039937Y026827D01*
X040050Y026812D01*
X040163Y026827D01*
X040199Y026842D01*
X040411Y026630D01*
X040392Y026584D01*
X039976D01*
X039450Y027110D01*
Y027650D01*
X038775D01*
X038755Y027696D01*
X038901Y027842D01*
X038937Y027827D01*
X039050Y027812D01*
X039163Y027827D01*
X039269Y027871D01*
X039360Y027940D01*
X039429Y028031D01*
X039473Y028137D01*
X039488Y028250D01*
X039473Y028363D01*
X039429Y028469D01*
X039360Y028560D01*
X039269Y028629D01*
X039163Y028673D01*
X039050Y028688D01*
X038937Y028673D01*
X038831Y028629D01*
X038740Y028560D01*
X038671Y028469D01*
X038627Y028363D01*
X038612Y028250D01*
X038627Y028137D01*
X038642Y028101D01*
X038270Y027730D01*
X038230Y027670D01*
X038228Y027659D01*
X038216Y027600D01*
Y026900D01*
X038228Y026841D01*
X038230Y026830D01*
X038270Y026770D01*
X039100Y025940D01*
X039160Y025900D01*
X039171Y025898D01*
X039230Y025886D01*
X047420D01*
X047479Y025898D01*
X047490Y025900D01*
X047550Y025940D01*
X048048Y026439D01*
X048084Y026412D01*
X048164Y026378D01*
X048250Y026367D01*
X048336Y026378D01*
X048416Y026412D01*
X048485Y026465D01*
X048538Y026534D01*
X048572Y026614D01*
X048583Y026700D01*
X048572Y026786D01*
X048538Y026866D01*
X048485Y026935D01*
X048416Y026988D01*
X048336Y027022D01*
X048250Y027033D01*
X048164Y027022D01*
X048084Y026988D01*
X048015Y026935D01*
X047978Y026887D01*
X047344Y026254D01*
X044478D01*
X044459Y026300D01*
X044785Y026626D01*
X044850Y026617D01*
X044936Y026628D01*
X045016Y026662D01*
X045085Y026715D01*
X045138Y026784D01*
X045172Y026864D01*
X045183Y026950D01*
X045172Y027036D01*
X045138Y027116D01*
X045085Y027185D01*
X045016Y027238D01*
X044936Y027272D01*
X044850Y027283D01*
X044764Y027272D01*
X044684Y027238D01*
X044615Y027185D01*
X044562Y027116D01*
X044528Y027036D01*
X044517Y026950D01*
X044526Y026885D01*
X044224Y026584D01*
X043658D01*
X043639Y026630D01*
X044776Y027766D01*
X045681D01*
X045681Y027766D01*
X045719D01*
X045719Y027766D01*
X046524D01*
X046976Y027315D01*
X046967Y027250D01*
X046978Y027164D01*
X047012Y027084D01*
X047065Y027015D01*
X047134Y026962D01*
X047214Y026928D01*
X047300Y026917D01*
X047386Y026928D01*
X047466Y026962D01*
X047535Y027015D01*
X047588Y027084D01*
X047622Y027164D01*
X047633Y027250D01*
X047622Y027336D01*
X047588Y027416D01*
X047535Y027485D01*
X047466Y027538D01*
X047386Y027572D01*
X047300Y027583D01*
X047235Y027574D01*
X046789Y028020D01*
X046808Y028066D01*
X048138D01*
X048171Y028029D01*
X048167Y028000D01*
X048178Y027914D01*
X048212Y027834D01*
X048265Y027765D01*
X048334Y027712D01*
X048414Y027678D01*
X048500Y027667D01*
X048586Y027678D01*
X048666Y027712D01*
X048702Y027739D01*
X048746Y027717D01*
Y027658D01*
X048709Y027625D01*
X048650Y027633D01*
X048564Y027622D01*
X048484Y027588D01*
X048415Y027535D01*
X048362Y027466D01*
X048328Y027386D01*
X048317Y027300D01*
X048328Y027214D01*
X048362Y027134D01*
X048415Y027065D01*
X048484Y027012D01*
X048564Y026978D01*
X048650Y026967D01*
X048736Y026978D01*
X048816Y027012D01*
X048885Y027065D01*
X048938Y027134D01*
X048972Y027214D01*
X048983Y027300D01*
X048974Y027365D01*
X049060Y027450D01*
X049100Y027510D01*
X049102Y027521D01*
X049114Y027580D01*
Y028178D01*
X049100Y028248D01*
X049086Y028268D01*
X049060Y028308D01*
X048688Y028680D01*
X048628Y028720D01*
X048617Y028722D01*
X048558Y028734D01*
D02*
G37*
G36*
X052934Y028800D02*
X052540D01*
Y028406D01*
X052934D01*
Y028800D01*
D02*
G37*
G36*
X052340D02*
X051946D01*
Y028406D01*
X052340D01*
Y028800D01*
D02*
G37*
G36*
X045600Y029130D02*
X045335D01*
X045372Y029041D01*
X045432Y028962D01*
X045511Y028902D01*
X045600Y028865D01*
Y029130D01*
D02*
G37*
G36*
X052340Y029394D02*
X051946D01*
Y029000D01*
X052340D01*
Y029394D01*
D02*
G37*
G36*
X048014Y030050D02*
X047620D01*
Y029656D01*
X047991D01*
X047992Y029653D01*
D01*
X048001Y029607D01*
X047961Y029591D01*
X047881Y029529D01*
X047819Y029449D01*
X047780Y029355D01*
X047767Y029255D01*
X047780Y029154D01*
X047819Y029060D01*
X047881Y028980D01*
X047961Y028918D01*
X048055Y028879D01*
X048156Y028866D01*
X048256Y028879D01*
X048350Y028918D01*
X048430Y028980D01*
X048492Y029060D01*
X048531Y029154D01*
X048544Y029255D01*
X048531Y029355D01*
X048492Y029449D01*
X048430Y029529D01*
X048350Y029591D01*
X048256Y029630D01*
X048156Y029643D01*
X048055Y029630D01*
X048039Y029667D01*
X048039D01*
X048036Y029675D01*
D01*
X048014Y029729D01*
Y030050D01*
D02*
G37*
G36*
X046065Y029130D02*
X045800D01*
Y028865D01*
X045889Y028902D01*
X045968Y028962D01*
X046028Y029041D01*
X046065Y029130D01*
D02*
G37*
G36*
X040050Y028688D02*
X039937Y028673D01*
X039831Y028629D01*
X039740Y028560D01*
X039671Y028469D01*
X039627Y028363D01*
X039612Y028250D01*
X039627Y028137D01*
X039671Y028031D01*
X039740Y027940D01*
X039831Y027871D01*
X039937Y027827D01*
X040050Y027812D01*
X040163Y027827D01*
X040269Y027871D01*
X040360Y027940D01*
X040429Y028031D01*
X040473Y028137D01*
X040488Y028250D01*
X040473Y028363D01*
X040429Y028469D01*
X040360Y028560D01*
X040269Y028629D01*
X040163Y028673D01*
X040050Y028688D01*
D02*
G37*
G36*
X045800Y027705D02*
Y027440D01*
X046065D01*
X046028Y027529D01*
X045968Y027608D01*
X045889Y027668D01*
X045800Y027705D01*
D02*
G37*
G36*
X045600D02*
X045511Y027668D01*
X045432Y027608D01*
X045372Y027529D01*
X045335Y027440D01*
X045600D01*
Y027705D01*
D02*
G37*
G36*
X041050Y028688D02*
X040937Y028673D01*
X040831Y028629D01*
X040740Y028560D01*
X040671Y028469D01*
X040627Y028363D01*
X040612Y028250D01*
X040627Y028137D01*
X040671Y028031D01*
X040740Y027940D01*
X040831Y027871D01*
X040937Y027827D01*
X041050Y027812D01*
X041163Y027827D01*
X041269Y027871D01*
X041360Y027940D01*
X041429Y028031D01*
X041473Y028137D01*
X041488Y028250D01*
X041473Y028363D01*
X041429Y028469D01*
X041360Y028560D01*
X041269Y028629D01*
X041163Y028673D01*
X041050Y028688D01*
D02*
G37*
G36*
X060814Y028414D02*
X060420D01*
Y028020D01*
X060814D01*
Y028414D01*
D02*
G37*
G36*
X060220D02*
X059826D01*
Y028020D01*
X060220D01*
Y028414D01*
D02*
G37*
G36*
X042050Y028688D02*
X041937Y028673D01*
X041831Y028629D01*
X041740Y028560D01*
X041671Y028469D01*
X041627Y028363D01*
X041612Y028250D01*
X041627Y028137D01*
X041671Y028031D01*
X041740Y027940D01*
X041831Y027871D01*
X041937Y027827D01*
X042050Y027812D01*
X042163Y027827D01*
X042269Y027871D01*
X042360Y027940D01*
X042429Y028031D01*
X042473Y028137D01*
X042488Y028250D01*
X042473Y028363D01*
X042429Y028469D01*
X042360Y028560D01*
X042269Y028629D01*
X042163Y028673D01*
X042050Y028688D01*
D02*
G37*
G36*
X045600Y025350D02*
X045335D01*
X045372Y025261D01*
X045432Y025182D01*
X045511Y025122D01*
X045600Y025085D01*
Y025350D01*
D02*
G37*
G36*
X040650Y021134D02*
Y021000D01*
X040784D01*
X040730Y021080D01*
X040650Y021134D01*
D02*
G37*
G36*
X040450D02*
X040370Y021080D01*
X040316Y021000D01*
X040450D01*
Y021134D01*
D02*
G37*
G36*
X037600Y021084D02*
Y020950D01*
X037734D01*
X037680Y021030D01*
X037600Y021084D01*
D02*
G37*
G36*
X043450Y021184D02*
X043370Y021130D01*
X043316Y021050D01*
X043450D01*
Y021184D01*
D02*
G37*
G36*
X043783Y024371D02*
X042757D01*
Y023029D01*
X043783D01*
Y024371D01*
D02*
G37*
G36*
X038763D02*
X037737D01*
Y023029D01*
X038763D01*
Y024371D01*
D02*
G37*
G36*
X043650Y021184D02*
Y021050D01*
X043784D01*
X043730Y021130D01*
X043650Y021184D01*
D02*
G37*
G36*
X040450Y020800D02*
X040316D01*
X040370Y020720D01*
X040450Y020666D01*
Y020800D01*
D02*
G37*
G36*
X037734Y020750D02*
X037600D01*
Y020616D01*
X037680Y020670D01*
X037734Y020750D01*
D02*
G37*
G36*
X037400D02*
X037266D01*
X037320Y020670D01*
X037400Y020616D01*
Y020750D01*
D02*
G37*
G36*
X040784Y020800D02*
X040650D01*
Y020666D01*
X040730Y020720D01*
X040784Y020800D01*
D02*
G37*
G36*
X037400Y021084D02*
X037320Y021030D01*
X037266Y020950D01*
X037400D01*
Y021084D01*
D02*
G37*
G36*
X043784Y020850D02*
X043650D01*
Y020716D01*
X043730Y020770D01*
X043784Y020850D01*
D02*
G37*
G36*
X043450D02*
X043316D01*
X043370Y020770D01*
X043450Y020716D01*
Y020850D01*
D02*
G37*
G36*
X048175Y025854D02*
X048075Y025840D01*
X047981Y025802D01*
X047901Y025740D01*
X047839Y025659D01*
X047800Y025566D01*
X047787Y025465D01*
X047800Y025365D01*
X047839Y025271D01*
X047901Y025191D01*
X047981Y025129D01*
X048075Y025090D01*
X048123Y025084D01*
X048120Y025034D01*
X047620D01*
Y024540D01*
X047520D01*
Y024440D01*
X047026D01*
Y024046D01*
X049974D01*
Y024440D01*
X049480D01*
Y024540D01*
X049380D01*
Y025034D01*
X048600D01*
Y024540D01*
X048400D01*
Y025034D01*
X048230D01*
X048227Y025084D01*
X048276Y025090D01*
X048369Y025129D01*
X048450Y025191D01*
X048512Y025271D01*
X048550Y025365D01*
X048564Y025465D01*
X048550Y025566D01*
X048512Y025659D01*
X048450Y025740D01*
X048369Y025802D01*
X048276Y025840D01*
X048175Y025854D01*
D02*
G37*
G36*
X052934Y025034D02*
X052540D01*
Y024640D01*
X052934D01*
Y025034D01*
D02*
G37*
G36*
X052340D02*
X051946D01*
Y024640D01*
X052340D01*
Y025034D01*
D02*
G37*
G36*
X051824D02*
X051430D01*
Y024640D01*
X051824D01*
Y025034D01*
D02*
G37*
G36*
X056280D02*
X055886D01*
Y024640D01*
X056280D01*
Y025034D01*
D02*
G37*
G36*
X060814D02*
X060420D01*
Y024640D01*
X060814D01*
Y025034D01*
D02*
G37*
G36*
X060220D02*
X059826D01*
Y024640D01*
X060220D01*
Y025034D01*
D02*
G37*
G36*
X056874D02*
X056480D01*
Y024640D01*
X056874D01*
Y025034D01*
D02*
G37*
G36*
Y024440D02*
X055886D01*
Y024046D01*
X056874D01*
Y024440D01*
D02*
G37*
G36*
X052934D02*
X051946D01*
Y024046D01*
X052934D01*
Y024440D01*
D02*
G37*
G36*
X051824D02*
X050836D01*
Y024046D01*
X051824D01*
Y024440D01*
D02*
G37*
G36*
X060814D02*
X059826D01*
Y024046D01*
X060814D01*
Y024440D01*
D02*
G37*
G36*
X051230Y025034D02*
X050836D01*
Y024640D01*
X051230D01*
Y025034D01*
D02*
G37*
G36*
X049974D02*
X049580D01*
Y024640D01*
X049974D01*
Y025034D01*
D02*
G37*
G36*
X047420D02*
X047026D01*
Y024640D01*
X047420D01*
Y025034D01*
D02*
G37*
G36*
X044550Y031584D02*
Y031450D01*
X044684D01*
X044630Y031530D01*
X044550Y031584D01*
D02*
G37*
G36*
X044350D02*
X044270Y031530D01*
X044216Y031450D01*
X044350D01*
Y031584D01*
D02*
G37*
G36*
X047584Y031500D02*
X047450D01*
Y031366D01*
X047530Y031420D01*
X047584Y031500D01*
D02*
G37*
G36*
X056650Y033113D02*
X056511Y033100D01*
X056377Y033059D01*
X056254Y032993D01*
X056146Y032904D01*
X056057Y032796D01*
X055991Y032673D01*
X055950Y032539D01*
X055937Y032400D01*
X055950Y032261D01*
X055991Y032127D01*
X056057Y032004D01*
X056146Y031896D01*
X056254Y031807D01*
X056377Y031741D01*
X056511Y031700D01*
X056650Y031687D01*
X056789Y031700D01*
X056923Y031741D01*
X057046Y031807D01*
X057154Y031896D01*
X057243Y032004D01*
X057309Y032127D01*
X057350Y032261D01*
X057363Y032400D01*
X057350Y032539D01*
X057309Y032673D01*
X057243Y032796D01*
X057154Y032904D01*
X057046Y032993D01*
X056923Y033059D01*
X056789Y033100D01*
X056650Y033113D01*
D02*
G37*
G36*
X039050Y032788D02*
X038937Y032773D01*
X038831Y032729D01*
X038740Y032660D01*
X038671Y032569D01*
X038627Y032463D01*
X038612Y032350D01*
X038627Y032237D01*
X038671Y032131D01*
X038740Y032040D01*
X038831Y031971D01*
X038937Y031927D01*
X039050Y031912D01*
X039163Y031927D01*
X039269Y031971D01*
X039360Y032040D01*
X039429Y032131D01*
X039473Y032237D01*
X039488Y032350D01*
X039473Y032463D01*
X039429Y032569D01*
X039360Y032660D01*
X039269Y032729D01*
X039163Y032773D01*
X039050Y032788D01*
D02*
G37*
G36*
X047450Y031834D02*
Y031700D01*
X047584D01*
X047530Y031780D01*
X047450Y031834D01*
D02*
G37*
G36*
X047250D02*
X047170Y031780D01*
X047116Y031700D01*
X047250D01*
Y031834D01*
D02*
G37*
G36*
Y031500D02*
X047116D01*
X047170Y031420D01*
X047250Y031366D01*
Y031500D01*
D02*
G37*
G36*
X042050Y031788D02*
X041937Y031773D01*
X041831Y031729D01*
X041740Y031660D01*
X041671Y031569D01*
X041627Y031463D01*
X041612Y031350D01*
X041627Y031237D01*
X041671Y031131D01*
X041740Y031040D01*
X041831Y030971D01*
X041937Y030927D01*
X042050Y030912D01*
X042163Y030927D01*
X042269Y030971D01*
X042360Y031040D01*
X042429Y031131D01*
X042473Y031237D01*
X042488Y031350D01*
X042473Y031463D01*
X042429Y031569D01*
X042360Y031660D01*
X042269Y031729D01*
X042163Y031773D01*
X042050Y031788D01*
D02*
G37*
G36*
X041050D02*
X040937Y031773D01*
X040831Y031729D01*
X040740Y031660D01*
X040671Y031569D01*
X040627Y031463D01*
X040612Y031350D01*
X040627Y031237D01*
X040671Y031131D01*
X040740Y031040D01*
X040831Y030971D01*
X040937Y030927D01*
X041050Y030912D01*
X041163Y030927D01*
X041269Y030971D01*
X041360Y031040D01*
X041429Y031131D01*
X041473Y031237D01*
X041488Y031350D01*
X041473Y031463D01*
X041429Y031569D01*
X041360Y031660D01*
X041269Y031729D01*
X041163Y031773D01*
X041050Y031788D01*
D02*
G37*
G36*
X040050D02*
X039937Y031773D01*
X039831Y031729D01*
X039740Y031660D01*
X039671Y031569D01*
X039627Y031463D01*
X039612Y031350D01*
X039627Y031237D01*
X039671Y031131D01*
X039740Y031040D01*
X039831Y030971D01*
X039937Y030927D01*
X040050Y030912D01*
X040163Y030927D01*
X040269Y030971D01*
X040360Y031040D01*
X040429Y031131D01*
X040473Y031237D01*
X040488Y031350D01*
X040473Y031463D01*
X040429Y031569D01*
X040360Y031660D01*
X040269Y031729D01*
X040163Y031773D01*
X040050Y031788D01*
D02*
G37*
G36*
X043050D02*
X042937Y031773D01*
X042831Y031729D01*
X042740Y031660D01*
X042671Y031569D01*
X042627Y031463D01*
X042612Y031350D01*
X042627Y031237D01*
X042671Y031131D01*
X042740Y031040D01*
X042831Y030971D01*
X042937Y030927D01*
X043050Y030912D01*
X043163Y030927D01*
X043269Y030971D01*
X043360Y031040D01*
X043429Y031131D01*
X043473Y031237D01*
X043488Y031350D01*
X043473Y031463D01*
X043429Y031569D01*
X043360Y031660D01*
X043269Y031729D01*
X043163Y031773D01*
X043050Y031788D01*
D02*
G37*
G36*
X044684Y031250D02*
X044550D01*
Y031116D01*
X044630Y031170D01*
X044684Y031250D01*
D02*
G37*
G36*
X044350D02*
X044216D01*
X044270Y031170D01*
X044350Y031116D01*
Y031250D01*
D02*
G37*
G36*
X039450Y031750D02*
X038650D01*
Y030950D01*
X039450D01*
Y031750D01*
D02*
G37*
G36*
X040050Y032788D02*
X039937Y032773D01*
X039831Y032729D01*
X039740Y032660D01*
X039671Y032569D01*
X039627Y032463D01*
X039612Y032350D01*
X039627Y032237D01*
X039671Y032131D01*
X039740Y032040D01*
X039831Y031971D01*
X039937Y031927D01*
X040050Y031912D01*
X040163Y031927D01*
X040269Y031971D01*
X040360Y032040D01*
X040429Y032131D01*
X040473Y032237D01*
X040488Y032350D01*
X040473Y032463D01*
X040429Y032569D01*
X040360Y032660D01*
X040269Y032729D01*
X040163Y032773D01*
X040050Y032788D01*
D02*
G37*
G36*
X061750Y033334D02*
Y033200D01*
X061884D01*
X061830Y033280D01*
X061750Y033334D01*
D02*
G37*
G36*
X061550D02*
X061470Y033280D01*
X061416Y033200D01*
X061550D01*
Y033334D01*
D02*
G37*
G36*
X054034Y033150D02*
X053900D01*
Y033016D01*
X053980Y033070D01*
X054034Y033150D01*
D02*
G37*
G36*
X037400Y033484D02*
X037320Y033430D01*
X037266Y033350D01*
X037400D01*
Y033484D01*
D02*
G37*
G36*
X053900D02*
Y033350D01*
X054034D01*
X053980Y033430D01*
X053900Y033484D01*
D02*
G37*
G36*
X053700D02*
X053620Y033430D01*
X053566Y033350D01*
X053700D01*
Y033484D01*
D02*
G37*
G36*
X037600D02*
Y033350D01*
X037734D01*
X037680Y033430D01*
X037600Y033484D01*
D02*
G37*
G36*
X053700Y033150D02*
X053566D01*
X053620Y033070D01*
X053700Y033016D01*
Y033150D01*
D02*
G37*
G36*
X043050Y032788D02*
X042937Y032773D01*
X042831Y032729D01*
X042740Y032660D01*
X042671Y032569D01*
X042627Y032463D01*
X042612Y032350D01*
X042627Y032237D01*
X042671Y032131D01*
X042740Y032040D01*
X042831Y031971D01*
X042937Y031927D01*
X043050Y031912D01*
X043163Y031927D01*
X043269Y031971D01*
X043360Y032040D01*
X043429Y032131D01*
X043473Y032237D01*
X043488Y032350D01*
X043473Y032463D01*
X043429Y032569D01*
X043360Y032660D01*
X043269Y032729D01*
X043163Y032773D01*
X043050Y032788D01*
D02*
G37*
G36*
X042050D02*
X041937Y032773D01*
X041831Y032729D01*
X041740Y032660D01*
X041671Y032569D01*
X041627Y032463D01*
X041612Y032350D01*
X041627Y032237D01*
X041671Y032131D01*
X041740Y032040D01*
X041831Y031971D01*
X041937Y031927D01*
X042050Y031912D01*
X042163Y031927D01*
X042269Y031971D01*
X042360Y032040D01*
X042429Y032131D01*
X042473Y032237D01*
X042488Y032350D01*
X042473Y032463D01*
X042429Y032569D01*
X042360Y032660D01*
X042269Y032729D01*
X042163Y032773D01*
X042050Y032788D01*
D02*
G37*
G36*
X041050D02*
X040937Y032773D01*
X040831Y032729D01*
X040740Y032660D01*
X040671Y032569D01*
X040627Y032463D01*
X040612Y032350D01*
X040627Y032237D01*
X040671Y032131D01*
X040740Y032040D01*
X040831Y031971D01*
X040937Y031927D01*
X041050Y031912D01*
X041163Y031927D01*
X041269Y031971D01*
X041360Y032040D01*
X041429Y032131D01*
X041473Y032237D01*
X041488Y032350D01*
X041473Y032463D01*
X041429Y032569D01*
X041360Y032660D01*
X041269Y032729D01*
X041163Y032773D01*
X041050Y032788D01*
D02*
G37*
G36*
X061550Y033000D02*
X061416D01*
X061470Y032920D01*
X061550Y032866D01*
Y033000D01*
D02*
G37*
G36*
X037734Y033150D02*
X037600D01*
Y033016D01*
X037680Y033070D01*
X037734Y033150D01*
D02*
G37*
G36*
X037400D02*
X037266D01*
X037320Y033070D01*
X037400Y033016D01*
Y033150D01*
D02*
G37*
G36*
X061884Y033000D02*
X061750D01*
Y032866D01*
X061830Y032920D01*
X061884Y033000D01*
D02*
G37*
G36*
X054904Y030050D02*
X054510D01*
Y029656D01*
X054904D01*
Y030050D01*
D02*
G37*
G36*
X054310D02*
X053916D01*
Y029656D01*
X054310D01*
Y030050D01*
D02*
G37*
G36*
X051948D02*
X051554D01*
Y029656D01*
X051948D01*
Y030050D01*
D02*
G37*
G36*
X058250D02*
X057856D01*
Y029656D01*
X058250D01*
Y030050D01*
D02*
G37*
G36*
X060686Y030021D02*
X060421D01*
Y029756D01*
X060510Y029793D01*
X060589Y029853D01*
X060649Y029931D01*
X060686Y030021D01*
D02*
G37*
G36*
X060221D02*
X059956D01*
X059993Y029931D01*
X060053Y029853D01*
X060131Y029793D01*
X060221Y029756D01*
Y030021D01*
D02*
G37*
G36*
X058844Y030050D02*
X058450D01*
Y029656D01*
X058844D01*
Y030050D01*
D02*
G37*
G36*
X051354Y030644D02*
X050570D01*
Y030150D01*
Y029656D01*
X051354D01*
Y030150D01*
Y030644D01*
D02*
G37*
G36*
X045800Y029595D02*
Y029330D01*
X046065D01*
X046028Y029419D01*
X045968Y029498D01*
X045889Y029558D01*
X045800Y029595D01*
D02*
G37*
G36*
X045600D02*
X045511Y029558D01*
X045432Y029498D01*
X045372Y029419D01*
X045335Y029330D01*
X045600D01*
Y029595D01*
D02*
G37*
G36*
X052934Y029394D02*
X052540D01*
Y029000D01*
X052934D01*
Y029394D01*
D02*
G37*
G36*
X037300Y029750D02*
X037166D01*
X037220Y029670D01*
X037300Y029616D01*
Y029750D01*
D02*
G37*
G36*
X049380Y030050D02*
X048986D01*
Y029656D01*
X049380D01*
Y030050D01*
D02*
G37*
G36*
X046430D02*
X046036D01*
Y029656D01*
X046430D01*
Y030050D01*
D02*
G37*
G36*
X037634Y029750D02*
X037500D01*
Y029616D01*
X037580Y029670D01*
X037634Y029750D01*
D02*
G37*
G36*
X037300Y030084D02*
X037220Y030030D01*
X037166Y029950D01*
X037300D01*
Y030084D01*
D02*
G37*
G36*
X054310Y030644D02*
X053916D01*
Y030250D01*
X054310D01*
Y030644D01*
D02*
G37*
G36*
X051948D02*
X051554D01*
Y030250D01*
X051948D01*
Y030644D01*
D02*
G37*
G36*
X047059Y030644D02*
Y030644D01*
X047026Y030644D01*
X047025D01*
X047024D01*
X046991Y030644D01*
X046991Y030644D01*
Y030644D01*
X046630D01*
Y030150D01*
Y029656D01*
X046991D01*
X046991Y029656D01*
Y029656D01*
X047024Y029656D01*
X047025D01*
X047026D01*
X047059Y029656D01*
X047059Y029656D01*
Y029656D01*
X047420D01*
Y030150D01*
Y030644D01*
X047059D01*
X047059Y030644D01*
D02*
G37*
G36*
X058844Y030644D02*
X058450D01*
Y030250D01*
X058844D01*
Y030644D01*
D02*
G37*
G36*
X058250D02*
X057856D01*
Y030250D01*
X058250D01*
Y030644D01*
D02*
G37*
G36*
X054904D02*
X054510D01*
Y030250D01*
X054904D01*
Y030644D01*
D02*
G37*
G36*
X049380D02*
X048986D01*
Y030250D01*
X049380D01*
Y030644D01*
D02*
G37*
G36*
X050009Y030644D02*
Y030644D01*
X049976Y030644D01*
X049975D01*
X049974D01*
X049941Y030644D01*
X049941Y030644D01*
Y030644D01*
X049580D01*
Y030150D01*
Y029656D01*
X049941D01*
X049941Y029656D01*
Y029656D01*
X049974Y029656D01*
X049975D01*
X049976D01*
X050009Y029656D01*
X050009Y029656D01*
Y029656D01*
X050370D01*
Y030150D01*
Y030644D01*
X050009D01*
X050009Y030644D01*
D02*
G37*
G36*
X060221Y030486D02*
X060131Y030449D01*
X060053Y030389D01*
X059993Y030310D01*
X059956Y030221D01*
X060221D01*
Y030486D01*
D02*
G37*
G36*
X037500Y030084D02*
Y029950D01*
X037634D01*
X037580Y030030D01*
X037500Y030084D01*
D02*
G37*
G36*
X048014Y030644D02*
X047620D01*
Y030250D01*
X048014D01*
Y030644D01*
D02*
G37*
G36*
X046430D02*
X046036D01*
Y030250D01*
X046430D01*
Y030644D01*
D02*
G37*
G36*
X060421Y030486D02*
Y030221D01*
X060686D01*
X060649Y030310D01*
X060589Y030389D01*
X060510Y030449D01*
X060421Y030486D01*
D02*
G37*
%LPD*%
G36*
X044511Y028020D02*
X043400Y026909D01*
X043351Y026921D01*
X043348Y026931D01*
X043360Y026940D01*
X043429Y027031D01*
X043473Y027137D01*
X043488Y027250D01*
X043473Y027363D01*
X043458Y027399D01*
X044126Y028066D01*
X044492D01*
X044511Y028020D01*
D02*
G37*
G36*
X039741Y026300D02*
X039722Y026254D01*
X039306D01*
X038755Y026804D01*
X038775Y026850D01*
X039190D01*
X039741Y026300D01*
D02*
G37*
D13*
X048150Y026800D02*
X048250Y026700D01*
X040600D02*
X043450D01*
X040050Y027250D02*
X040600Y026700D01*
X039900Y026400D02*
X044300D01*
X039050Y027250D02*
X039900Y026400D01*
X044300D02*
X044850Y026950D01*
X039230Y026070D02*
X047420D01*
X038400Y026900D02*
X039230Y026070D01*
X047420D02*
X048150Y026800D01*
X038400Y026900D02*
Y027600D01*
X039050Y028250D01*
X048930Y027580D02*
Y028178D01*
X048650Y027300D02*
X048930Y027580D01*
X043050Y028250D02*
X043350Y028550D01*
X048558D01*
X048930Y028178D01*
X043050Y027250D02*
X044050Y028250D01*
X048250D01*
X048500Y028000D01*
X043450Y026700D02*
X044700Y027950D01*
X046600D01*
X047300Y027250D01*
D15*
X045700Y025450D02*
D03*
X060321Y030121D02*
D03*
X045700Y029230D02*
D03*
Y027340D02*
D03*
D16*
X051454Y030150D02*
D03*
X048500Y024540D02*
D03*
X052440D02*
D03*
X056380D02*
D03*
X049480D02*
D03*
X051330D02*
D03*
X060320D02*
D03*
X052440Y026780D02*
D03*
Y028900D02*
D03*
X054410Y030150D02*
D03*
X058350D02*
D03*
X060320Y027920D02*
D03*
X050470Y030150D02*
D03*
X049480D02*
D03*
X047520D02*
D03*
X046530D02*
D03*
X047520Y024540D02*
D03*
D17*
X048175Y025465D02*
D03*
X048156Y029255D02*
D03*
D18*
X039050Y028250D02*
D03*
X040050D02*
D03*
X041050D02*
D03*
X042050D02*
D03*
X043050D02*
D03*
Y027250D02*
D03*
X042050D02*
D03*
X041050D02*
D03*
X040050D02*
D03*
X039050Y032350D02*
D03*
X040050D02*
D03*
X041050D02*
D03*
X042050D02*
D03*
X043050D02*
D03*
Y031350D02*
D03*
X042050D02*
D03*
X041050D02*
D03*
X040050D02*
D03*
D19*
X039050Y027250D02*
D03*
Y031350D02*
D03*
D20*
X038250Y023700D02*
D03*
X043270D02*
D03*
D21*
X056650Y032400D02*
D03*
D22*
X047350Y031600D02*
D03*
X044450Y031350D02*
D03*
X061650Y033100D02*
D03*
X053800Y033250D02*
D03*
X037500D02*
D03*
X037400Y029850D02*
D03*
X037450Y025750D02*
D03*
X037500Y020850D02*
D03*
X040550Y020900D02*
D03*
X043550Y020950D02*
D03*
D23*
X048250Y026700D02*
D03*
X047300Y027250D02*
D03*
X044850Y026950D02*
D03*
X048650Y027300D02*
D03*
X048500Y028000D02*
D03*
M02*
