%FSAX24Y24*%
%MOIN*%
G70*
G01*
G75*
G04 Layer_Color=65535*
%ADD10R,0.0787X0.0197*%
%ADD11R,0.0354X0.0787*%
%ADD12R,0.0512X0.0433*%
%ADD13C,0.0200*%
%ADD14C,0.0100*%
%ADD15C,0.0551*%
%ADD16R,0.0787X0.0787*%
%ADD17C,0.0610*%
%ADD18C,0.0709*%
%ADD19R,0.0639X0.0639*%
%ADD20R,0.0866X0.1181*%
%ADD21C,0.1260*%
%ADD22C,0.0300*%
%ADD23C,0.0500*%
%ADD24C,0.0079*%
%ADD25C,0.0080*%
D14*
X045200Y024050D02*
X047520D01*
X045200D02*
Y031040D01*
X062180D01*
Y024050D02*
Y031040D01*
X047520Y024050D02*
X062180D01*
X049780Y025091D02*
Y025741D01*
X049268D02*
X049780D01*
X049258Y025820D02*
X049268Y025741D01*
X047122Y025820D02*
X049258D01*
X047122Y025603D02*
Y025820D01*
X046797Y025603D02*
X047122D01*
X047033Y028890D02*
X047102Y028831D01*
X046817Y028890D02*
X047033D01*
X046817D02*
Y029599D01*
X049829D01*
Y029048D02*
Y029599D01*
X049179Y029048D02*
X049829D01*
X049179Y028821D02*
Y029048D01*
X047102Y028831D02*
X049179Y028821D01*
X046797Y025091D02*
X049780D01*
X046797D02*
Y025603D01*
X040568Y025663D02*
X041670D01*
X037113Y025978D02*
Y029522D01*
X044987D01*
Y025978D02*
Y029512D01*
X037113Y025978D02*
X044987D01*
X040568Y029763D02*
X041670D01*
X037113Y030078D02*
Y033622D01*
X044987D01*
Y030078D02*
Y033612D01*
X037113Y030078D02*
X044987D01*
X037108Y020393D02*
X044014D01*
X044018Y025452D01*
X037108D02*
X044018D01*
X037108Y020393D02*
Y025452D01*
X043350Y025150D02*
X043250Y025250D01*
X043050D01*
X042950Y025150D01*
Y024750D01*
X043050Y024650D01*
X043250D01*
X043350Y024750D01*
X043550Y024650D02*
X043750D01*
X043650D01*
Y025250D01*
X043550Y025150D01*
X045250Y032600D02*
X045383D01*
X045317D01*
Y032200D01*
X045250D01*
X045383D01*
X045583D02*
Y032600D01*
X045783D01*
X045850Y032533D01*
Y032400D01*
X045783Y032333D01*
X045583D01*
X045717D02*
X045850Y032200D01*
X045983D02*
Y032600D01*
X046250Y032200D01*
Y032600D01*
X046383Y032200D02*
Y032467D01*
X046516Y032600D01*
X046650Y032467D01*
Y032200D01*
Y032400D01*
X046383D01*
X047049Y032533D02*
X046983Y032600D01*
X046849D01*
X046783Y032533D01*
Y032467D01*
X046849Y032400D01*
X046983D01*
X047049Y032333D01*
Y032267D01*
X046983Y032200D01*
X046849D01*
X046783Y032267D01*
X047583Y032400D02*
X047849D01*
X048382Y032200D02*
Y032600D01*
X048516Y032467D01*
X048649Y032600D01*
Y032200D01*
X048782Y032467D02*
Y032267D01*
X048849Y032200D01*
X049049D01*
Y032467D01*
X049182Y032200D02*
X049382D01*
X049449Y032267D01*
X049382Y032333D01*
X049249D01*
X049182Y032400D01*
X049249Y032467D01*
X049449D01*
X049649Y032533D02*
Y032467D01*
X049582D01*
X049715D01*
X049649D01*
Y032267D01*
X049715Y032200D01*
X049915D02*
X050048D01*
X049982D01*
Y032467D01*
X049915D01*
X050648Y032400D02*
X050915D01*
X051448Y032467D02*
X051581Y032200D01*
X051715Y032467D01*
X052048Y032200D02*
X051915D01*
X051848Y032267D01*
Y032400D01*
X051915Y032467D01*
X052048D01*
X052114Y032400D01*
Y032333D01*
X051848D01*
X052248Y032467D02*
Y032200D01*
Y032333D01*
X052314Y032400D01*
X052381Y032467D01*
X052448D01*
X052648Y032200D02*
X052781D01*
X052714D01*
Y032600D01*
X052648Y032533D01*
X052981Y032200D02*
Y032267D01*
X053047D01*
Y032200D01*
X052981D01*
X053314Y032533D02*
X053381Y032600D01*
X053514D01*
X053581Y032533D01*
Y032267D01*
X053514Y032200D01*
X053381D01*
X053314Y032267D01*
Y032533D01*
X045250Y031700D02*
Y031300D01*
Y031433D01*
X045517Y031700D01*
X045317Y031500D01*
X045517Y031300D01*
X045850Y031700D02*
X045717D01*
X045650Y031633D01*
Y031367D01*
X045717Y031300D01*
X045850D01*
X045916Y031367D01*
Y031633D01*
X045850Y031700D01*
X046050Y031300D02*
Y031700D01*
X046250D01*
X046316Y031633D01*
Y031500D01*
X046250Y031433D01*
X046050D01*
X046183D02*
X046316Y031300D01*
X046450Y031700D02*
Y031367D01*
X046516Y031300D01*
X046650D01*
X046716Y031367D01*
Y031700D01*
X046849D02*
X047116D01*
Y031633D01*
X046849Y031367D01*
Y031300D01*
X047116D01*
X047249D02*
Y031567D01*
X047383Y031700D01*
X047516Y031567D01*
Y031300D01*
Y031500D01*
X047249D01*
X048316Y031633D02*
X048249Y031700D01*
X048116D01*
X048049Y031633D01*
Y031567D01*
X048116Y031500D01*
X048249D01*
X048316Y031433D01*
Y031367D01*
X048249Y031300D01*
X048116D01*
X048049Y031367D01*
X048716Y031700D02*
X048449D01*
Y031500D01*
X048582D01*
X048449D01*
Y031300D01*
X048849D02*
Y031700D01*
X049049D01*
X049115Y031633D01*
Y031500D01*
X049049Y031433D01*
X048849D01*
X049849Y031300D02*
X049715D01*
X049649Y031367D01*
Y031500D01*
X049715Y031567D01*
X049849D01*
X049915Y031500D01*
Y031433D01*
X049649D01*
X050048Y031567D02*
X050315Y031300D01*
X050182Y031433D01*
X050315Y031567D01*
X050048Y031300D01*
X050515Y031633D02*
Y031567D01*
X050448D01*
X050582D01*
X050515D01*
Y031367D01*
X050582Y031300D01*
X050981D02*
X050848D01*
X050782Y031367D01*
Y031500D01*
X050848Y031567D01*
X050981D01*
X051048Y031500D01*
Y031433D01*
X050782D01*
X051181Y031300D02*
Y031567D01*
X051381D01*
X051448Y031500D01*
Y031300D01*
X051581D02*
X051781D01*
X051848Y031367D01*
X051781Y031433D01*
X051648D01*
X051581Y031500D01*
X051648Y031567D01*
X051848D01*
X051981Y031300D02*
X052114D01*
X052048D01*
Y031567D01*
X051981D01*
X052381Y031300D02*
X052514D01*
X052581Y031367D01*
Y031500D01*
X052514Y031567D01*
X052381D01*
X052314Y031500D01*
Y031367D01*
X052381Y031300D01*
X052714D02*
Y031567D01*
X052914D01*
X052981Y031500D01*
Y031300D01*
X053514Y031500D02*
X053781D01*
X054314Y031300D02*
X054514D01*
X054580Y031367D01*
X054514Y031433D01*
X054380D01*
X054314Y031500D01*
X054380Y031567D01*
X054580D01*
X054780Y031300D02*
X054914D01*
X054980Y031367D01*
Y031500D01*
X054914Y031567D01*
X054780D01*
X054714Y031500D01*
Y031367D01*
X054780Y031300D01*
X055380Y031567D02*
X055180D01*
X055113Y031500D01*
Y031367D01*
X055180Y031300D01*
X055380D01*
X055513D02*
Y031700D01*
Y031433D02*
X055713Y031567D01*
X055513Y031433D02*
X055713Y031300D01*
X056113D02*
X055980D01*
X055913Y031367D01*
Y031500D01*
X055980Y031567D01*
X056113D01*
X056180Y031500D01*
Y031433D01*
X055913D01*
X056380Y031633D02*
Y031567D01*
X056313D01*
X056446D01*
X056380D01*
Y031367D01*
X056446Y031300D01*
D24*
X044483Y024621D02*
Y024779D01*
X044917Y024621D02*
Y024779D01*
D25*
X040633Y030367D02*
X040700D01*
X040767Y030433D01*
Y030767D01*
X040567D01*
X040500Y030700D01*
Y030567D01*
X040567Y030500D01*
X040767D01*
X040900D02*
Y030767D01*
X041100D01*
X041166Y030700D01*
Y030500D01*
X041566Y030900D02*
Y030500D01*
X041366D01*
X041300Y030567D01*
Y030700D01*
X041366Y030767D01*
X041566D01*
X041650Y032950D02*
X041850D01*
X041917Y033017D01*
X041850Y033083D01*
X041717D01*
X041650Y033150D01*
X041717Y033217D01*
X041917D01*
X042316D02*
X042117D01*
X042050Y033150D01*
Y033017D01*
X042117Y032950D01*
X042316D01*
X042450D02*
X042583D01*
X042516D01*
Y033350D01*
X042450D01*
X040400Y032950D02*
X040600D01*
X040667Y033017D01*
X040600Y033083D01*
X040467D01*
X040400Y033150D01*
X040467Y033217D01*
X040667D01*
X041066Y033350D02*
Y032950D01*
X040867D01*
X040800Y033017D01*
Y033150D01*
X040867Y033217D01*
X041066D01*
X041266D02*
X041400D01*
X041466Y033150D01*
Y032950D01*
X041266D01*
X041200Y033017D01*
X041266Y033083D01*
X041466D01*
M02*
