%FSAX24Y24*%
%MOIN*%
G70*
G01*
G75*
G04 Layer_Physical_Order=1*
G04 Layer_Color=255*
%ADD10R,0.0787X0.0197*%
%ADD11R,0.0354X0.0787*%
%ADD12R,0.0512X0.0433*%
%ADD13C,0.0200*%
%ADD14C,0.0100*%
%ADD15C,0.0551*%
%ADD16R,0.0787X0.0787*%
%ADD17C,0.0610*%
%ADD18C,0.0709*%
%ADD19R,0.0639X0.0639*%
%ADD20R,0.0866X0.1181*%
%ADD21C,0.1260*%
%ADD22C,0.0300*%
%ADD23C,0.0500*%
G36*
X042831Y030971D02*
X042937Y030927D01*
X043050Y030912D01*
X043163Y030927D01*
X043250Y030963D01*
X043467Y030745D01*
Y028497D01*
X043420Y028481D01*
X043360Y028560D01*
X043269Y028629D01*
X043163Y028673D01*
X043050Y028688D01*
X042937Y028673D01*
X042850Y028637D01*
X042698Y028789D01*
Y031016D01*
X042743Y031038D01*
X042831Y030971D01*
D02*
G37*
G36*
X053067Y029995D02*
Y028405D01*
X052366Y027703D01*
X050870D01*
X050851Y027750D01*
X051900Y028798D01*
X051946Y028779D01*
Y028406D01*
X052340D01*
Y028900D01*
Y029394D01*
X052215D01*
X052196Y029440D01*
X052544Y029788D01*
X052572Y029831D01*
X052583Y029881D01*
Y030415D01*
X052629Y030434D01*
X053067Y029995D01*
D02*
G37*
G36*
X049316Y028358D02*
Y028085D01*
X049316D01*
Y028049D01*
X048826D01*
X048822Y028086D01*
X048788Y028166D01*
X048735Y028235D01*
X048666Y028288D01*
X048586Y028322D01*
X048500Y028333D01*
X048414Y028322D01*
X048334Y028288D01*
X048265Y028235D01*
X048212Y028166D01*
X048178Y028086D01*
X048167Y028000D01*
X048178Y027914D01*
X048212Y027834D01*
X048265Y027765D01*
X048334Y027712D01*
X048414Y027678D01*
X048500Y027667D01*
X048586Y027678D01*
X048666Y027712D01*
X048735Y027765D01*
X048750Y027784D01*
X048951D01*
Y027734D01*
X048900Y027724D01*
X048857Y027695D01*
X048770Y027607D01*
X048736Y027622D01*
X048650Y027633D01*
X048564Y027622D01*
X048484Y027588D01*
X048415Y027535D01*
X048362Y027466D01*
X048328Y027386D01*
X048317Y027300D01*
X048328Y027214D01*
X048362Y027134D01*
X048415Y027065D01*
X048484Y027012D01*
X048564Y026978D01*
X048650Y026967D01*
X048736Y026978D01*
X048816Y027012D01*
X048885Y027065D01*
X048938Y027134D01*
X048972Y027214D01*
X048983Y027300D01*
X048972Y027386D01*
X048957Y027420D01*
X049006Y027469D01*
X049316D01*
Y027413D01*
Y027098D01*
Y026783D01*
Y026474D01*
X048664D01*
X048557Y026580D01*
X048572Y026614D01*
X048583Y026700D01*
X048572Y026786D01*
X048538Y026866D01*
X048485Y026935D01*
X048416Y026988D01*
X048336Y027022D01*
X048250Y027033D01*
X048164Y027022D01*
X048084Y026988D01*
X048015Y026935D01*
X047962Y026866D01*
X047914Y026886D01*
Y028516D01*
X049316D01*
Y028358D01*
D02*
G37*
G36*
X040449Y031090D02*
X040472Y031056D01*
X040917Y030610D01*
Y028665D01*
X040831Y028629D01*
X040740Y028560D01*
X040714Y028526D01*
X040667Y028542D01*
Y028734D01*
X040657Y028785D01*
X040628Y028828D01*
X040183Y029274D01*
Y030935D01*
X040269Y030971D01*
X040360Y031040D01*
X040398Y031090D01*
X040406Y031091D01*
X040449Y031090D01*
D02*
G37*
G36*
X042433Y031058D02*
Y028805D01*
X042387Y028785D01*
X042183Y028990D01*
Y030935D01*
X042269Y030971D01*
X042360Y031040D01*
X042386Y031074D01*
X042433Y031058D01*
D02*
G37*
G36*
X041831Y030971D02*
X041917Y030935D01*
Y028935D01*
X041928Y028884D01*
X041956Y028841D01*
X042063Y028735D01*
X042046Y028688D01*
X041937Y028673D01*
X041888Y028653D01*
X041847Y028681D01*
Y028766D01*
X041837Y028816D01*
X041808Y028859D01*
X041698Y028969D01*
Y031016D01*
X041743Y031038D01*
X041831Y030971D01*
D02*
G37*
G36*
X039831D02*
X039917Y030935D01*
Y029219D01*
X039928Y029168D01*
X039956Y029125D01*
X040402Y028679D01*
Y028584D01*
X040357Y028562D01*
X040269Y028629D01*
X040163Y028673D01*
X040050Y028688D01*
X039937Y028673D01*
X039850Y028637D01*
X039698Y028789D01*
Y031016D01*
X039743Y031038D01*
X039831Y030971D01*
D02*
G37*
G36*
X044524Y026901D02*
X044528Y026864D01*
X044562Y026784D01*
X044615Y026715D01*
X044684Y026662D01*
X044720Y026647D01*
X044730Y026598D01*
X043786Y025654D01*
X043278D01*
X043259Y025700D01*
X044476Y026917D01*
X044524Y026901D01*
D02*
G37*
G36*
X046087Y025995D02*
Y025680D01*
X047006D01*
X047025Y025634D01*
X046524Y025134D01*
X045982D01*
X045966Y025181D01*
X045968Y025182D01*
X046028Y025261D01*
X046065Y025350D01*
X045335D01*
X045372Y025261D01*
X045432Y025182D01*
X045434Y025181D01*
X045418Y025134D01*
X045036D01*
Y025371D01*
X044483D01*
X044464Y025417D01*
X045048Y026000D01*
X046087D01*
Y025995D01*
D02*
G37*
G36*
X044347Y025258D02*
X044352Y025209D01*
X044344Y025204D01*
X043949Y024809D01*
X042517D01*
Y025004D01*
X042520Y025006D01*
X043978D01*
X044037Y025018D01*
X044048Y025020D01*
X044108Y025060D01*
X044318Y025270D01*
X044347Y025258D01*
D02*
G37*
G36*
X047546Y026156D02*
X047443Y026052D01*
X047035D01*
Y026310D01*
Y026625D01*
Y026630D01*
X047546D01*
Y026156D01*
D02*
G37*
G36*
Y027942D02*
X047035D01*
Y028200D01*
Y028520D01*
X047546D01*
Y027942D01*
D02*
G37*
G36*
X046087Y027570D02*
Y027514D01*
X046038Y027505D01*
X046028Y027529D01*
X045968Y027608D01*
X045889Y027668D01*
X045800Y027705D01*
Y027340D01*
X045700D01*
Y027240D01*
X045335D01*
X045372Y027150D01*
X045401Y027113D01*
X045379Y027068D01*
X045158D01*
X045138Y027116D01*
X045085Y027185D01*
X045016Y027238D01*
X044936Y027272D01*
X044899Y027276D01*
X044883Y027324D01*
X045450Y027890D01*
X046087D01*
Y027570D01*
D02*
G37*
G36*
X062300Y033548D02*
Y024000D01*
X060814D01*
Y024046D01*
X060814D01*
Y024440D01*
X059826D01*
Y024046D01*
X059826D01*
Y024035D01*
X059791Y024000D01*
X056874D01*
Y024046D01*
X056874D01*
Y024440D01*
X055886D01*
Y024046D01*
X055886D01*
Y024035D01*
X055851Y024000D01*
X052934D01*
Y024046D01*
X052934D01*
Y024440D01*
X051946D01*
Y024046D01*
X051946D01*
Y024035D01*
X051911Y024000D01*
X051824D01*
Y024046D01*
X051824D01*
Y024440D01*
X050836D01*
Y024046D01*
X050836D01*
Y024035D01*
X050801Y024000D01*
X049974D01*
Y024046D01*
X049974D01*
Y024440D01*
X049480D01*
Y024540D01*
X049380D01*
Y025034D01*
X048600D01*
Y024540D01*
X048400D01*
Y025034D01*
X048230D01*
X048227Y025084D01*
X048276Y025090D01*
X048369Y025129D01*
X048450Y025191D01*
X048512Y025271D01*
X048550Y025365D01*
X048564Y025465D01*
X048550Y025566D01*
X048512Y025659D01*
X048450Y025740D01*
X048377Y025796D01*
X048393Y025843D01*
X049316D01*
Y025838D01*
X050263D01*
Y026153D01*
Y026468D01*
Y026542D01*
X050294Y026563D01*
X050990Y027258D01*
X051946D01*
Y026880D01*
X052934D01*
Y027274D01*
X052631D01*
X052612Y027320D01*
X053494Y028202D01*
X053522Y028245D01*
X053533Y028295D01*
Y030105D01*
X053522Y030155D01*
X053494Y030198D01*
X052913Y030779D01*
X052904Y030793D01*
X050193Y033504D01*
X050150Y033532D01*
X050099Y033543D01*
X042171D01*
X042120Y033532D01*
X042077Y033504D01*
X041606Y033033D01*
X040600D01*
X040549Y033022D01*
X040506Y032994D01*
X040250Y032737D01*
X040163Y032773D01*
X040050Y032788D01*
X039937Y032773D01*
X039831Y032729D01*
X039740Y032660D01*
X039671Y032569D01*
X039627Y032463D01*
X039612Y032350D01*
X039627Y032237D01*
X039663Y032150D01*
X039472Y031959D01*
X039443Y031916D01*
X039433Y031866D01*
Y031750D01*
X038733D01*
Y031845D01*
X038850Y031963D01*
X038937Y031927D01*
X039050Y031912D01*
X039163Y031927D01*
X039269Y031971D01*
X039360Y032040D01*
X039429Y032131D01*
X039473Y032237D01*
X039488Y032350D01*
X039473Y032463D01*
X039429Y032569D01*
X039360Y032660D01*
X039269Y032729D01*
X039163Y032773D01*
X039050Y032788D01*
X038937Y032773D01*
X038831Y032729D01*
X038740Y032660D01*
X038671Y032569D01*
X038627Y032463D01*
X038612Y032350D01*
X038627Y032237D01*
X038663Y032150D01*
X038507Y031994D01*
X038478Y031951D01*
X038468Y031900D01*
Y030976D01*
X038478Y030926D01*
X038507Y030883D01*
X038917Y030472D01*
Y028665D01*
X038831Y028629D01*
X038740Y028560D01*
X038671Y028469D01*
X038627Y028363D01*
X038612Y028250D01*
X038627Y028137D01*
X038671Y028031D01*
X038740Y027940D01*
X038831Y027871D01*
X038937Y027827D01*
X039050Y027812D01*
X039163Y027827D01*
X039269Y027871D01*
X039357Y027938D01*
X039402Y027916D01*
Y027789D01*
X039262Y027650D01*
X038650D01*
Y026850D01*
X039450D01*
Y027462D01*
X039628Y027641D01*
X039657Y027684D01*
X039667Y027734D01*
Y027958D01*
X039714Y027974D01*
X039740Y027940D01*
X039831Y027871D01*
X039937Y027827D01*
X040046Y027812D01*
X040063Y027765D01*
X039976Y027678D01*
X039937Y027673D01*
X039831Y027629D01*
X039740Y027560D01*
X039671Y027469D01*
X039627Y027363D01*
X039612Y027250D01*
X039627Y027137D01*
X039671Y027031D01*
X039740Y026940D01*
X039831Y026871D01*
X039937Y026827D01*
X040050Y026812D01*
X040163Y026827D01*
X040269Y026871D01*
X040360Y026940D01*
X040429Y027031D01*
X040473Y027137D01*
X040488Y027250D01*
X040473Y027363D01*
X040429Y027469D01*
X040360Y027560D01*
X040318Y027592D01*
X040314Y027642D01*
X040628Y027956D01*
X040651Y027990D01*
X040694Y027991D01*
X040702Y027990D01*
X040740Y027940D01*
X040831Y027871D01*
X040937Y027827D01*
X041046Y027812D01*
X041063Y027765D01*
X040976Y027678D01*
X040937Y027673D01*
X040831Y027629D01*
X040740Y027560D01*
X040671Y027469D01*
X040627Y027363D01*
X040612Y027250D01*
X040627Y027137D01*
X040642Y027101D01*
X039130Y025590D01*
X039090Y025530D01*
X039088Y025518D01*
X039076Y025460D01*
Y025099D01*
X039003D01*
Y024151D01*
X039076D01*
Y024040D01*
X039088Y023982D01*
X039090Y023970D01*
X039130Y023910D01*
X039370Y023670D01*
X039430Y023630D01*
X039441Y023628D01*
X039500Y023616D01*
X041950D01*
X042009Y023628D01*
X042020Y023630D01*
X042080Y023670D01*
X042390Y023980D01*
X042429Y024040D01*
X042432Y024051D01*
X042443Y024110D01*
Y024151D01*
X042517D01*
Y024442D01*
X044025D01*
X044084Y024453D01*
X044095Y024456D01*
X044155Y024495D01*
X044298Y024638D01*
X044344Y024619D01*
Y024426D01*
X044600D01*
Y024643D01*
X044367D01*
X044348Y024689D01*
X044437Y024777D01*
X044769D01*
X044824Y024766D01*
X046600D01*
X046659Y024778D01*
X046670Y024780D01*
X046730Y024820D01*
X047649Y025739D01*
X047649Y025739D01*
X047752Y025843D01*
X047957D01*
X047973Y025796D01*
X047901Y025740D01*
X047839Y025659D01*
X047800Y025566D01*
X047787Y025465D01*
X047800Y025365D01*
X047839Y025271D01*
X047901Y025191D01*
X047981Y025129D01*
X048075Y025090D01*
X048123Y025084D01*
X048120Y025034D01*
X047620D01*
Y024540D01*
X047520D01*
Y024440D01*
X047026D01*
Y024046D01*
X047026D01*
Y024035D01*
X046991Y024000D01*
X045065D01*
X045056Y024009D01*
X045056Y024035D01*
X045056Y024035D01*
X045056D01*
Y024226D01*
X044344D01*
Y024035D01*
X044344Y024035D01*
X044344D01*
X044344Y024009D01*
X044335Y024000D01*
X044050D01*
Y020302D01*
X037002D01*
X036996Y020296D01*
X036950Y020315D01*
Y033600D01*
X062248D01*
X062300Y033548D01*
D02*
G37*
G36*
X040819Y032720D02*
X040740Y032660D01*
X040671Y032569D01*
X040627Y032463D01*
X040612Y032350D01*
X040627Y032237D01*
X040671Y032131D01*
X040672Y032129D01*
X040472Y031928D01*
X040443Y031885D01*
X040433Y031834D01*
Y031642D01*
X040386Y031626D01*
X040360Y031660D01*
X040269Y031729D01*
X040163Y031773D01*
X040050Y031788D01*
X039937Y031773D01*
X039831Y031729D01*
X039743Y031662D01*
X039698Y031684D01*
Y031811D01*
X039850Y031963D01*
X039937Y031927D01*
X040050Y031912D01*
X040163Y031927D01*
X040269Y031971D01*
X040360Y032040D01*
X040429Y032131D01*
X040473Y032237D01*
X040488Y032350D01*
X040473Y032463D01*
X040437Y032550D01*
X040655Y032767D01*
X040803D01*
X040819Y032720D01*
D02*
G37*
G36*
X051773Y030690D02*
X051754Y030644D01*
X051554D01*
Y030150D01*
Y029656D01*
X051718D01*
X051737Y029610D01*
X051576Y029450D01*
X051548Y029407D01*
X051537Y029356D01*
Y029156D01*
X050745Y028364D01*
X050263D01*
Y028714D01*
X050263D01*
Y029029D01*
X049911D01*
X049910Y029031D01*
X049839Y029045D01*
X049769Y029031D01*
X049767Y029029D01*
X049316D01*
Y028884D01*
X048382D01*
X048366Y028931D01*
X048430Y028980D01*
X048492Y029060D01*
X048531Y029154D01*
X048544Y029255D01*
X048531Y029355D01*
X048492Y029449D01*
X048430Y029529D01*
X048350Y029591D01*
X048256Y029630D01*
X048156Y029643D01*
X048055Y029630D01*
X048039Y029667D01*
X048039D01*
X048036Y029675D01*
D01*
X048014Y029729D01*
Y030050D01*
X047620D01*
Y029656D01*
X047991D01*
X047992Y029653D01*
D01*
X048001Y029607D01*
X047961Y029591D01*
X047881Y029529D01*
X047819Y029449D01*
X047780Y029355D01*
X047767Y029255D01*
X047780Y029154D01*
X047819Y029060D01*
X047881Y028980D01*
X047945Y028931D01*
X047929Y028884D01*
X047700D01*
X047682Y028880D01*
X047646Y028887D01*
X046611D01*
X046541Y028873D01*
X046539Y028872D01*
X046087D01*
Y028572D01*
X045289D01*
X045218Y028558D01*
X045199Y028545D01*
X045159Y028518D01*
X044438Y027798D01*
X044426Y027790D01*
X044010Y027374D01*
X044002Y027362D01*
X042924Y026284D01*
X040850D01*
X040791Y026272D01*
X040780Y026270D01*
X040720Y026230D01*
X039630Y025140D01*
X039603Y025099D01*
X039443D01*
Y025384D01*
X040901Y026842D01*
X040937Y026827D01*
X041050Y026812D01*
X041163Y026827D01*
X041269Y026871D01*
X041360Y026940D01*
X041429Y027031D01*
X041473Y027137D01*
X041488Y027250D01*
X041473Y027363D01*
X041429Y027469D01*
X041360Y027560D01*
X041318Y027592D01*
X041314Y027642D01*
X041628Y027956D01*
X041651Y027990D01*
X041694Y027991D01*
X041702Y027990D01*
X041740Y027940D01*
X041831Y027871D01*
X041937Y027827D01*
X042050Y027812D01*
X042163Y027827D01*
X042269Y027871D01*
X042357Y027938D01*
X042402Y027916D01*
Y027789D01*
X042250Y027637D01*
X042163Y027673D01*
X042050Y027688D01*
X041937Y027673D01*
X041831Y027629D01*
X041740Y027560D01*
X041671Y027469D01*
X041627Y027363D01*
X041612Y027250D01*
X041627Y027137D01*
X041671Y027031D01*
X041740Y026940D01*
X041831Y026871D01*
X041937Y026827D01*
X042050Y026812D01*
X042163Y026827D01*
X042269Y026871D01*
X042360Y026940D01*
X042429Y027031D01*
X042473Y027137D01*
X042488Y027250D01*
X042473Y027363D01*
X042437Y027450D01*
X042628Y027641D01*
X042657Y027684D01*
X042667Y027734D01*
Y027958D01*
X042714Y027974D01*
X042740Y027940D01*
X042831Y027871D01*
X042937Y027827D01*
X043050Y027812D01*
X043163Y027827D01*
X043269Y027871D01*
X043360Y027940D01*
X043420Y028019D01*
X043467Y028003D01*
Y027855D01*
X043250Y027637D01*
X043163Y027673D01*
X043050Y027688D01*
X042937Y027673D01*
X042831Y027629D01*
X042740Y027560D01*
X042671Y027469D01*
X042627Y027363D01*
X042612Y027250D01*
X042627Y027137D01*
X042671Y027031D01*
X042740Y026940D01*
X042831Y026871D01*
X042937Y026827D01*
X043050Y026812D01*
X043163Y026827D01*
X043269Y026871D01*
X043360Y026940D01*
X043429Y027031D01*
X043473Y027137D01*
X043488Y027250D01*
X043473Y027363D01*
X043437Y027450D01*
X043694Y027706D01*
X043722Y027749D01*
X043733Y027800D01*
Y030800D01*
X043722Y030851D01*
X043694Y030894D01*
X043437Y031150D01*
X043473Y031237D01*
X043488Y031350D01*
X043473Y031463D01*
X043429Y031569D01*
X043360Y031660D01*
X043269Y031729D01*
X043163Y031773D01*
X043050Y031788D01*
X042978Y031779D01*
X042952Y031821D01*
X042957Y031830D01*
X042967Y031880D01*
Y031885D01*
X043005Y031918D01*
X043050Y031912D01*
X043163Y031927D01*
X043269Y031971D01*
X043360Y032040D01*
X043429Y032131D01*
X043473Y032237D01*
X043488Y032350D01*
X043473Y032463D01*
X043429Y032569D01*
X043362Y032657D01*
X043384Y032702D01*
X049761D01*
X051773Y030690D01*
D02*
G37*
%LPC*%
G36*
X045600Y025815D02*
X045511Y025778D01*
X045432Y025718D01*
X045372Y025639D01*
X045335Y025550D01*
X045600D01*
Y025815D01*
D02*
G37*
G36*
X037350Y025984D02*
X037270Y025930D01*
X037216Y025850D01*
X037350D01*
Y025984D01*
D02*
G37*
G36*
X037600Y033484D02*
Y033350D01*
X037734D01*
X037680Y033430D01*
X037600Y033484D01*
D02*
G37*
G36*
X045800Y025815D02*
Y025550D01*
X046065D01*
X046028Y025639D01*
X045968Y025718D01*
X045889Y025778D01*
X045800Y025815D01*
D02*
G37*
G36*
X053900Y033484D02*
Y033350D01*
X054034D01*
X053980Y033430D01*
X053900Y033484D01*
D02*
G37*
G36*
X060814Y025034D02*
X060420D01*
Y024640D01*
X060814D01*
Y025034D01*
D02*
G37*
G36*
X060220D02*
X059826D01*
Y024640D01*
X060220D01*
Y025034D01*
D02*
G37*
G36*
X037684Y025650D02*
X037550D01*
Y025516D01*
X037630Y025570D01*
X037684Y025650D01*
D02*
G37*
G36*
X037350D02*
X037216D01*
X037270Y025570D01*
X037350Y025516D01*
Y025650D01*
D02*
G37*
G36*
X053700Y033484D02*
X053620Y033430D01*
X053566Y033350D01*
X053700D01*
Y033484D01*
D02*
G37*
G36*
X037550Y025984D02*
Y025850D01*
X037684D01*
X037630Y025930D01*
X037550Y025984D01*
D02*
G37*
G36*
X045600Y027705D02*
X045511Y027668D01*
X045432Y027608D01*
X045372Y027529D01*
X045335Y027440D01*
X045600D01*
Y027705D01*
D02*
G37*
G36*
X060814Y027820D02*
X060420D01*
Y027426D01*
X060814D01*
Y027820D01*
D02*
G37*
G36*
X061550Y033334D02*
X061470Y033280D01*
X061416Y033200D01*
X061550D01*
Y033334D01*
D02*
G37*
G36*
X060220Y028414D02*
X059826D01*
Y028020D01*
X060220D01*
Y028414D01*
D02*
G37*
G36*
X054034Y033150D02*
X053900D01*
Y033016D01*
X053980Y033070D01*
X054034Y033150D01*
D02*
G37*
G36*
X052340Y026680D02*
X051946D01*
Y026286D01*
X052340D01*
Y026680D01*
D02*
G37*
G36*
X037400Y033484D02*
X037320Y033430D01*
X037266Y033350D01*
X037400D01*
Y033484D01*
D02*
G37*
G36*
X052934Y026680D02*
X052540D01*
Y026286D01*
X052934D01*
Y026680D01*
D02*
G37*
G36*
X060220Y027820D02*
X059826D01*
Y027426D01*
X060220D01*
Y027820D01*
D02*
G37*
G36*
X061750Y033334D02*
Y033200D01*
X061884D01*
X061830Y033280D01*
X061750Y033334D01*
D02*
G37*
G36*
X037600Y021084D02*
Y020950D01*
X037734D01*
X037680Y021030D01*
X037600Y021084D01*
D02*
G37*
G36*
X037400D02*
X037320Y021030D01*
X037266Y020950D01*
X037400D01*
Y021084D01*
D02*
G37*
G36*
X040450Y021134D02*
X040370Y021080D01*
X040316Y021000D01*
X040450D01*
Y021134D01*
D02*
G37*
G36*
X043450Y021184D02*
X043370Y021130D01*
X043316Y021050D01*
X043450D01*
Y021184D01*
D02*
G37*
G36*
X040650Y021134D02*
Y021000D01*
X040784D01*
X040730Y021080D01*
X040650Y021134D01*
D02*
G37*
G36*
X043784Y020850D02*
X043650D01*
Y020716D01*
X043730Y020770D01*
X043784Y020850D01*
D02*
G37*
G36*
X037734Y020750D02*
X037600D01*
Y020616D01*
X037680Y020670D01*
X037734Y020750D01*
D02*
G37*
G36*
X037400D02*
X037266D01*
X037320Y020670D01*
X037400Y020616D01*
Y020750D01*
D02*
G37*
G36*
X040450Y020800D02*
X040316D01*
X040370Y020720D01*
X040450Y020666D01*
Y020800D01*
D02*
G37*
G36*
X043450Y020850D02*
X043316D01*
X043370Y020770D01*
X043450Y020716D01*
Y020850D01*
D02*
G37*
G36*
X040784Y020800D02*
X040650D01*
Y020666D01*
X040730Y020720D01*
X040784Y020800D01*
D02*
G37*
G36*
X043650Y021184D02*
Y021050D01*
X043784D01*
X043730Y021130D01*
X043650Y021184D01*
D02*
G37*
G36*
X052340Y025034D02*
X051946D01*
Y024640D01*
X052340D01*
Y025034D01*
D02*
G37*
G36*
X051824D02*
X051430D01*
Y024640D01*
X051824D01*
Y025034D01*
D02*
G37*
G36*
X052934D02*
X052540D01*
Y024640D01*
X052934D01*
Y025034D01*
D02*
G37*
G36*
X056874D02*
X056480D01*
Y024640D01*
X056874D01*
Y025034D01*
D02*
G37*
G36*
X056280D02*
X055886D01*
Y024640D01*
X056280D01*
Y025034D01*
D02*
G37*
G36*
X051230D02*
X050836D01*
Y024640D01*
X051230D01*
Y025034D01*
D02*
G37*
G36*
X043783Y024371D02*
X042757D01*
Y023029D01*
X043783D01*
Y024371D01*
D02*
G37*
G36*
X038763D02*
X037737D01*
Y023029D01*
X038763D01*
Y024371D01*
D02*
G37*
G36*
X045056Y024643D02*
X044800D01*
Y024426D01*
X045056D01*
Y024643D01*
D02*
G37*
G36*
X049974Y025034D02*
X049580D01*
Y024640D01*
X049974D01*
Y025034D01*
D02*
G37*
G36*
X047420D02*
X047026D01*
Y024640D01*
X047420D01*
Y025034D01*
D02*
G37*
G36*
X060814Y028414D02*
X060420D01*
Y028020D01*
X060814D01*
Y028414D01*
D02*
G37*
G36*
X054310Y030644D02*
X053916D01*
Y030250D01*
X054310D01*
Y030644D01*
D02*
G37*
G36*
X049380D02*
X048986D01*
Y030250D01*
X049380D01*
Y030644D01*
D02*
G37*
G36*
X054904D02*
X054510D01*
Y030250D01*
X054904D01*
Y030644D01*
D02*
G37*
G36*
X058844D02*
X058450D01*
Y030250D01*
X058844D01*
Y030644D01*
D02*
G37*
G36*
X058250D02*
X057856D01*
Y030250D01*
X058250D01*
Y030644D01*
D02*
G37*
G36*
X048014D02*
X047620D01*
Y030250D01*
X048014D01*
Y030644D01*
D02*
G37*
G36*
X037500Y030084D02*
Y029950D01*
X037634D01*
X037580Y030030D01*
X037500Y030084D01*
D02*
G37*
G36*
X037300D02*
X037220Y030030D01*
X037166Y029950D01*
X037300D01*
Y030084D01*
D02*
G37*
G36*
X060221Y030486D02*
X060131Y030449D01*
X060053Y030389D01*
X059993Y030310D01*
X059956Y030221D01*
X060221D01*
Y030486D01*
D02*
G37*
G36*
X046430Y030644D02*
X046036D01*
Y030250D01*
X046430D01*
Y030644D01*
D02*
G37*
G36*
X060421Y030486D02*
Y030221D01*
X060686D01*
X060649Y030310D01*
X060589Y030389D01*
X060510Y030449D01*
X060421Y030486D01*
D02*
G37*
G36*
X044550Y031584D02*
Y031450D01*
X044684D01*
X044630Y031530D01*
X044550Y031584D01*
D02*
G37*
G36*
X044350D02*
X044270Y031530D01*
X044216Y031450D01*
X044350D01*
Y031584D01*
D02*
G37*
G36*
X056650Y033113D02*
X056511Y033100D01*
X056377Y033059D01*
X056254Y032993D01*
X056146Y032904D01*
X056057Y032796D01*
X055991Y032673D01*
X055950Y032539D01*
X055937Y032400D01*
X055950Y032261D01*
X055991Y032127D01*
X056057Y032004D01*
X056146Y031896D01*
X056254Y031807D01*
X056377Y031741D01*
X056511Y031700D01*
X056650Y031687D01*
X056789Y031700D01*
X056923Y031741D01*
X057046Y031807D01*
X057154Y031896D01*
X057243Y032004D01*
X057309Y032127D01*
X057350Y032261D01*
X057363Y032400D01*
X057350Y032539D01*
X057309Y032673D01*
X057243Y032796D01*
X057154Y032904D01*
X057046Y032993D01*
X056923Y033059D01*
X056789Y033100D01*
X056650Y033113D01*
D02*
G37*
G36*
X047450Y031834D02*
Y031700D01*
X047584D01*
X047530Y031780D01*
X047450Y031834D01*
D02*
G37*
G36*
X047250D02*
X047170Y031780D01*
X047116Y031700D01*
X047250D01*
Y031834D01*
D02*
G37*
G36*
X047584Y031500D02*
X047450D01*
Y031366D01*
X047530Y031420D01*
X047584Y031500D01*
D02*
G37*
G36*
X050009Y030644D02*
Y030644D01*
X049976Y030644D01*
X049975D01*
X049974D01*
X049941Y030644D01*
X049941Y030644D01*
Y030644D01*
X049580D01*
Y030150D01*
Y029656D01*
X049941D01*
X049941Y029656D01*
Y029656D01*
X049974Y029656D01*
X049975D01*
X049976D01*
X050009Y029656D01*
X050009Y029656D01*
Y029656D01*
X050370D01*
Y030150D01*
Y030644D01*
X050009D01*
X050009Y030644D01*
D02*
G37*
G36*
X047059D02*
Y030644D01*
X047026Y030644D01*
X047025D01*
X047024D01*
X046991Y030644D01*
X046991Y030644D01*
Y030644D01*
X046630D01*
Y030150D01*
Y029656D01*
X046991D01*
X046991Y029656D01*
Y029656D01*
X047024Y029656D01*
X047025D01*
X047026D01*
X047059Y029656D01*
X047059Y029656D01*
Y029656D01*
X047420D01*
Y030150D01*
Y030644D01*
X047059D01*
X047059Y030644D01*
D02*
G37*
G36*
X044350Y031250D02*
X044216D01*
X044270Y031170D01*
X044350Y031116D01*
Y031250D01*
D02*
G37*
G36*
X047250Y031500D02*
X047116D01*
X047170Y031420D01*
X047250Y031366D01*
Y031500D01*
D02*
G37*
G36*
X044684Y031250D02*
X044550D01*
Y031116D01*
X044630Y031170D01*
X044684Y031250D01*
D02*
G37*
G36*
X046065Y029130D02*
X045800D01*
Y028865D01*
X045889Y028902D01*
X045968Y028962D01*
X046028Y029041D01*
X046065Y029130D01*
D02*
G37*
G36*
X045600D02*
X045335D01*
X045372Y029041D01*
X045432Y028962D01*
X045511Y028902D01*
X045600Y028865D01*
Y029130D01*
D02*
G37*
G36*
X052934Y029394D02*
X052540D01*
Y029000D01*
X052934D01*
Y029394D01*
D02*
G37*
G36*
X045800Y029595D02*
Y029330D01*
X046065D01*
X046028Y029419D01*
X045968Y029498D01*
X045889Y029558D01*
X045800Y029595D01*
D02*
G37*
G36*
X045600D02*
X045511Y029558D01*
X045432Y029498D01*
X045372Y029419D01*
X045335Y029330D01*
X045600D01*
Y029595D01*
D02*
G37*
G36*
X061550Y033000D02*
X061416D01*
X061470Y032920D01*
X061550Y032866D01*
Y033000D01*
D02*
G37*
G36*
X037734Y033150D02*
X037600D01*
Y033016D01*
X037680Y033070D01*
X037734Y033150D01*
D02*
G37*
G36*
X053700D02*
X053566D01*
X053620Y033070D01*
X053700Y033016D01*
Y033150D01*
D02*
G37*
G36*
X052934Y028800D02*
X052540D01*
Y028406D01*
X052934D01*
Y028800D01*
D02*
G37*
G36*
X061884Y033000D02*
X061750D01*
Y032866D01*
X061830Y032920D01*
X061884Y033000D01*
D02*
G37*
G36*
X037400Y033150D02*
X037266D01*
X037320Y033070D01*
X037400Y033016D01*
Y033150D01*
D02*
G37*
G36*
X058250Y030050D02*
X057856D01*
Y029656D01*
X058250D01*
Y030050D01*
D02*
G37*
G36*
X054904D02*
X054510D01*
Y029656D01*
X054904D01*
Y030050D01*
D02*
G37*
G36*
X058844D02*
X058450D01*
Y029656D01*
X058844D01*
Y030050D01*
D02*
G37*
G36*
X060686Y030021D02*
X060421D01*
Y029756D01*
X060510Y029793D01*
X060589Y029853D01*
X060649Y029931D01*
X060686Y030021D01*
D02*
G37*
G36*
X060221D02*
X059956D01*
X059993Y029931D01*
X060053Y029853D01*
X060131Y029793D01*
X060221Y029756D01*
Y030021D01*
D02*
G37*
G36*
X054310Y030050D02*
X053916D01*
Y029656D01*
X054310D01*
Y030050D01*
D02*
G37*
G36*
X037634Y029750D02*
X037500D01*
Y029616D01*
X037580Y029670D01*
X037634Y029750D01*
D02*
G37*
G36*
X037300D02*
X037166D01*
X037220Y029670D01*
X037300Y029616D01*
Y029750D01*
D02*
G37*
G36*
X046430Y030050D02*
X046036D01*
Y029656D01*
X046430D01*
Y030050D01*
D02*
G37*
G36*
X051354Y030644D02*
X050570D01*
Y030150D01*
Y029656D01*
X051354D01*
Y030150D01*
Y030644D01*
D02*
G37*
G36*
X049380Y030050D02*
X048986D01*
Y029656D01*
X049380D01*
Y030050D01*
D02*
G37*
%LPD*%
D10*
X049789Y028851D02*
D03*
X049789Y028536D02*
D03*
Y028221D02*
D03*
X049789Y027906D02*
D03*
Y027591D02*
D03*
Y027276D02*
D03*
Y026961D02*
D03*
Y026646D02*
D03*
Y026331D02*
D03*
Y026016D02*
D03*
X046561Y025859D02*
D03*
Y026174D02*
D03*
Y026489D02*
D03*
Y026804D02*
D03*
Y027119D02*
D03*
Y027434D02*
D03*
Y027749D02*
D03*
X046561Y028064D02*
D03*
Y028379D02*
D03*
X046561Y028694D02*
D03*
D11*
X039260Y024625D02*
D03*
X039760D02*
D03*
X040260D02*
D03*
X040760D02*
D03*
X041260D02*
D03*
X041760D02*
D03*
X042260D02*
D03*
D12*
X044700Y024326D02*
D03*
Y025074D02*
D03*
D13*
X047676Y026026D02*
X047730Y026080D01*
X044560Y027660D02*
X045289Y028389D01*
X044556Y027660D02*
X044560D01*
X044140Y027244D02*
X044556Y027660D01*
X044140Y027240D02*
Y027244D01*
X043000Y026100D02*
X044140Y027240D01*
X044420Y027128D02*
X044672Y027380D01*
X044420Y027120D02*
Y027128D01*
X044672Y027380D02*
X044680D01*
X045289Y028389D02*
X046611D01*
X045374Y028074D02*
X046611D01*
X044680Y027380D02*
X045374Y028074D01*
X043050Y025750D02*
X044420Y027120D01*
X042752Y025750D02*
X043050D01*
X046561Y027444D02*
X046611D01*
X047166Y027434D02*
X047300Y027300D01*
Y027250D02*
Y027300D01*
X047646Y028704D02*
X047730Y028620D01*
Y026080D02*
Y028620D01*
X046561Y027434D02*
X047166D01*
X046611Y027759D02*
X047659D01*
X044891Y026499D02*
X046611D01*
X043862Y025470D02*
X044891Y026499D01*
X044972Y026184D02*
X046611D01*
X043978Y025190D02*
X044972Y026184D01*
X046600Y024950D02*
X047519Y025869D01*
X044824Y024950D02*
X046600D01*
X044700Y025074D02*
X044824Y024950D01*
X040850Y026100D02*
X043000D01*
X046611Y028704D02*
X047646D01*
X049696Y028700D02*
X049839Y028557D01*
X047700Y028700D02*
X049696D01*
X047676Y026026D02*
X049839D01*
X047519Y025869D02*
X047676Y026026D01*
X049839Y028557D02*
X049850D01*
X049839D02*
Y028861D01*
Y028546D02*
X049850Y028557D01*
X046611Y026814D02*
X047686D01*
X046611Y025869D02*
X047519D01*
X044474Y025074D02*
X044700D01*
X044025Y024625D02*
X044474Y025074D01*
X042260Y024625D02*
X044025D01*
X042520Y025190D02*
X043978D01*
X042636Y025470D02*
X043862D01*
X039760Y025010D02*
X040850Y026100D01*
X042260Y024110D02*
Y024625D01*
X041950Y023800D02*
X042260Y024110D01*
X040650Y023800D02*
X041950D01*
X039260Y025460D02*
X041050Y027250D01*
X039260Y024625D02*
Y025460D01*
X040760Y023910D02*
Y024625D01*
X040650Y023800D02*
X040760Y023910D01*
X039500Y023800D02*
X040650D01*
X039260Y024040D02*
X039500Y023800D01*
X039260Y024040D02*
Y024625D01*
X041059Y025759D02*
X042744D01*
X040260Y024960D02*
X041059Y025759D01*
X041729Y025479D02*
X042628D01*
X041260Y025010D02*
X041729Y025479D01*
X042008Y025199D02*
X042512D01*
X041760Y024951D02*
X042008Y025199D01*
X039760Y024625D02*
Y025010D01*
X040260Y024625D02*
Y024960D01*
X042744Y025759D02*
X042752Y025750D01*
X042628Y025479D02*
X042636Y025470D01*
X042512Y025199D02*
X042520Y025190D01*
X041760Y024625D02*
Y024951D01*
X041260Y024625D02*
Y025010D01*
X046129Y027119D02*
X046561D01*
X045895Y026884D02*
X046129Y027119D01*
X044916Y026884D02*
X045895D01*
X046561Y027129D02*
X046611D01*
X044850Y026950D02*
X044916Y026884D01*
D14*
X048250Y026700D02*
X048609Y026341D01*
X043600Y027800D02*
Y030800D01*
X043050Y027250D02*
X043600Y027800D01*
X052200Y029886D02*
Y030450D01*
X051670Y029356D02*
X052200Y029886D01*
X052450Y029881D02*
Y030550D01*
X051850Y029281D02*
X052450Y029881D01*
X050200Y027286D02*
X051850Y028936D01*
Y029281D01*
X051670Y029101D02*
Y029356D01*
X050800Y028231D02*
X051670Y029101D01*
X052810Y030695D02*
X053400Y030105D01*
Y028295D02*
Y030105D01*
X053200Y028350D02*
Y030050D01*
X052630Y030620D02*
X053200Y030050D01*
X052630Y030620D02*
Y030625D01*
X042849Y032834D02*
X049816D01*
X049839Y028231D02*
X050800D01*
X049816Y032834D02*
X052200Y030450D01*
X042775Y033014D02*
X049986D01*
X052450Y030550D01*
X042111Y032350D02*
X042775Y033014D01*
X049839Y027286D02*
X050200D01*
X042245Y033230D02*
X050025D01*
X042171Y033410D02*
X050099D01*
X041365Y032350D02*
X042245Y033230D01*
X050025D02*
X052630Y030625D01*
X041660Y032900D02*
X042171Y033410D01*
X050099D02*
X052810Y030699D01*
Y030695D02*
Y030699D01*
X050200Y026971D02*
X050800Y027571D01*
X052421D02*
X053200Y028350D01*
X052495Y027391D02*
X053400Y028295D01*
X050935Y027391D02*
X052495D01*
X050200Y026656D02*
X050935Y027391D01*
X050800Y027571D02*
X052421D01*
X049839Y026656D02*
X050200D01*
X049839Y026971D02*
X050200D01*
X048609Y026341D02*
X049839D01*
X040050Y032350D02*
X040600Y032900D01*
X041660D01*
X042566Y031866D02*
Y032551D01*
X042849Y032834D01*
X042050Y031350D02*
X042566Y031866D01*
X041566D02*
X042050Y032350D01*
X041050D02*
X041365D01*
X042835Y031880D02*
Y032135D01*
X042566Y031611D02*
X042835Y031880D01*
X042050Y032350D02*
X042111D01*
X042835Y032135D02*
X043050Y032350D01*
X048650Y027300D02*
X048951Y027601D01*
X049839D01*
X048500Y028000D02*
X048584Y027916D01*
X049839D01*
X042566Y028734D02*
Y031611D01*
X039566Y031866D02*
X040050Y032350D01*
X039566Y028734D02*
Y031866D01*
X038600Y031900D02*
X039050Y032350D01*
X038600Y030976D02*
Y031900D01*
Y030976D02*
X039050Y030527D01*
X039230Y028755D02*
Y030900D01*
X039050Y031080D02*
X039230Y030900D01*
X039050Y028250D02*
Y030527D01*
X039230Y028755D02*
X039534Y028451D01*
X039050Y031080D02*
Y031350D01*
Y027250D02*
X039534Y027734D01*
Y028451D01*
X039566Y028734D02*
X040050Y028250D01*
Y029219D02*
X040534Y028734D01*
X040050Y029219D02*
Y031350D01*
X040566Y031149D02*
X041050Y030665D01*
X040566Y031149D02*
Y031834D01*
X041050Y032319D01*
X040534Y028049D02*
Y028734D01*
X040050Y027565D02*
X040534Y028049D01*
X040050Y027250D02*
Y027565D01*
X041050Y032319D02*
Y032350D01*
X041230Y028995D02*
Y030866D01*
X041050Y031046D02*
X041230Y030866D01*
X041050Y028250D02*
Y030665D01*
X041230Y028995D02*
X041534Y028691D01*
X041050Y031046D02*
Y031350D01*
X041566Y028914D02*
Y031866D01*
X041714Y028586D02*
Y028766D01*
X041566Y028914D02*
X041714Y028766D01*
X041534Y028049D02*
Y028691D01*
X041714Y028586D02*
X042050Y028250D01*
X041050Y027565D02*
X041534Y028049D01*
X041050Y027250D02*
Y027565D01*
X042050Y028935D02*
X042534Y028451D01*
X042050Y028935D02*
Y031350D01*
X042566Y028734D02*
X043050Y028250D01*
X042534Y027734D02*
Y028451D01*
X042050Y027250D02*
X042534Y027734D01*
X043050Y031350D02*
X043600Y030800D01*
D15*
X045700Y025450D02*
D03*
X060321Y030121D02*
D03*
X045700Y029230D02*
D03*
Y027340D02*
D03*
D16*
X051454Y030150D02*
D03*
X048500Y024540D02*
D03*
X052440D02*
D03*
X056380D02*
D03*
X049480D02*
D03*
X051330D02*
D03*
X060320D02*
D03*
X052440Y026780D02*
D03*
Y028900D02*
D03*
X054410Y030150D02*
D03*
X058350D02*
D03*
X060320Y027920D02*
D03*
X050470Y030150D02*
D03*
X049480D02*
D03*
X047520D02*
D03*
X046530D02*
D03*
X047520Y024540D02*
D03*
D17*
X048175Y025465D02*
D03*
X048156Y029255D02*
D03*
D18*
X039050Y028250D02*
D03*
X040050D02*
D03*
X041050D02*
D03*
X042050D02*
D03*
X043050D02*
D03*
Y027250D02*
D03*
X042050D02*
D03*
X041050D02*
D03*
X040050D02*
D03*
X039050Y032350D02*
D03*
X040050D02*
D03*
X041050D02*
D03*
X042050D02*
D03*
X043050D02*
D03*
Y031350D02*
D03*
X042050D02*
D03*
X041050D02*
D03*
X040050D02*
D03*
D19*
X039050Y027250D02*
D03*
Y031350D02*
D03*
D20*
X038250Y023700D02*
D03*
X043270D02*
D03*
D21*
X056650Y032400D02*
D03*
D22*
X047350Y031600D02*
D03*
X044450Y031350D02*
D03*
X061650Y033100D02*
D03*
X053800Y033250D02*
D03*
X037500D02*
D03*
X037400Y029850D02*
D03*
X037450Y025750D02*
D03*
X037500Y020850D02*
D03*
X040550Y020900D02*
D03*
X043550Y020950D02*
D03*
D23*
X048250Y026700D02*
D03*
X047300Y027250D02*
D03*
X044850Y026950D02*
D03*
X048650Y027300D02*
D03*
X048500Y028000D02*
D03*
M02*
